# Blender v2.81 (sub 16) OBJ File: ''
# www.blender.org
mtllib grasstile.mtl
o Cube
v 1.000000 -1.000000 -1.000000
v 1.000000 -1.000000 1.000000
v -1.000000 -1.000000 -1.000000
v -1.000000 -1.000000 1.000000
v -1.000000 -1.000000 0.000000
v 0.000000 -1.000000 -1.000000
v 1.000000 0.000000 -1.000000
v -1.000000 0.000000 1.000000
v 1.000000 0.000000 1.000000
v -1.000000 0.000000 -1.000000
v 0.000000 -1.000000 1.000000
v 1.000000 -1.000000 0.000000
v 0.000000 0.000000 -1.000000
v 1.000000 0.000000 0.000000
v 0.000000 -1.000000 0.000000
v -1.000000 0.000000 0.000000
v 0.000000 0.000000 1.000000
v 0.000000 1.000000 0.000000
v -1.000000 -1.000000 0.500000
v -0.500000 -1.000000 -1.000000
v 1.000000 -0.500000 -1.000000
v -1.000000 0.500000 1.000000
v 1.000000 -0.500000 1.000000
v -1.000000 -0.500000 -1.000000
v 0.500000 -1.000000 1.000000
v 1.000000 -1.000000 -0.500000
v -1.000000 -1.000000 -0.500000
v 0.500000 -1.000000 -1.000000
v 1.000000 0.500000 -1.000000
v -1.000000 -0.500000 1.000000
v 1.000000 0.500000 1.000000
v -1.000000 0.500000 -1.000000
v -0.500000 -1.000000 1.000000
v 1.000000 -1.000000 0.500000
v 0.500000 0.000000 -1.000000
v -0.500000 0.000000 -1.000000
v 0.000000 -0.500000 -1.000000
v 0.000000 0.500000 -1.000000
v 1.000000 0.000000 0.500000
v 1.000000 0.000000 -0.500000
v 1.000000 -0.500000 0.000000
v 1.000000 0.500000 0.000000
v 0.000000 -1.000000 0.500000
v 0.000000 -1.000000 -0.500000
v -0.500000 -1.000000 0.000000
v 0.500000 -1.000000 0.000000
v -1.000000 0.000000 -0.500000
v -1.000000 0.000000 0.500000
v -1.000000 -0.500000 0.000000
v -1.000000 0.500000 0.000000
v -0.500000 0.000000 1.000000
v 0.500000 0.000000 1.000000
v 0.000000 -0.500000 1.000000
v 0.000000 0.500000 1.000000
v 0.000000 1.000000 0.500000
v 0.000000 1.000000 -0.500000
v 0.500000 1.000000 0.000000
v -0.500000 1.000000 0.000000
v -0.500000 1.000000 -0.500000
v 0.500000 1.000000 -0.500000
v 0.500000 1.000000 0.500000
v 0.500000 0.500000 1.000000
v 0.500000 -0.500000 1.000000
v -0.500000 -0.500000 1.000000
v -1.000000 0.500000 0.500000
v -1.000000 -0.500000 0.500000
v -1.000000 -0.500000 -0.500000
v 0.500000 -1.000000 -0.500000
v -0.500000 -1.000000 -0.500000
v -0.500000 -1.000000 0.500000
v 1.000000 0.500000 -0.500000
v 1.000000 -0.500000 -0.500000
v 1.000000 -0.500000 0.500000
v -0.500000 0.500000 -1.000000
v -0.500000 -0.500000 -1.000000
v 0.500000 -0.500000 -1.000000
v 0.500000 0.500000 -1.000000
v 1.000000 0.500000 0.500000
v 0.500000 -1.000000 0.500000
v -1.000000 0.500000 -0.500000
v -0.500000 0.500000 1.000000
v -0.500000 1.000000 0.500000
v 0.961739 1.000000 -0.961739
v 1.000000 0.961739 -1.000000
v 0.961739 1.000000 0.961739
v 1.000000 0.961739 1.000000
v -0.961739 1.000000 -0.961739
v -1.000000 0.961739 -1.000000
v -0.961739 1.000000 0.961739
v -1.000000 0.961739 1.000000
v 0.000000 1.000000 0.961739
v 0.000000 0.961739 1.000000
v 0.961739 1.000000 0.000000
v 1.000000 0.961739 0.000000
v -0.961739 1.000000 0.000000
v -1.000000 0.961739 0.000000
v 0.000000 1.000000 -0.961739
v 0.000000 0.961739 -1.000000
v -0.500000 0.961739 1.000000
v -0.500000 1.000000 0.961739
v 1.000000 0.961739 0.500000
v 0.961739 1.000000 0.500000
v -1.000000 0.961739 -0.500000
v -0.961739 1.000000 -0.500000
v 0.500000 0.961739 -1.000000
v 0.500000 1.000000 -0.961739
v 0.500000 0.961739 1.000000
v 0.500000 1.000000 0.961739
v 1.000000 0.961739 -0.500000
v 0.961739 1.000000 -0.500000
v -1.000000 0.961739 0.500000
v -0.961739 1.000000 0.500000
v -0.500000 0.961739 -1.000000
v -0.500000 1.000000 -0.961739
vt 0.312500 0.687500
vt 0.375000 0.687500
vt 0.375000 0.750000
vt 0.312500 0.750000
vt 0.437500 0.437500
vt 0.500000 0.437500
vt 0.500000 0.500000
vt 0.437500 0.500000
vt 0.437500 0.312500
vt 0.500000 0.312500
vt 0.500000 0.375000
vt 0.437500 0.375000
vt 0.687500 0.504783
vt 0.750000 0.504783
vt 0.750000 0.562500
vt 0.687500 0.562500
vt 0.437500 0.687500
vt 0.500000 0.687500
vt 0.500000 0.750000
vt 0.437500 0.750000
vt 0.437500 0.562500
vt 0.500000 0.562500
vt 0.500000 0.625000
vt 0.437500 0.625000
vt 0.812500 0.625000
vt 0.870217 0.625000
vt 0.870217 0.687500
vt 0.812500 0.687500
vt 0.187500 0.687500
vt 0.250000 0.687500
vt 0.250000 0.750000
vt 0.187500 0.750000
vt 0.187500 0.562500
vt 0.250000 0.562500
vt 0.250000 0.625000
vt 0.187500 0.625000
vt 0.312500 0.562500
vt 0.375000 0.562500
vt 0.375000 0.625000
vt 0.312500 0.625000
vt 0.437500 0.187500
vt 0.500000 0.187500
vt 0.500000 0.250000
vt 0.437500 0.250000
vt 0.437500 0.062500
vt 0.500000 0.062500
vt 0.500000 0.125000
vt 0.437500 0.125000
vt 0.437500 0.937500
vt 0.500000 0.937500
vt 0.500000 1.000000
vt 0.437500 1.000000
vt 0.437500 0.812500
vt 0.500000 0.812500
vt 0.500000 0.875000
vt 0.437500 0.875000
vt 0.629783 0.562500
vt 0.687500 0.625000
vt 0.629783 0.625000
vt 0.750000 0.687500
vt 0.812500 0.745217
vt 0.750000 0.745217
vt 0.812500 0.562500
vt 0.750000 0.625000
vt 0.562500 0.187500
vt 0.620217 0.187500
vt 0.620217 0.250000
vt 0.562500 0.250000
vt 0.562500 0.437500
vt 0.620217 0.437500
vt 0.620217 0.500000
vt 0.562500 0.500000
vt 0.562500 0.687500
vt 0.620217 0.687500
vt 0.620217 0.750000
vt 0.562500 0.750000
vt 0.687500 0.687500
vt 0.562500 0.812500
vt 0.812500 0.504783
vt 0.870217 0.504783
vt 0.870217 0.562500
vt 0.375000 0.812500
vt 0.375000 0.875000
vt 0.375000 0.937500
vt 0.500000 0.000000
vt 0.562500 0.000000
vt 0.562500 0.062500
vt 0.562500 0.937500
vt 0.620217 0.937500
vt 0.620217 1.000000
vt 0.562500 1.000000
vt 0.375000 0.000000
vt 0.437500 0.000000
vt 0.375000 0.062500
vt 0.375000 0.125000
vt 0.375000 0.187500
vt 0.250000 0.500000
vt 0.312500 0.500000
vt 0.375000 0.500000
vt 0.125000 0.562500
vt 0.125000 0.625000
vt 0.125000 0.500000
vt 0.187500 0.500000
vt 0.125000 0.687500
vt 0.125000 0.750000
vt 0.562500 0.562500
vt 0.629783 0.687500
vt 0.687500 0.745217
vt 0.629783 0.745217
vt 0.562500 0.312500
vt 0.375000 0.250000
vt 0.375000 0.312500
vt 0.375000 0.375000
vt 0.375000 0.437500
vt 0.562500 0.375000
vt 0.620217 0.312500
vt 0.620217 0.375000
vt 0.562500 0.625000
vt 0.620217 0.562500
vt 0.620217 0.625000
vt 0.562500 0.125000
vt 0.620217 0.062500
vt 0.620217 0.125000
vt 0.562500 0.875000
vt 0.620217 0.812500
vt 0.620217 0.875000
vt 0.875000 0.500000
vt 0.875000 0.562500
vt 0.875000 0.625000
vt 0.875000 0.687500
vt 0.812500 0.750000
vt 0.750000 0.750000
vt 0.687500 0.500000
vt 0.750000 0.500000
vt 0.687500 0.750000
vt 0.625000 0.750000
vt 0.812500 0.500000
vt 0.870217 0.745217
vt 0.620217 0.000000
vt 0.875000 0.750000
vt 0.629783 0.504783
vt 0.625000 0.500000
vt 0.375000 1.000000
vn 0.0000 -1.0000 0.0000
vn 0.0000 0.0000 -1.0000
vn 0.0000 1.0000 0.0000
vn 1.0000 0.0000 0.0000
vn -1.0000 0.0000 0.0000
vn 0.0000 0.0000 1.0000
vn 0.7071 0.7071 0.0000
vn -0.7071 0.7071 0.0000
vn 0.0000 0.7071 0.7071
vn 0.0000 0.7071 -0.7071
usemtl Material.001
s off
f 79/1/1 34/2/1 2/3/1 25/4/1
f 76/5/2 35/6/2 7/7/2 21/8/2
f 75/9/2 36/10/2 13/11/2 37/12/2
f 106/13/3 97/14/3 56/15/3 60/16/3
f 73/17/4 39/18/4 9/19/4 23/20/4
f 72/21/4 40/22/4 14/23/4 41/24/4
f 58/25/3 95/26/3 112/27/3 82/28/3
f 70/29/1 43/30/1 11/31/1 33/32/1
f 69/33/1 44/34/1 15/35/1 45/36/1
f 68/37/1 26/38/1 12/39/1 46/40/1
f 67/41/5 47/42/5 10/43/5 24/44/5
f 66/45/5 48/46/5 16/47/5 49/48/5
f 64/49/6 51/50/6 8/51/6 30/52/6
f 63/53/6 52/54/6 17/55/6 53/56/6
f 110/57/3 60/16/3 57/58/3 93/59/3
f 55/60/3 82/28/3 100/61/3 91/62/3
f 56/15/3 59/63/3 58/25/3 18/64/3
f 80/65/5 103/66/5 88/67/5 32/68/5
f 77/69/2 105/70/2 84/71/2 29/72/2
f 78/73/4 101/74/4 86/75/4 31/76/4
f 57/58/3 18/64/3 55/60/3 61/77/3
f 9/19/6 31/76/6 62/78/6 52/54/6
f 114/79/3 87/80/3 104/81/3 59/63/3
f 2/3/6 23/20/6 63/53/6 25/82/6
f 11/83/6 53/56/6 64/49/6 33/84/6
f 8/85/5 22/86/5 65/87/5 48/46/5
f 81/88/6 99/89/6 90/90/6 22/91/6
f 4/92/5 30/93/5 66/45/5 19/94/5
f 5/95/5 49/48/5 67/41/5 27/96/5
f 44/34/1 68/37/1 46/40/1 15/35/1
f 6/97/1 28/98/1 68/37/1 44/34/1
f 28/98/1 1/99/1 26/38/1 68/37/1
f 27/100/1 69/33/1 45/36/1 5/101/1
f 3/102/1 20/103/1 69/33/1 27/100/1
f 20/103/1 6/97/1 44/34/1 69/33/1
f 19/104/1 70/29/1 33/32/1 4/105/1
f 5/101/1 45/36/1 70/29/1 19/104/1
f 45/36/1 15/35/1 43/30/1 70/29/1
f 7/7/4 29/72/4 71/106/4 40/22/4
f 102/107/3 61/77/3 108/108/3 85/109/3
f 1/99/4 21/8/4 72/21/4 26/38/4
f 12/39/4 41/24/4 73/17/4 34/2/4
f 10/43/2 32/68/2 74/110/2 36/10/2
f 3/111/2 24/44/2 75/9/2 20/112/2
f 6/113/2 37/12/2 76/5/2 28/114/2
f 13/11/2 38/115/2 77/69/2 35/6/2
f 74/110/2 113/116/2 98/117/2 38/115/2
f 14/23/4 42/118/4 78/73/4 39/18/4
f 71/106/4 109/119/4 94/120/4 42/118/4
f 43/30/1 79/1/1 25/4/1 11/31/1
f 15/35/1 46/40/1 79/1/1 43/30/1
f 46/40/1 12/39/1 34/2/1 79/1/1
f 16/47/5 50/121/5 80/65/5 47/42/5
f 65/87/5 111/122/5 96/123/5 50/121/5
f 17/55/6 54/124/6 81/88/6 51/50/6
f 62/78/6 107/125/6 92/126/6 54/124/6
f 102/107/7 85/109/7 86/75/7 101/74/7
f 104/81/8 87/80/8 88/127/8 103/128/8
f 110/57/7 93/59/7 94/120/7 109/119/7
f 112/27/8 95/26/8 96/129/8 111/130/8
f 91/62/9 100/61/9 99/131/9 92/132/9
f 97/14/10 106/13/10 105/133/10 98/134/10
f 85/109/9 108/108/9 107/135/9 86/136/9
f 87/80/10 114/79/10 113/137/10 88/127/10
usemtl Material.002
f 61/77/3 55/60/3 91/62/3 108/108/3
f 82/28/3 112/27/3 89/138/3 100/61/3
f 32/68/2 88/67/2 113/116/2 74/110/2
f 31/76/6 86/75/6 107/125/6 62/78/6
f 29/72/4 84/71/4 109/119/4 71/106/4
f 59/63/3 104/81/3 95/26/3 58/25/3
f 60/16/3 56/15/3 18/64/3 57/58/3
f 97/14/3 114/79/3 59/63/3 56/15/3
f 38/115/2 98/117/2 105/70/2 77/69/2
f 93/59/3 57/58/3 61/77/3 102/107/3
f 42/118/4 94/120/4 101/74/4 78/73/4
f 52/54/6 62/78/6 54/124/6 17/55/6
f 48/46/5 65/87/5 50/121/5 16/47/5
f 40/22/4 71/106/4 42/118/4 14/23/4
f 36/10/2 74/110/2 38/115/2 13/11/2
f 22/86/5 90/139/5 111/122/5 65/87/5
f 35/6/2 77/69/2 29/72/2 7/7/2
f 39/18/4 78/73/4 31/76/4 9/19/4
f 47/42/5 80/65/5 32/68/5 10/43/5
f 51/50/6 81/88/6 22/91/6 8/51/6
f 54/124/6 92/126/6 99/89/6 81/88/6
f 18/64/3 58/25/3 82/28/3 55/60/3
f 50/121/5 96/123/5 103/66/5 80/65/5
f 100/61/9 89/138/9 90/140/9 99/131/9
f 106/13/10 83/141/10 84/142/10 105/133/10
f 108/108/9 91/62/9 92/132/9 107/135/9
f 114/79/10 97/14/10 98/134/10 113/137/10
f 93/59/7 102/107/7 101/74/7 94/120/7
f 95/26/8 104/81/8 103/128/8 96/129/8
f 83/141/7 110/57/7 109/119/7 84/71/7
f 89/138/8 112/27/8 111/130/8 90/140/8
f 83/141/3 106/13/3 60/16/3 110/57/3
usemtl Material.003
f 25/82/6 63/53/6 53/56/6 11/83/6
f 23/20/6 9/19/6 52/54/6 63/53/6
f 33/84/6 64/49/6 30/52/6 4/143/6
f 53/56/6 17/55/6 51/50/6 64/49/6
f 19/94/5 66/45/5 49/48/5 5/95/5
f 30/93/5 8/85/5 48/46/5 66/45/5
f 27/96/5 67/41/5 24/44/5 3/111/5
f 49/48/5 16/47/5 47/42/5 67/41/5
f 26/38/4 72/21/4 41/24/4 12/39/4
f 21/8/4 7/7/4 40/22/4 72/21/4
f 34/2/4 73/17/4 23/20/4 2/3/4
f 41/24/4 14/23/4 39/18/4 73/17/4
f 20/112/2 75/9/2 37/12/2 6/113/2
f 24/44/2 10/43/2 36/10/2 75/9/2
f 28/114/2 76/5/2 21/8/2 1/99/2
f 37/12/2 13/11/2 35/6/2 76/5/2
