# This file uses centimeters as units for non-parametric coordinates.

v 249.999710 1.138917 15.439148
v 166.289215 1.138917 15.439148
v 249.999710 -2.111773 15.439148
v 166.289215 -2.111773 15.439148
v 249.999710 -2.111783 234.560852
v 166.289215 -2.111783 234.560852
v 249.999710 1.138912 234.560852
v 166.289215 1.138912 234.560852
v 226.104889 2.980533 234.560547
v 226.104889 -3.953309 234.560547
v 226.104889 -3.762028 15.439148
v 193.895569 1.138917 15.439148
v 193.895569 -2.111773 15.439148
v 193.895569 -2.111783 234.560852
v 193.895569 1.138912 234.560852
v 223.539886 1.138917 15.439148
v 223.539886 1.138912 234.560852
v 223.539886 -2.111783 234.560852
v 223.539886 -2.111773 15.439148
v 191.050415 3.658735 15.439453
v 191.050415 -3.953309 234.560547
v 191.050415 2.980400 234.560852
v 196.467590 2.657035 15.439148
v 196.467590 -5.578928 15.439148
v 196.467590 -5.255379 234.560547
v 196.467590 2.980533 234.560547
v 220.628036 2.657035 15.439148
v 220.628036 2.980533 234.560547
v 220.628036 -5.255379 234.560547
v 220.628036 -5.578928 15.439148
v 248.140854 3.171862 15.439148
v 248.140854 2.980533 234.560547
v 248.140854 -3.953442 234.560547
v 168.258820 -3.274968 15.439148
v 168.258820 -3.953442 234.560547
v 168.258820 2.980533 234.560547
v 248.140854 -3.781929 15.439453
v 168.258820 3.591496 15.439453
v 191.050415 -3.332842 15.439148
v 226.104889 3.162311 15.439148
v 83.144531 -2.111773 15.439148
v 83.144531 1.138917 15.439148
v 83.144531 1.138912 234.560852
v 83.144531 -2.111783 234.560852
v 106.473541 -3.953442 234.560547
v 106.473541 2.980400 234.560852
v 106.473541 2.789078 15.439148
v 138.682861 -2.111773 15.439148
v 138.682861 1.138917 15.439148
v 138.682861 1.138912 234.560852
v 138.682861 -2.111783 234.560852
v 109.038391 -2.111773 15.439148
v 109.038391 -2.111783 234.560852
v 109.038391 1.138912 234.560852
v 109.038391 1.138917 15.439148
v 141.528015 -4.631639 15.439148
v 141.528015 2.980400 234.560852
v 141.528015 -3.953309 234.560547
v 136.110840 -3.629891 15.439148
v 136.110840 4.606026 15.439148
v 136.110840 4.282470 234.560852
v 136.110840 -3.953442 234.560547
v 111.950378 -3.629891 15.439148
v 111.950378 -3.953442 234.560547
v 111.950378 4.282470 234.560852
v 111.950378 4.606026 15.439148
v 84.437561 -4.144766 15.439148
v 84.437561 -3.953442 234.560547
v 84.437561 2.980533 234.560547
v 164.319611 2.302065 15.439148
v 164.319611 2.980533 234.560547
v 164.319611 -3.953442 234.560547
v 84.437561 2.809072 15.439148
v 164.319611 -4.564446 15.439453
v 141.528015 2.359893 15.439148
v 106.473541 -4.135260 15.439148
v 0.000000 -2.111773 15.439148
v 0.000000 1.138917 15.439148
v 0.000000 1.138912 234.560852
v 0.000000 -2.111783 234.560852
v 23.328857 -3.953442 234.560547
v 23.328857 2.980400 234.560852
v 23.328857 2.789078 15.439148
v 55.538177 -2.111773 15.439148
v 55.538177 1.138917 15.439148
v 55.538177 1.138912 234.560852
v 55.538177 -2.111783 234.560852
v 25.893860 -2.111773 15.439148
v 25.893860 -2.111783 234.560852
v 25.893860 1.138912 234.560852
v 25.893860 1.138917 15.439148
v 58.383331 -4.631639 15.439148
v 58.383331 2.980400 234.560852
v 58.383331 -3.953309 234.560547
v 52.966156 -3.629891 15.439148
v 52.966156 4.606026 15.439148
v 52.966156 4.282470 234.560852
v 52.966156 -3.953442 234.560547
v 28.805695 -3.629891 15.439148
v 28.805695 -3.953442 234.560547
v 28.805695 4.282470 234.560852
v 28.805695 4.606026 15.439148
v 1.292877 -4.144766 15.439148
v 1.292877 -3.953442 234.560547
v 1.292877 2.980533 234.560547
v 81.174927 2.302065 15.439148
v 81.174927 2.980533 234.560547
v 81.174927 -3.953442 234.560547
v 1.292877 2.809072 15.439148
v 81.174927 -4.564446 15.439453
v 58.383331 2.359893 15.439148
v 23.328857 -4.135260 15.439148
v 249.999710 -5.132737 234.153137
v 249.999710 -5.132737 250.000000
v 0.000000 -5.132737 234.153137
v 0.000000 -5.132737 250.000000
v 0.000000 5.132785 234.153137
v 0.000000 5.132785 250.000000
v 249.999710 5.132785 234.153137
v 249.999710 5.132785 250.000000
v 0.000000 -7.425656 15.846863
v 0.000000 -7.425656 0.000000
v 249.999710 -7.425656 15.846863
v 249.999710 -7.425656 0.000000
v 249.999710 7.425704 15.846863
v 249.999710 7.425704 0.000000
v 0.000000 7.425704 15.846863
v 0.000000 7.425704 0.000000
v 214.244370 -5.132737 250.000000
v 117.422180 -5.132737 250.000000
v 151.443481 -2.952923 250.000000
v 148.504944 -5.132737 245.310364
v 61.712341 -7.425656 15.846863
v 131.612244 -7.425656 15.846863
v 76.345215 -5.344201 15.846863
v 77.032471 -7.425657 9.479980
v 35.219421 5.132785 250.000000
v 103.288879 5.132785 250.000000
v 72.264099 2.404838 250.000000
v 88.291321 5.132785 245.689392
v 180.302429 7.425704 15.846863
v 89.837341 7.425704 15.846863
v 166.049500 3.057565 15.846863
v 166.929321 7.425704 11.231995
vt 0.488358 0.179633
vt 0.488379 0.178705
vt 0.488091 0.178694
vt 0.488111 0.179600
vt 0.488745 0.153225
vt 0.488743 0.153230
vt 0.488672 0.154123
vt 0.488674 0.154110
vt 0.488659 0.154125
vt 0.488426 0.154048
vt 0.488456 0.153178
vt 0.488731 0.153189
vt 0.488728 0.153199
vt 0.488446 0.153188
vt 0.488415 0.154121
vt 0.488662 0.154054
vt 0.488067 0.178722
vt 0.488029 0.178691
vt 0.488055 0.179516
vt 0.488089 0.179566
vt 0.488096 0.179555
vt 0.488073 0.179567
vt 0.488048 0.178683
vt 0.488076 0.178717
vt 0.488396 0.154074
vt 0.488421 0.153212
vt 0.488416 0.153216
vt 0.488391 0.154086
vt 0.487776 0.178682
vt 0.487838 0.179563
vt 0.487852 0.179453
vt 0.487800 0.178673
vt 0.488126 0.179574
vt 0.488109 0.178685
vt 0.488396 0.179594
vt 0.488368 0.179606
vt 0.488390 0.178696
vt 0.488421 0.178732
vt 0.488416 0.178736
vt 0.488391 0.179606
vt 0.487764 0.178709
vt 0.487823 0.179532
vt 0.487833 0.179520
vt 0.487775 0.178705
vt 0.488358 0.179633
vt 0.488379 0.178705
vt 0.488091 0.178694
vt 0.488111 0.179600
vt 0.488659 0.154125
vt 0.488426 0.154048
vt 0.488456 0.153178
vt 0.488731 0.153189
vt 0.488728 0.153199
vt 0.488446 0.153188
vt 0.488415 0.154121
vt 0.488662 0.154054
vt 0.488067 0.153202
vt 0.488029 0.153172
vt 0.488055 0.153996
vt 0.488089 0.154047
vt 0.488096 0.154035
vt 0.488073 0.154047
vt 0.488048 0.153163
vt 0.488076 0.153197
vt 0.488396 0.154074
vt 0.488421 0.153212
vt 0.488416 0.153216
vt 0.488391 0.154086
vt 0.487776 0.153162
vt 0.487838 0.154043
vt 0.487852 0.153933
vt 0.487800 0.153154
vt 0.488067 0.178722
vt 0.488089 0.179566
vt 0.488126 0.179574
vt 0.488096 0.179555
vt 0.488076 0.178717
vt 0.488109 0.178685
vt 0.488396 0.179594
vt 0.488368 0.179606
vt 0.488390 0.178696
vt 0.488421 0.178732
vt 0.488416 0.178736
vt 0.488391 0.179606
vt 0.488745 0.153225
vt 0.488674 0.154110
vt 0.488672 0.154123
vt 0.488743 0.153230
vt 0.487764 0.153189
vt 0.487823 0.154012
vt 0.487833 0.154000
vt 0.487775 0.153185
vt 0.488358 0.179633
vt 0.488379 0.178705
vt 0.488091 0.178694
vt 0.488111 0.179600
vt 0.488745 0.153225
vt 0.488743 0.153230
vt 0.488672 0.154123
vt 0.488674 0.154110
vt 0.488659 0.154125
vt 0.488426 0.154048
vt 0.488456 0.153178
vt 0.488731 0.153189
vt 0.488728 0.153199
vt 0.488446 0.153188
vt 0.488415 0.154121
vt 0.488662 0.154054
vt 0.488067 0.153202
vt 0.488029 0.153172
vt 0.488055 0.153996
vt 0.488089 0.154047
vt 0.488096 0.154035
vt 0.488073 0.154047
vt 0.488048 0.153163
vt 0.488076 0.153197
vt 0.488396 0.154074
vt 0.488421 0.153212
vt 0.488416 0.153216
vt 0.488391 0.154086
vt 0.487776 0.153162
vt 0.487838 0.154043
vt 0.487852 0.153933
vt 0.487800 0.153154
vt 0.488067 0.178722
vt 0.488089 0.179566
vt 0.488126 0.179574
vt 0.488096 0.179555
vt 0.488076 0.178717
vt 0.488109 0.178685
vt 0.488396 0.179594
vt 0.488368 0.179606
vt 0.488390 0.178696
vt 0.488421 0.178732
vt 0.488416 0.178736
vt 0.488391 0.179606
vt 0.487764 0.153189
vt 0.487823 0.154012
vt 0.487833 0.154000
vt 0.487775 0.153185
vt 0.496298 0.153744
vt 0.496373 0.153693
vt 0.496483 0.153715
vt 0.496482 0.153661
vt 0.496483 0.153640
vt 0.496484 0.153693
vt 0.496302 0.153721
vt 0.496420 0.153664
vt 0.496408 0.153651
vt 0.496299 0.153667
vt 0.496295 0.153689
vt 0.496430 0.153653
vt 0.496457 0.153644
vt 0.496493 0.154363
vt 0.496494 0.154403
vt 0.496445 0.154392
vt 0.496454 0.154373
vt 0.496331 0.154404
vt 0.496334 0.154445
vt 0.496338 0.154399
vt 0.496336 0.154359
vt 0.496390 0.154357
vt 0.496495 0.154360
vt 0.496494 0.154320
vt 0.496389 0.154358
vt 0.496445 0.154369
vt 0.496409 0.154384
vt 0.496322 0.153685
vt 0.496370 0.153673
vt 0.496395 0.153674
vt 0.496438 0.154333
vt 0.496381 0.154348
vn 0.000000 -0.999999 0.001477
vn 0.000000 -0.999999 0.001477
vn 0.000000 -0.999999 0.001477
vn 0.000000 -0.999999 0.001477
vn 1.000000 0.000000 0.000000
vn 1.000000 0.000000 0.000000
vn 1.000000 0.000000 0.000000
vn 1.000000 0.000000 0.000000
vn -0.000217 1.000000 0.000851
vn -0.000217 1.000000 0.000851
vn -0.000217 1.000000 0.000851
vn -0.000217 1.000000 0.000851
vn -0.000455 -1.000000 -0.000828
vn -0.000455 -1.000000 -0.000828
vn -0.000455 -1.000000 -0.000828
vn -0.000455 -1.000000 -0.000828
vn 0.473930 -0.880562 -0.001247
vn 0.473930 -0.880562 -0.001247
vn 0.473930 -0.880562 -0.001247
vn 0.473930 -0.880562 -0.001247
vn 0.608321 0.793690 0.001229
vn 0.608321 0.793690 0.001229
vn 0.608321 0.793690 0.001229
vn 0.608321 0.793690 0.001229
vn -0.601744 0.798689 0.000331
vn -0.601744 0.798689 0.000331
vn -0.601744 0.798689 0.000331
vn -0.601744 0.798689 0.000331
vn -0.562682 -0.826673 -0.000361
vn -0.562682 -0.826673 -0.000361
vn -0.562682 -0.826673 -0.000361
vn -0.562683 -0.826673 -0.000361
vn -0.001267 -0.999995 -0.002964
vn -0.001267 -0.999995 -0.002964
vn -0.001267 -0.999995 -0.002964
vn -0.001267 -0.999995 -0.002964
vn -0.001472 0.999995 0.002942
vn -0.001472 0.999995 0.002942
vn -0.001472 0.999995 0.002942
vn -0.001472 0.999995 0.002942
vn -0.789216 -0.614116 0.000453
vn -0.789216 -0.614116 0.000453
vn -0.789216 -0.614116 0.000453
vn -0.789216 -0.614116 0.000453
vn -0.546830 0.837243 -0.000618
vn -0.546830 0.837243 -0.000618
vn -0.546830 0.837243 -0.000618
vn -0.546830 0.837243 -0.000618
vn 0.499712 0.866192 -0.000639
vn 0.499712 0.866192 -0.000639
vn 0.499712 0.866192 -0.000639
vn 0.499712 0.866192 -0.000639
vn 0.750361 -0.661028 0.000488
vn 0.750361 -0.661028 0.000488
vn 0.750361 -0.661028 0.000488
vn 0.750361 -0.661028 0.000488
vn 0.721562 0.692350 0.000302
vn 0.721562 0.692350 0.000302
vn 0.721562 0.692350 0.000302
vn 0.721562 0.692350 0.000302
vn 0.686687 -0.726953 -0.000285
vn 0.686687 -0.726953 -0.000285
vn 0.686687 -0.726953 -0.000285
vn 0.686687 -0.726953 -0.000285
vn -0.606497 -0.795085 -0.001231
vn -0.606497 -0.795085 -0.001231
vn -0.606497 -0.795085 -0.001231
vn -0.606497 -0.795085 -0.001231
vn -0.736913 0.675987 0.000942
vn -0.736913 0.675987 0.000942
vn -0.736913 0.675987 0.000942
vn -0.736913 0.675987 0.000942
vn 0.000000 0.999999 -0.001476
vn 0.000000 0.999999 -0.001476
vn 0.000000 0.999999 -0.001476
vn 0.000000 0.999999 -0.001476
vn 0.000000 0.999999 0.001477
vn 0.000000 0.999999 0.001477
vn 0.000000 0.999999 0.001477
vn 0.000000 0.999999 0.001477
vn 0.000216 -1.000000 0.000851
vn 0.000216 -1.000000 0.000851
vn 0.000216 -1.000000 0.000851
vn 0.000216 -1.000000 0.000851
vn 0.000457 1.000000 -0.000828
vn 0.000457 1.000000 -0.000828
vn 0.000457 1.000000 -0.000828
vn 0.000457 1.000000 -0.000828
vn -0.473915 0.880570 -0.001247
vn -0.473915 0.880570 -0.001247
vn -0.473915 0.880570 -0.001247
vn -0.473915 0.880570 -0.001247
vn -0.608328 -0.793685 0.001228
vn -0.608328 -0.793685 0.001228
vn -0.608328 -0.793685 0.001228
vn -0.608328 -0.793685 0.001228
vn 0.601779 -0.798662 0.000331
vn 0.601779 -0.798662 0.000331
vn 0.601780 -0.798662 0.000331
vn 0.601779 -0.798662 0.000331
vn 0.562691 0.826667 -0.000361
vn 0.562691 0.826667 -0.000361
vn 0.562691 0.826667 -0.000361
vn 0.562691 0.826667 -0.000361
vn 0.001266 0.999995 -0.002964
vn 0.001266 0.999995 -0.002964
vn 0.001266 0.999995 -0.002964
vn 0.001266 0.999995 -0.002964
vn 0.001471 -0.999995 0.002942
vn 0.001471 -0.999995 0.002942
vn 0.001471 -0.999995 0.002942
vn 0.001471 -0.999995 0.002942
vn 0.789213 0.614120 0.000453
vn 0.789212 0.614120 0.000453
vn 0.789212 0.614120 0.000453
vn 0.789212 0.614120 0.000453
vn 0.546833 -0.837241 -0.000618
vn 0.546833 -0.837242 -0.000618
vn 0.546833 -0.837241 -0.000618
vn 0.546833 -0.837241 -0.000618
vn -0.499700 -0.866198 -0.000640
vn -0.499700 -0.866198 -0.000640
vn -0.499700 -0.866198 -0.000640
vn -0.499700 -0.866198 -0.000640
vn -0.750342 0.661049 0.000488
vn -0.750342 0.661049 0.000488
vn -0.750342 0.661049 0.000488
vn -0.750342 0.661049 0.000488
vn -0.831758 -0.555139 0.000242
vn -0.831758 -0.555139 0.000242
vn -0.831758 -0.555139 0.000242
vn -0.831758 -0.555139 0.000242
vn -0.805228 0.592966 -0.000232
vn -0.805228 0.592966 -0.000232
vn -0.805228 0.592965 -0.000232
vn -0.805228 0.592966 -0.000232
vn 0.606483 0.795096 -0.001231
vn 0.606483 0.795096 -0.001231
vn 0.606483 0.795096 -0.001231
vn 0.606483 0.795096 -0.001231
vn 0.736920 -0.675979 0.000942
vn 0.736920 -0.675979 0.000942
vn 0.736920 -0.675979 0.000942
vn 0.736920 -0.675979 0.000942
vn 0.000000 -0.999999 -0.001477
vn 0.000000 -0.999999 -0.001477
vn 0.000000 -0.999999 -0.001477
vn 0.000000 -0.999999 -0.001477
vn 0.000000 0.999999 0.001477
vn 0.000000 0.999999 0.001477
vn 0.000000 0.999999 0.001477
vn 0.000000 0.999999 0.001477
vn -1.000000 0.000000 0.000000
vn -1.000000 0.000000 0.000000
vn -1.000000 0.000000 0.000000
vn -1.000000 0.000000 0.000000
vn 0.000216 -1.000000 0.000851
vn 0.000216 -1.000000 0.000851
vn 0.000216 -1.000000 0.000851
vn 0.000216 -1.000000 0.000851
vn 0.000457 1.000000 -0.000828
vn 0.000457 1.000000 -0.000828
vn 0.000457 1.000000 -0.000828
vn 0.000457 1.000000 -0.000828
vn -0.473914 0.880570 -0.001247
vn -0.473914 0.880570 -0.001247
vn -0.473914 0.880570 -0.001247
vn -0.473914 0.880570 -0.001247
vn -0.608328 -0.793685 0.001228
vn -0.608328 -0.793685 0.001228
vn -0.608328 -0.793685 0.001228
vn -0.608328 -0.793685 0.001228
vn 0.601756 -0.798680 0.000331
vn 0.601756 -0.798680 0.000331
vn 0.601756 -0.798680 0.000331
vn 0.601756 -0.798680 0.000331
vn 0.562668 0.826683 -0.000361
vn 0.562668 0.826683 -0.000361
vn 0.562668 0.826683 -0.000361
vn 0.562667 0.826683 -0.000361
vn 0.001266 0.999995 -0.002964
vn 0.001266 0.999995 -0.002964
vn 0.001266 0.999995 -0.002964
vn 0.001266 0.999995 -0.002964
vn 0.001471 -0.999995 0.002942
vn 0.001471 -0.999995 0.002942
vn 0.001471 -0.999995 0.002942
vn 0.001471 -0.999995 0.002942
vn 0.789213 0.614120 0.000453
vn 0.789212 0.614120 0.000453
vn 0.789212 0.614120 0.000453
vn 0.789212 0.614120 0.000453
vn 0.546835 -0.837240 -0.000618
vn 0.546835 -0.837240 -0.000618
vn 0.546835 -0.837240 -0.000618
vn 0.546835 -0.837240 -0.000618
vn -0.499719 -0.866188 -0.000640
vn -0.499719 -0.866188 -0.000640
vn -0.499719 -0.866187 -0.000640
vn -0.499719 -0.866188 -0.000640
vn -0.750360 0.661030 0.000488
vn -0.750360 0.661030 0.000488
vn -0.750360 0.661030 0.000488
vn -0.750360 0.661030 0.000488
vn -0.831787 -0.555094 0.000242
vn -0.831787 -0.555094 0.000242
vn -0.831787 -0.555094 0.000242
vn -0.831787 -0.555094 0.000242
vn -0.805261 0.592921 -0.000232
vn -0.805261 0.592921 -0.000232
vn -0.805261 0.592921 -0.000232
vn -0.805261 0.592921 -0.000232
vn 0.606486 0.795093 -0.001231
vn 0.606486 0.795093 -0.001231
vn 0.606486 0.795093 -0.001231
vn 0.606486 0.795093 -0.001231
vn 0.736920 -0.675979 0.000942
vn 0.736920 -0.675979 0.000942
vn 0.736920 -0.675979 0.000942
vn 0.736920 -0.675979 0.000942
vn 0.000000 -0.999999 -0.001477
vn 0.000000 -0.999999 -0.001477
vn 0.000000 -0.999999 -0.001477
vn 0.000000 -0.999999 -0.001477
vn 0.000000 -1.000000 0.000000
vn 0.000000 -1.000000 0.000000
vn 0.000000 -1.000000 0.000000
vn -1.000000 0.000000 0.000000
vn -1.000000 0.000000 0.000000
vn -1.000000 0.000000 0.000000
vn -1.000000 0.000000 0.000000
vn 0.000000 1.000000 0.000000
vn 0.000000 1.000000 0.000000
vn 0.000000 1.000000 0.000000
vn 0.000000 1.000000 0.000000
vn 1.000000 0.000000 0.000000
vn 1.000000 0.000000 0.000000
vn 1.000000 0.000000 0.000000
vn 1.000000 0.000000 0.000000
vn 0.000001 0.000000 1.000000
vn 0.000001 0.000000 1.000000
vn 0.000001 0.000000 1.000000
vn 0.000001 0.000000 1.000000
vn 0.000000 0.000000 -1.000000
vn 0.000000 0.000000 -1.000000
vn 0.000000 0.000000 -1.000000
vn 0.000000 0.000000 -1.000000
vn -0.000000 -1.000000 0.000000
vn -0.000000 -1.000000 0.000000
vn -0.000000 -1.000000 0.000000
vn -0.000000 -1.000000 0.000000
vn 1.000000 0.000000 0.000000
vn 1.000000 0.000000 0.000000
vn 1.000000 0.000000 0.000000
vn 1.000000 0.000000 0.000000
vn 0.000000 1.000000 0.000000
vn 0.000000 1.000000 0.000000
vn 0.000000 1.000000 0.000000
vn -1.000000 0.000000 0.000000
vn -1.000000 0.000000 0.000000
vn -1.000000 0.000000 0.000000
vn -1.000000 0.000000 0.000000
vn 0.000000 0.000000 -1.000000
vn 0.000000 0.000000 -1.000000
vn 0.000000 0.000000 -1.000000
vn 0.000000 0.000000 -1.000000
vn 0.000000 0.000000 1.000000
vn 0.000000 0.000000 1.000000
vn 0.000000 0.000000 1.000000
vn 0.000000 0.000000 1.000000
vn -0.031196 -0.898770 0.437309
vn -0.031196 -0.898770 0.437309
vn -0.031196 -0.898770 0.437309
vn 0.058872 -0.918845 0.390203
vn 0.058872 -0.918845 0.390203
vn 0.058872 -0.918845 0.390203
vn -0.035817 -0.951022 0.307041
vn -0.035817 -0.951022 0.307041
vn -0.035817 -0.951022 0.307041
vn 0.133378 -0.937662 0.320937
vn 0.133378 -0.937662 0.320937
vn 0.133378 -0.937662 0.320937
vn 0.054474 0.739742 0.670682
vn 0.054474 0.739742 0.670682
vn 0.054474 0.739742 0.670682
vn -0.083786 0.952891 0.291510
vn -0.083786 0.952891 0.291510
vn -0.083786 0.952892 0.291510
vn 0.041364 0.721684 0.690986
vn 0.041364 0.721684 0.690986
vn 0.041364 0.721684 0.690986
vn -0.223361 0.728810 0.647261
vn -0.223361 0.728810 0.647261
vn -0.223361 0.728810 0.647261
vn 0.000000 -1.000000 0.000000
vn 0.000000 -1.000000 0.000000
vn 0.000000 -1.000000 0.000000
vn 0.000000 -1.000000 0.000000
vn 0.000000 -1.000000 0.000000
vn 0.000000 -1.000000 0.000000
vn 0.000000 -1.000000 0.000000
vn 0.000000 -1.000000 0.000000
vn 0.000000 -1.000000 0.000000
vn 0.000000 -1.000000 0.000000
vn 0.000000 -1.000000 0.000000
vn 0.000000 -1.000000 0.000000
vn 0.000000 -1.000000 0.000000
vn 0.000000 -1.000000 0.000000
vn 0.000000 -1.000000 0.000000
vn -0.000000 0.000000 1.000000
vn -0.000000 0.000000 1.000000
vn -0.000000 0.000000 1.000000
vn -0.000000 0.000000 1.000000
vn 0.000000 0.000000 1.000000
vn 0.000000 0.000000 1.000000
vn 0.000000 0.000000 1.000000
vn 0.000000 0.000000 1.000000
vn -0.000000 0.000000 1.000000
vn -0.000000 0.000000 1.000000
vn -0.000000 0.000000 1.000000
vn -0.000000 0.000000 1.000000
vn 0.000000 0.000000 1.000000
vn 0.000000 0.000000 1.000000
vn 0.000000 0.000000 1.000000
vn 0.000000 0.000000 1.000000
vn 0.000000 0.000000 1.000000
vn 0.000000 0.000000 1.000000
vn 0.000000 0.000000 1.000000
vn 0.000000 0.000000 1.000000
vn -0.000000 0.000000 1.000000
vn -0.000000 0.000000 1.000000
vn -0.000000 0.000000 1.000000
vn -0.000000 0.000000 1.000000
vn 0.000000 1.000000 0.000000
vn 0.000000 1.000000 0.000000
vn 0.000000 1.000000 0.000000
vn 0.000000 1.000000 0.000000
vn 0.000000 1.000000 0.000000
vn 0.000000 1.000000 0.000000
vn 0.000000 1.000000 0.000000
vn 0.000000 1.000000 0.000000
vn 0.000000 1.000000 -0.000000
vn 0.000000 1.000000 -0.000000
vn 0.000000 1.000000 -0.000000
vn 0.000000 1.000000 -0.000000
vn 0.000000 1.000000 0.000000
vn 0.000000 1.000000 0.000000
vn 0.000000 1.000000 0.000000
s off
f 30/1/1 29/2/2 25/3/3 24/4/4
f 7/5/5 5/6/6 3/7/7 1/8/8
f 31/9/9 40/10/10 9/11/11 32/12/12
f 33/13/13 10/14/14 11/15/15 37/16/16
f 14/17/17 21/18/18 39/19/19 13/20/20
f 12/21/21 20/22/22 22/23/23 15/24/24
f 16/25/25 17/26/26 9/11/27 40/10/28
f 10/14/29 18/27/30 19/28/31 11/15/32
f 21/18/33 35/29/34 34/30/35 39/19/36
f 20/22/37 38/31/38 36/32/39 22/23/40
f 25/3/41 14/17/42 13/20/43 24/4/44
f 23/33/45 12/21/46 15/24/47 26/34/48
f 16/35/49 27/36/50 28/37/51 17/38/52
f 18/39/53 29/2/54 30/1/55 19/40/56
f 7/5/57 1/8/58 31/9/59 32/12/60
f 3/7/61 5/6/62 33/13/63 37/16/64
f 35/29/65 6/41/66 4/42/67 34/30/68
f 2/43/69 8/44/70 36/32/71 38/31/72
f 27/36/73 23/33/74 26/34/75 28/37/76
f 66/45/77 65/46/78 61/47/79 60/48/80
f 67/49/81 76/50/82 45/51/83 68/52/84
f 69/53/85 46/54/86 47/55/87 73/56/88
f 50/57/89 57/58/90 75/59/91 49/60/92
f 48/61/93 56/62/94 58/63/95 51/64/96
f 52/65/97 53/66/98 45/51/99 76/50/100
f 46/54/101 54/67/102 55/68/103 47/55/104
f 57/58/105 71/69/106 70/70/107 75/59/108
f 56/62/109 74/71/110 72/72/111 58/63/112
f 61/47/113 50/73/114 49/74/115 60/48/116
f 59/75/117 48/76/118 51/77/119 62/78/120
f 52/79/121 63/80/122 64/81/123 53/82/124
f 54/83/125 65/46/126 66/45/127 55/84/128
f 44/85/129 41/86/130 67/49/131 68/52/132
f 42/87/133 43/88/134 69/53/135 73/56/136
f 71/69/137 8/89/138 2/90/139 70/70/140
f 4/91/141 6/92/142 72/72/143 74/71/144
f 63/80/145 59/75/146 62/78/147 64/81/148
f 102/93/149 101/94/150 97/95/151 96/96/152
f 80/97/153 79/98/154 78/99/155 77/100/156
f 103/101/157 112/102/158 81/103/159 104/104/160
f 105/105/161 82/106/162 83/107/163 109/108/164
f 86/109/165 93/110/166 111/111/167 85/112/168
f 84/113/169 92/114/170 94/115/171 87/116/172
f 88/117/173 89/118/174 81/103/175 112/102/176
f 82/106/177 90/119/178 91/120/179 83/107/180
f 93/110/181 107/121/182 106/122/183 111/111/184
f 92/114/185 110/123/186 108/124/187 94/115/188
f 97/95/189 86/125/190 85/126/191 96/96/192
f 95/127/193 84/128/194 87/129/195 98/130/196
f 88/131/197 99/132/198 100/133/199 89/134/200
f 90/135/201 101/94/202 102/93/203 91/136/204
f 80/97/205 77/100/206 103/101/207 104/104/208
f 78/99/209 79/98/210 105/105/211 109/108/212
f 107/121/213 43/137/214 42/138/215 106/122/216
f 41/139/217 44/140/218 108/124/219 110/123/220
f 99/132/221 95/127/222 98/130/223 100/133/224
f 113/141/225 132/142/226 115/143/227
f 115/143/228 116/144/229 118/145/230 117/146/231
f 119/147/232 140/148/233 138/149/234 120/150/235
f 119/147/236 120/150/237 114/151/238 113/141/239
f 116/144/240 139/152/241 137/153/242 118/145/243
f 119/147/244 113/141/245 115/143/246 117/146/247
f 121/154/248 122/155/249 136/156/250 133/157/251
f 123/158/252 124/159/253 126/160/254 125/161/255
f 144/162/256 126/160/257 128/163/258
f 127/164/259 128/163/260 122/155/261 121/154/262
f 122/155/263 128/163/264 126/160/265 124/159/266
f 143/165/267 135/166/268 134/167/269 123/158/270
f 129/168/271 131/169/272 132/142/273
f 132/142/274 131/169/275 130/170/276
f 134/167/277 135/166/278 136/156/279
f 136/156/280 135/166/281 133/157/282
f 139/152/283 140/148/284 137/153/285
f 138/149/286 140/148/287 139/152/288
f 142/171/289 143/165/290 144/162/291
f 144/162/292 143/165/293 141/172/294
f 136/156/295 124/159/296 123/158/297 134/167/298
f 136/156/299 122/155/300 124/159/301
f 113/141/302 114/151/303 129/168/304 132/142/305
f 115/143/306 132/142/307 130/170/308 116/144/309
f 143/165/310 123/158/311 125/161/312 141/172/313
f 127/164/314 121/154/315 133/157/316 135/166/317
f 127/164/318 135/166/319 143/165/320 142/171/321
f 131/169/322 120/150/323 138/149/324 139/152/325
f 131/169/326 139/152/327 116/144/328 130/170/329
f 114/151/330 120/150/331 131/169/332 129/168/333
f 144/162/334 128/163/335 127/164/336 142/171/337
f 125/161/338 126/160/339 144/162/340 141/172/341
f 117/146/342 118/145/343 137/153/344 140/148/345
f 117/146/346 140/148/347 119/147/348
