# This file uses centimeters as units for non-parametric coordinates.

v 74.863708 -3.176728 -82.276489
v 71.056213 4.323447 -82.276489
v -86.001984 4.323447 -82.276489
v -89.500214 -3.176728 -82.276489
v 74.863708 -3.176728 -102.757690
v 71.056213 4.323447 -102.757690
v -86.001984 4.323447 -102.757690
v -89.500214 -3.176728 -102.757690
v -26.708862 2.969611 -80.839355
v -27.374207 -4.530564 -80.839355
v 4.040192 4.732871 -98.520142
v 4.805176 -4.530564 -97.857056
v 71.056213 4.323447 -91.113525
v 71.056213 4.323447 -86.517944
v 72.961426 0.570502 -90.312500
v 37.748474 4.526931 -90.375977
v 57.303619 0.573356 -47.561584
v -66.827301 0.573356 -21.708069
v -69.416321 4.323447 -39.967590
v 51.428589 4.323447 -70.695862
v 54.189667 -3.176728 -71.270935
v -73.437805 -3.176728 -44.689148
v -66.153870 4.323447 -24.303406
v 52.696838 4.370482 -50.642395
v 58.561829 -3.176728 -50.278748
v -69.065674 -3.176728 -23.696960
v 9.323242 0.639121 -37.568420
v -19.352478 4.389205 -52.189392
v -20.320007 -3.110970 -54.284363
v 8.224701 6.242698 -39.936218
v 8.859497 -3.110970 -39.926941
v -30.337402 4.375091 -50.709534
v -72.187439 0.043990 -44.949646
v 66.266602 4.323447 83.377441
v -80.263611 4.323447 83.377441
v -83.706726 -3.176728 83.377441
v 69.639465 -3.176728 83.377441
v -83.706726 -3.176728 102.757690
v -80.263611 4.323447 102.757690
v 66.266602 4.323447 102.757690
v 69.639465 -3.176728 102.757690
v -24.859070 5.880980 84.760864
v -25.731689 -1.619195 81.647827
v 15.858734 5.880980 98.392212
v 16.880127 -1.619195 99.671753
v -80.263611 4.323447 91.279175
v -80.263611 4.323447 97.431396
v -60.545959 4.877753 93.580200
v -81.969055 0.608451 92.959229
v 85.731445 4.323447 12.689819
v -86.859192 1.855163 12.689819
v -89.604706 -3.176728 12.689819
v 89.604736 -3.176728 12.689819
v 85.731445 4.323447 -0.812134
v -85.512421 4.323447 -8.752808
v -89.604706 -3.176728 -8.752808
v 89.604736 -3.176728 -8.752808
v 14.930756 2.181563 9.004395
v 15.430267 -6.242715 11.252686
v -18.747620 4.035056 -8.614380
v -19.814667 -6.242715 -8.752808
v 86.756592 2.881156 -8.702148
v 67.180786 4.272246 -8.728271
v -85.512421 4.323447 5.348755
v -41.215790 3.378852 11.064453
v -73.636261 -3.776093 24.715576
v -70.864838 3.724082 27.732788
v 66.284149 3.724082 48.521362
v 67.879730 -3.776093 48.792847
v -77.071503 -3.776093 44.906616
v -75.475952 3.724082 45.178101
v 58.046967 3.724082 66.332397
v 59.642548 -3.776093 66.603882
v 14.304352 3.957152 38.219849
v 14.630798 -3.543023 38.275391
v -15.742615 2.604903 51.042603
v -15.929718 -3.543023 50.338135
v 62.662811 3.724082 56.351685
v 60.618408 3.724082 60.772217
v 4.205627 3.502677 42.529663
v 62.702637 -1.388604 58.802490
vt 0.460022 0.025478
vt 0.460023 0.025492
vt 0.460106 0.025494
vt 0.460106 0.025479
vt 0.460066 0.025634
vt 0.459970 0.025733
vt 0.460048 0.025904
vt 0.460050 0.025921
vt 0.459939 0.025918
vt 0.459937 0.025901
vt 0.459971 0.025748
vt 0.460065 0.025667
vt 0.460058 0.025478
vt 0.460039 0.025478
vt 0.460051 0.025482
vt 0.460044 0.025555
vt 0.461363 0.046691
vt 0.461233 0.046844
vt 0.461242 0.046781
vt 0.461323 0.046678
vt 0.461324 0.046685
vt 0.461364 0.046698
vt 0.461242 0.046790
vt 0.461237 0.046853
vt 0.461138 0.046948
vt 0.461144 0.046954
vt 0.461144 0.046957
vt 0.461102 0.046943
vt 0.461101 0.046935
vt 0.461238 0.046785
vt 0.461316 0.046684
vt 0.461100 0.046934
vt 0.461213 0.046867
vt 0.461411 0.046753
vt 0.461304 0.046899
vt 0.461338 0.046815
vt 0.461422 0.046716
vt 0.461333 0.046820
vt 0.461307 0.046907
vt 0.461459 0.046728
vt 0.461242 0.046991
vt 0.461242 0.046998
vt 0.461203 0.046984
vt 0.461202 0.046977
vt 0.461422 0.046709
vt 0.461441 0.046717
vt 0.461437 0.046714
vt 0.461459 0.046720
vt 0.461449 0.046717
vt 0.461350 0.046687
vt 0.461306 0.046759
vt 0.461233 0.046844
vt 0.461242 0.046781
vt 0.461323 0.046678
vt 0.461324 0.046685
vt 0.461364 0.046698
vt 0.461363 0.046692
vt 0.461242 0.046790
vt 0.461237 0.046853
vt 0.461102 0.046943
vt 0.461144 0.046957
vt 0.461101 0.046939
vt 0.461126 0.046908
vt 0.461109 0.046938
vt 0.461144 0.046950
vt 0.460022 0.025478
vt 0.460023 0.025492
vt 0.460106 0.025494
vt 0.460106 0.025479
vt 0.460066 0.025634
vt 0.460002 0.025700
vt 0.459970 0.025733
vt 0.460048 0.025904
vt 0.460050 0.025921
vt 0.460001 0.025909
vt 0.460014 0.025903
vt 0.459971 0.025748
vt 0.460065 0.025667
vt 0.459939 0.025918
vt 0.459937 0.025901
vt 0.459986 0.025903
vn 0.891680 0.452666 -0.000001
vn 0.891680 0.452666 -0.000001
vn 0.891680 0.452666 -0.000001
vn 0.891680 0.452666 -0.000001
vn -0.011205 0.997387 0.071366
vn -0.011205 0.997387 0.071366
vn -0.011205 0.997387 0.071366
vn -0.011205 0.997387 0.071366
vn -0.011205 0.997387 0.071366
vn -0.906269 0.422702 0.000000
vn -0.906269 0.422702 0.000000
vn -0.906269 0.422702 0.000000
vn -0.906269 0.422702 0.000000
vn 0.016224 -0.999772 0.013922
vn 0.016224 -0.999771 0.013922
vn 0.016224 -0.999771 0.013922
vn 0.016224 -0.999771 0.013922
vn 0.004427 0.998754 0.049714
vn 0.004427 0.998754 0.049714
vn 0.004427 0.998754 0.049714
vn 0.004427 0.998754 0.049714
vn -0.016723 -0.999757 -0.014351
vn -0.016723 -0.999757 -0.014351
vn -0.016723 -0.999757 -0.014351
vn -0.016723 -0.999757 -0.014351
vn 0.049211 -0.047486 -0.997659
vn 0.049211 -0.047486 -0.997659
vn 0.049211 -0.047486 -0.997659
vn 0.049211 -0.047486 -0.997659
vn -0.066015 -0.057410 -0.996166
vn -0.066015 -0.057410 -0.996166
vn -0.066015 -0.057410 -0.996166
vn -0.066015 -0.057410 -0.996166
vn 0.014329 0.003002 0.999893
vn 0.014329 0.003002 0.999893
vn 0.014329 0.003002 0.999893
vn 0.014329 0.003002 0.999893
vn -0.023520 0.006528 0.999702
vn -0.023520 0.006528 0.999702
vn -0.023520 0.006528 0.999702
vn -0.023520 0.006528 0.999702
vn 0.022939 0.219807 0.975274
vn 0.022939 0.219807 0.975274
vn 0.022939 0.219807 0.975274
vn 0.006109 0.999981 0.000000
vn 0.006109 0.999981 0.000000
vn 0.006109 0.999981 0.000000
vn 0.006109 0.999981 0.000000
vn 0.083143 0.729090 -0.679349
vn 0.083143 0.729090 -0.679349
vn 0.083143 0.729090 -0.679349
vn 0.891681 0.452665 0.000001
vn 0.891681 0.452665 0.000001
vn 0.891681 0.452665 0.000001
vn 0.891681 0.452665 0.000001
vn 0.891681 0.452664 0.000000
vn 0.891681 0.452664 0.000000
vn 0.891681 0.452664 0.000000
vn 0.001550 0.998191 -0.060105
vn 0.001550 0.998191 -0.060105
vn 0.001550 0.998191 -0.060105
vn 0.001550 0.998191 -0.060105
vn 0.860688 0.495068 -0.118841
vn 0.860688 0.495068 -0.118841
vn 0.860688 0.495068 -0.118841
vn 0.860688 0.495068 -0.118841
vn -0.000876 -0.999999 0.000831
vn -0.000876 -0.999999 0.000831
vn -0.000876 -0.999999 0.000831
vn -0.000876 -0.999999 0.000831
vn -0.910046 0.368634 0.189539
vn -0.910046 0.368634 0.189539
vn -0.910046 0.368634 0.189539
vn -0.910046 0.368634 0.189539
vn -0.910046 0.368634 0.189539
vn 0.190063 0.576110 0.794968
vn 0.190063 0.576110 0.794968
vn 0.190063 0.576110 0.794968
vn 0.190063 0.576110 0.794968
vn 0.727697 0.545460 -0.415849
vn 0.727697 0.545460 -0.415849
vn 0.727697 0.545460 -0.415849
vn 0.170955 -0.539729 0.824298
vn 0.170955 -0.539729 0.824298
vn 0.170955 -0.539729 0.824298
vn 0.170955 -0.539729 0.824298
vn -0.880637 0.366199 0.300628
vn -0.880637 0.366199 0.300628
vn -0.880637 0.366199 0.300628
vn -0.024046 0.998988 -0.038000
vn -0.024046 0.998988 -0.038000
vn -0.024046 0.998988 -0.038000
vn -0.024046 0.998988 -0.038000
vn -0.024046 0.998988 -0.038000
vn 0.000845 -0.999999 -0.000802
vn 0.000845 -0.999999 -0.000802
vn 0.000845 -0.999999 -0.000802
vn 0.000845 -0.999999 -0.000802
vn 0.175095 0.467670 0.866387
vn 0.175095 0.467670 0.866387
vn 0.175095 0.467670 0.866387
vn 0.175095 0.467670 0.866387
vn 0.172099 -0.539680 0.824091
vn 0.172099 -0.539680 0.824092
vn 0.172099 -0.539680 0.824092
vn 0.172099 -0.539680 0.824092
vn -0.160013 0.182112 -0.970171
vn -0.160013 0.182112 -0.970171
vn -0.160013 0.182112 -0.970171
vn -0.160013 0.182112 -0.970171
vn -0.160013 0.182112 -0.970171
vn -0.234748 0.143072 -0.961470
vn -0.234748 0.143072 -0.961470
vn -0.234748 0.143072 -0.961470
vn -0.234748 0.143072 -0.961470
vn -0.162990 0.791416 -0.589148
vn -0.162990 0.791416 -0.589148
vn -0.162990 0.791416 -0.589148
vn -0.016152 0.998705 0.048247
vn -0.016152 0.998705 0.048247
vn -0.016152 0.998705 0.048247
vn 0.018981 -0.999586 -0.021624
vn 0.018981 -0.999586 -0.021624
vn 0.018981 -0.999586 -0.021624
vn 0.018981 -0.999586 -0.021624
vn 0.912022 0.410141 0.000000
vn 0.912022 0.410141 0.000000
vn 0.912022 0.410141 0.000000
vn 0.912022 0.410141 0.000000
vn -0.908811 0.417209 0.000000
vn -0.908811 0.417209 0.000000
vn -0.908811 0.417209 0.000000
vn -0.908811 0.417209 0.000000
vn 0.022582 0.999357 -0.027854
vn 0.022582 0.999357 -0.027854
vn 0.022582 0.999357 -0.027854
vn 0.022582 0.999357 -0.027854
vn -0.021826 -0.999453 0.024865
vn -0.021826 -0.999453 0.024865
vn -0.021826 -0.999453 0.024865
vn -0.021826 -0.999453 0.024865
vn -0.008636 0.205575 -0.978603
vn -0.008636 0.205575 -0.978603
vn -0.008636 0.205575 -0.978603
vn -0.008636 0.205575 -0.978603
vn 0.005225 0.204033 -0.978950
vn 0.005225 0.204033 -0.978950
vn 0.005225 0.204033 -0.978950
vn 0.005225 0.204033 -0.978950
vn -0.069954 0.064422 0.995468
vn -0.069954 0.064422 0.995468
vn -0.069954 0.064422 0.995468
vn -0.069954 0.064422 0.995468
vn 0.036484 0.079086 0.996200
vn 0.036484 0.079086 0.996200
vn 0.036484 0.079086 0.996200
vn 0.036484 0.079086 0.996200
vn -0.139463 0.787193 -0.600731
vn -0.139463 0.787193 -0.600731
vn -0.139463 0.787193 -0.600731
vn -0.908811 0.417208 -0.000000
vn -0.908811 0.417208 -0.000000
vn -0.908811 0.417208 -0.000000
vn -0.908811 0.417208 -0.000000
vn -0.908810 0.417210 0.000000
vn -0.908810 0.417210 0.000000
vn -0.908810 0.417210 0.000000
vn -0.028101 0.999605 -0.000000
vn -0.028101 0.999605 -0.000000
vn -0.028101 0.999605 -0.000000
vn -0.028101 0.999605 -0.000000
vn -0.016447 0.999551 0.025036
vn -0.016447 0.999551 0.025036
vn -0.016447 0.999551 0.025036
vn -0.016447 0.999551 0.025036
vn -0.115891 0.452963 0.883965
vn -0.115891 0.452963 0.883965
vn -0.115891 0.452963 0.883965
vn 0.014593 0.999172 0.037977
vn 0.014593 0.999172 0.037977
vn 0.014593 0.999172 0.037977
vn 0.014593 0.999172 0.037977
vn 0.014593 0.999172 0.037977
vn -0.877833 0.478967 -0.000000
vn -0.877833 0.478967 -0.000000
vn -0.877833 0.478967 -0.000000
vn -0.877833 0.478967 -0.000000
vn -0.877833 0.478967 -0.000000
vn -0.034795 -0.998956 0.029588
vn -0.034795 -0.998956 0.029588
vn -0.034795 -0.998956 0.029588
vn -0.034795 -0.998956 0.029588
vn 0.033591 -0.999027 -0.028564
vn 0.033591 -0.999027 -0.028564
vn 0.033591 -0.999027 -0.028564
vn 0.033591 -0.999027 -0.028564
vn 0.001196 0.007439 -0.999972
vn 0.001196 0.007439 -0.999972
vn 0.001196 0.007439 -0.999972
vn 0.001196 0.007439 -0.999972
vn 0.070071 0.982853 -0.170561
vn 0.070071 0.982853 -0.170561
vn 0.070071 0.982853 -0.170561
vn -0.039645 0.129007 0.990851
vn -0.039645 0.129007 0.990851
vn -0.039645 0.129007 0.990851
vn -0.039645 0.129007 0.990851
vn 0.027474 0.144349 0.989145
vn 0.027474 0.144349 0.989145
vn 0.027474 0.144349 0.989145
vn 0.027474 0.144349 0.989145
vn 0.027474 0.144349 0.989145
vn 0.891092 0.453782 0.006047
vn 0.891092 0.453782 0.006047
vn 0.891092 0.453782 0.006047
vn 0.891092 0.453782 0.006047
vn 0.891092 0.453782 0.006047
vn -0.000558 0.008381 -0.999965
vn -0.000558 0.008381 -0.999965
vn -0.000558 0.008381 -0.999965
vn -0.000558 0.008381 -0.999965
vn -0.000558 0.008381 -0.999965
vn -0.015620 0.997885 0.063095
vn -0.015620 0.997885 0.063095
vn -0.015620 0.997885 0.063095
vn -0.015620 0.997885 0.063095
vn -0.015620 0.997885 0.063095
vn -0.020446 0.948785 0.315259
vn -0.020446 0.948785 0.315259
vn -0.020446 0.948785 0.315259
vn -0.928497 0.313830 -0.198505
vn -0.928497 0.313830 -0.198505
vn -0.928497 0.313830 -0.198505
vn -0.928497 0.313830 -0.198505
vn 0.000950 0.998954 0.045716
vn 0.000950 0.998954 0.045716
vn 0.000950 0.998954 0.045716
vn 0.000950 0.998954 0.045716
vn 0.000950 0.998954 0.045716
vn 0.888566 0.203909 0.410941
vn 0.888565 0.203909 0.410941
vn 0.888566 0.203909 0.410941
vn 0.888566 0.203909 0.410941
vn 0.002751 -0.999992 0.002900
vn 0.002751 -0.999992 0.002900
vn 0.002751 -0.999992 0.002900
vn 0.002751 -0.999992 0.002900
vn 0.274568 0.441107 -0.854422
vn 0.274568 0.441107 -0.854422
vn 0.274568 0.441107 -0.854422
vn -0.002849 -0.999989 -0.003700
vn -0.002849 -0.999989 -0.003700
vn -0.002849 -0.999989 -0.003700
vn -0.002849 -0.999989 -0.003700
vn 0.134869 0.170727 -0.976044
vn 0.134869 0.170727 -0.976044
vn 0.134869 0.170727 -0.976044
vn 0.134869 0.170727 -0.976044
vn 0.194097 0.003484 -0.980976
vn 0.194097 0.003484 -0.980976
vn 0.194097 0.003484 -0.980976
vn 0.194097 0.003484 -0.980976
vn -0.206127 -0.052271 0.977128
vn -0.206127 -0.052271 0.977128
vn -0.206127 -0.052271 0.977128
vn -0.206127 -0.052271 0.977128
vn -0.093313 -0.058884 0.993894
vn -0.093313 -0.058884 0.993894
vn -0.093313 -0.058884 0.993894
vn -0.093313 -0.058884 0.993894
vn -0.006471 0.999526 0.030105
vn -0.006471 0.999526 0.030105
vn -0.006471 0.999526 0.030105
vn -0.006471 0.999526 0.030105
vn -0.018912 0.999260 0.033484
vn -0.018912 0.999260 0.033484
vn -0.018912 0.999260 0.033484
vn -0.018912 0.999260 0.033484
vn 0.888566 0.203909 0.410940
vn 0.888566 0.203909 0.410940
vn 0.888566 0.203909 0.410940
vn 0.888566 0.203909 0.410940
vn 0.888567 0.203903 0.410941
vn 0.888567 0.203903 0.410941
vn 0.888567 0.203903 0.410941
vn -0.210198 0.421271 0.882240
vn -0.210198 0.421271 0.882240
vn -0.210198 0.421271 0.882240
s off
f 15/15/1 5/3/2 6/4/3 13/13/4
f 16/16/5 11/5/6 9/6/7 2/1/8 14/14/9
f 7/7/10 8/8/11 4/9/12 3/10/13
f 1/2/14 10/11/15 12/12/16 5/3/17
f 9/6/18 11/5/19 7/7/20 3/10/21
f 12/12/22 10/11/23 4/9/24 8/8/25
f 7/7/26 11/5/27 12/12/28 8/8/29
f 11/5/30 6/4/31 5/3/32 12/12/33
f 2/1/34 9/6/35 10/11/36 1/2/37
f 9/6/38 3/10/39 4/9/40 10/11/41
f 13/13/42 16/16/43 15/15/44
f 6/4/45 11/5/46 16/16/47 13/13/48
f 15/15/49 16/16/50 14/14/51
f 2/1/52 1/2/53 15/15/54 14/14/55
f 15/15/56 1/2/57 5/3/58
f 20/17/59 28/18/60 30/19/61 24/20/62
f 24/20/63 25/21/64 21/22/65 20/17/66
f 25/21/67 31/23/68 29/24/69 21/22/70
f 19/25/71 33/26/72 22/27/73 26/28/74 23/29/75
f 24/20/76 30/19/77 27/30/78 17/31/79
f 17/31/80 25/21/81 24/20/82
f 17/31/83 27/30/84 31/23/85 25/21/86
f 23/29/87 26/28/88 18/32/89
f 30/19/90 28/18/91 32/33/92 19/25/93 23/29/94
f 29/24/95 31/23/96 26/28/97 22/27/98
f 27/30/99 30/19/100 23/29/101 18/32/102
f 31/23/103 27/30/104 18/32/105 26/28/106
f 33/26/107 32/33/108 28/18/109 29/24/110 22/27/111
f 28/18/112 20/17/113 21/22/114 29/24/115
f 19/25/116 32/33/117 33/26/118
f 48/34/119 44/35/120 42/36/121
f 36/37/122 43/38/123 45/39/124 38/40/125
f 40/41/126 41/42/127 37/43/128 34/44/129
f 35/45/130 36/37/131 49/46/132 46/47/133
f 42/36/134 44/35/135 40/41/136 34/44/137
f 45/39/138 43/38/139 37/43/140 41/42/141
f 35/45/142 42/36/143 43/38/144 36/37/145
f 42/36/146 34/44/147 37/43/148 43/38/149
f 40/41/150 44/35/151 45/39/152 41/42/153
f 44/35/154 39/48/155 38/40/156 45/39/157
f 47/49/158 48/34/159 49/46/160
f 49/46/161 38/40/162 39/48/163 47/49/164
f 49/46/165 36/37/166 38/40/167
f 48/34/168 42/36/169 35/45/170 46/47/171
f 39/48/172 44/35/173 48/34/174 47/49/175
f 49/46/176 48/34/177 46/47/178
f 64/50/179 65/51/180 58/52/181 60/53/182 55/54/183
f 55/54/184 56/55/185 52/56/186 51/57/187 64/50/188
f 56/55/189 61/58/190 59/59/191 52/56/192
f 59/59/193 61/58/194 57/60/195 53/61/196
f 55/54/197 60/53/198 61/58/199 56/55/200
f 62/62/201 63/63/202 54/64/203
f 50/65/204 58/52/205 59/59/206 53/61/207
f 58/52/208 65/51/209 51/57/210 52/56/211 59/59/212
f 50/65/213 53/61/214 57/60/215 62/62/216 54/64/217
f 60/53/218 63/63/219 62/62/220 57/60/221 61/58/222
f 60/53/223 58/52/224 50/65/225 54/64/226 63/63/227
f 51/57/228 65/51/229 64/50/230
f 67/66/231 66/67/232 70/68/233 71/69/234
f 71/69/235 76/70/236 80/71/237 74/72/238 67/66/239
f 72/73/240 73/74/241 81/75/242 79/76/243
f 66/67/244 75/77/245 77/78/246 70/68/247
f 81/75/248 80/71/249 79/76/250
f 77/78/251 75/77/252 69/79/253 73/74/254
f 67/66/255 74/72/256 75/77/257 66/67/258
f 74/72/259 68/80/260 69/79/261 75/77/262
f 72/73/263 76/70/264 77/78/265 73/74/266
f 76/70/267 71/69/268 70/68/269 77/78/270
f 74/72/271 80/71/272 78/81/273 68/80/274
f 79/76/275 80/71/276 76/70/277 72/73/278
f 81/75/279 69/79/280 68/80/281 78/81/282
f 81/75/283 73/74/284 69/79/285
f 78/81/286 80/71/287 81/75/288
