# This file uses centimeters as units for non-parametric coordinates.

v 110.064392 -128.520737 19.496307
v 57.761841 -73.388977 21.150513
v 197.704163 -174.103119 20.131378
v 139.219360 -91.038826 7.362061
v 86.968994 -44.185623 13.497009
v 109.145508 -109.548920 35.934448
v 68.513184 -56.201019 32.783203
v 202.622070 -166.052811 28.373413
v 210.133057 -153.969559 10.530701
v 51.433716 -7.066650 8.537598
v 26.182251 -23.076172 38.111572
v 18.662720 -41.036682 21.150513
v 140.443115 -89.803719 -0.002441
v 92.964478 -41.773224 2.528687
v 211.101349 -148.539856 -2.157898
v 52.663574 -5.836639 -0.002441
v 21.448975 21.448517 7.335815
v 2.678223 2.676849 33.644714
v -11.185913 -11.187897 21.150513
v 22.679138 22.678070 -0.002441
v 110.064392 -128.520737 -19.481049
v 57.761841 -73.388977 -21.154785
v 198.339508 -174.623535 -20.135498
v 139.219360 -91.038826 -7.366333
v 88.476257 -42.336731 -11.140137
v 111.362000 -107.313049 -33.400574
v 69.714966 -54.998322 -32.165222
v 202.622070 -166.052811 -28.377686
v 207.402039 -150.859406 -9.848938
v 51.433716 -7.066650 -8.541260
v 26.182251 -23.076172 -38.115234
v 18.662720 -41.036682 -21.154785
v 21.448975 21.448517 -7.339478
v 0.637512 0.635834 -27.602539
v -11.185913 -11.187897 -21.154785
v 5.549927 10.739746 1.719360
v 25.951233 -26.295912 1.040497
v 59.715271 -63.982224 1.040497
v 113.305695 -109.071594 1.040497
v 202.683105 -168.090622 0.990295
v -7.042847 -8.305952 -0.003662
v 193.154297 -156.402313 32.115784
v 205.907928 -137.417847 10.926514
v 207.875671 -132.970947 -2.015381
v 194.506836 -156.840942 -31.697693
v 206.434631 -137.369049 -10.468750
v 104.528503 -123.009460 21.150513
v 141.863129 -106.985909 7.578430
v 105.007935 -123.485092 -21.154785
v 142.057800 -107.073875 -7.453918
v 114.109161 -113.903336 0.968475
v 115.869476 -116.801819 32.573242
v 144.613953 -106.623619 -0.480042
v 119.443695 -116.745209 -30.473938
v 92.124939 -58.916718 12.019501
v 73.446045 -64.878998 30.578003
v 62.416992 -77.569122 19.398041
v 92.370300 -53.570862 2.123718
v 89.675903 -55.288849 -9.846802
v 73.762817 -62.497253 -29.675598
v 61.154480 -76.307373 -19.402313
v 66.928711 -71.741470 0.954132
vt 0.048747 0.122414
vt 0.048889 0.122233
vt 0.048916 0.122472
vt 0.048996 0.122251
vt 0.048882 0.122490
vt 0.048862 0.122516
vt 0.048887 0.122503
vt 0.049007 0.122245
vt 0.048989 0.122264
vt 0.049016 0.122216
vt 0.048988 0.121984
vt 0.049065 0.121838
vt 0.049145 0.122043
vt 0.049194 0.121912
vt 0.049109 0.122074
vt 0.049188 0.121927
vt 0.048908 0.122175
vt 0.048637 0.122814
vt 0.048674 0.122769
vt 0.048625 0.122820
vt 0.048560 0.122757
vt 0.048573 0.122692
vt 0.048858 0.122202
vt 0.048858 0.122161
vt 0.048959 0.121971
vt 0.049039 0.121826
vt 0.048740 0.122474
vt 0.048708 0.122466
vt 0.048721 0.122401
vt 0.048702 0.122393
vt 0.048699 0.122370
vt 0.048829 0.122188
vt 0.048810 0.122164
vt 0.048878 0.122189
vt 0.048814 0.122128
vt 0.048874 0.122207
vt 0.048935 0.121962
vt 0.048910 0.121948
vt 0.049019 0.121820
vt 0.049009 0.121842
vt 0.048980 0.122021
vt 0.049057 0.121876
vt 0.048828 0.122138
vt 0.048686 0.122419
vt 0.048744 0.122461
vt 0.048753 0.122433
vt 0.048465 0.122727
vt 0.048502 0.122761
vt 0.048478 0.122676
vt 0.048506 0.122710
vt 0.048506 0.122661
vt 0.048694 0.122454
vt 0.049087 0.121848
vt 0.048940 0.122188
vt 0.048921 0.122226
vt 0.049112 0.121897
vt 0.049030 0.122007
vt 0.048795 0.122445
vt 0.048553 0.122778
vt 0.048798 0.122427
vt 0.048528 0.122660
vt 0.048519 0.122720
vn 0.415510 0.498908 0.760554
vn 0.415510 0.498908 0.760554
vn 0.415510 0.498908 0.760554
vn 0.524031 0.501356 0.688501
vn 0.524031 0.501356 0.688501
vn 0.524031 0.501356 0.688501
vn -0.361337 -0.620529 0.695974
vn -0.361337 -0.620529 0.695974
vn -0.361337 -0.620529 0.695974
vn -0.361337 -0.620529 0.695974
vn -0.262578 -0.457319 0.849654
vn -0.262578 -0.457319 0.849654
vn -0.262578 -0.457319 0.849654
vn -0.262578 -0.457319 0.849654
vn 0.478947 0.533026 0.697491
vn 0.478946 0.533026 0.697491
vn 0.478946 0.533026 0.697491
vn 0.455271 0.538497 0.709048
vn 0.455271 0.538497 0.709048
vn 0.455271 0.538497 0.709048
vn -0.484685 -0.484682 0.728123
vn -0.484685 -0.484682 0.728123
vn -0.484685 -0.484682 0.728123
vn -0.469704 -0.283681 0.836004
vn -0.469704 -0.283681 0.836004
vn -0.469704 -0.283681 0.836004
vn -0.319369 -0.385971 0.865465
vn -0.319369 -0.385971 0.865465
vn -0.319369 -0.385971 0.865465
vn -0.346403 -0.563335 0.750105
vn -0.346403 -0.563335 0.750105
vn -0.346403 -0.563335 0.750105
vn 0.435515 0.515529 0.737941
vn 0.435515 0.515529 0.737941
vn 0.435515 0.515529 0.737941
vn 0.492520 0.516758 0.700275
vn 0.492520 0.516758 0.700275
vn 0.492520 0.516758 0.700275
vn -0.300501 -0.586489 0.752150
vn -0.300501 -0.586489 0.752150
vn -0.300501 -0.586489 0.752150
vn 0.736557 0.288280 0.611864
vn 0.736557 0.288280 0.611864
vn 0.736557 0.288280 0.611864
vn 0.736557 0.288280 0.611864
vn 0.933850 0.137141 0.330327
vn 0.933850 0.137141 0.330327
vn 0.933850 0.137141 0.330327
vn 0.933850 0.137141 0.330327
vn 0.670917 0.710004 0.213925
vn 0.670917 0.710004 0.213926
vn 0.670917 0.710004 0.213926
vn 0.670917 0.710004 0.213926
vn 0.628155 0.689110 0.361315
vn 0.628155 0.689110 0.361315
vn 0.628155 0.689110 0.361315
vn 0.628155 0.689110 0.361315
vn 0.944835 0.194397 0.263623
vn 0.944835 0.194397 0.263623
vn 0.944835 0.194397 0.263623
vn 0.944835 0.194397 0.263623
vn 0.407423 0.512158 -0.756109
vn 0.407423 0.512158 -0.756109
vn 0.407423 0.512158 -0.756109
vn 0.561092 0.524000 -0.640781
vn 0.561092 0.524000 -0.640781
vn 0.561092 0.524000 -0.640781
vn -0.150086 -0.462938 -0.873592
vn -0.150086 -0.462938 -0.873592
vn -0.150086 -0.462938 -0.873592
vn -0.150086 -0.462938 -0.873592
vn 0.478947 0.533026 -0.697491
vn 0.478946 0.533026 -0.697491
vn 0.478946 0.533026 -0.697491
vn 0.203002 0.571270 -0.795261
vn 0.203002 0.571270 -0.795261
vn 0.203002 0.571270 -0.795261
vn -0.484676 -0.484673 -0.728136
vn -0.484676 -0.484673 -0.728136
vn -0.484676 -0.484673 -0.728136
vn -0.428915 -0.062530 -0.901178
vn -0.428915 -0.062530 -0.901178
vn -0.428915 -0.062530 -0.901178
vn -0.287517 -0.347476 -0.892521
vn -0.287517 -0.347476 -0.892521
vn -0.287517 -0.347477 -0.892521
vn -0.319803 -0.576299 -0.752067
vn -0.319803 -0.576299 -0.752067
vn -0.319803 -0.576299 -0.752067
vn 0.451303 0.527044 -0.720104
vn 0.451303 0.527044 -0.720104
vn 0.451303 0.527044 -0.720104
vn 0.482886 0.528357 -0.698327
vn 0.482886 0.528357 -0.698327
vn 0.482886 0.528356 -0.698327
vn -0.282681 -0.514183 -0.809757
vn -0.282681 -0.514183 -0.809757
vn -0.282681 -0.514183 -0.809757
vn -0.282681 -0.514183 -0.809757
vn -0.329840 -0.563538 -0.757384
vn -0.329840 -0.563538 -0.757384
vn -0.329840 -0.563538 -0.757384
vn 0.809257 0.229951 -0.540580
vn 0.809257 0.229951 -0.540580
vn 0.809257 0.229951 -0.540580
vn 0.809257 0.229951 -0.540580
vn 0.962517 0.013824 -0.270870
vn 0.962517 0.013824 -0.270870
vn 0.962517 0.013824 -0.270870
vn 0.962517 0.013824 -0.270870
vn 0.670912 0.710000 -0.213957
vn 0.670912 0.709999 -0.213957
vn 0.670912 0.710000 -0.213957
vn 0.670912 0.709999 -0.213957
vn 0.659425 0.716472 -0.227654
vn 0.659425 0.716472 -0.227654
vn 0.659425 0.716472 -0.227654
vn 0.659425 0.716472 -0.227654
vn 0.940158 0.205252 -0.271983
vn 0.940158 0.205252 -0.271983
vn 0.940158 0.205252 -0.271983
vn 0.940158 0.205253 -0.271983
vn -0.675259 0.727264 0.122934
vn -0.675259 0.727264 0.122934
vn -0.675259 0.727264 0.122934
vn -0.675259 0.727264 0.122934
vn -0.688076 -0.628006 -0.363538
vn -0.688076 -0.628006 -0.363538
vn -0.688076 -0.628006 -0.363538
vn -0.688076 -0.628006 -0.363538
vn -0.670246 0.729021 -0.138921
vn -0.670246 0.729021 -0.138921
vn -0.670246 0.729021 -0.138921
vn -0.670246 0.729021 -0.138921
vn -0.571786 0.820403 0.000000
vn -0.571786 0.820403 0.000000
vn -0.571786 0.820403 0.000000
vn -0.571786 0.820403 0.000000
vn -0.535280 -0.713047 -0.452812
vn -0.535280 -0.713047 -0.452812
vn -0.535280 -0.713047 -0.452812
vn -0.535280 -0.713047 -0.452812
vn -0.596311 -0.620359 -0.509478
vn -0.596311 -0.620359 -0.509478
vn -0.596311 -0.620359 -0.509478
vn -0.596311 -0.620359 -0.509478
vn -0.422022 -0.748743 -0.511157
vn -0.422022 -0.748743 -0.511157
vn -0.422022 -0.748743 -0.511157
vn -0.422022 -0.748743 -0.511157
vn -0.549989 -0.712993 0.434918
vn -0.549989 -0.712993 0.434918
vn -0.549989 -0.712993 0.434918
vn -0.549989 -0.712993 0.434918
vn -0.610672 -0.635300 0.472729
vn -0.610672 -0.635300 0.472729
vn -0.610672 -0.635300 0.472729
vn -0.610672 -0.635300 0.472729
vn -0.593673 -0.643403 0.483307
vn -0.593673 -0.643403 0.483307
vn -0.593673 -0.643403 0.483307
vn -0.593673 -0.643403 0.483307
vn -0.827415 0.554897 -0.086453
vn -0.827415 0.554897 -0.086453
vn -0.827415 0.554897 -0.086453
vn -0.834516 0.543685 0.089385
vn -0.834516 0.543685 0.089385
vn -0.834516 0.543685 0.089385
vn -0.310398 -0.586368 0.748215
vn -0.310398 -0.586368 0.748215
vn -0.310398 -0.586368 0.748215
vn 0.263400 0.634296 0.726835
vn 0.263400 0.634296 0.726835
vn 0.263400 0.634296 0.726835
vn 0.354400 0.684290 0.637297
vn 0.354400 0.684290 0.637297
vn 0.354400 0.684290 0.637297
vn 0.956379 0.218598 0.193791
vn 0.956379 0.218598 0.193791
vn 0.956379 0.218598 0.193791
vn 0.956379 0.218598 0.193791
vn -0.300562 -0.564588 -0.768702
vn -0.300562 -0.564588 -0.768702
vn -0.300562 -0.564588 -0.768702
vn 0.263568 0.632555 -0.728290
vn 0.263568 0.632555 -0.728290
vn 0.263568 0.632555 -0.728290
vn 0.355261 0.684512 -0.636579
vn 0.355261 0.684512 -0.636579
vn 0.355261 0.684512 -0.636579
vn 0.928334 0.128223 -0.348933
vn 0.928334 0.128223 -0.348933
vn 0.928334 0.128223 -0.348933
vn 0.928334 0.128223 -0.348933
vn -0.432366 -0.765431 0.476629
vn -0.432366 -0.765431 0.476629
vn -0.432366 -0.765431 0.476629
vn -0.432366 -0.765431 0.476629
vn 0.386707 0.876227 0.287548
vn 0.386707 0.876227 0.287548
vn 0.386707 0.876227 0.287548
vn 0.386707 0.876227 0.287548
vn -0.470133 -0.407933 -0.782666
vn -0.470133 -0.407933 -0.782666
vn -0.470133 -0.407933 -0.782666
vn 0.366909 0.856044 -0.364096
vn 0.366909 0.856044 -0.364096
vn 0.366909 0.856044 -0.364096
vn 0.366909 0.856044 -0.364096
vn 0.639860 0.156372 0.752414
vn 0.639860 0.156372 0.752414
vn 0.639860 0.156372 0.752414
vn 0.639860 0.156372 0.752414
vn 0.633213 0.187814 -0.750844
vn 0.633213 0.187814 -0.750844
vn 0.633213 0.187814 -0.750844
vn 0.633213 0.187814 -0.750844
vn 0.661692 0.170304 0.730179
vn 0.661692 0.170303 0.730179
vn 0.661692 0.170304 0.730179
vn 0.661692 0.170304 0.730179
vn -0.491633 -0.294644 0.819440
vn -0.491633 -0.294644 0.819440
vn -0.491633 -0.294644 0.819440
vn 0.565228 0.753648 0.335459
vn 0.565228 0.753648 0.335459
vn 0.565228 0.753648 0.335459
vn 0.565228 0.753648 0.335459
vn 0.744092 0.067989 -0.664609
vn 0.744092 0.067989 -0.664609
vn 0.744092 0.067989 -0.664609
vn 0.744092 0.067989 -0.664609
vn -0.410752 -0.272285 -0.870140
vn -0.410752 -0.272285 -0.870140
vn -0.410752 -0.272285 -0.870140
vn 0.577232 0.781624 -0.236361
vn 0.577232 0.781624 -0.236361
vn 0.577232 0.781624 -0.236361
vn 0.577232 0.781624 -0.236361
vn -0.577182 -0.628635 -0.521228
vn -0.577182 -0.628635 -0.521228
vn -0.577182 -0.628635 -0.521228
vn -0.577182 -0.628635 -0.521228
vn -0.694059 -0.637096 0.335248
vn -0.694059 -0.637096 0.335248
vn -0.694059 -0.637096 0.335248
vn -0.694059 -0.637096 0.335248
vn -0.574650 -0.507801 0.641807
vn -0.574650 -0.507801 0.641807
vn -0.574650 -0.507801 0.641807
vn -0.319127 -0.630981 0.707121
vn -0.319127 -0.630982 0.707121
vn -0.319127 -0.630982 0.707121
vn -0.782601 -0.385407 0.488874
vn -0.782601 -0.385407 0.488874
vn -0.782601 -0.385407 0.488874
vn -0.782601 -0.385407 0.488874
vn -0.759315 -0.376853 -0.530492
vn -0.759315 -0.376853 -0.530492
vn -0.759315 -0.376853 -0.530492
vn -0.759315 -0.376853 -0.530492
vn -0.290399 -0.519122 -0.803854
vn -0.290399 -0.519122 -0.803854
vn -0.290399 -0.519122 -0.803854
vn 0.889499 -0.414106 -0.193153
vn 0.904982 -0.425233 -0.013612
vn 0.928723 -0.362531 -0.077747
vn 0.858644 -0.511013 0.039942
vn 0.858644 -0.511013 0.039942
vn 0.904982 -0.425233 -0.013612
vn 0.874971 -0.484176 -0.000002
vn 0.928723 -0.362531 -0.077747
vn 0.904982 -0.425233 -0.013612
vn 0.937740 -0.346364 -0.025983
vn 0.937740 -0.346364 -0.025983
vn 0.874971 -0.484176 -0.000002
vn 0.904982 -0.425233 -0.013612
vn 0.889499 -0.414106 -0.193153
s off
f 4/1/1 55/2/2 6/3/3
f 6/3/4 55/2/5 56/4/6
f 47/5/7 1/6/8 52/7/9 6/3/10
f 2/8/11 57/9/12 56/4/13 7/10/14
f 10/11/15 17/12/16 11/13/17
f 11/13/18 17/12/19 18/14/20
f 12/15/21 11/13/22 19/16/23
f 19/16/24 11/13/25 18/14/26
f 2/8/27 7/10/28 12/15/29
f 12/15/30 7/10/31 11/13/32
f 5/17/33 10/11/34 7/10/35
f 7/10/36 10/11/37 11/13/38
f 8/18/39 42/19/40 3/20/41
f 9/21/42 43/22/43 42/19/44 8/18/45
f 5/17/46 55/2/47 58/23/48 14/24/49
f 17/12/50 10/11/51 16/25/52 20/26/53
f 10/11/54 5/17/55 14/24/56 16/25/57
f 4/1/58 48/27/59 53/28/60 13/29/61
f 24/30/62 26/31/63 59/32/64
f 26/31/65 60/33/66 59/32/67
f 22/34/68 27/35/69 60/33/70 61/36/71
f 30/37/72 31/38/73 33/39/74
f 31/38/75 34/40/76 33/39/77
f 32/41/78 35/42/79 31/38/80
f 35/42/81 34/40/82 31/38/83
f 22/34/84 32/41/85 27/35/86
f 32/41/87 31/38/88 27/35/89
f 25/43/90 27/35/91 30/37/92
f 27/35/93 31/38/94 30/37/95
f 26/31/96 54/44/97 21/45/98 49/46/99
f 28/47/100 23/48/101 45/49/102
f 29/50/103 28/47/104 45/49/105 46/51/106
f 25/43/107 14/24/108 58/23/109 59/32/110
f 33/39/111 20/26/112 16/25/113 30/37/114
f 30/37/115 16/25/116 14/24/117 25/43/118
f 24/30/119 13/29/120 53/28/121 50/52/122
f 18/14/123 17/12/124 36/53/125 19/16/126
f 2/8/127 38/54/128 62/55/129 57/9/130
f 36/53/131 33/39/132 34/40/133 35/42/134
f 36/53/135 17/12/136 20/26/137 33/39/138
f 19/16/139 41/56/140 37/57/141 12/15/142
f 2/8/143 12/15/144 37/57/145 38/54/146
f 1/6/147 51/58/148 40/59/149 3/20/150
f 32/41/151 37/57/152 41/56/153 35/42/154
f 38/54/155 37/57/156 32/41/157 22/34/158
f 39/60/159 62/55/160 61/36/161 49/46/162
f 36/53/163 41/56/164 19/16/165
f 35/42/166 41/56/167 36/53/168
f 3/20/169 42/19/170 1/6/171
f 42/19/172 43/22/173 48/27/174
f 42/19/175 48/27/176 52/7/177
f 44/61/178 43/22/179 9/21/180 15/62/181
f 45/49/182 23/48/183 21/45/184
f 46/51/185 45/49/186 50/52/187
f 45/49/188 54/44/189 50/52/190
f 46/51/191 44/61/192 15/62/193 29/50/194
f 23/48/195 40/59/196 51/58/197 21/45/198
f 53/28/199 48/27/200 43/22/201 44/61/202
f 26/31/203 49/46/204 61/36/205
f 50/52/206 53/28/207 44/61/208 46/51/209
f 52/7/210 48/27/211 4/1/212 6/3/213
f 50/52/214 54/44/215 26/31/216 24/30/217
f 56/4/218 55/2/219 5/17/220 7/10/221
f 56/4/222 57/9/223 6/3/224
f 58/23/225 55/2/226 4/1/227 13/29/228
f 59/32/229 60/33/230 27/35/231 25/43/232
f 61/36/233 60/33/234 26/31/235
f 59/32/236 58/23/237 13/29/238 24/30/239
f 57/9/240 62/55/241 39/60/242 47/5/243
f 61/36/244 62/55/245 38/54/246 22/34/247
f 47/5/248 6/3/249 57/9/250
f 52/7/251 1/6/252 42/19/253
f 51/58/254 39/60/255 49/46/256 21/45/257
f 47/5/258 39/60/259 51/58/260 1/6/261
f 21/45/262 54/44/263 45/49/264
f 15/62/265 40/59/266 29/50/267
f 8/18/268 3/20/269 40/59/270 9/21/271
f 29/50/272 40/59/273 23/48/274 28/47/275
f 9/21/276 40/59/277 15/62/278
