# This file uses centimeters as units for non-parametric coordinates.

v 74.819031 -27.022858 -134.739380
v 67.109375 -22.833099 -77.671661
v 71.418457 -25.360870 -250.000000
v 67.393188 -23.415222 -201.839752
v 64.965515 -6.509247 -119.177856
v 45.482178 -2.159882 -74.082336
v 58.670044 -4.459839 -250.000000
v -6.719055 16.531982 -240.671844
v 41.787720 -0.861969 -205.883484
v 66.876831 -1.780243 -16.678314
v 71.418457 -25.360870 -29.974976
v -6.719055 16.532135 -134.601746
v -2.970276 14.240417 -79.115295
v -2.970276 14.240417 -197.120514
v -6.719055 16.532135 -29.373779
v -6.719055 16.531982 -9.328156
v 58.670044 -4.459839 0.000000
v 71.418457 -25.360870 0.000000
v -2.580566 9.522247 0.000000
v -1.053467 6.278992 -250.000000
v -0.002136 -0.000916 -25.599518
v 5.296631 0.157928 -72.938385
v -0.002136 -0.000916 -130.363922
v -0.002136 -0.000916 -200.624542
v 0.000000 0.000000 -250.000000
v 0.000000 0.000000 0.000153
v 20.058899 13.105469 0.000000
v 17.740173 14.656067 -5.655670
v 16.323242 15.984650 -33.814392
v 23.427429 11.765442 -79.695587
v 16.396484 13.220673 -142.138672
v 25.584106 9.199829 -215.667267
v 20.058899 13.105469 -250.000000
v 73.635864 -26.811981 -15.831146
v 66.571655 -24.755554 -56.896210
v 74.603271 -27.335815 -111.268463
v 72.504883 -26.546478 -180.789642
v 74.020996 -27.544708 -220.150604
v 34.669800 -1.772614 1.139984
v 72.319641 -13.166351 0.000000
v 75.314636 -10.277100 -20.170441
v 70.538330 -11.942139 -59.658966
v 66.197815 -15.680542 -77.671661
v 76.025696 -13.933868 -107.949371
v 75.201416 -16.367340 -142.063141
v 74.642334 -18.040771 -197.683868
v 74.967957 -17.907715 -224.320526
v 72.319641 -13.166351 -250.000000
v 71.608582 -13.265686 -72.178650
v 71.385193 -21.727448 -72.577667
v 65.472412 -14.892731 -205.295868
v 63.764038 -22.913208 -205.295868
v 20.306702 -14.578609 -250.000000
v 21.890259 -7.743511 -250.000000
v 33.970337 -17.744656 -250.000000
v 35.553894 -10.909557 -250.000000
v 33.970337 -17.744656 0.000000
v 35.553894 -10.909557 0.000000
v 21.890259 -7.743511 0.000000
v 20.306702 -14.578609 0.000000
v 69.087524 -34.966087 -46.781921
v 72.409973 -20.554543 -46.781921
v -17.916260 -17.915840 -46.781921
v -3.837891 -3.838291 -46.781921
v -17.916260 -17.915840 -62.077484
v -3.837891 -3.838291 -62.077484
v 69.087524 -34.966087 -62.077484
v 72.409973 -20.554543 -62.077484
v 69.087524 -34.966087 -187.922516
v 72.409973 -20.554543 -187.922516
v -17.916260 -17.915840 -187.922516
v -3.837891 -3.838291 -187.922516
v -17.916260 -17.915840 -203.218079
v -3.837891 -3.838291 -203.218079
v 69.087830 -34.966087 -203.218079
v 72.409973 -20.554543 -203.218079
vt 0.048857 0.122497
vt 0.048679 0.122404
vt 0.048767 0.122369
vt 0.048933 0.122451
vt 0.048428 0.122344
vt 0.048343 0.122282
vt 0.048446 0.122246
vt 0.048565 0.122309
vt 0.048614 0.122636
vt 0.048510 0.122599
vt 0.048611 0.122576
vt 0.048740 0.122668
vt 0.048812 0.122590
vt 0.048233 0.122398
vt 0.048412 0.122414
vt 0.048262 0.122501
vt 0.048194 0.122448
vt 0.049131 0.122590
vt 0.049118 0.122573
vt 0.049174 0.122525
vt 0.048979 0.122774
vt 0.048903 0.122739
vt 0.048939 0.122697
vt 0.049019 0.122718
vt 0.048786 0.122684
vt 0.049107 0.122500
vt 0.049028 0.122529
vt 0.048342 0.122534
vt 0.049194 0.122571
vt 0.048609 0.122680
vt 0.048762 0.122446
vt 0.048534 0.122649
vt 0.048403 0.122281
vt 0.048198 0.122492
vt 0.048401 0.122305
vt 0.048922 0.122807
vt 0.049100 0.122578
vt 0.048881 0.122778
vt 0.048806 0.122731
vt 0.048400 0.122584
vt 0.048278 0.122541
vt 0.049186 0.122612
vt 0.049092 0.122672
vt 0.048981 0.122820
vt 0.048737 0.122697
vt 0.048741 0.122706
vt 0.048929 0.122524
vt 0.048742 0.122674
vt 0.048547 0.122362
vt 0.048351 0.122539
vt 0.048346 0.122500
vt 0.048352 0.122528
vt 0.496840 0.156480
vt 0.496838 0.156425
vt 0.496787 0.156426
vt 0.496789 0.156481
vt 0.496840 0.156480
vt 0.496838 0.156425
vt 0.496787 0.156426
vt 0.496789 0.156481
vt 0.496789 0.156481
vt 0.496787 0.156426
vt 0.496807 0.155481
vt 0.496809 0.155542
vt 0.496879 0.155481
vt 0.496882 0.155542
vt 0.496840 0.156480
vt 0.496838 0.156425
vt 0.496809 0.155542
vt 0.496807 0.155481
vt 0.496879 0.155481
vt 0.496882 0.155542
vt 0.496838 0.156425
vt 0.496840 0.156480
vt 0.496787 0.156426
vt 0.496789 0.156481
vn 0.119387 0.992634 0.020626
vn 0.119387 0.992634 0.020626
vn 0.119387 0.992634 0.020626
vn 0.119387 0.992634 0.020626
vn 0.156139 0.983914 0.086801
vn 0.156139 0.983914 0.086801
vn 0.156139 0.983914 0.086801
vn 0.195570 0.980074 0.034735
vn 0.195570 0.980074 0.034735
vn 0.195570 0.980074 0.034735
vn 0.604761 0.793218 -0.071196
vn 0.604761 0.793218 -0.071196
vn 0.604761 0.793218 -0.071196
vn 0.513367 0.841042 0.170597
vn 0.513367 0.841042 0.170597
vn 0.513367 0.841042 0.170597
vn 0.513367 0.841042 0.170597
vn 0.513934 0.849574 0.118729
vn 0.513934 0.849573 0.118729
vn 0.513934 0.849574 0.118729
vn 0.513934 0.849573 0.118729
vn 0.036630 0.967492 0.250237
vn 0.036630 0.967492 0.250237
vn 0.036630 0.967492 0.250237
vn 0.615499 0.729868 0.297411
vn 0.615499 0.729868 0.297411
vn 0.615499 0.729868 0.297411
vn 0.615499 0.729868 0.297411
vn 0.511945 0.844716 -0.156103
vn 0.511945 0.844716 -0.156103
vn 0.511945 0.844716 -0.156103
vn 0.511945 0.844716 -0.156103
vn 0.054665 0.996599 -0.061654
vn 0.054665 0.996600 -0.061654
vn 0.054665 0.996600 -0.061654
vn 0.054665 0.996600 -0.061654
vn 0.567359 0.817569 -0.098414
vn 0.567359 0.817569 -0.098414
vn 0.567359 0.817569 -0.098414
vn 0.469246 0.882513 -0.031268
vn 0.469247 0.882514 -0.031268
vn 0.469247 0.882514 -0.031268
vn 0.143607 0.989110 -0.032239
vn 0.143607 0.989110 -0.032239
vn 0.143607 0.989110 -0.032239
vn 0.143607 0.989109 -0.032239
vn 0.051353 0.998342 0.026009
vn 0.051353 0.998342 0.026009
vn 0.051353 0.998342 0.026009
vn 0.051353 0.998342 0.026009
vn -0.121383 0.766918 0.630161
vn -0.121383 0.766918 0.630161
vn -0.121383 0.766919 0.630161
vn -0.340448 -0.940133 -0.015665
vn -0.340448 -0.940133 -0.015665
vn -0.340448 -0.940133 -0.015665
vn -0.193824 0.599443 -0.776596
vn -0.193824 0.599443 -0.776596
vn -0.193824 0.599443 -0.776596
vn 0.000002 0.000000 -1.000000
vn 0.000002 0.000000 -1.000000
vn 0.000002 0.000000 -1.000000
vn -0.336669 -0.940608 -0.043722
vn -0.336669 -0.940608 -0.043722
vn -0.336669 -0.940608 -0.043722
vn -0.332259 -0.942397 0.038629
vn -0.332259 -0.942397 0.038629
vn -0.332259 -0.942397 0.038629
vn -0.339292 -0.940653 0.007320
vn -0.339292 -0.940653 0.007320
vn -0.339292 -0.940653 0.007320
vn -0.334366 -0.941605 -0.039737
vn -0.334366 -0.941605 -0.039737
vn -0.334366 -0.941605 -0.039737
vn -0.033318 -0.009013 0.999404
vn -0.033318 -0.009013 0.999404
vn -0.033318 -0.009013 0.999404
vn 0.057284 0.089807 0.994310
vn 0.057284 0.089807 0.994311
vn 0.057284 0.089807 0.994310
vn 0.377179 0.886702 0.267385
vn 0.377179 0.886703 0.267385
vn 0.377179 0.886703 0.267385
vn 0.377179 0.886702 0.267385
vn 0.322819 0.946035 0.028392
vn 0.322819 0.946035 0.028392
vn 0.322819 0.946035 0.028392
vn 0.371278 0.917218 -0.144443
vn 0.371278 0.917218 -0.144443
vn 0.371278 0.917218 -0.144443
vn 0.533017 0.846091 0.004726
vn 0.533017 0.846091 0.004726
vn 0.533017 0.846091 0.004726
vn 0.504070 0.852965 0.135515
vn 0.504070 0.852965 0.135515
vn 0.504070 0.852965 0.135515
vn 0.385121 0.922607 -0.021862
vn 0.385121 0.922607 -0.021862
vn 0.385121 0.922607 -0.021862
vn 0.394415 0.917798 -0.045656
vn 0.394415 0.917797 -0.045656
vn 0.394415 0.917797 -0.045656
vn 0.519489 0.854283 0.018196
vn 0.519489 0.854283 0.018196
vn 0.519489 0.854283 0.018196
vn 0.439478 0.895741 0.067137
vn 0.439478 0.895741 0.067137
vn 0.439478 0.895741 0.067137
vn 0.439478 0.895741 0.067137
vn -0.000002 0.000000 -1.000000
vn -0.000002 0.000000 -1.000000
vn -0.000002 0.000000 -1.000000
vn -0.339288 -0.940566 0.014823
vn -0.339288 -0.940566 0.014823
vn -0.339288 -0.940566 0.014823
vn -0.339288 -0.940566 0.014823
vn -0.286418 -0.857882 0.426618
vn -0.286418 -0.857882 0.426618
vn -0.286418 -0.857882 0.426618
vn 0.340022 0.690460 -0.638474
vn 0.340022 0.690460 -0.638474
vn 0.340022 0.690460 -0.638474
vn -0.349497 -0.936104 0.039512
vn -0.349497 -0.936104 0.039512
vn -0.349497 -0.936104 0.039512
vn -0.349497 -0.936104 0.039512
vn -0.340585 -0.940122 -0.013173
vn -0.340585 -0.940122 -0.013173
vn -0.340585 -0.940122 -0.013173
vn -0.340585 -0.940122 -0.013173
vn 0.504107 0.855818 0.115981
vn 0.504107 0.855818 0.115981
vn 0.504107 0.855818 0.115981
vn -0.362586 -0.931094 0.039942
vn -0.362586 -0.931094 0.039942
vn -0.362586 -0.931094 0.039942
vn -0.038156 -0.107458 0.993477
vn -0.038157 -0.107458 0.993477
vn -0.038157 -0.107458 0.993477
vn 0.029603 -0.002188 0.999559
vn 0.029603 -0.002188 0.999559
vn 0.029603 -0.002188 0.999559
vn 0.987982 -0.073012 0.136241
vn 0.987982 -0.073012 0.136241
vn 0.987982 -0.073012 0.136241
vn 0.987596 -0.062465 0.144055
vn 0.987596 -0.062465 0.144055
vn 0.987596 -0.062465 0.144055
vn 0.975427 -0.143017 -0.167596
vn 0.975427 -0.143017 -0.167596
vn 0.975427 -0.143017 -0.167596
vn 0.977327 -0.180557 -0.110599
vn 0.977327 -0.180557 -0.110599
vn 0.977327 -0.180557 -0.110599
vn 0.929330 -0.325347 -0.174629
vn 0.929330 -0.325347 -0.174629
vn 0.929330 -0.325347 -0.174629
vn 0.728614 0.049570 -0.683129
vn 0.728614 0.049570 -0.683129
vn 0.728614 0.049570 -0.683129
vn 0.728614 0.049570 -0.683128
vn 0.942211 0.120081 0.312761
vn 0.942211 0.120081 0.312761
vn 0.942211 0.120081 0.312761
vn 0.958665 -0.160017 0.235280
vn 0.958665 -0.160017 0.235280
vn 0.958665 -0.160017 0.235280
vn 0.997071 -0.076088 -0.007735
vn 0.997071 -0.076088 -0.007735
vn 0.997071 -0.076088 -0.007735
vn 0.997071 -0.076088 -0.007735
vn 0.986363 -0.162526 -0.025961
vn 0.986363 -0.162526 -0.025961
vn 0.986363 -0.162526 -0.025961
vn 0.986363 -0.162526 -0.025961
vn 0.667792 -0.695350 -0.265598
vn 0.667792 -0.695350 -0.265598
vn 0.667792 -0.695350 -0.265598
vn 0.862825 -0.010400 0.505395
vn 0.862825 -0.010400 0.505395
vn 0.862825 -0.010400 0.505395
vn 0.862825 -0.010400 0.505395
vn 0.985702 -0.138428 -0.096070
vn 0.985702 -0.138428 -0.096070
vn 0.985702 -0.138428 -0.096070
vn 0.990586 -0.073205 -0.115675
vn 0.990586 -0.073205 -0.115675
vn 0.990586 -0.073205 -0.115675
vn -0.000001 0.000000 -1.000000
vn -0.000001 0.000000 -1.000000
vn -0.000001 0.000000 -1.000000
vn -0.910206 -0.152711 -0.384974
vn -0.910206 -0.152711 -0.384974
vn -0.910206 -0.152711 -0.384974
vn -0.904818 -0.420876 0.064552
vn -0.904818 -0.420876 0.064552
vn -0.904818 -0.420876 0.064552
vn -0.904818 -0.420876 0.064552
vn -0.953504 -0.300597 -0.021732
vn -0.953504 -0.300597 -0.021732
vn -0.953504 -0.300597 -0.021732
vn -0.953504 -0.300597 -0.021732
vn -0.886316 -0.457362 -0.072553
vn -0.886316 -0.457362 -0.072553
vn -0.886316 -0.457362 -0.072553
vn -0.886316 -0.457362 -0.072553
vn -0.926441 -0.376440 0.000050
vn -0.926441 -0.376440 0.000050
vn -0.926441 -0.376440 0.000050
vn -0.926441 -0.376440 0.000050
vn -0.940286 -0.254818 0.225678
vn -0.940286 -0.254818 0.225678
vn -0.940286 -0.254818 0.225678
vn -0.949684 -0.311713 0.030600
vn -0.949684 -0.311713 0.030600
vn -0.949684 -0.311713 0.030600
vn -0.949684 -0.311713 0.030600
vn 0.022430 0.098259 0.994908
vn 0.022430 0.098259 0.994908
vn 0.022430 0.098259 0.994908
vn 0.022430 0.098259 0.994908
vn 0.000000 0.000000 -1.000000
vn 0.000000 0.000000 -1.000000
vn 0.000000 0.000000 -1.000000
vn 0.394318 0.916797 -0.063213
vn 0.394318 0.916797 -0.063213
vn 0.394318 0.916797 -0.063213
vn 0.966812 -0.169135 0.191489
vn 0.966812 -0.169135 0.191489
vn 0.966812 -0.169135 0.191489
vn 0.966812 -0.169135 0.191489
vn -0.351269 -0.930545 -0.103423
vn -0.351269 -0.930545 -0.103423
vn -0.351269 -0.930545 -0.103423
vn -0.351269 -0.930545 -0.103423
vn 0.497346 0.828807 -0.256370
vn 0.497346 0.828807 -0.256370
vn 0.497346 0.828807 -0.256370
vn 0.615532 -0.173073 -0.768873
vn 0.615532 -0.173073 -0.768873
vn 0.615532 -0.173073 -0.768873
vn 0.615532 -0.173073 -0.768873
vn -0.337196 -0.941328 0.014188
vn -0.337196 -0.941328 0.014188
vn -0.337196 -0.941328 0.014188
vn -0.337196 -0.941328 0.014188
vn 0.000000 0.000000 1.000000
vn 0.000000 0.000000 1.000000
vn 0.000000 0.000000 1.000000
vn 0.000000 0.000000 1.000000
vn 0.974196 -0.225702 0.000000
vn 0.974196 -0.225702 0.000000
vn 0.974196 -0.225702 0.000000
vn 0.974196 -0.225702 0.000000
vn 0.225733 0.974189 0.000000
vn 0.225733 0.974189 0.000000
vn 0.225733 0.974189 0.000000
vn 0.225733 0.974189 0.000000
vn -0.974196 0.225702 0.000000
vn -0.974196 0.225702 0.000000
vn -0.974196 0.225702 0.000000
vn -0.974196 0.225702 0.000000
vn -0.225733 -0.974189 0.000000
vn -0.225733 -0.974189 0.000000
vn -0.225733 -0.974189 0.000000
vn -0.225733 -0.974189 0.000000
vn -0.000001 0.000000 -1.000000
vn -0.000001 0.000000 -1.000000
vn -0.000001 0.000000 -1.000000
vn -0.000001 0.000000 -1.000000
vn 0.000000 0.000000 1.000000
vn 0.000000 0.000000 1.000000
vn 0.000000 0.000000 1.000000
vn 0.000000 0.000000 1.000000
vn -0.707086 0.707127 0.000000
vn -0.707086 0.707127 0.000000
vn -0.707086 0.707127 0.000000
vn -0.707086 0.707127 0.000000
vn 0.974440 -0.224648 0.000000
vn 0.974440 -0.224648 0.000000
vn 0.974440 -0.224648 0.000000
vn 0.974440 -0.224648 0.000000
vn 0.214150 0.976801 0.000000
vn 0.214150 0.976801 0.000000
vn 0.214150 0.976801 0.000000
vn 0.214150 0.976801 0.000000
vn -0.707086 0.707128 0.000000
vn -0.707086 0.707128 0.000000
vn -0.707086 0.707128 0.000000
vn -0.707086 0.707128 0.000000
vn 0.000000 0.000000 -1.000000
vn 0.000000 0.000000 -1.000000
vn 0.000000 0.000000 -1.000000
vn 0.000000 0.000000 -1.000000
vn 0.974442 -0.224638 0.000010
vn 0.974442 -0.224638 0.000010
vn 0.974442 -0.224638 0.000010
vn 0.974442 -0.224638 0.000010
vn 0.214150 0.976801 0.000000
vn 0.214150 0.976801 0.000000
vn 0.214150 0.976801 0.000000
vn 0.214150 0.976801 0.000000
vn -0.000000 0.000000 -1.000000
vn -0.000000 0.000000 -1.000000
vn -0.000000 0.000000 -1.000000
vn -0.000000 0.000000 -1.000000
vn -0.192313 -0.981334 0.000000
vn -0.192313 -0.981334 0.000000
vn -0.192313 -0.981334 0.000000
vn -0.192313 -0.981334 0.000000
vn -0.192313 -0.981334 -0.000002
vn -0.192313 -0.981334 -0.000002
vn -0.192313 -0.981334 -0.000002
vn -0.192313 -0.981334 -0.000002
vn 0.000000 0.000000 1.000000
vn 0.000000 0.000000 1.000000
vn 0.000000 0.000000 1.000000
vn 0.000000 0.000000 1.000000
s off
f 30/1/1 31/2/2 12/3/3 13/4/4
f 32/5/5 33/6/6 8/7/7
f 32/5/8 8/7/9 14/8/10
f 44/9/11 45/10/12 5/11/13
f 43/12/14 44/9/15 5/11/16 6/13/17
f 7/14/18 9/15/19 47/16/20 48/17/21
f 27/18/22 28/19/23 16/20/24
f 40/21/25 41/22/26 10/23/27 17/24/28
f 41/22/29 42/25/30 6/13/31 10/23/32
f 15/26/33 29/27/34 30/1/35 13/4/36
f 5/11/37 45/10/38 9/15/39
f 9/15/40 45/10/41 46/28/42
f 12/3/43 31/2/44 32/5/45 14/8/46
f 15/26/47 16/20/48 28/19/49 29/27/50
f 19/29/51 27/18/52 16/20/53
f 36/30/54 23/31/55 1/32/56
f 20/33/57 8/7/58 33/6/59
f 3/34/60 25/35/61 20/33/62
f 34/36/63 21/37/64 11/38/65
f 21/37/66 35/39/67 11/38/68
f 1/32/69 23/31/70 37/40/71
f 38/41/72 25/35/73 3/34/74
f 19/29/75 26/42/76 39/43/77
f 17/24/78 39/43/79 40/21/80
f 10/23/81 28/19/82 27/18/83 17/24/84
f 29/27/85 28/19/86 10/23/87
f 6/13/88 29/27/89 10/23/90
f 30/1/91 29/27/92 6/13/93
f 5/11/94 30/1/95 6/13/96
f 31/2/97 30/1/98 5/11/99
f 9/15/100 31/2/101 5/11/102
f 32/5/103 31/2/104 9/15/105
f 7/14/106 33/6/107 32/5/108 9/15/109
f 20/33/110 33/6/111 7/14/112
f 18/44/113 26/42/114 21/37/115 34/36/116
f 2/45/117 50/46/118 22/47/119
f 6/13/120 49/48/121 43/12/122
f 2/45/123 22/47/124 23/31/125 36/30/126
f 37/40/127 23/31/128 24/49/129 4/50/130
f 9/15/131 51/51/132 47/16/133
f 52/52/134 25/35/135 38/41/136
f 39/43/137 26/42/138 18/44/139
f 40/21/140 39/43/141 18/44/142
f 18/44/143 41/22/144 40/21/145
f 34/36/146 41/22/147 18/44/148
f 11/38/149 41/22/150 34/36/151
f 11/38/152 42/25/153 41/22/154
f 35/39/155 42/25/156 11/38/157
f 2/45/158 43/12/159 49/48/160 50/46/161
f 2/45/162 44/9/163 43/12/164
f 36/30/165 44/9/166 2/45/167
f 1/32/168 45/10/169 44/9/170 36/30/171
f 46/28/172 45/10/173 1/32/174 37/40/175
f 46/28/176 37/40/177 4/50/178
f 38/41/179 47/16/180 51/51/181 52/52/182
f 3/34/183 47/16/184 38/41/185
f 48/17/186 47/16/187 3/34/188
f 20/33/189 48/17/190 3/34/191
f 25/35/192 8/7/193 20/33/194
f 13/4/195 12/3/196 23/31/197 22/47/198
f 23/31/199 12/3/200 14/8/201 24/49/202
f 13/4/203 22/47/204 21/37/205 15/26/206
f 15/26/207 21/37/208 26/42/209 16/20/210
f 16/20/211 26/42/212 19/29/213
f 24/49/214 14/8/215 8/7/216 25/35/217
f 17/24/218 27/18/219 19/29/220 39/43/221
f 20/33/222 7/14/223 48/17/224
f 42/25/225 49/48/226 6/13/227
f 50/46/228 49/48/229 42/25/230 35/39/231
f 22/47/232 50/46/233 35/39/234 21/37/235
f 46/28/236 51/51/237 9/15/238
f 52/52/239 51/51/240 46/28/241 4/50/242
f 4/50/243 24/49/244 25/35/245 52/52/246
f 57/53/247 58/54/248 59/55/249 60/56/250
f 55/57/251 56/58/252 58/54/253 57/53/254
f 56/58/255 54/59/256 59/55/257 58/54/258
f 54/59/259 53/60/260 60/56/261 59/55/262
f 53/60/263 55/57/264 57/53/265 60/56/266
f 54/59/267 56/58/268 55/57/269 53/60/270
f 61/61/271 62/62/272 64/63/273 63/64/274
f 63/64/275 64/63/276 66/65/277 65/66/278
f 67/67/279 68/68/280 62/62/281 61/61/282
f 62/62/283 68/68/284 66/65/285 64/63/286
f 71/69/287 72/70/288 74/71/289 73/72/290
f 74/71/291 76/73/292 75/74/293 73/72/294
f 75/74/295 76/73/296 70/75/297 69/76/298
f 70/75/299 76/73/300 74/71/301 72/70/302
f 68/68/303 67/67/304 65/66/305 66/65/306
f 63/64/307 65/66/308 67/67/309 61/61/310
f 75/74/311 69/76/312 71/69/313 73/72/314
f 72/70/315 71/69/316 69/76/317 70/75/318
