# This file uses centimeters as units for non-parametric coordinates.

v 29.585266 -16.528015 -40.928192
v 19.671021 51.626358 -39.822388
v 46.698303 15.563850 -32.444000
v 11.029663 70.005074 0.048676
v 61.277771 10.411491 1.004028
v 54.747314 -11.101303 -2.330170
v 2.189331 51.626358 -41.833344
v -1.534119 72.658813 -0.048676
v 9.261780 51.626358 45.555573
v 47.966003 6.148338 42.698517
v 29.585266 -23.763695 42.697906
v -1.534119 51.626358 45.589294
v -32.652893 -16.528015 -40.928192
v -15.431824 51.626358 -40.767059
v -48.850403 16.205406 -36.657257
v -14.095764 70.005074 0.048676
v -55.126343 9.469795 1.003876
v -49.811401 -12.419014 -2.330170
v -12.327881 51.626358 45.555573
v -42.138062 1.745453 42.698212
v -32.652588 -23.763695 42.697906
v 0.999146 17.944069 49.266815
v 0.394897 41.970329 0.049591
v 0.000000 10.057297 -35.983429
v -1.535950 -1.855545 41.861572
v 0.079346 14.319382 -49.266663
vt 0.048232 0.122535
vt 0.048346 0.122190
vt 0.048194 0.122359
vt 0.048624 0.121907
vt 0.048947 0.122167
vt 0.048334 0.122534
vt 0.048698 0.122642
vt 0.048347 0.122674
vt 0.048795 0.122820
vt 0.048302 0.121978
vt 0.048388 0.121924
vt 0.048695 0.121850
vt 0.049007 0.122136
vt 0.048576 0.122354
vt 0.048698 0.122070
vt 0.048765 0.121836
vt 0.048981 0.122199
vt 0.049067 0.122104
vt 0.049194 0.122403
vt 0.048925 0.122373
vt 0.049135 0.122629
vt 0.048494 0.121878
vt 0.049010 0.122422
vt 0.048434 0.122257
vt 0.048967 0.122550
vt 0.048679 0.122101
vn 0.337014 0.068533 -0.939002
vn 0.337014 0.068533 -0.939002
vn 0.337014 0.068533 -0.939002
vn 0.731835 0.621549 0.279454
vn 0.731835 0.621549 0.279454
vn 0.731835 0.621549 0.279454
vn 0.736263 0.607926 0.297225
vn 0.736263 0.607926 0.297225
vn 0.736263 0.607926 0.297225
vn 0.862069 -0.322306 0.391095
vn 0.862069 -0.322306 0.391095
vn 0.862069 -0.322306 0.391095
vn 0.832360 -0.511484 0.213449
vn 0.832360 -0.511484 0.213449
vn 0.832360 -0.511484 0.213449
vn 0.816621 -0.306102 -0.489318
vn 0.816621 -0.306102 -0.489318
vn 0.816621 -0.306102 -0.489318
vn 0.885497 -0.204109 -0.417415
vn 0.885497 -0.204109 -0.417415
vn 0.885497 -0.204109 -0.417415
vn 0.805816 0.584529 -0.094794
vn 0.805816 0.584529 -0.094794
vn 0.805816 0.584529 -0.094794
vn 0.746023 0.625363 -0.228848
vn 0.746023 0.625363 -0.228848
vn 0.746023 0.625363 -0.228848
vn 0.112240 0.188062 -0.975723
vn 0.112240 0.188062 -0.975723
vn 0.112240 0.188062 -0.975723
vn 0.102561 0.912301 0.396470
vn 0.102561 0.912301 0.396470
vn 0.102561 0.912301 0.396470
vn 0.102561 0.912301 0.396470
vn 0.109008 0.901585 -0.418644
vn 0.109008 0.901585 -0.418644
vn 0.109008 0.901585 -0.418644
vn 0.109008 0.901585 -0.418644
vn -0.249444 0.002918 -0.968385
vn -0.249444 0.002918 -0.968385
vn -0.249444 0.002918 -0.968385
vn -0.799328 0.545749 0.251463
vn -0.799328 0.545749 0.251463
vn -0.799327 0.545749 0.251463
vn -0.815498 0.467846 0.340711
vn -0.815498 0.467846 0.340711
vn -0.815498 0.467846 0.340711
vn -0.921021 -0.266856 0.283739
vn -0.921021 -0.266856 0.283739
vn -0.921021 -0.266856 0.283739
vn -0.913962 -0.339856 0.221748
vn -0.913962 -0.339856 0.221748
vn -0.913962 -0.339856 0.221748
vn -0.859344 -0.380673 -0.341491
vn -0.859344 -0.380673 -0.341491
vn -0.859344 -0.380673 -0.341491
vn -0.959314 -0.203055 -0.196178
vn -0.959314 -0.203055 -0.196178
vn -0.959314 -0.203055 -0.196178
vn -0.716248 0.644791 -0.266894
vn -0.716248 0.644791 -0.266894
vn -0.716248 0.644791 -0.266894
vn -0.827462 0.560256 -0.037690
vn -0.827462 0.560256 -0.037690
vn -0.827462 0.560256 -0.037690
vn -0.059202 0.198283 -0.978355
vn -0.059202 0.198283 -0.978355
vn -0.059202 0.198283 -0.978355
vn -0.102579 0.912299 0.396469
vn -0.102579 0.912299 0.396469
vn -0.102579 0.912299 0.396469
vn -0.102579 0.912299 0.396469
vn -0.095508 0.897330 -0.430904
vn -0.095508 0.897330 -0.430904
vn -0.095508 0.897330 -0.430904
vn -0.095508 0.897330 -0.430904
vn 0.132286 -0.025045 0.990895
vn 0.155485 0.070425 0.985325
vn 0.144941 0.026347 0.989089
vn -0.671454 -0.704437 -0.230038
vn -0.671454 -0.704437 -0.230038
vn -0.671454 -0.704437 -0.230038
vn -0.159315 0.024053 0.986935
vn -0.166099 0.042831 0.985179
vn -0.144773 -0.015647 0.989341
vn 0.000069 0.108543 0.994092
vn 0.003105 0.108768 0.994062
vn -0.000148 0.108527 0.994094
vn -0.547839 -0.612788 -0.569529
vn -0.547839 -0.612789 -0.569529
vn -0.547839 -0.612789 -0.569529
vn -0.547839 -0.612789 -0.569529
vn -0.565681 -0.643497 0.515671
vn -0.565681 -0.643497 0.515671
vn -0.565681 -0.643497 0.515671
vn -0.565681 -0.643497 0.515671
vn 0.596707 -0.625850 -0.502247
vn 0.596707 -0.625850 -0.502247
vn 0.596707 -0.625850 -0.502247
vn 0.596707 -0.625850 -0.502247
vn 0.602445 -0.657408 0.452631
vn 0.602445 -0.657408 0.452631
vn 0.602445 -0.657408 0.452631
vn 0.602445 -0.657408 0.452631
vn -0.244368 -0.312085 0.918089
vn -0.244368 -0.312085 0.918089
vn -0.244368 -0.312085 0.918089
vn 0.282603 -0.367564 0.886021
vn 0.282603 -0.367564 0.886021
vn 0.282603 -0.367564 0.886021
vn 0.337374 0.060642 -0.939416
vn 0.337374 0.060642 -0.939416
vn 0.337374 0.060642 -0.939416
vn -0.243535 0.118071 -0.962678
vn -0.243535 0.118071 -0.962678
vn -0.243535 0.118071 -0.962678
vn 0.635001 -0.736670 -0.232576
vn 0.635001 -0.736670 -0.232576
vn 0.635001 -0.736670 -0.232576
vn -0.159315 0.024053 0.986935
vn -0.144773 -0.015647 0.989341
vn -0.132274 -0.049197 0.989992
vn 0.132286 -0.025045 0.990895
vn 0.144941 0.026347 0.989089
vn 0.119941 -0.073723 0.990040
vn 0.000069 0.108543 0.994092
vn -0.000148 0.108527 0.994094
vn -0.003106 0.108306 0.994113
s off
f 1/1/1 26/2/2 3/3/3
f 4/4/4 9/5/5 5/6/6
f 5/6/7 9/5/8 10/7/9
f 6/8/10 5/6/11 11/9/12
f 11/9/13 5/6/14 10/7/15
f 1/1/16 3/3/17 6/8/18
f 6/8/19 3/3/20 5/6/21
f 2/10/22 4/4/23 3/3/24
f 3/3/25 4/4/26 5/6/27
f 2/10/28 26/2/29 7/11/30
f 9/5/31 4/4/32 8/12/33 12/13/34
f 4/4/35 2/10/36 7/11/37 8/12/38
f 13/14/39 15/15/40 26/2/41
f 16/16/42 17/17/43 19/18/44
f 17/17/45 20/19/46 19/18/47
f 18/20/48 21/21/49 17/17/50
f 21/21/51 20/19/52 17/17/53
f 13/14/54 18/20/55 15/15/56
f 18/20/57 17/17/58 15/15/59
f 14/22/60 15/15/61 16/16/62
f 15/15/63 17/17/64 16/16/65
f 14/22/66 7/11/67 26/2/68
f 19/18/69 12/13/70 8/12/71 16/16/72
f 16/16/73 8/12/74 7/11/75 14/22/76
f 10/7/77 9/5/78 22/23/79
f 1/1/80 24/24/81 26/2/82
f 22/23/83 19/18/84 20/19/85
f 22/23/86 9/5/87 12/13/88
f 11/9/89 25/25/90 23/26/91 6/8/92
f 1/1/93 6/8/94 23/26/95 24/24/96
f 18/20/97 23/26/98 25/25/99 21/21/100
f 24/24/101 23/26/102 18/20/103 13/14/104
f 22/23/105 25/25/106 11/9/107
f 21/21/108 25/25/109 22/23/110
f 26/2/111 2/10/112 3/3/113
f 26/2/114 15/15/115 14/22/116
f 26/2/117 24/24/118 13/14/119
f 22/23/120 20/19/121 21/21/122
f 10/7/123 22/23/124 11/9/125
f 22/23/126 12/13/127 19/18/128
