# This file uses centimeters as units for non-parametric coordinates.

v 235.439743 94.773537 0.079269
v 167.576309 94.773537 0.079269
v 235.439743 94.773537 2.090378
v 167.576309 94.773537 2.090378
v 235.439743 189.180939 2.090302
v 167.576309 189.180939 2.090302
v 235.439743 189.180939 0.079269
v 167.576309 189.180939 0.079269
v 216.398636 92.557579 0.883179
v 216.398636 191.396912 -1.060104
v 216.398636 191.396912 3.229675
v 216.398636 92.557655 3.111343
v 190.108932 94.773537 0.079269
v 190.108932 94.773537 2.090378
v 190.108932 187.921875 2.090302
v 190.108932 187.921936 0.079269
v 214.304977 94.773537 0.079269
v 214.304977 187.921936 0.079269
v 214.304977 187.921875 2.090302
v 214.304977 94.773537 2.090378
v 187.786575 92.557503 -1.479645
v 187.786575 92.557579 0.598297
v 187.786575 191.396912 3.229675
v 187.786575 191.396912 -1.060028
v 192.208084 91.043221 -0.859985
v 192.208084 91.043221 4.235382
v 192.208084 190.712921 4.035339
v 192.208084 190.712860 -1.060028
v 211.928085 91.043221 -0.859985
v 211.928085 190.712860 -1.060028
v 211.928085 190.712921 4.035339
v 211.928085 91.043221 4.235382
v 234.384476 92.557579 -1.178436
v 234.384476 191.396912 -1.060104
v 234.384476 191.396912 3.229752
v 234.384476 92.557732 1.517944
v 169.183945 92.557579 1.078644
v 169.183945 92.557732 2.810059
v 169.183945 191.396912 3.229752
v 169.183945 191.396912 -1.060104
v 200.782181 91.043221 4.235382
v 196.849503 91.043221 4.235382
v 200.741898 91.043221 -0.859985
v 197.012344 91.043221 -0.859985
v 199.164261 93.360649 4.214249
v 198.715225 92.847038 -0.875854
v 234.384476 100.253883 3.123627
v 226.923203 92.557655 3.111343
v 169.183945 99.896675 -1.438141
v 179.597763 92.557579 -1.479797
v 187.786575 98.853127 2.845764
v 178.845840 92.557732 2.810059
v 216.398636 96.228691 -1.172638
v 224.495712 92.557579 -1.178436
v 199.164261 93.360649 4.214249
vt 0.488034 0.155990
vt 0.488102 0.155991
vt 0.488103 0.156030
vt 0.488033 0.156028
vt 0.487863 0.155222
vt 0.488133 0.155227
vt 0.488001 0.155964
vt 0.487865 0.155263
vt 0.488133 0.155267
vt 0.488009 0.156008
vt 0.488467 0.155989
vt 0.488467 0.155973
vt 0.488470 0.155263
vt 0.488469 0.155279
vt 0.487544 0.155263
vt 0.487542 0.155247
vt 0.487470 0.155954
vt 0.487472 0.155970
vt 0.487486 0.156004
vt 0.487631 0.156006
vt 0.487752 0.155968
vt 0.487805 0.155256
vt 0.487562 0.155252
vt 0.487803 0.155221
vt 0.487558 0.155217
vt 0.487746 0.155976
vt 0.487591 0.155973
vt 0.487490 0.155887
vt 0.487748 0.155993
vt 0.487483 0.155983
vt 0.488135 0.155967
vt 0.488169 0.156003
vt 0.488169 0.156019
vt 0.488136 0.155982
vt 0.488161 0.155269
vt 0.488193 0.155228
vt 0.488171 0.155917
vt 0.488161 0.155285
vt 0.488194 0.155262
vt 0.487781 0.155975
vt 0.487831 0.155280
vt 0.487830 0.155264
vt 0.487780 0.155960
vt 0.488301 0.155989
vt 0.488444 0.155992
vt 0.488443 0.156005
vt 0.488289 0.156021
vt 0.488448 0.155232
vt 0.488447 0.155266
vt 0.488443 0.155944
vt 0.487814 0.156024
vt 0.487810 0.155986
vt 0.487975 0.155989
vt 0.487978 0.156027
vt 0.488001 0.155964
vn 0.000000 -1.000000 0.000001
vn 0.000000 -1.000000 0.000001
vn 0.000000 -1.000000 0.000001
vn 0.000000 -1.000000 0.000001
vn 0.000000 0.001838 0.999998
vn 0.000000 0.001838 0.999998
vn 0.000000 0.001838 0.999998
vn 0.000000 1.000000 -0.000014
vn 0.000000 1.000000 -0.000014
vn 0.000000 1.000000 -0.000014
vn 0.000000 1.000000 -0.000014
vn -0.001867 -0.002097 -0.999996
vn -0.001867 -0.002097 -0.999996
vn -0.001867 -0.002097 -0.999996
vn -0.001867 -0.002097 -0.999996
vn -1.000000 0.000000 0.000000
vn -1.000000 0.000000 0.000000
vn -1.000000 0.000000 0.000000
vn -1.000000 0.000000 0.000000
vn 1.000000 0.000000 0.000000
vn 1.000000 0.000000 0.000000
vn 1.000000 0.000000 0.000000
vn 1.000000 0.000000 0.000000
vn -0.000040 0.001194 -0.999999
vn -0.000040 0.001194 -0.999999
vn -0.000040 0.001194 -0.999999
vn -0.000040 0.001194 -0.999999
vn -0.000040 0.001194 -0.999999
vn 0.000000 1.000000 0.000000
vn 0.000000 1.000000 0.000000
vn 0.000000 1.000000 0.000000
vn 0.000000 1.000000 0.000000
vn -0.000087 -0.001191 0.999999
vn -0.000087 -0.001191 0.999999
vn -0.000087 -0.001191 0.999999
vn -0.000087 -0.001191 0.999999
vn -0.000087 -0.001191 0.999999
vn 0.000005 -1.000000 0.000025
vn 0.000005 -1.000000 0.000025
vn 0.000005 -1.000000 0.000025
vn 0.000005 -1.000000 0.000025
vn 0.000005 -1.000000 0.000025
vn 0.000005 -1.000000 0.000025
vn 0.690332 -0.723493 0.000013
vn 0.690332 -0.723493 0.000013
vn 0.690332 -0.723493 0.000013
vn 0.690332 -0.723493 0.000013
vn 0.375056 -0.001916 0.927000
vn 0.375056 -0.001916 0.927000
vn 0.375056 -0.001916 0.927000
vn 0.375056 -0.001916 0.927000
vn 0.831420 0.555645 0.000007
vn 0.831420 0.555645 0.000007
vn 0.831420 0.555645 0.000007
vn 0.831420 0.555645 0.000007
vn 0.502702 0.001889 -0.864458
vn 0.502702 0.001889 -0.864458
vn 0.502702 0.001889 -0.864458
vn 0.502702 0.001889 -0.864458
vn -0.496365 0.000518 -0.868114
vn -0.496365 0.000518 -0.868114
vn -0.496365 0.000518 -0.868114
vn -0.496365 0.000518 -0.868114
vn -0.856544 0.516074 0.000007
vn -0.856544 0.516074 0.000007
vn -0.856544 0.516074 0.000007
vn -0.856544 0.516074 0.000007
vn -0.458371 -0.000547 0.888761
vn -0.458371 -0.000547 0.888761
vn -0.458371 -0.000547 0.888761
vn -0.458371 -0.000547 0.888761
vn -0.726877 -0.686767 0.000013
vn -0.726877 -0.686767 0.000013
vn -0.726877 -0.686767 0.000013
vn -0.726877 -0.686767 0.000013
vn -0.000001 -1.000000 0.000044
vn -0.000001 -1.000000 0.000044
vn -0.000001 -1.000000 0.000044
vn -0.000001 -1.000000 0.000044
vn -0.000001 -1.000000 0.000044
vn -0.000001 -1.000000 0.000044
vn -0.000243 -0.004224 0.999991
vn -0.000243 -0.004224 0.999991
vn -0.000243 -0.004224 0.999991
vn -0.000243 -0.004224 0.999991
vn -0.000243 -0.004224 0.999991
vn 0.000000 1.000000 0.000000
vn 0.000000 1.000000 0.000000
vn 0.000000 1.000000 0.000000
vn 0.000000 1.000000 0.000000
vn -0.000283 0.004216 -0.999991
vn -0.000283 0.004216 -0.999991
vn -0.000283 0.004216 -0.999991
vn -0.000283 0.004216 -0.999991
vn -0.000283 0.004216 -0.999991
vn -0.871474 -0.490442 0.000000
vn -0.871474 -0.490442 0.000000
vn -0.871474 -0.490442 0.000000
vn -0.871474 -0.490442 0.000000
vn -0.697723 0.000743 0.716367
vn -0.697723 0.000743 0.716367
vn -0.697723 0.000743 0.716367
vn -0.697723 0.000743 0.716367
vn -0.799184 0.601087 0.000000
vn -0.799184 0.601087 0.000000
vn -0.799184 0.601087 0.000000
vn -0.799184 0.601087 0.000000
vn -0.443860 -0.000930 -0.896096
vn -0.443860 -0.000930 -0.896096
vn -0.443860 -0.000930 -0.896096
vn -0.443860 -0.000930 -0.896096
vn 0.400805 -0.000950 -0.916163
vn 0.400805 -0.000950 -0.916163
vn 0.400805 -0.000950 -0.916163
vn 0.400805 -0.000950 -0.916163
vn 0.761353 0.648338 0.000000
vn 0.761353 0.648338 0.000000
vn 0.761353 0.648338 0.000000
vn 0.761353 0.648338 0.000000
vn 0.652141 0.000787 0.758097
vn 0.652141 0.000787 0.758097
vn 0.652141 0.000787 0.758097
vn 0.652141 0.000787 0.758097
vn 0.843364 -0.537343 0.000000
vn 0.843364 -0.537343 0.000000
vn 0.843364 -0.537343 0.000000
vn 0.843364 -0.537343 0.000000
vn 0.750549 0.000405 -0.660815
vn 0.750549 0.000405 -0.660815
vn 0.750549 0.000405 -0.660815
vn 0.750549 0.000405 -0.660815
vn 0.902858 0.429938 0.000000
vn 0.902858 0.429938 0.000000
vn 0.902858 0.429939 0.000000
vn 0.902858 0.429938 0.000000
vn 0.716599 -0.000398 0.697486
vn 0.716599 -0.000398 0.697486
vn 0.716599 -0.000398 0.697486
vn 0.716599 -0.000398 0.697486
vn 0.902845 -0.429965 0.000013
vn 0.902845 -0.429965 0.000013
vn 0.902845 -0.429965 0.000013
vn 0.902845 -0.429965 0.000013
vn -0.809427 -0.587220 0.000023
vn -0.809427 -0.587221 0.000023
vn -0.809427 -0.587220 0.000023
vn -0.809427 -0.587220 0.000023
vn -0.500592 -0.001879 0.865681
vn -0.500592 -0.001879 0.865681
vn -0.500592 -0.001879 0.865681
vn -0.500592 -0.001879 0.865681
vn -0.809429 0.587218 0.000000
vn -0.809429 0.587218 0.000000
vn -0.809429 0.587218 0.000000
vn -0.809429 0.587218 0.000000
vn -0.639106 0.001564 -0.769117
vn -0.639106 0.001564 -0.769117
vn -0.639106 0.001564 -0.769117
vn -0.639106 0.001564 -0.769117
vn 0.000000 -1.000000 0.000000
vn 0.000000 -1.000000 0.000000
vn 0.000000 -1.000000 0.000000
vn 0.000000 -1.000000 0.000000
vn 0.000000 0.000000 0.000000
vn 0.000000 0.000000 0.000000
vn 0.000000 0.000000 0.000000
vn 0.000918 -0.002110 -0.999997
vn 0.000918 -0.002110 -0.999997
vn 0.000918 -0.002110 -0.999997
vn 0.000918 -0.002110 -0.999997
vn 0.000000 -0.001882 -0.999998
vn 0.000000 -0.001882 -0.999998
vn 0.000000 -0.001882 -0.999998
vn 0.000000 0.000000 0.000000
vn 0.000000 0.000000 0.000000
vn 0.000000 0.000000 0.000000
vn 0.002341 0.002116 0.999995
vn 0.002341 0.002116 0.999995
vn 0.002341 0.002116 0.999995
vn 0.002341 0.002116 0.999995
vn -0.001270 0.002149 0.999997
vn -0.001270 0.002149 0.999997
vn -0.001270 0.002149 0.999997
vn -0.001270 0.002149 0.999997
vn -0.101618 -0.203179 0.973854
vn -0.101618 -0.203179 0.973854
vn -0.101618 -0.203179 0.973854
vn 0.204630 -0.199917 0.958207
vn 0.204630 -0.199917 0.958207
vn 0.204630 -0.199917 0.958207
vn 0.139526 -0.321159 -0.936691
vn 0.139526 -0.321159 -0.936691
vn 0.139526 -0.321159 -0.936691
vn -0.226359 -0.315972 -0.921370
vn -0.226359 -0.315972 -0.921370
vn -0.226359 -0.315972 -0.921370
vn -0.273438 -0.323395 0.905896
vn -0.273438 -0.323395 0.905896
vn -0.273438 -0.323395 0.905896
vn 0.226898 -0.327443 0.917223
vn 0.226898 -0.327443 0.917223
vn 0.226898 -0.327443 0.917223
vn -0.179184 -0.480719 -0.858372
vn -0.179184 -0.480719 -0.858372
vn -0.179184 -0.480719 -0.858372
vn -0.216863 -0.476972 -0.851744
vn -0.216863 -0.476972 -0.851744
vn -0.216863 -0.476972 -0.851744
vn -0.747636 -0.660491 0.069227
vn -0.747636 -0.660491 0.069227
vn -0.747636 -0.660491 0.069227
vn -0.747636 -0.660491 0.069227
vn 0.716019 -0.697918 0.015078
vn 0.716019 -0.697918 0.015078
vn 0.716019 -0.697918 0.015078
vn 0.716019 -0.697918 0.015078
s off
f 42/1/1 26/2/2 25/3/3 44/4/4
f 31/5/5 27/6/6 45/7/7
f 30/8/8 28/9/9 27/6/10 31/5/11
f 46/10/12 44/4/13 25/3/14 28/9/15
f 2/11/16 4/12/17 6/13/18 8/14/19
f 7/15/20 5/16/21 3/17/22 1/18/23
f 33/19/24 54/20/25 53/21/26 10/22/27 34/23/28
f 34/23/29 10/22/30 11/24/31 35/25/32
f 35/25/33 11/24/34 12/26/35 48/27/36 47/28/37
f 48/27/38 12/26/39 9/29/40 54/20/41 33/19/42 36/30/43
f 14/31/44 22/32/45 21/33/46 13/34/47
f 15/35/48 23/36/49 51/37/50 14/31/51
f 16/38/52 24/39/53 23/36/54 15/35/55
f 13/34/56 21/33/57 24/39/58 16/38/59
f 17/40/60 18/41/61 10/22/62 53/21/63
f 10/22/64 18/41/65 19/42/66 11/24/67
f 11/24/68 19/42/69 20/43/70 12/26/71
f 12/26/72 20/43/73 17/40/74 9/29/75
f 52/44/76 38/45/77 37/46/78 50/47/79 21/33/80 22/32/81
f 23/36/82 39/48/83 38/45/84 52/44/85 51/37/86
f 24/39/87 40/49/88 39/48/89 23/36/90
f 21/33/91 50/47/92 49/50/93 40/49/94 24/39/95
f 26/2/96 14/31/97 13/34/98 25/3/99
f 27/6/100 15/35/101 14/31/102 26/2/103
f 28/9/104 16/38/105 15/35/106 27/6/107
f 25/3/108 13/34/109 16/38/110 28/9/111
f 17/40/112 29/51/113 30/8/114 18/41/115
f 18/41/116 30/8/117 31/5/118 19/42/119
f 19/42/120 31/5/121 32/52/122 20/43/123
f 20/43/124 32/52/125 29/51/126 17/40/127
f 7/15/128 1/18/129 33/19/130 34/23/131
f 5/16/132 7/15/133 34/23/134 35/25/135
f 3/17/136 5/16/137 35/25/138 47/28/139
f 1/18/140 3/17/141 36/30/142 33/19/143
f 38/45/144 4/12/145 2/11/146 37/46/147
f 39/48/148 6/13/149 4/12/150 38/45/151
f 40/49/152 8/14/153 6/13/154 39/48/155
f 2/11/156 8/14/157 40/49/158 49/50/159
f 32/52/160 41/53/161 43/54/162 29/51/163
f 41/53/164 45/7/165 55/55/166
f 29/51/167 43/54/168 46/10/169 30/8/170
f 46/10/171 28/9/172 30/8/173
f 45/7/174 42/1/175 55/55/176
f 27/6/177 26/2/178 42/1/179 45/7/180
f 31/5/181 45/7/182 41/53/183 32/52/184
f 3/17/185 47/28/186 36/30/187
f 48/27/188 36/30/189 47/28/190
f 37/46/191 2/11/192 49/50/193
f 50/47/194 37/46/195 49/50/196
f 51/37/197 22/32/198 14/31/199
f 52/44/200 22/32/201 51/37/202
f 9/29/203 17/40/204 53/21/205
f 54/20/206 9/29/207 53/21/208
f 43/54/209 41/53/210 55/55/211 46/10/212
f 55/55/213 42/1/214 44/4/215 46/10/216
