# This file uses centimeters as units for non-parametric coordinates.

v 96.314514 97.522919 -0.351487
v 151.607544 97.522919 -0.351487
v 96.314514 166.062881 -0.351487
v 151.607544 166.062881 -0.351487
v 96.314514 166.062881 -0.871757
v 151.607544 166.062881 -0.871757
v 96.314514 97.522919 -0.871757
v 151.607544 97.522919 -0.871757
vt 0.538199 0.530747
vt 0.589106 0.530747
vt 0.589106 0.593850
vt 0.538199 0.593850
vt 0.538199 0.530747
vt 0.589106 0.530747
vt 0.589106 0.593850
vt 0.538199 0.593850
vn 0.000000 0.000000 1.000000
vn 0.000000 0.000000 1.000000
vn 0.000000 0.000000 1.000000
vn 0.000000 0.000000 1.000000
vn 0.000000 0.000000 -1.000000
vn 0.000000 0.000000 -1.000000
vn 0.000000 0.000000 -1.000000
vn 0.000000 0.000000 -1.000000
s off
f 1/1/1 2/2/2 4/3/3 3/4/4
f 5/5/5 6/6/6 8/7/7 7/8/8
