# This file uses centimeters as units for non-parametric coordinates.

v 64.248657 112.158569 7.806625
v 7.651062 112.158569 12.999573
v 64.248657 117.382782 7.806625
v 7.651062 117.382782 12.999573
v 64.641724 117.382782 12.089615
v 8.044128 117.382782 17.282562
v 64.641724 112.158569 12.089615
v 8.044128 112.158569 17.282562
v 60.256653 101.309784 9.512024
v 5.219421 101.309784 14.561844
v 60.381165 101.309784 10.869217
v 5.343933 101.309784 15.919037
v 60.381165 182.371201 10.869217
v 5.343933 182.371201 15.919037
v 60.256653 182.371201 9.512024
v 5.219421 182.371201 14.561844
v 44.864197 98.725067 11.471405
v 44.743958 184.955902 10.159912
v 45.009766 184.955902 13.054962
v 45.002441 98.725067 12.975082
v 23.493347 99.570335 12.885132
v 23.617859 99.570335 14.242401
v 23.617859 182.642090 14.242401
v 23.493347 182.642090 12.885132
v 43.116455 99.570335 11.084671
v 43.116455 182.642090 11.084671
v 43.240967 182.642090 12.441864
v 43.240967 99.570335 12.441864
v 21.513367 98.725067 12.005844
v 21.642151 98.725067 13.408127
v 21.804810 184.955902 15.184021
v 21.539307 184.955902 12.289124
v 25.138245 98.421341 12.095032
v 25.453796 98.421341 15.533752
v 25.441284 184.955902 15.398636
v 25.125732 184.955902 11.959915
v 41.130676 98.421341 10.627670
v 41.118469 184.955902 10.492630
v 41.433716 184.955902 13.931274
v 41.446228 98.421341 14.066391
v 59.323425 98.725067 8.741684
v 59.330750 184.955902 8.821564
v 59.596252 184.955902 11.716690
v 59.490356 98.725067 10.561371
v 6.584778 98.725067 15.116653
v 6.692200 98.725067 16.285172
v 6.717834 184.955902 16.568375
v 6.452332 184.955902 13.673325
v 59.589844 107.702148 11.645050
v 53.537903 98.725067 12.191925
v 6.429138 107.285477 13.418198
v 14.872742 98.725067 12.615051
v 21.781311 120.106659 14.925003
v 14.528198 98.725067 15.566177
v 44.736938 112.681755 10.084000
v 51.302795 98.725067 9.477615
v 64.248657 166.704407 7.806625
v 7.651062 166.704407 12.999573
v 64.248657 171.928589 7.806625
v 7.651062 171.928589 12.999573
v 64.641724 171.928589 12.089615
v 8.044128 171.928589 17.282562
v 64.641724 166.704407 12.089615
v 8.044128 166.704407 17.282562
v 65.767212 171.928589 9.826813
v 65.767212 166.704407 9.826813
v 65.767212 117.382782 9.826813
v 65.767212 112.158569 9.826813
vt 0.092881 0.233025
vt 0.091979 0.233138
vt 0.091881 0.233066
vt 0.092881 0.232958
vt 0.091986 0.233000
vt 0.092866 0.232915
vt 0.092063 0.233069
vt 0.092867 0.232979
vt 0.488512 0.156402
vt 0.488708 0.155427
vt 0.488852 0.155425
vt 0.488631 0.156399
vt 0.488695 0.155406
vt 0.488837 0.155404
vt 0.488777 0.156348
vt 0.488781 0.156358
vt 0.489015 0.155449
vt 0.489009 0.155441
vt 0.488522 0.155448
vt 0.488527 0.155456
vt 0.488371 0.156367
vt 0.488367 0.156357
vt 0.488368 0.156375
vt 0.488427 0.156374
vt 0.488501 0.156239
vt 0.488663 0.155407
vt 0.488533 0.155408
vt 0.488674 0.155424
vt 0.488543 0.155426
vt 0.488483 0.156394
vt 0.488420 0.156395
vt 0.488389 0.156311
vt 0.488479 0.156383
vt 0.488372 0.156388
vt 0.488642 0.156378
vt 0.488651 0.156378
vt 0.488646 0.156367
vt 0.488637 0.156368
vt 0.488854 0.155448
vt 0.488881 0.155421
vt 0.488704 0.156180
vt 0.488848 0.155439
vt 0.488869 0.155404
vt 0.488492 0.156371
vt 0.488675 0.155442
vt 0.488680 0.155450
vt 0.488496 0.156381
vt 0.488709 0.156388
vt 0.488767 0.156386
vt 0.488763 0.156378
vt 0.488695 0.156366
vt 0.489016 0.155419
vt 0.489002 0.155402
vt 0.488778 0.156284
vt 0.488620 0.156374
vt 0.488502 0.156376
vt 0.092881 0.233025
vt 0.091979 0.233138
vt 0.091881 0.233066
vt 0.092881 0.232958
vt 0.091986 0.233000
vt 0.092866 0.232915
vt 0.092063 0.233069
vt 0.092867 0.232979
vt 0.092874 0.232936
vt 0.092874 0.233002
vt 0.092874 0.232936
vt 0.092874 0.233002
vn -0.091368 0.000000 -0.995817
vn -0.091368 0.000000 -0.995817
vn -0.091368 0.000000 -0.995817
vn -0.091368 0.000000 -0.995817
vn 0.000000 1.000000 0.000000
vn 0.000000 1.000000 0.000000
vn 0.000000 1.000000 0.000000
vn 0.000000 1.000000 0.000000
vn 0.000000 1.000000 0.000000
vn 0.091368 0.000000 0.995817
vn 0.091368 0.000000 0.995817
vn 0.091368 0.000000 0.995817
vn 0.091368 0.000000 0.995817
vn 0.000000 -1.000000 0.000001
vn 0.000000 -1.000000 0.000001
vn 0.000000 -1.000000 0.000001
vn 0.000000 -1.000000 0.000001
vn 0.000000 -1.000000 0.000001
vn -0.995815 0.000000 0.091390
vn -0.995815 0.000000 0.091390
vn -0.995815 0.000000 0.091390
vn -0.995815 0.000000 0.091390
vn 0.995815 0.000000 -0.091389
vn 0.995815 0.000000 -0.091389
vn 0.799352 0.000000 -0.600864
vn 0.799352 0.000000 -0.600864
vn 0.091370 0.001568 0.995816
vn 0.091370 0.001568 0.995816
vn 0.091370 0.001568 0.995816
vn 0.091370 0.001568 0.995816
vn 0.000000 1.000000 0.000001
vn 0.000000 1.000000 0.000001
vn 0.000000 1.000000 0.000001
vn 0.000000 1.000000 0.000001
vn -0.995818 0.000000 0.091358
vn -0.995818 0.000000 0.091358
vn -0.995818 0.000000 0.091358
vn -0.995818 0.000000 0.091358
vn 0.995818 0.000000 -0.091358
vn 0.995818 0.000000 -0.091358
vn 0.995818 0.000000 -0.091358
vn 0.995818 0.000000 -0.091358
vn -0.091049 0.000954 -0.995846
vn -0.091049 0.000954 -0.995846
vn -0.091049 0.000954 -0.995846
vn -0.091049 0.000954 -0.995846
vn -0.091049 0.000954 -0.995846
vn 0.000000 1.000000 -0.000003
vn 0.000000 1.000000 -0.000003
vn 0.000000 1.000000 -0.000003
vn 0.000000 1.000000 -0.000003
vn 0.091366 -0.000931 0.995817
vn 0.091366 -0.000931 0.995817
vn 0.091366 -0.000931 0.995817
vn 0.091366 -0.000931 0.995817
vn 0.091366 -0.000931 0.995817
vn 0.000000 -1.000000 0.000000
vn 0.000000 -1.000000 0.000000
vn 0.000000 -1.000000 0.000000
vn 0.000000 -1.000000 0.000000
vn 0.000000 -1.000000 0.000000
vn 0.000000 -1.000000 0.000000
vn 0.406329 -0.912966 -0.037292
vn 0.406329 -0.912966 -0.037292
vn 0.406329 -0.912966 -0.037292
vn 0.406329 -0.912966 -0.037292
vn 0.397849 -0.001670 0.917449
vn 0.397849 -0.001670 0.917449
vn 0.397849 -0.001670 0.917449
vn 0.397849 -0.001670 0.917449
vn 0.770994 0.632904 -0.070712
vn 0.770994 0.632904 -0.070712
vn 0.770994 0.632904 -0.070712
vn 0.770994 0.632904 -0.070712
vn 0.351626 0.001512 -0.936139
vn 0.351626 0.001512 -0.936139
vn 0.351626 0.001512 -0.936139
vn 0.351626 0.001512 -0.936139
vn -0.511495 0.000443 -0.859286
vn -0.511495 0.000443 -0.859286
vn -0.511495 0.000443 -0.859286
vn -0.511495 0.000443 -0.859286
vn -0.801625 0.593283 0.073578
vn -0.801625 0.593283 0.073578
vn -0.801625 0.593283 0.073578
vn -0.801625 0.593283 0.073578
vn -0.308673 -0.000435 0.951168
vn -0.308673 -0.000435 0.951168
vn -0.308673 -0.000435 0.951168
vn -0.308673 -0.000435 0.951168
vn -0.442272 -0.895961 0.040621
vn -0.442272 -0.895961 0.040621
vn -0.442272 -0.895961 0.040621
vn -0.442272 -0.895961 0.040621
vn 0.000000 -1.000000 0.000000
vn 0.000000 -1.000000 0.000000
vn 0.000000 -1.000000 0.000000
vn 0.000000 -1.000000 0.000000
vn 0.000000 -1.000000 0.000000
vn 0.000000 -1.000000 0.000000
vn 0.092989 -0.003434 0.995661
vn 0.092989 -0.003434 0.995661
vn 0.092989 -0.003434 0.995661
vn 0.092989 -0.003434 0.995661
vn 0.092989 -0.003434 0.995661
vn 0.000000 1.000000 -0.000003
vn 0.000000 1.000000 -0.000003
vn 0.000000 1.000000 -0.000003
vn 0.000000 1.000000 -0.000003
vn -0.091365 0.003299 -0.995812
vn -0.091365 0.003299 -0.995812
vn -0.091365 0.003299 -0.995812
vn -0.091365 0.003299 -0.995812
vn -0.091365 0.003299 -0.995812
vn -0.555333 -0.830065 0.050956
vn -0.555333 -0.830065 0.050956
vn -0.555333 -0.830065 0.050956
vn -0.555334 -0.830065 0.050956
vn -0.556096 0.000621 0.831118
vn -0.556096 0.000621 0.831118
vn -0.556096 0.000621 0.831118
vn -0.556096 0.000621 0.831118
vn -0.800826 0.594372 0.073478
vn -0.800826 0.594372 0.073478
vn -0.800826 0.594372 0.073478
vn -0.800826 0.594372 0.073478
vn -0.463513 -0.000740 -0.886090
vn -0.463513 -0.000740 -0.886090
vn -0.463513 -0.000740 -0.886090
vn -0.463513 -0.000740 -0.886090
vn 0.254443 -0.000752 -0.967088
vn 0.254443 -0.000752 -0.967088
vn 0.254443 -0.000752 -0.967088
vn 0.254443 -0.000752 -0.967088
vn 0.763799 0.641643 -0.070038
vn 0.763799 0.641643 -0.070038
vn 0.763799 0.641643 -0.070038
vn 0.763799 0.641643 -0.070038
vn 0.654116 0.000651 0.756394
vn 0.654116 0.000651 0.756394
vn 0.654116 0.000651 0.756394
vn 0.654116 0.000651 0.756394
vn 0.508298 -0.859917 -0.046642
vn 0.508298 -0.859917 -0.046642
vn 0.508298 -0.859917 -0.046642
vn 0.508298 -0.859917 -0.046642
vn 0.617836 0.000348 -0.786307
vn 0.617836 0.000348 -0.786307
vn 0.617836 0.000348 -0.786307
vn 0.617836 0.000348 -0.786307
vn 0.944999 0.315381 -0.086675
vn 0.944999 0.315381 -0.086675
vn 0.944999 0.315381 -0.086675
vn 0.944999 0.315381 -0.086675
vn 0.716479 -0.000345 0.697608
vn 0.716479 -0.000345 0.697608
vn 0.716479 -0.000345 0.697608
vn 0.716479 -0.000345 0.697608
vn 0.945003 -0.315362 -0.086691
vn 0.945003 -0.315362 -0.086691
vn 0.945003 -0.315362 -0.086691
vn 0.945003 -0.315362 -0.086691
vn -0.888377 -0.451808 0.081581
vn -0.888377 -0.451808 0.081581
vn -0.888377 -0.451808 0.081581
vn -0.888377 -0.451808 0.081581
vn -0.349511 -0.001533 0.936931
vn -0.349511 -0.001533 0.936931
vn -0.349511 -0.001533 0.936931
vn -0.349511 -0.001533 0.936931
vn -0.888404 0.451772 0.081485
vn -0.888404 0.451772 0.081485
vn -0.888404 0.451772 0.081485
vn -0.888404 0.451772 0.081485
vn -0.642302 0.001326 -0.766451
vn -0.642302 0.001326 -0.766450
vn -0.642302 0.001326 -0.766450
vn -0.642302 0.001326 -0.766451
vn 0.000000 -1.000000 -0.000000
vn 0.000000 -1.000000 -0.000000
vn 0.000000 -1.000000 -0.000000
vn 0.000000 -1.000000 -0.000000
vn -0.091366 -0.001567 -0.995816
vn -0.091366 -0.001567 -0.995816
vn -0.091366 -0.001567 -0.995816
vn -0.091366 -0.001567 -0.995816
vn 0.004803 -0.119897 0.992775
vn 0.004803 -0.119897 0.992775
vn 0.004803 -0.119897 0.992775
vn 0.262335 -0.118514 0.957672
vn 0.262335 -0.118514 0.957672
vn 0.262335 -0.118514 0.957672
vn 0.031221 -0.193973 -0.980510
vn 0.031221 -0.193973 -0.980510
vn 0.031221 -0.193974 -0.980510
vn -0.283607 -0.191582 -0.939608
vn -0.283607 -0.191582 -0.939608
vn -0.283607 -0.191582 -0.939608
vn -0.365036 -0.063518 0.928824
vn -0.365036 -0.063518 0.928824
vn -0.365036 -0.063518 0.928824
vn 0.289587 -0.069608 0.954617
vn 0.289587 -0.069608 0.954617
vn 0.289587 -0.069608 0.954617
vn 0.170601 -0.095930 -0.980659
vn 0.170601 -0.095930 -0.980659
vn 0.170601 -0.095930 -0.980659
vn -0.294403 -0.097194 -0.950726
vn -0.294403 -0.097194 -0.950726
vn -0.294403 -0.097194 -0.950726
vn -0.091368 0.000000 -0.995817
vn -0.091368 0.000000 -0.995817
vn -0.091368 0.000000 -0.995817
vn -0.091368 0.000000 -0.995817
vn 0.000000 1.000000 0.000001
vn 0.000000 1.000000 0.000001
vn 0.000000 1.000000 0.000001
vn 0.000000 1.000000 0.000001
vn 0.000000 1.000000 0.000001
vn 0.091368 0.000000 0.995817
vn 0.091368 0.000000 0.995817
vn 0.091368 0.000000 0.995817
vn 0.091368 0.000000 0.995817
vn 0.000000 -1.000000 0.000002
vn 0.000000 -1.000000 0.000002
vn 0.000000 -1.000000 0.000002
vn 0.000000 -1.000000 0.000002
vn 0.000000 -1.000000 0.000002
vn -0.995815 0.000000 0.091390
vn -0.995815 0.000000 0.091390
vn -0.995815 0.000000 0.091390
vn -0.995815 0.000000 0.091390
vn 0.995815 0.000000 -0.091390
vn 0.995815 0.000000 -0.091390
vn 0.799351 0.000000 -0.600865
vn 0.799351 0.000000 -0.600865
vn 0.895361 0.000000 0.445341
vn 0.995815 0.000000 -0.091390
vn 0.995815 0.000000 -0.091390
vn 0.895361 0.000000 0.445341
vn 0.895361 0.000000 0.445341
vn 0.995815 0.000000 -0.091389
vn 0.995815 0.000000 -0.091389
vn 0.895361 0.000000 0.445341
s off
f 1/1/1 2/2/2 4/3/3 3/4/4
f 3/4/5 4/3/6 6/5/7 5/6/8 67/67/9
f 5/6/10 6/5/11 8/7/12 7/8/13
f 7/8/14 8/7/15 2/2/16 1/1/17 68/68/18
f 2/2/19 8/7/20 6/5/21 4/3/22
f 67/67/23 68/68/24 1/1/25 3/4/26
f 40/9/27 39/10/28 35/11/29 34/12/30
f 38/13/31 36/14/32 35/11/33 39/10/34
f 10/15/35 12/16/36 14/17/37 16/18/38
f 15/19/39 13/20/40 11/21/41 9/22/42
f 41/23/43 56/24/44 55/25/45 18/26/46 42/27/47
f 42/27/48 18/26/49 19/28/50 43/29/51
f 43/29/52 19/28/53 20/30/54 50/31/55 49/32/56
f 50/31/57 20/30/58 17/33/59 56/24/60 41/23/61 44/34/62
f 22/35/63 30/36/64 29/37/65 21/38/66
f 23/39/67 31/40/68 53/41/69 22/35/70
f 24/42/71 32/43/72 31/40/73 23/39/74
f 21/38/75 29/37/76 32/43/77 24/42/78
f 25/44/79 26/45/80 18/26/81 55/25/82
f 18/26/83 26/45/84 27/46/85 19/28/86
f 19/28/87 27/46/88 28/47/89 20/30/90
f 20/30/91 28/47/92 25/44/93 17/33/94
f 54/48/95 46/49/96 45/50/97 52/51/98 29/37/99 30/36/100
f 31/40/101 47/52/102 46/49/103 54/48/104 53/41/105
f 32/43/106 48/53/107 47/52/108 31/40/109
f 29/37/110 52/51/111 51/54/112 48/53/113 32/43/114
f 34/12/115 22/35/116 21/38/117 33/55/118
f 35/11/119 23/39/120 22/35/121 34/12/122
f 36/14/123 24/42/124 23/39/125 35/11/126
f 33/55/127 21/38/128 24/42/129 36/14/130
f 25/44/131 37/56/132 38/13/133 26/45/134
f 26/45/135 38/13/136 39/10/137 27/46/138
f 27/46/139 39/10/140 40/9/141 28/47/142
f 28/47/143 40/9/144 37/56/145 25/44/146
f 15/19/147 9/22/148 41/23/149 42/27/150
f 13/20/151 15/19/152 42/27/153 43/29/154
f 11/21/155 13/20/156 43/29/157 49/32/158
f 9/22/159 11/21/160 44/34/161 41/23/162
f 46/49/163 12/16/164 10/15/165 45/50/166
f 47/52/167 14/17/168 12/16/169 46/49/170
f 48/53/171 16/18/172 14/17/173 47/52/174
f 10/15/175 16/18/176 48/53/177 51/54/178
f 40/9/179 34/12/180 33/55/181 37/56/182
f 37/56/183 33/55/184 36/14/185 38/13/186
f 11/21/187 49/32/188 44/34/189
f 50/31/190 44/34/191 49/32/192
f 45/50/193 10/15/194 51/54/195
f 52/51/196 45/50/197 51/54/198
f 53/41/199 30/36/200 22/35/201
f 54/48/202 30/36/203 53/41/204
f 17/33/205 25/44/206 55/25/207
f 56/24/208 17/33/209 55/25/210
f 57/57/211 58/58/212 60/59/213 59/60/214
f 59/60/215 60/59/216 62/61/217 61/62/218 65/65/219
f 61/62/220 62/61/221 64/63/222 63/64/223
f 63/64/224 64/63/225 58/58/226 57/57/227 66/66/228
f 58/58/229 64/63/230 62/61/231 60/59/232
f 65/65/233 66/66/234 57/57/235 59/60/236
f 63/64/237 66/66/238 65/65/239 61/62/240
f 7/8/241 68/68/242 67/67/243 5/6/244
