# This file uses centimeters as units for non-parametric coordinates.

v 100.148087 141.288971 75.304581
v 155.441132 141.288971 75.304581
v 100.148087 212.955383 75.304581
v 155.441132 212.955383 75.304581
v 100.148087 212.955383 74.784309
v 155.441132 212.955383 74.784309
v 100.148087 141.288971 74.784309
v 155.441132 141.288971 74.784309
vt 0.538199 0.529307
vt 0.589106 0.529307
vt 0.589106 0.595289
vt 0.538199 0.595289
vt 0.538199 0.529307
vt 0.589106 0.529307
vt 0.589106 0.595289
vt 0.538199 0.595289
vn 0.000000 0.000000 1.000000
vn 0.000000 0.000000 1.000000
vn 0.000000 0.000000 1.000000
vn 0.000000 0.000000 1.000000
vn 0.000000 0.000000 -1.000000
vn 0.000000 0.000000 -1.000000
vn 0.000000 0.000000 -1.000000
vn 0.000000 0.000000 -1.000000
s off
f 1/1/1 2/2/2 4/3/3 3/4/4
f 5/5/5 6/6/6 8/7/7 7/8/8
