# This file uses centimeters as units for non-parametric coordinates.

v 167.954254 73.858124 13.338699
v 209.945526 75.765793 12.016830
v 167.954254 191.826721 12.016754
v 208.910065 191.826721 12.016754
v 167.954254 191.826721 15.408096
v 209.271225 191.295135 15.408020
v 167.954254 73.858124 15.408096
v 210.908356 77.707954 15.408173
v 180.510574 215.908966 13.747940
v 207.774979 225.934814 12.016678
v 207.927399 225.990845 15.408096
v 180.510574 215.908966 15.408096
v 167.954254 132.848389 12.016754
v 208.910065 132.848389 12.016754
v 210.908356 132.848389 15.408096
v 167.954254 132.848389 15.408096
v 174.035355 80.993896 12.016754
v 204.850006 80.993896 12.016754
v 204.850006 129.734222 12.016754
v 174.035355 129.734222 12.016754
v 204.850006 129.734222 15.408096
v 174.035355 129.734222 15.408096
v 204.850006 80.993896 15.408096
v 174.035355 80.993896 15.408096
v 174.017487 135.999939 12.016754
v 204.867706 135.999939 12.016754
v 204.867706 187.470871 12.016754
v 174.017487 187.470871 12.016754
v 174.017487 186.347534 15.408096
v 204.867706 186.347534 15.408096
v 204.867706 135.999939 15.408096
v 174.017487 135.999939 15.408096
v 174.893341 193.061981 12.016754
v 205.182953 193.061981 12.016754
v 205.182953 218.079666 12.016754
v 183.747711 210.282089 12.016754
v 174.893341 193.061981 15.408096
v 205.182953 193.061981 15.408096
v 183.747711 211.957275 15.408096
v 205.182953 219.754883 15.408096
v 176.724838 138.347824 12.720032
v 202.160797 138.347824 12.720032
v 202.160797 184.958511 12.720032
v 176.724838 184.958511 12.720032
v 176.724838 183.922623 14.704895
v 202.160797 183.922623 14.704895
v 202.160797 138.266098 14.704895
v 176.724838 138.266098 14.704895
v 178.041977 194.095123 12.720032
v 203.015732 194.095123 12.720032
v 203.015732 215.609390 12.720032
v 185.342560 209.180267 12.720032
v 178.043533 194.187881 14.704895
v 203.017426 194.187881 14.704895
v 185.344086 210.701599 14.704895
v 203.017426 217.130722 14.704895
v 176.739655 84.635826 12.720032
v 202.145981 84.635826 12.720032
v 202.145981 127.481682 12.720032
v 176.739655 127.481682 12.720032
v 202.145981 127.481682 14.704895
v 176.739655 127.481682 14.704895
v 202.145981 84.635826 14.704895
v 176.739655 84.635826 14.704895
v 209.980011 222.820633 12.016754
v 210.908356 223.028061 15.408096
v 181.887970 73.858124 12.016754
v 171.020828 77.456497 12.016754
v 167.954254 88.719360 12.016830
v 188.227081 218.746490 12.016754
v 177.721710 210.560120 12.016754
v 181.837006 213.603256 12.016754
v 210.908188 198.197037 15.408096
v 210.908356 183.684219 15.408096
v 210.056610 191.826721 13.962708
v 207.991043 73.858124 15.408096
v 208.499741 73.858124 12.016754
vt 0.488180 0.179454
vt 0.488226 0.179454
vt 0.488226 0.179122
vt 0.488177 0.179122
vt 0.488187 0.178910
vt 0.488232 0.178831
vt 0.488232 0.178826
vt 0.488188 0.178906
vt 0.488178 0.179130
vt 0.488226 0.179130
vt 0.488226 0.179447
vt 0.488180 0.179447
vt 0.488177 0.179803
vt 0.488231 0.179794
vt 0.488231 0.179815
vt 0.488177 0.179816
vt 0.488232 0.179484
vt 0.488232 0.179471
vt 0.488232 0.179076
vt 0.488234 0.179081
vt 0.488174 0.179471
vt 0.488173 0.179484
vt 0.488169 0.179081
vt 0.488170 0.179073
vt 0.488178 0.179068
vt 0.488228 0.179068
vt 0.488228 0.178877
vt 0.488192 0.178944
vt 0.488228 0.179063
vt 0.488179 0.179063
vt 0.488192 0.178925
vt 0.488228 0.178859
vt 0.488183 0.179782
vt 0.488225 0.179782
vt 0.488226 0.179508
vt 0.488180 0.179508
vt 0.488181 0.179500
vt 0.488226 0.179500
vt 0.488225 0.179773
vt 0.488183 0.179772
vt 0.488227 0.179794
vt 0.488181 0.179793
vt 0.488228 0.179502
vt 0.488178 0.179501
vt 0.488228 0.179489
vt 0.488179 0.179488
vt 0.488227 0.179777
vt 0.488181 0.179777
vt 0.488228 0.179466
vt 0.488178 0.179466
vt 0.488228 0.179113
vt 0.488175 0.179113
vt 0.488228 0.179117
vt 0.488176 0.179117
vt 0.488228 0.179454
vt 0.488179 0.179453
vt 0.488229 0.179076
vt 0.488175 0.179076
vt 0.488230 0.178868
vt 0.488190 0.178940
vt 0.488176 0.179068
vt 0.488229 0.179068
vt 0.488191 0.178919
vt 0.488230 0.178847
vt 0.487954 0.155718
vt 0.488004 0.155718
vt 0.488005 0.155359
vt 0.487951 0.155359
vt 0.487952 0.155367
vt 0.488004 0.155367
vt 0.488004 0.155711
vt 0.487955 0.155710
vt 0.487952 0.155300
vt 0.488006 0.155300
vt 0.488006 0.155093
vt 0.487967 0.155165
vt 0.488006 0.155295
vt 0.487953 0.155294
vt 0.487968 0.155145
vt 0.488006 0.155074
vt 0.487957 0.156073
vt 0.488004 0.156074
vt 0.488004 0.155777
vt 0.487955 0.155777
vt 0.487955 0.155768
vt 0.488004 0.155769
vt 0.488004 0.156064
vt 0.487958 0.156063
vt 0.488234 0.178857
vt 0.488234 0.178851
vt 0.488195 0.179820
vt 0.488179 0.179806
vt 0.488176 0.179735
vt 0.488200 0.178889
vt 0.488183 0.178949
vt 0.488189 0.178923
vt 0.488234 0.179028
vt 0.488233 0.179128
vt 0.488234 0.179077
vt 0.488228 0.179804
vt 0.488230 0.179820
vn 0.000000 0.000000 -1.000000
vn 0.000000 0.000000 -1.000000
vn 0.000000 0.000000 -1.000000
vn 0.000000 0.000000 -1.000000
vn -0.345131 0.938554 0.000005
vn -0.345131 0.938554 0.000005
vn -0.345131 0.938554 0.000005
vn -0.345131 0.938554 0.000005
vn -0.345131 0.938554 0.000005
vn 0.000000 0.000000 1.000000
vn 0.000000 0.000000 1.000000
vn 0.000000 0.000000 1.000000
vn 0.000000 0.000000 1.000000
vn 0.000000 -1.000000 -0.000002
vn 0.000000 -1.000000 -0.000002
vn 0.000000 -1.000000 -0.000002
vn 0.000000 -1.000000 -0.000002
vn 0.000000 -1.000000 -0.000002
vn 0.835132 0.179647 0.519886
vn 0.835132 0.179647 0.519886
vn 0.835132 0.179647 0.519886
vn -1.000000 0.000000 0.000000
vn -1.000000 0.000000 0.000000
vn -1.000000 0.000000 0.000000
vn -1.000000 0.000000 0.000000
vn 0.000000 0.000000 -1.000000
vn 0.000000 0.000000 -1.000000
vn 0.000000 0.000000 -1.000000
vn 0.000000 0.000000 -1.000000
vn 0.889340 -0.210933 0.405686
vn 0.889340 -0.210933 0.405686
vn 0.889340 -0.210933 0.405686
vn 0.000000 0.000000 1.000000
vn 0.000000 0.000000 1.000000
vn 0.000000 0.000000 1.000000
vn 0.000000 0.000000 1.000000
vn -0.886711 0.462325 0.000003
vn -0.886711 0.462325 0.000003
vn -0.886711 0.462325 0.000003
vn -0.886711 0.462325 0.000003
vn -0.886711 0.462325 0.000003
vn 0.000000 0.000000 -1.000000
vn 0.000000 0.000000 -1.000000
vn 0.000000 0.000000 -1.000000
vn 0.000000 0.000000 -1.000000
vn 0.000000 0.000000 1.000000
vn 0.000000 0.000000 1.000000
vn 0.000000 0.000000 1.000000
vn 0.000000 0.000000 1.000000
vn -1.000000 0.000000 0.000000
vn -1.000000 0.000000 0.000000
vn -1.000000 0.000000 0.000000
vn -1.000000 0.000000 0.000000
vn -1.000000 0.000000 0.000000
vn 0.000000 0.000000 -1.000000
vn 0.000000 0.000000 -1.000000
vn 0.000000 0.000000 -1.000000
vn 0.000000 0.000000 -1.000000
vn 0.000000 0.000000 -1.000000
vn 0.000000 0.000000 -1.000000
vn 0.000000 0.000000 -1.000000
vn 0.000000 0.000000 -1.000000
vn 0.000000 0.000000 -1.000000
vn -0.000007 -0.000000 -1.000000
vn -0.000007 -0.000000 -1.000000
vn -0.000007 -0.000000 -1.000000
vn -0.000007 -0.000000 -1.000000
vn -0.000007 -0.000000 -1.000000
vn 0.000000 0.000000 1.000000
vn 0.000000 0.000000 1.000000
vn 0.000000 0.000000 1.000000
vn 0.000000 0.000000 1.000000
vn -0.000006 0.000001 1.000000
vn -0.000006 0.000001 1.000000
vn -0.000006 0.000001 1.000000
vn -0.000006 0.000001 1.000000
vn -0.000000 0.000000 1.000000
vn -0.000000 0.000000 1.000000
vn -0.000000 0.000000 1.000000
vn -0.000000 0.000000 1.000000
vn 0.000000 0.000000 -1.000000
vn 0.000000 0.000000 -1.000000
vn 0.000000 0.000000 -1.000000
vn 0.000000 0.000000 -1.000000
vn 0.000000 0.000000 -1.000000
vn 0.000000 0.000000 -1.000000
vn 0.000000 0.000000 -1.000000
vn 0.000000 0.000000 -1.000000
vn 0.000000 0.000000 -1.000000
vn 0.000000 0.000000 -1.000000
vn 0.000000 0.000000 -1.000000
vn 0.000000 0.000000 -1.000000
vn 0.000000 0.000000 -1.000000
vn 0.000000 0.000000 -1.000000
vn 0.000000 0.000000 -1.000000
vn 0.000000 0.000000 -1.000000
vn 0.000000 0.000000 1.000000
vn 0.000000 0.000000 1.000000
vn 0.000000 0.000000 1.000000
vn 0.000000 0.000000 1.000000
vn 0.000000 0.000000 1.000000
vn 0.000000 0.000000 1.000000
vn 0.000000 0.000000 1.000000
vn 0.000000 0.000000 1.000000
vn 0.000000 0.000000 -1.000000
vn 0.000000 0.000000 -1.000000
vn 0.000000 0.000000 -1.000000
vn 0.000000 0.000000 -1.000000
vn 0.000014 -0.000014 -1.000000
vn 0.000014 -0.000014 -1.000000
vn 0.000014 -0.000014 -1.000000
vn 0.000000 0.000000 -1.000000
vn 0.000000 0.000000 -1.000000
vn 0.000000 0.000000 -1.000000
vn 0.000000 0.000000 -1.000000
vn 0.000000 0.000000 -1.000000
vn 0.000000 0.000000 1.000000
vn 0.000000 0.000000 1.000000
vn 0.000000 0.000000 1.000000
vn 0.000000 0.000000 1.000000
vn 0.000000 0.000000 1.000000
vn 0.000000 0.000000 1.000000
vn 0.000000 0.000000 1.000000
vn 0.000000 0.000000 1.000000
vn 0.000000 0.286941 -0.957948
vn 0.000000 0.286941 -0.957948
vn 0.000000 0.286941 -0.957948
vn 0.000000 0.286941 -0.957948
vn -0.251460 0.000000 -0.967868
vn -0.251460 0.000000 -0.967868
vn -0.251460 0.000000 -0.967868
vn -0.251460 0.000000 -0.967868
vn 0.000000 -0.269565 -0.962982
vn 0.000000 -0.269565 -0.962982
vn 0.000000 -0.269565 -0.962982
vn 0.000000 -0.269565 -0.962982
vn 0.251421 0.000000 -0.967878
vn 0.251421 0.000000 -0.967878
vn 0.251421 0.000000 -0.967878
vn 0.251421 0.000000 -0.967878
vn 0.000000 -0.278516 0.960432
vn 0.000000 -0.278516 0.960432
vn 0.000000 -0.278516 0.960432
vn 0.000000 -0.278516 0.960432
vn -0.251435 0.000000 0.967874
vn -0.251435 0.000000 0.967874
vn -0.251435 0.000000 0.967874
vn -0.251435 0.000000 0.967874
vn 0.000000 0.296366 0.955074
vn 0.000000 0.296366 0.955074
vn 0.000000 0.296366 0.955074
vn 0.000000 0.296366 0.955074
vn 0.251396 0.000000 0.967884
vn 0.251396 0.000000 0.967884
vn 0.251396 0.000000 0.967884
vn 0.251396 0.000000 0.967884
vn 0.000000 0.562717 -0.826650
vn 0.000000 0.562717 -0.826650
vn 0.000000 0.562717 -0.826650
vn 0.000000 0.562717 -0.826650
vn -0.308662 0.000000 -0.951172
vn -0.308662 0.000000 -0.951172
vn -0.308662 0.000000 -0.951172
vn -0.308662 0.000000 -0.951172
vn 0.138971 -0.382024 -0.913644
vn 0.138971 -0.382024 -0.913644
vn 0.138971 -0.382024 -0.913644
vn 0.138971 -0.382024 -0.913644
vn 0.279633 -0.139837 -0.949869
vn 0.279633 -0.139837 -0.949869
vn 0.279633 -0.139837 -0.949869
vn 0.279633 -0.139837 -0.949869
vn 0.000000 0.529726 0.848169
vn 0.000000 0.529726 0.848169
vn 0.000000 0.529726 0.848169
vn 0.000000 0.529726 0.848169
vn 0.278589 -0.127103 0.951963
vn 0.278589 -0.127103 0.951963
vn 0.278589 -0.127103 0.951963
vn 0.278589 -0.127103 0.951963
vn 0.129001 -0.354617 0.926070
vn 0.129001 -0.354617 0.926070
vn 0.129001 -0.354617 0.926070
vn 0.129001 -0.354617 0.926070
vn -0.308849 0.000000 0.951111
vn -0.308849 0.000000 0.951111
vn -0.308849 0.000000 0.951111
vn -0.308849 0.000000 0.951111
vn 0.000000 0.189602 -0.981861
vn 0.000000 0.189602 -0.981861
vn 0.000000 0.189602 -0.981861
vn 0.000000 0.189602 -0.981861
vn -0.251711 0.000000 -0.967802
vn -0.251711 0.000000 -0.967802
vn -0.251711 0.000000 -0.967802
vn -0.251711 0.000000 -0.967802
vn 0.000000 -0.298028 -0.954557
vn 0.000000 -0.298028 -0.954557
vn 0.000000 -0.298028 -0.954557
vn 0.000000 -0.298028 -0.954557
vn 0.251687 0.000000 -0.967809
vn 0.251687 0.000000 -0.967809
vn 0.251687 0.000000 -0.967809
vn 0.251687 0.000000 -0.967809
vn 0.000000 -0.297999 0.954566
vn 0.000000 -0.297999 0.954566
vn 0.000000 -0.297999 0.954566
vn 0.000000 -0.297999 0.954566
vn -0.251686 0.000000 0.967809
vn -0.251686 0.000000 0.967809
vn -0.251686 0.000000 0.967809
vn -0.251686 0.000000 0.967809
vn 0.000000 0.189583 0.981865
vn 0.000000 0.189583 0.981865
vn 0.000000 0.189583 0.981865
vn 0.000000 0.189583 0.981865
vn 0.251662 0.000000 0.967815
vn 0.251662 0.000000 0.967815
vn 0.251662 0.000000 0.967815
vn 0.251662 0.000000 0.967815
vn 0.752645 0.642290 -0.144876
vn 0.752645 0.642290 -0.144876
vn 0.752645 0.642290 -0.144876
vn 0.752645 0.642290 -0.144876
vn -0.000000 -0.000004 -1.000000
vn -0.000000 -0.000004 -1.000000
vn -0.000000 -0.000004 -1.000000
vn -0.000000 -0.000004 -1.000000
vn -0.000000 -0.000004 -1.000000
vn 0.000000 0.000000 -1.000000
vn 0.000000 0.000000 -1.000000
vn 0.000000 0.000000 -1.000000
vn 0.000000 0.000000 -1.000000
vn 0.000000 0.000000 1.000000
vn 0.000000 0.000000 1.000000
vn 0.000000 0.000000 1.000000
vn -0.090827 -0.274299 -0.957346
vn -0.090827 -0.274299 -0.957346
vn -0.090827 -0.274299 -0.957346
vn -0.309451 -0.084250 -0.947176
vn -0.309451 -0.084250 -0.947176
vn -0.309451 -0.084250 -0.947176
vn -0.325818 0.440614 -0.836482
vn -0.325818 0.440614 -0.836482
vn -0.325818 0.440614 -0.836482
vn -0.344938 0.428558 -0.835079
vn -0.344938 0.428558 -0.835079
vn -0.344938 0.428558 -0.835078
vn 0.000001 -0.000001 1.000000
vn 0.000001 -0.000001 1.000000
vn 0.000001 -0.000001 1.000000
vn 0.000001 -0.000001 1.000000
vn 0.000001 -0.000001 1.000000
vn 0.000001 -0.000026 1.000000
vn 0.000001 -0.000026 1.000000
vn 0.000001 -0.000026 1.000000
vn 0.000001 -0.000026 1.000000
vn 0.000001 0.000007 1.000000
vn 0.000001 0.000007 1.000000
vn 0.000001 0.000007 1.000000
vn 0.000001 0.000007 1.000000
vn 0.000000 0.000001 1.000000
vn 0.000000 0.000001 1.000000
vn 0.000000 0.000001 1.000000
vn 0.000000 0.000001 1.000000
vn 0.000000 0.000001 1.000000
vn 0.861559 0.000001 -0.507658
vn 0.861559 0.000001 -0.507658
vn 0.861559 0.000001 -0.507658
vn 0.861559 0.000001 -0.507658
vn 0.861559 0.000001 -0.507658
vn 0.920632 -0.016563 -0.390079
vn 0.920633 -0.016563 -0.390079
vn 0.920633 -0.016563 -0.390079
vn 0.920633 -0.016563 -0.390079
vn 0.920633 -0.016563 -0.390079
vn 0.791361 -0.599708 0.118734
vn 0.791361 -0.599708 0.118734
vn 0.791361 -0.599708 0.118734
vn 0.791361 -0.599708 0.118734
vn 0.915548 0.008447 -0.402120
vn 0.915548 0.008447 -0.402120
vn 0.915548 0.008447 -0.402120
vn 0.915548 0.008447 -0.402120
vn 0.000008 -0.000001 -1.000000
vn 0.000008 -0.000001 -1.000000
vn 0.000008 -0.000001 -1.000000
vn 0.000008 -0.000001 -1.000000
vn 0.000000 0.000000 1.000000
vn 0.000000 0.000000 1.000000
vn 0.000000 0.000000 1.000000
vn 0.000000 0.000000 1.000000
vn 0.000032 0.000016 -1.000000
vn 0.000032 0.000016 -1.000000
vn 0.000032 0.000016 -1.000000
vn -0.000017 -0.000007 1.000000
vn -0.000017 -0.000007 1.000000
vn -0.000017 -0.000007 1.000000
s off
f 41/65/1 44/68/2 43/67/3 42/66/4
f 70/94/5 9/5/6 12/8/7 11/7/8 10/6/9
f 45/69/10 48/72/11 47/71/12 46/70/13
f 7/13/14 1/16/15 67/91/16 77/101/17 76/100/18
f 74/98/19 75/99/20 6/19/21
f 16/21/22 5/24/23 3/23/24 13/22/25
f 49/73/26 52/76/27 51/75/28 50/74/29
f 75/99/30 73/97/31 6/19/32
f 54/77/33 56/80/34 55/79/35 53/78/36
f 5/24/37 12/8/38 9/5/39 71/95/40 3/23/41
f 57/81/42 60/84/43 59/83/44 58/82/45
f 62/85/46 64/88/47 63/87/48 61/86/49
f 7/13/50 16/21/51 13/22/52 69/93/53 1/16/54
f 67/91/55 68/92/56 17/42/57 18/41/58 77/101/59
f 14/17/60 19/43/61 20/44/62 13/22/63
f 13/22/64 20/44/65 17/42/66 68/92/67 69/93/68
f 16/21/69 22/46/70 21/45/71 15/18/72
f 15/18/73 21/45/74 23/47/75 8/14/76
f 7/13/77 24/48/78 22/46/79 16/21/80
f 13/22/81 25/50/82 26/49/83 14/17/84
f 14/17/85 26/49/86 27/51/87 4/20/88
f 4/20/89 27/51/90 28/52/91 3/23/92
f 3/23/93 28/52/94 25/50/95 13/22/96
f 15/18/97 31/55/98 32/56/99 16/21/100
f 16/21/101 32/56/102 29/54/103 5/24/104
f 3/23/105 33/58/106 34/57/107 4/20/108
f 35/59/109 10/6/110 65/89/111
f 71/95/112 72/96/113 36/60/114 33/58/115 3/23/116
f 5/24/117 37/61/118 39/63/119 12/8/120
f 12/8/121 39/63/122 40/64/123 11/7/124
f 25/50/125 41/1/126 42/2/127 26/49/128
f 26/49/129 42/2/130 43/3/131 27/51/132
f 27/51/133 43/3/134 44/4/135 28/52/136
f 28/52/137 44/4/138 41/1/139 25/50/140
f 29/54/141 45/9/142 46/10/143 30/53/144
f 30/53/145 46/10/146 47/11/147 31/55/148
f 31/55/149 47/11/150 48/12/151 32/56/152
f 32/56/153 48/12/154 45/9/155 29/54/156
f 33/58/157 49/25/158 50/26/159 34/57/160
f 34/57/161 50/26/162 51/27/163 35/59/164
f 35/59/165 51/27/166 52/28/167 36/60/168
f 36/60/169 52/28/170 49/25/171 33/58/172
f 38/62/173 54/29/174 53/30/175 37/61/176
f 37/61/177 53/30/178 55/31/179 39/63/180
f 39/63/181 55/31/182 56/32/183 40/64/184
f 40/64/185 56/32/186 54/29/187 38/62/188
f 17/42/189 57/33/190 58/34/191 18/41/192
f 18/41/193 58/34/194 59/35/195 19/43/196
f 19/43/197 59/35/198 60/36/199 20/44/200
f 20/44/201 60/36/202 57/33/203 17/42/204
f 22/46/205 62/37/206 61/38/207 21/45/208
f 21/45/209 61/38/210 63/39/211 23/47/212
f 23/47/213 63/39/214 64/40/215 24/48/216
f 24/48/217 64/40/218 62/37/219 22/46/220
f 65/89/221 10/6/222 11/7/223 66/90/224
f 10/6/225 35/59/226 36/60/227 72/96/228 70/94/229
f 4/20/230 34/57/231 35/59/232 65/89/233
f 11/7/234 40/64/235 66/90/236
f 1/16/237 68/92/238 67/91/239
f 69/93/240 68/92/241 1/16/242
f 9/5/243 72/96/244 71/95/245
f 70/94/246 72/96/247 9/5/248
f 40/64/249 38/62/250 6/19/251 73/97/252 66/90/253
f 6/19/254 38/62/255 37/61/256 5/24/257
f 5/24/258 29/54/259 30/53/260 6/19/261
f 74/98/262 6/19/263 30/53/264 31/55/265 15/18/266
f 14/17/267 4/20/268 75/99/269 74/98/270 15/18/271
f 4/20/272 65/89/273 66/90/274 73/97/275 75/99/276
f 76/100/277 77/101/278 2/15/279 8/14/280
f 8/14/281 2/15/282 14/17/283 15/18/284
f 2/15/285 18/41/286 19/43/287 14/17/288
f 76/100/289 23/47/290 24/48/291 7/13/292
f 77/101/293 18/41/294 2/15/295
f 76/100/296 8/14/297 23/47/298
