# This file uses centimeters as units for non-parametric coordinates.

v 0.000000 1.303692 4.487076
v 249.999664 1.303692 4.487076
v 0.000000 250.000000 4.487076
v 249.999664 250.000000 4.487076
v 0.000000 250.000000 -4.486923
v 249.999664 250.000000 -4.486923
v 0.000000 1.303692 -4.486923
v 249.999664 1.303692 -4.486923
v 205.885345 201.910248 10.363007
v 190.038177 201.910248 10.363007
v 205.885345 15.846846 10.363007
v 190.038177 15.846846 10.363007
v 205.885345 15.846846 -10.363007
v 190.038177 15.846846 -10.363007
v 205.885345 201.910248 -10.363007
v 190.038177 201.910248 -10.363007
v 190.038177 47.224419 8.363266
v 190.038177 63.071259 8.363266
v 59.190063 47.224419 8.363266
v 59.190063 63.071259 8.363266
v 59.190063 47.224419 -8.363266
v 59.190063 63.071259 -8.363266
v 190.038177 47.224419 -8.363266
v 190.038177 63.071259 -8.363266
v 59.190063 201.910248 10.363007
v 43.343201 201.910248 10.363007
v 59.190063 15.846846 10.363007
v 43.343201 15.846846 10.363007
v 59.190063 15.846846 -10.363007
v 43.343201 15.846846 -10.363007
v 59.190063 201.910248 -10.363007
v 43.343201 201.910248 -10.363007
v 0.000000 15.846846 12.099304
v 0.000000 0.000002 12.099304
v 249.999664 15.846846 12.099304
v 249.999664 0.000002 12.099304
v 249.999664 15.846846 -12.099304
v 249.999664 0.000002 -12.099304
v 0.000000 15.846846 -12.099304
v 0.000000 0.000002 -12.099304
v 0.000000 211.596710 12.099304
v 0.000000 201.910248 12.099304
v 249.999664 217.757080 12.099304
v 249.999664 201.910248 12.099304
v 249.999664 217.757080 -12.099304
v 249.999664 201.910248 -12.099304
v 0.000000 217.757080 -12.099304
v 0.000000 201.910248 -12.099304
v 171.045532 63.071259 8.363266
v 120.888367 63.071259 8.363266
v 138.512573 63.071259 4.811478
v 136.990356 58.381691 8.363266
v 205.885345 142.357788 10.363007
v 205.885345 72.383698 10.363007
v 205.885345 97.466278 4.619446
v 201.983307 98.931679 10.363007
v 61.712341 15.846846 12.099304
v 131.612244 15.846846 12.099304
v 76.345215 15.846843 8.707809
v 77.032471 9.480042 12.099304
v 78.536377 201.910248 12.099304
v 138.469849 201.910248 12.099304
v 113.298340 207.670532 12.099304
v 108.584900 201.910248 6.173401
v 43.343201 160.675293 10.363007
v 43.343201 108.144066 10.363007
v 48.020020 134.049957 10.363007
v 43.343201 135.307449 6.926651
v 0.000000 217.757080 5.912476
v 19.656982 217.757080 12.099304
v 78.304749 63.071259 -8.363266
v 113.566895 63.071259 -8.363266
v 97.495117 63.071259 -3.918381
v 105.797729 58.760742 -8.363266
v 180.302399 15.846846 -12.099304
v 89.837341 15.846846 -12.099304
v 166.049469 15.846843 -4.981918
v 166.929321 11.232022 -12.099304
v 184.173248 201.910248 -12.099304
v 115.359192 201.910248 -12.099304
v 161.755707 208.313721 -12.099304
v 162.005280 201.910248 -5.353851
v 59.190063 112.556839 -10.363007
v 59.190063 169.204224 -10.363007
v 53.910828 147.124496 -10.363007
v 59.190063 143.337051 -4.000015
vt 0.007891 0.991646
vt 0.242198 0.991646
vt 0.242198 0.991646
vt 0.007891 0.991646
vt 0.242198 0.758169
vt 0.242198 0.758169
vt 0.007891 0.758169
vt 0.007891 0.758169
vt 0.496057 0.152314
vt 0.496057 0.152314
vt 0.496057 0.152314
vt 0.496057 0.152314
vt 0.496057 0.152314
vt 0.496057 0.152314
vt 0.496057 0.152314
vt 0.496057 0.152314
vt 0.496057 0.152314
vt 0.496057 0.152314
vt 0.496057 0.152314
vt 0.496057 0.152314
vt 0.496057 0.152314
vt 0.496057 0.152314
vt 0.496057 0.152314
vt 0.496057 0.152314
vt 0.496057 0.152314
vt 0.496057 0.152314
vt 0.496057 0.152314
vt 0.496057 0.152314
vt 0.496057 0.152314
vt 0.496057 0.152314
vt 0.496057 0.152314
vt 0.496057 0.152314
vt 0.496057 0.152314
vt 0.496057 0.152314
vt 0.496057 0.152314
vt 0.496057 0.152314
vt 0.496057 0.152314
vt 0.496057 0.152314
vt 0.496057 0.152314
vt 0.496057 0.152314
vt 0.496057 0.152314
vt 0.496057 0.152314
vt 0.496057 0.152314
vt 0.496057 0.152314
vt 0.496057 0.152314
vt 0.496057 0.152314
vt 0.496057 0.152314
vt 0.496057 0.152314
vt 0.496057 0.152314
vt 0.496057 0.152314
vt 0.496057 0.152314
vt 0.496057 0.152314
vt 0.496057 0.152314
vt 0.496057 0.152314
vt 0.496057 0.152314
vt 0.496057 0.152314
vt 0.496057 0.152314
vt 0.496057 0.152314
vt 0.496057 0.152314
vt 0.496057 0.152314
vt 0.496057 0.152314
vt 0.496057 0.152314
vt 0.496057 0.152314
vt 0.496057 0.152314
vt 0.496057 0.152314
vt 0.496057 0.152314
vt 0.496057 0.152314
vt 0.496057 0.152314
vt 0.496057 0.152314
vt 0.496057 0.152314
vt 0.496057 0.152314
vt 0.496057 0.152314
vt 0.496057 0.152314
vt 0.496057 0.152314
vt 0.496057 0.152314
vt 0.496057 0.152314
vt 0.496057 0.152314
vt 0.496057 0.152314
vt 0.496057 0.152314
vt 0.496057 0.152314
vt 0.496057 0.152314
vt 0.496057 0.152314
vt 0.496057 0.152314
vt 0.496057 0.152314
vt 0.496057 0.152314
vt 0.496057 0.152314
vt 0.496057 0.152314
vt 0.496057 0.152314
vt 0.496057 0.152314
vt 0.496057 0.152314
vt 0.496057 0.152314
vt 0.496057 0.152314
vt 0.496057 0.152314
vt 0.496057 0.152314
vt 0.496057 0.152314
vt 0.496057 0.152314
vt 0.496057 0.152314
vt 0.496057 0.152314
vt 0.496057 0.152314
vt 0.496057 0.152314
vt 0.496057 0.152314
vt 0.496057 0.152314
vt 0.496057 0.152314
vt 0.496057 0.152314
vt 0.496057 0.152314
vt 0.496057 0.152314
vt 0.496057 0.152314
vt 0.496057 0.152314
vt 0.496057 0.152314
vt 0.496057 0.152314
vt 0.496057 0.152314
vt 0.496057 0.152314
vt 0.496057 0.152314
vt 0.496057 0.152314
vt 0.496057 0.152314
vt 0.496057 0.152314
vt 0.496057 0.152314
vt 0.496057 0.152314
vt 0.496057 0.152314
vt 0.496057 0.152314
vt 0.496057 0.152314
vt 0.496057 0.152314
vt 0.496057 0.152314
vt 0.496057 0.152314
vt 0.496057 0.152314
vt 0.496057 0.152314
vt 0.496057 0.152314
vt 0.496057 0.152314
vt 0.496057 0.152314
vn 0.000000 1.000000 0.000000
vn 0.000000 1.000000 0.000000
vn 0.000000 1.000000 0.000000
vn 0.000000 1.000000 0.000000
vn 1.000000 0.000000 0.000000
vn 1.000000 0.000000 0.000000
vn 1.000000 0.000000 0.000000
vn 1.000000 0.000000 0.000000
vn -1.000000 0.000000 0.000000
vn -1.000000 0.000000 0.000000
vn -1.000000 0.000000 0.000000
vn -1.000000 0.000000 0.000000
vn 0.000000 0.000000 1.000000
vn 0.000000 0.000000 1.000000
vn 0.000000 0.000000 1.000000
vn 0.000000 0.000000 1.000000
vn 0.000000 0.000000 -1.000000
vn 0.000000 0.000000 -1.000000
vn 0.000000 0.000000 -1.000000
vn 0.000000 0.000000 -1.000000
vn 0.000000 0.000000 1.000000
vn 0.000000 0.000000 1.000000
vn 0.000000 0.000000 1.000000
vn 0.000000 -1.000000 0.000000
vn 0.000000 -1.000000 0.000000
vn 0.000000 -1.000000 0.000000
vn 0.000000 -1.000000 0.000000
vn 0.000000 0.000000 -1.000000
vn 0.000000 0.000000 -1.000000
vn 0.000000 0.000000 -1.000000
vn 0.000000 0.000000 -1.000000
vn 0.000000 1.000000 0.000000
vn 0.000000 1.000000 0.000000
vn 0.000000 1.000000 0.000000
vn 0.000000 1.000000 0.000000
vn -1.000000 0.000000 0.000000
vn -1.000000 0.000000 0.000000
vn -1.000000 0.000000 0.000000
vn -1.000000 0.000000 0.000000
vn 1.000000 0.000000 0.000000
vn 1.000000 0.000000 0.000000
vn 1.000000 0.000000 0.000000
vn 1.000000 0.000000 0.000000
vn 0.000000 0.000000 1.000000
vn 0.000000 0.000000 1.000000
vn 0.000000 0.000000 1.000000
vn -1.000000 0.000000 0.000000
vn -1.000000 0.000000 0.000000
vn -1.000000 0.000000 0.000000
vn -1.000000 0.000000 0.000000
vn 0.000000 0.000000 -1.000000
vn 0.000000 0.000000 -1.000000
vn 0.000000 0.000000 -1.000000
vn 0.000000 0.000000 -1.000000
vn 1.000000 0.000000 0.000000
vn 1.000000 0.000000 0.000000
vn 1.000000 0.000000 0.000000
vn 1.000000 0.000000 0.000000
vn 0.000000 1.000000 0.000000
vn 0.000000 1.000000 0.000000
vn 0.000000 1.000000 0.000000
vn 0.000000 1.000000 0.000000
vn 0.000000 -1.000000 0.000000
vn 0.000000 -1.000000 0.000000
vn 0.000000 -1.000000 0.000000
vn 0.000000 -1.000000 0.000000
vn 0.000000 0.000000 1.000000
vn 0.000000 0.000000 1.000000
vn 0.000000 0.000000 1.000000
vn 0.000000 0.000000 1.000000
vn 0.000000 -1.000000 0.000000
vn 0.000000 -1.000000 0.000000
vn 0.000000 -1.000000 0.000000
vn 0.000000 -1.000000 0.000000
vn 0.000000 0.000000 -1.000000
vn 0.000000 0.000000 -1.000000
vn 0.000000 0.000000 -1.000000
vn 0.000000 0.000000 -1.000000
vn 0.000000 1.000000 0.000000
vn 0.000000 1.000000 0.000000
vn 0.000000 1.000000 0.000000
vn 0.000000 1.000000 0.000000
vn -1.000000 0.000000 0.000000
vn -1.000000 0.000000 0.000000
vn -1.000000 0.000000 0.000000
vn 1.000000 0.000000 0.000000
vn 1.000000 0.000000 0.000000
vn 1.000000 0.000000 0.000000
vn 0.000000 0.000000 1.000000
vn 0.000000 0.000000 1.000000
vn 0.000000 0.000000 1.000000
vn 0.000000 0.000000 1.000000
vn 1.000000 0.000000 0.000000
vn 1.000000 0.000000 0.000000
vn 1.000000 0.000000 0.000000
vn 1.000000 0.000000 0.000000
vn 0.000000 0.000000 -1.000000
vn 0.000000 0.000000 -1.000000
vn 0.000000 0.000000 -1.000000
vn -1.000000 0.000000 0.000000
vn -1.000000 0.000000 0.000000
vn -1.000000 0.000000 0.000000
vn -1.000000 0.000000 0.000000
vn 0.000000 -1.000000 0.000000
vn 0.000000 -1.000000 0.000000
vn 0.000000 -1.000000 0.000000
vn 0.000000 -1.000000 0.000000
vn -0.000000 1.000000 -0.000000
vn -0.000000 1.000000 -0.000000
vn -0.000000 1.000000 -0.000000
vn -0.000000 1.000000 -0.000000
vn 1.000000 0.000000 0.000000
vn 1.000000 0.000000 0.000000
vn 1.000000 0.000000 0.000000
vn 1.000000 0.000000 0.000000
vn -0.000000 0.000000 -1.000000
vn -0.000000 0.000000 -1.000000
vn -0.000000 0.000000 -1.000000
vn -0.000000 0.000000 -1.000000
vn 0.000000 -1.000000 0.000000
vn 0.000000 -1.000000 0.000000
vn 0.000000 -1.000000 0.000000
vn 0.000000 -1.000000 0.000000
vn -0.216795 0.691766 0.688810
vn -0.216795 0.691766 0.688810
vn -0.216795 0.691766 0.688810
vn -0.085239 0.618996 0.780755
vn -0.085239 0.618996 0.780755
vn -0.085239 0.618996 0.780755
vn 0.163492 0.561363 0.811260
vn 0.163492 0.561363 0.811260
vn 0.163492 0.561363 0.811260
vn 0.816143 -0.073334 0.573178
vn 0.816143 -0.073334 0.573178
vn 0.816143 -0.073334 0.573178
vn 0.835189 0.122757 0.536088
vn 0.835189 0.122757 0.536088
vn 0.835189 0.122757 0.536088
vn -0.054229 0.464884 0.883709
vn -0.054229 0.464884 0.883709
vn -0.054229 0.464884 0.883709
vn 0.198397 0.477393 0.855999
vn 0.198397 0.477393 0.855999
vn 0.198397 0.477393 0.855999
vn -0.148204 -0.647627 0.747406
vn -0.148204 -0.647627 0.747406
vn -0.148204 -0.647627 0.747406
vn 0.125858 -0.759522 0.638190
vn 0.125858 -0.759522 0.638190
vn 0.125858 -0.759522 0.638190
vn -0.607200 -0.106656 0.787358
vn -0.607200 -0.106656 0.787358
vn -0.607200 -0.106656 0.787358
vn -0.570819 0.103050 0.814584
vn -0.570819 0.103050 0.814584
vn -0.570819 0.103050 0.814584
vn -1.000000 0.000000 0.000000
vn -1.000000 0.000000 0.000000
vn -1.000000 0.000000 0.000000
vn -1.000000 0.000000 0.000000
vn -1.000000 0.000000 0.000000
vn 0.000000 0.000000 1.000000
vn 0.000000 0.000000 1.000000
vn 0.000000 0.000000 1.000000
vn 0.000000 0.000000 1.000000
vn 0.000000 1.000000 0.000000
vn 0.000000 1.000000 0.000000
vn 0.000000 1.000000 0.000000
vn 0.000000 1.000000 0.000000
vn 0.000000 1.000000 0.000000
vn 0.128756 0.821222 -0.555893
vn 0.128756 0.821222 -0.555893
vn 0.128756 0.821222 -0.555893
vn -0.240267 0.433051 -0.868757
vn -0.240267 0.433051 -0.868757
vn -0.240267 0.433051 -0.868757
vn 0.050333 0.840827 -0.538959
vn 0.050333 0.840827 -0.538959
vn 0.050333 0.840827 -0.538959
vn -0.273100 0.791404 -0.546897
vn -0.273100 0.791404 -0.546896
vn -0.273100 0.791404 -0.546896
vn 0.099348 -0.719826 -0.687009
vn 0.099348 -0.719826 -0.687009
vn 0.099348 -0.719826 -0.687009
vn -0.203886 -0.713773 -0.670044
vn -0.203886 -0.713773 -0.670044
vn -0.203886 -0.713773 -0.670044
vn 0.706763 -0.168986 -0.686972
vn 0.706763 -0.168986 -0.686972
vn 0.706763 -0.168986 -0.686972
vn 0.798313 0.121920 -0.589773
vn 0.798313 0.121920 -0.589773
vn 0.798313 0.121920 -0.589773
vn 0.000000 0.000000 1.000000
vn 0.000000 0.000000 1.000000
vn 0.000000 0.000000 1.000000
vn 0.000000 0.000000 1.000000
vn 0.000000 0.000000 1.000000
vn 0.000000 0.000000 1.000000
vn 0.000000 0.000000 1.000000
vn -0.000000 0.000000 1.000000
vn -0.000000 0.000000 1.000000
vn -0.000000 0.000000 1.000000
vn -0.000000 0.000000 1.000000
vn 0.000000 0.000000 1.000000
vn 0.000000 0.000000 1.000000
vn 0.000000 0.000000 1.000000
vn 0.000000 0.000000 1.000000
vn 0.000000 0.000000 1.000000
vn 0.000000 0.000000 1.000000
vn 0.000000 0.000000 1.000000
vn 0.000000 0.000000 1.000000
vn 0.000000 0.000000 1.000000
vn 0.000000 0.000000 1.000000
vn 0.000000 0.000000 1.000000
vn 0.000000 0.000000 1.000000
vn 0.000000 0.000000 1.000000
vn 0.000000 0.000000 1.000000
vn 0.000000 0.000000 1.000000
vn 0.000000 0.000000 1.000000
vn -0.000000 0.000000 1.000000
vn -0.000000 0.000000 1.000000
vn -0.000000 0.000000 1.000000
vn -0.000000 0.000000 1.000000
vn 0.000000 0.000000 1.000000
vn 0.000000 0.000000 1.000000
vn 0.000000 0.000000 1.000000
vn 0.000000 0.000000 1.000000
vn 0.000000 0.000000 1.000000
vn 0.000000 0.000000 1.000000
vn 0.000000 0.000000 1.000000
vn -1.000000 0.000000 0.000000
vn -1.000000 0.000000 0.000000
vn -1.000000 0.000000 0.000000
vn -1.000000 0.000000 0.000000
vn -1.000000 -0.000000 0.000000
vn -1.000000 -0.000000 0.000000
vn -1.000000 -0.000000 0.000000
vn -1.000000 -0.000000 0.000000
vn 0.000000 -1.000000 0.000001
vn 0.000000 -1.000000 0.000001
vn 0.000000 -1.000000 0.000001
vn 0.000000 -1.000000 0.000001
vn 0.000000 -1.000000 0.000000
vn 0.000000 -1.000000 0.000000
vn 0.000000 -1.000000 0.000000
vn 0.000000 -1.000000 0.000000
vn 0.000000 -1.000000 0.000001
vn 0.000000 -1.000000 0.000001
vn 0.000000 -1.000000 0.000001
vn 0.000000 -1.000000 0.000001
vn -0.000000 1.000000 0.000000
vn -0.000000 1.000000 0.000000
vn -0.000000 1.000000 0.000000
vn -0.000000 1.000000 0.000000
vn 0.000000 1.000000 -0.000000
vn 0.000000 1.000000 -0.000000
vn 0.000000 1.000000 -0.000000
vn 0.000000 1.000000 -0.000000
vn 0.000000 1.000000 0.000000
vn 0.000000 1.000000 0.000000
vn 0.000000 1.000000 0.000000
vn 0.000000 1.000000 0.000000
vn 0.000000 1.000000 0.000000
vn 0.000000 1.000000 0.000000
vn 0.000000 1.000000 0.000000
vn 0.000000 1.000000 0.000000
vn 0.000000 1.000000 0.000000
vn 0.000000 1.000000 0.000000
vn 0.000000 1.000000 0.000000
vn 0.000000 1.000000 0.000000
vn 0.000000 1.000000 -0.000000
vn 0.000000 1.000000 -0.000000
vn 0.000000 1.000000 -0.000000
vn 0.000000 1.000000 -0.000000
vn 0.000000 0.000000 -1.000000
vn 0.000000 0.000000 -1.000000
vn 0.000000 0.000000 -1.000000
vn 0.000000 0.000000 -1.000000
vn 0.000000 0.000000 -1.000000
vn 0.000000 0.000000 -1.000000
vn 0.000000 0.000000 -1.000000
vn 0.000000 0.000000 -1.000000
vn 0.000000 0.000000 -1.000000
vn 0.000000 0.000000 -1.000000
vn 0.000000 0.000000 -1.000000
vn 0.000000 0.000000 -1.000000
vn 0.000000 0.000000 -1.000000
vn 0.000000 0.000000 -1.000000
vn 0.000000 0.000000 -1.000000
vn 0.000000 0.000000 -1.000000
vn 0.000000 0.000000 -1.000000
vn 0.000000 0.000000 -1.000000
vn 0.000000 0.000000 -1.000000
vn 0.000000 0.000000 -1.000000
vn 0.000000 0.000000 -1.000000
vn 0.000000 0.000000 -1.000000
vn 0.000000 0.000000 -1.000000
vn 0.000000 0.000000 -1.000000
vn 0.000000 0.000000 -1.000000
vn 0.000000 0.000000 -1.000000
vn 0.000000 0.000000 -1.000000
vn 0.000000 0.000000 -1.000000
vn 0.000000 0.000000 -1.000000
vn 1.000000 0.000000 0.000000
vn 1.000000 0.000000 0.000000
vn 1.000000 0.000000 0.000000
vn 1.000000 0.000000 0.000000
vn 1.000000 0.000000 0.000000
vn 1.000000 0.000000 0.000000
vn 1.000000 0.000000 0.000000
vn 1.000000 0.000000 0.000000
vn 1.000000 0.000000 0.000000
vn 1.000000 0.000000 0.000000
vn 1.000000 0.000000 0.000000
vn 1.000000 0.000000 0.000000
vn 1.000000 0.000000 0.000000
vn 1.000000 0.000000 0.000000
vn 1.000000 0.000000 0.000000
s off
f 3/1/1 4/2/2 6/3/3 5/4/4
f 2/5/5 8/6/6 6/3/7 4/2/8
f 7/7/9 1/8/10 3/1/11 5/4/12
f 2/5/13 4/2/14 3/1/15 1/8/16
f 6/3/17 8/6/18 7/7/19 5/4/20
f 56/9/21 10/10/22 12/11/23
f 11/12/24 12/11/25 14/13/26 13/14/27
f 13/14/28 14/13/29 16/15/30 15/16/31
f 15/16/32 16/15/33 10/17/34 9/18/35
f 10/10/36 16/19/37 14/20/38 12/11/39
f 13/21/40 55/22/41 54/23/42 11/12/43
f 17/24/44 52/25/45 19/26/46
f 19/26/47 20/27/48 22/28/49 21/29/50
f 23/30/51 74/31/52 72/32/53 24/33/54
f 23/30/55 24/33/56 18/34/57 17/35/58
f 20/27/59 73/36/60 71/37/61 22/38/62
f 23/39/63 17/24/64 19/26/65 21/40/66
f 27/41/67 67/42/68 66/43/69 28/44/70
f 27/41/71 28/44/72 30/45/73 29/46/74
f 29/46/75 30/45/76 85/47/77 83/48/78
f 31/49/79 32/50/80 26/51/81 25/52/82
f 68/53/83 32/54/84 30/55/85
f 86/56/86 25/57/87 27/41/88
f 33/58/89 34/59/90 60/60/91 57/61/92
f 35/62/93 36/63/94 38/64/95 37/65/96
f 78/66/97 38/64/98 40/67/99
f 39/68/100 40/67/101 34/69/102 33/70/103
f 34/59/104 40/71/105 38/72/106 36/63/107
f 77/73/108 59/74/109 58/75/110 35/62/111
f 43/76/112 44/77/113 46/78/114 45/79/115
f 47/80/116 81/81/117 80/82/118 48/83/119
f 42/84/120 48/85/121 64/86/122 61/87/123
f 70/88/124 69/89/125 41/90/126
f 49/91/127 51/92/128 52/25/129
f 52/25/130 51/92/131 50/93/132
f 53/94/133 56/9/134 55/22/135
f 55/22/136 56/9/137 54/23/138
f 58/75/139 59/74/140 60/60/141
f 60/60/142 59/74/143 57/61/144
f 62/95/145 63/96/146 64/86/147
f 64/86/148 63/96/149 61/87/150
f 65/97/151 68/53/152 67/42/153
f 67/42/154 68/53/155 66/43/156
f 47/80/157 48/83/158 42/98/159 41/99/160 69/100/161
f 43/76/162 63/96/163 62/95/164 44/77/165
f 47/101/166 69/89/167 70/88/168 43/76/169 45/102/170
f 73/103/171 74/31/172 71/104/173
f 72/32/174 74/31/175 73/103/176
f 76/105/177 77/73/178 78/106/179
f 78/106/180 77/73/181 75/107/182
f 80/82/183 81/81/184 82/108/185
f 82/108/186 81/81/187 79/109/188
f 84/110/189 86/56/190 85/111/191
f 85/111/192 86/56/193 83/112/194
f 60/60/195 36/63/196 35/62/197 58/75/198
f 60/60/199 34/59/200 36/63/201
f 17/24/202 18/113/203 49/91/204 52/25/205
f 19/26/206 52/25/207 50/93/208 20/27/209
f 56/9/210 12/11/211 11/12/212 54/23/213
f 9/114/214 10/10/215 56/9/216 53/94/217
f 63/96/218 41/90/219 42/84/220 61/87/221
f 70/88/222 41/90/223 63/96/224 43/76/225
f 25/57/226 26/115/227 65/97/228 67/42/229
f 25/57/230 67/42/231 27/41/232
f 68/53/233 30/55/234 28/44/235 66/43/236
f 26/115/237 32/54/238 68/53/239 65/97/240
f 64/86/241 82/116/242 44/77/243 62/95/244
f 64/86/245 48/85/246 80/117/247 82/116/248
f 44/77/249 82/116/250 79/118/251 46/119/252
f 77/73/253 35/62/254 37/120/255 75/107/256
f 39/121/257 33/58/258 57/61/259 59/74/260
f 39/121/261 59/74/262 77/73/263 76/105/264
f 51/92/265 24/122/266 72/123/267 73/36/268
f 51/92/269 73/36/270 20/27/271 50/93/272
f 18/113/273 24/122/274 51/92/275 49/91/276
f 78/66/277 40/67/278 39/68/279 76/124/280
f 37/65/281 38/64/282 78/66/283 75/125/284
f 21/29/285 22/28/286 71/104/287 74/31/288
f 21/29/289 74/31/290 23/30/291
f 85/47/292 32/50/293 31/49/294 84/126/295
f 85/47/296 30/45/297 32/50/298
f 45/79/299 46/78/300 79/109/301 81/81/302
f 45/79/303 81/81/304 47/80/305
f 86/56/306 27/41/307 29/127/308 83/112/309
f 31/128/310 25/57/311 86/56/312 84/110/313
f 15/129/314 9/114/315 53/94/316 55/22/317
f 15/129/318 55/22/319 13/21/320
