# This file uses centimeters as units for non-parametric coordinates.

v 90.127548 89.048897 0.260162
v 159.872421 89.048897 0.260162
v 90.127548 219.262695 0.260162
v 159.872421 219.262695 0.260162
v 90.127548 219.262695 -0.260162
v 159.872421 219.262695 -0.260162
v 90.127548 89.048897 -0.260162
v 159.872421 89.048897 -0.260162
vt 0.531546 0.502356
vt 0.595759 0.502356
vt 0.595759 0.622241
vt 0.531546 0.622241
vt 0.531546 0.502356
vt 0.595759 0.502356
vt 0.595759 0.622241
vt 0.531546 0.622241
vn 0.000000 0.000000 1.000000
vn 0.000000 0.000000 1.000000
vn 0.000000 0.000000 1.000000
vn 0.000000 0.000000 1.000000
vn 0.000000 0.000000 -1.000000
vn 0.000000 0.000000 -1.000000
vn 0.000000 0.000000 -1.000000
vn 0.000000 0.000000 -1.000000
s off
f 1/1/1 2/2/2 4/3/3 3/4/4
f 5/5/5 6/6/6 8/7/7 7/8/8
