# This file uses centimeters as units for non-parametric coordinates.

v -125.000015 0.000000 4.487000
v 124.999680 0.000000 4.487000
v -125.000015 0.000000 -4.487000
v 124.999680 0.000000 -4.487000
v -0.000019 132.859070 4.487000
v -0.000019 132.859070 -4.487000
vt 0.123215 0.876903
vt 0.047005 0.802023
vt 0.123215 0.876903
vt 0.047005 0.802023
vt 0.199425 0.802023
vt 0.199425 0.802023
vn 0.000000 0.000000 1.000000
vn 0.000000 0.000000 1.000000
vn 0.000000 0.000000 1.000000
vn 0.000000 0.000000 -1.000000
vn 0.000000 0.000000 -1.000000
vn 0.000000 0.000000 -1.000000
vn -0.728320 0.685237 0.000000
vn -0.728320 0.685237 0.000000
vn -0.728320 0.685237 0.000000
vn -0.728320 0.685237 0.000000
vn 0.728321 0.685236 0.000000
vn 0.728321 0.685236 0.000000
vn 0.728321 0.685236 0.000000
vn 0.728321 0.685236 0.000000
vn 0.000000 -1.000000 0.000000
vn 0.000000 -1.000000 0.000000
vn 0.000000 -1.000000 0.000000
vn 0.000000 -1.000000 0.000000
s off
f 5/1/1 1/2/2 2/6/3
f 4/5/4 3/4/5 6/3/6
f 6/3/7 3/4/8 1/2/9 5/1/10
f 4/5/11 6/3/12 5/1/13 2/6/14
f 1/2/15 3/4/16 4/5/17 2/6/18
