# This file uses centimeters as units for non-parametric coordinates.

v 0.000000 1.303692 4.487076
v 249.999634 1.303692 4.487076
v 0.000000 250.000000 4.487076
v 249.999634 250.000000 4.487076
v 0.000000 250.000000 -4.486923
v 249.999634 250.000000 -4.486923
v 0.000000 1.303692 -4.486923
v 249.999634 1.303692 -4.486923
vt 0.007891 0.991646
vt 0.242198 0.991646
vt 0.242198 0.991646
vt 0.007891 0.991646
vt 0.242198 0.758169
vt 0.242198 0.758169
vt 0.007891 0.758169
vt 0.007891 0.758169
vn 0.000000 1.000000 0.000000
vn 0.000000 1.000000 0.000000
vn 0.000000 1.000000 0.000000
vn 0.000000 1.000000 0.000000
vn 1.000000 0.000000 0.000000
vn 1.000000 0.000000 0.000000
vn 1.000000 0.000000 0.000000
vn 1.000000 0.000000 0.000000
vn -1.000000 0.000000 0.000000
vn -1.000000 0.000000 0.000000
vn -1.000000 0.000000 0.000000
vn -1.000000 0.000000 0.000000
vn 0.000000 0.000000 1.000000
vn 0.000000 0.000000 1.000000
vn 0.000000 0.000000 1.000000
vn 0.000000 0.000000 1.000000
vn 0.000000 0.000000 -1.000000
vn 0.000000 0.000000 -1.000000
vn 0.000000 0.000000 -1.000000
vn 0.000000 0.000000 -1.000000
s off
f 3/1/1 4/2/2 6/3/3 5/4/4
f 2/5/5 8/6/6 6/3/7 4/2/8
f 7/7/9 1/8/10 3/1/11 5/4/12
f 2/5/13 4/2/14 3/1/15 1/8/16
f 6/3/17 8/6/18 7/7/19 5/4/20
