# This file uses centimeters as units for non-parametric coordinates.

v -50.563049 26.599770 -41.647034
v -47.945251 28.549881 -18.986816
v -50.563049 44.667473 -17.517395
v -50.563049 44.667473 -41.647034
v 0.000000 26.599770 -41.646729
v 0.000000 26.599770 -17.517700
v 0.000000 44.667473 -17.517700
v 0.000000 44.667473 -41.646729
v -46.547852 46.219940 -211.711700
v -46.547852 46.219940 -235.841339
v -46.547852 25.134430 -235.841339
v -46.547852 25.134430 -212.893341
v 0.000000 46.219940 -211.711426
v 0.000000 46.219940 -235.841064
v 0.000000 25.134430 -235.841064
v 0.000000 25.134430 -211.711426
v -46.511536 39.481201 -78.982880
v -46.511536 46.219940 -106.617706
v -46.511536 28.152275 -104.341766
v -46.511536 28.152275 -78.982880
v 0.000000 46.219940 -78.983154
v 0.000000 46.219940 -106.617432
v 0.000000 28.152275 -106.617432
v 0.000000 28.152275 -78.983154
v -10.000000 0.000000 0.000000
v -10.000000 0.000000 -250.000000
v 10.000000 0.000000 -250.000000
v 10.000000 0.000000 0.000000
v -10.000000 56.461411 0.000000
v -10.000000 56.461411 -250.000000
v 10.000000 56.461411 -250.000000
v 10.000000 56.461411 0.000000
v -39.815979 45.377426 -149.586182
v -39.815979 45.377426 -173.715820
v -39.815979 23.290787 -173.715820
v -37.914886 25.490608 -152.231171
v 0.000000 45.377426 -149.586182
v 0.000000 45.377426 -173.715820
v 0.000000 23.290787 -173.715820
v 0.000000 23.290787 -149.586182
v 0.000000 0.000000 -250.000000
v -10.000000 0.000000 -50.612793
v -10.000000 0.000000 -81.741943
v -10.000000 5.402908 -66.854248
v -5.965576 0.000000 -66.829224
v -10.000000 56.461411 -175.143433
v -10.000000 56.461411 -207.432861
v -4.970398 56.461411 -189.326447
v -10.000000 53.334808 -188.903198
v -30.102844 46.219940 -78.982880
v -46.511536 46.219940 -90.628387
v -46.547852 40.236320 -235.841339
v -46.547852 34.580307 -235.841339
v -46.547852 38.221817 -233.914520
v -31.371002 38.247528 -235.841064
v 10.000000 16.349068 0.000000
v 10.000000 40.112343 0.000000
v 10.000000 16.349068 -250.000000
v 10.000000 40.112343 -250.000000
v 18.771057 19.503670 -250.138214
v 18.771057 19.503670 -0.138245
v 10.000000 16.349068 0.000000
v 10.000000 16.349068 -250.000000
v 18.771057 36.957741 -250.138214
v 18.771057 36.957741 -0.138245
v 10.000000 40.112343 0.000000
v 10.000000 40.112343 -250.000000
v 18.771057 19.503670 -160.610626
v 18.771057 19.503670 -36.489563
v 18.771057 23.517265 -75.586884
v 13.471680 18.274460 -74.517822
vt 0.495319 0.156335
vt 0.495390 0.156201
vt 0.495416 0.156244
vt 0.495354 0.156370
vt 0.495302 0.156186
vt 0.495222 0.156316
vt 0.496222 0.156525
vt 0.496196 0.156336
vt 0.496183 0.156415
vt 0.496203 0.156532
vt 0.496055 0.156527
vt 0.496046 0.156359
vt 0.496086 0.156317
vt 0.496095 0.156500
vt 0.496187 0.156532
vt 0.496144 0.156376
vt 0.496160 0.156548
vt 0.495597 0.156375
vt 0.495638 0.156240
vt 0.495644 0.156281
vt 0.495597 0.156406
vt 0.495498 0.156386
vt 0.495544 0.156264
vt 0.495529 0.156221
vt 0.495492 0.156315
vt 0.495485 0.156366
vt 0.495527 0.156362
vt 0.495903 0.156461
vt 0.495917 0.156290
vt 0.495894 0.156335
vt 0.495879 0.156492
vt 0.495791 0.156462
vt 0.495802 0.156319
vt 0.495814 0.156272
vt 0.495787 0.156438
vt 0.495269 0.156344
vt 0.495335 0.156230
vt 0.496186 0.156538
vt 0.496733 0.155906
vt 0.496435 0.156213
vt 0.496662 0.155943
vt 0.496608 0.155986
vt 0.496298 0.183896
vt 0.496298 0.183896
vt 0.496298 0.183896
vt 0.496298 0.183896
vt 0.496298 0.183896
vt 0.496298 0.183896
vt 0.496298 0.183896
vt 0.496298 0.183896
vt 0.496298 0.183896
vt 0.496298 0.183896
vt 0.496298 0.183896
vt 0.496298 0.183896
vt 0.496298 0.183896
vt 0.496298 0.183896
vt 0.496010 0.156650
vt 0.496017 0.156358
vt 0.495872 0.156281
vt 0.495868 0.156671
vt 0.496714 0.155866
vt 0.496730 0.155671
vt 0.496803 0.155703
vt 0.496790 0.155847
vt 0.496298 0.183896
vt 0.496298 0.183896
vt 0.496298 0.183896
vt 0.496298 0.183896
vt 0.496298 0.183896
vt 0.496298 0.183896
vt 0.496298 0.183896
vt 0.496298 0.183896
vt 0.496298 0.183896
vt 0.496298 0.183896
vt 0.496298 0.183896
vt 0.496298 0.183896
vt 0.496298 0.183896
vt 0.496298 0.183896
vt 0.496298 0.183896
vt 0.496298 0.183896
vt 0.496298 0.183896
vt 0.496298 0.183896
vt 0.496298 0.183896
vt 0.496298 0.183896
vt 0.496298 0.183896
vt 0.496298 0.183896
vt 0.496298 0.183896
vt 0.496298 0.183896
vn 0.000006 0.000000 -1.000000
vn 0.000006 0.000000 -1.000000
vn 0.000006 0.000000 -1.000000
vn 0.000006 0.000000 -1.000000
vn 0.000000 1.000000 0.000000
vn 0.000000 1.000000 0.000000
vn 0.000000 1.000000 0.000000
vn 0.000000 1.000000 0.000000
vn 0.000008 -0.000019 -1.000000
vn 0.000008 -0.000019 -1.000000
vn 0.000008 -0.000019 -1.000000
vn 0.000008 -0.000019 -1.000000
vn -0.012692 -0.028007 0.999527
vn -0.012692 -0.028007 0.999527
vn -0.012692 -0.028007 0.999527
vn -0.012692 -0.028007 0.999527
vn -1.000000 0.000000 0.000000
vn -1.000000 0.000000 0.000000
vn -1.000000 0.000000 0.000000
vn 0.000000 1.000000 0.000000
vn 0.000000 1.000000 0.000000
vn 0.000000 1.000000 0.000000
vn 0.000000 1.000000 0.000000
vn 0.000000 -1.000000 0.000000
vn 0.000000 -1.000000 0.000000
vn 0.000000 -1.000000 0.000000
vn 0.000000 -1.000000 0.000000
vn -0.024405 -0.062840 -0.997725
vn -0.024405 -0.062840 -0.997725
vn -0.024405 -0.062840 -0.997725
vn -0.024405 -0.062841 -0.997725
vn 0.000006 -0.000003 1.000000
vn 0.000006 -0.000003 1.000000
vn 0.000006 -0.000003 1.000000
vn 0.000006 -0.000003 1.000000
vn 0.000006 -0.000003 1.000000
vn -1.000000 0.000000 0.000000
vn -1.000000 0.000000 0.000000
vn -1.000000 0.000000 0.000000
vn -1.000000 0.000000 0.000000
vn -1.000000 0.000000 0.000000
vn 0.000000 1.000000 0.000000
vn 0.000000 1.000000 0.000000
vn 0.000000 1.000000 0.000000
vn 0.000000 1.000000 0.000000
vn 0.000000 1.000000 0.000000
vn 0.000000 -1.000000 0.000000
vn 0.000000 -1.000000 0.000000
vn 0.000000 -1.000000 0.000000
vn 0.000000 -1.000000 0.000000
vn 0.000000 0.000000 -1.000000
vn 0.000000 0.000000 -1.000000
vn 0.000000 0.000000 -1.000000
vn 0.000000 0.000000 -1.000000
vn 0.000000 0.000000 1.000000
vn 0.000000 0.000000 1.000000
vn 0.000000 0.000000 1.000000
vn 0.000000 -1.000000 0.000000
vn 0.000000 -1.000000 0.000000
vn 0.000000 -1.000000 0.000000
vn 0.000000 -1.000000 0.000000
vn -1.000000 0.000000 0.000000
vn -1.000000 0.000000 0.000000
vn -1.000000 0.000000 0.000000
vn -1.000000 0.000000 0.000000
vn 1.000000 0.000000 0.000000
vn 1.000000 0.000000 0.000000
vn 1.000000 0.000000 0.000000
vn 1.000000 0.000000 0.000000
vn 0.000000 0.000000 -1.000000
vn 0.000000 0.000000 -1.000000
vn 0.000000 0.000000 -1.000000
vn 0.000000 0.000000 -1.000000
vn -0.035759 -0.064464 0.997279
vn -0.035759 -0.064464 0.997279
vn -0.035759 -0.064464 0.997279
vn -0.035759 -0.064464 0.997279
vn -0.997884 -0.047963 0.043902
vn -0.997884 -0.047963 0.043902
vn -0.997884 -0.047963 0.043902
vn -0.997884 -0.047963 0.043902
vn 0.000000 1.000000 0.000000
vn 0.000000 1.000000 0.000000
vn 0.000000 1.000000 0.000000
vn 0.000000 1.000000 0.000000
vn -0.029934 -0.998331 0.049394
vn -0.029934 -0.998331 0.049394
vn -0.029934 -0.998331 0.049394
vn -0.029934 -0.998331 0.049394
vn -0.015768 -0.044144 0.998901
vn -0.015768 -0.044144 0.998901
vn -0.015768 -0.044144 0.998901
vn -0.015768 -0.044144 0.998901
vn -0.995150 -0.078740 0.058958
vn -0.995150 -0.078740 0.058958
vn -0.995150 -0.078740 0.058958
vn -0.995150 -0.078740 0.058958
vn -0.020412 -0.998876 0.042774
vn -0.020412 -0.998876 0.042774
vn -0.020412 -0.998876 0.042774
vn -0.020412 -0.998876 0.042774
vn 0.000000 1.000000 0.000000
vn 0.000000 1.000000 0.000000
vn 0.000000 1.000000 0.000000
vn -0.783525 -0.584087 0.211971
vn -0.783525 -0.584087 0.211971
vn -0.783525 -0.584087 0.211971
vn -0.785384 -0.587362 -0.195393
vn -0.785384 -0.587362 -0.195393
vn -0.785384 -0.587362 -0.195393
vn 0.000000 -1.000000 0.000000
vn 0.000000 -1.000000 0.000000
vn 0.000000 -1.000000 0.000000
vn 0.000000 -1.000000 0.000000
vn 0.000000 -1.000000 0.000000
vn 0.000000 -1.000000 0.000000
vn 0.000000 -1.000000 0.000000
vn 0.000000 -1.000000 0.000000
vn -0.513848 0.845923 0.142737
vn -0.513848 0.845923 0.142737
vn -0.513848 0.845923 0.142737
vn -0.529897 0.826981 -0.187913
vn -0.529897 0.826981 -0.187913
vn -0.529897 0.826981 -0.187913
vn -1.000000 0.000000 0.000000
vn -1.000000 0.000000 0.000000
vn -1.000000 0.000000 0.000000
vn -1.000000 0.000000 0.000000
vn -1.000000 0.000000 0.000000
vn -1.000000 0.000000 0.000000
vn -1.000000 0.000000 0.000000
vn -1.000000 0.000000 0.000000
vn -1.000000 0.000000 0.000000
vn -1.000000 0.000000 0.000000
vn -1.000000 0.000000 0.000000
vn -1.000000 0.000000 0.000000
vn 0.000000 1.000000 0.000000
vn 0.000000 1.000000 0.000000
vn 0.000000 1.000000 0.000000
vn 0.000000 1.000000 0.000000
vn 0.000000 1.000000 -0.000000
vn 0.000000 1.000000 -0.000000
vn 0.000000 1.000000 -0.000000
vn 0.000000 1.000000 -0.000000
vn -0.334929 0.815545 0.471920
vn -0.334929 0.815545 0.471920
vn -0.334929 0.815545 0.471920
vn -0.112281 0.464733 -0.878303
vn -0.112281 0.464733 -0.878303
vn -0.112281 0.464733 -0.878303
vn -0.090194 -0.688387 -0.719715
vn -0.090194 -0.688387 -0.719715
vn -0.090194 -0.688387 -0.719715
vn 0.000008 0.000011 -1.000000
vn 0.000008 0.000011 -1.000000
vn 0.000008 0.000011 -1.000000
vn 0.000008 0.000011 -1.000000
vn 0.000000 0.000000 -1.000000
vn 0.000000 0.000000 -1.000000
vn 0.000000 0.000000 -1.000000
vn -1.000000 -0.000001 0.000000
vn -1.000000 -0.000001 0.000000
vn -1.000000 -0.000001 0.000000
vn -1.000000 -0.000001 0.000000
vn -1.000000 0.000000 0.000000
vn -1.000000 0.000000 0.000000
vn -1.000000 0.000000 0.000000
vn -1.000000 0.000000 0.000000
vn 0.000000 0.000000 1.000000
vn 0.000000 0.000000 1.000000
vn 0.000000 0.000000 1.000000
vn 0.000000 0.000000 1.000000
vn 0.000000 0.000000 1.000000
vn 0.000000 0.000000 1.000000
vn 0.000000 0.000000 1.000000
vn 0.000000 0.000000 -1.000000
vn 0.000000 0.000000 -1.000000
vn 0.000000 0.000000 -1.000000
vn 0.000000 0.000000 -1.000000
vn 0.000000 0.000000 -1.000000
vn 0.000000 0.000000 -1.000000
vn 0.000000 0.000000 -1.000000
vn 1.000000 0.000000 0.000000
vn 1.000000 0.000000 0.000000
vn 1.000000 0.000000 0.000000
vn 1.000000 0.000000 0.000000
vn 0.015759 0.000000 0.999876
vn 0.015759 0.000000 0.999876
vn 0.015759 0.000000 0.999876
vn 0.015759 0.000000 0.999876
vn -0.015757 0.000000 -0.999876
vn -0.015757 0.000000 -0.999876
vn -0.015757 0.000000 -0.999876
vn -0.015757 0.000000 -0.999876
vn 0.485004 -0.874512 0.000000
vn 0.485004 -0.874512 0.000000
vn 0.485004 -0.874512 0.000000
vn 1.000000 0.000000 0.000000
vn 1.000000 0.000000 0.000000
vn 1.000000 0.000000 0.000000
vn 0.706305 -0.707120 0.033380
vn 0.706305 -0.707120 0.033380
vn 0.706305 -0.707120 0.033380
vn 0.693862 -0.716344 -0.073537
vn 0.693862 -0.716344 -0.073537
vn 0.693862 -0.716344 -0.073537
vn 1.000000 -0.000000 0.000000
vn 1.000000 -0.000000 0.000000
vn 1.000000 -0.000000 0.000000
vn 1.000000 -0.000000 0.000000
vn 1.000000 0.000000 0.000000
vn 1.000000 0.000000 0.000000
vn 1.000000 0.000000 0.000000
vn 1.000000 0.000000 0.000000
vn 0.313054 -0.949731 0.002799
vn 0.313054 -0.949731 0.002799
vn 0.313054 -0.949731 0.002799
vn 0.313054 -0.949731 0.002799
vn 0.313766 -0.949477 -0.006664
vn 0.313766 -0.949477 -0.006664
vn 0.313766 -0.949477 -0.006664
vn 0.313766 -0.949477 -0.006664
vn 0.338437 0.940989 0.000000
vn 0.338437 0.940989 0.000000
vn 0.338437 0.940989 0.000000
vn 0.338437 0.940989 0.000000
s off
f 4/1/1 8/2/2 5/3/3 1/4/4
f 7/5/5 8/2/6 4/1/7 3/6/8
f 10/7/9 14/8/10 55/9/11 52/10/12
f 12/11/13 16/12/14 13/13/15 9/14/16
f 12/11/17 9/14/18 54/15/19
f 13/13/20 14/8/21 10/7/22 9/14/23
f 15/16/24 16/12/25 12/11/26 11/17/27
f 18/18/28 22/19/29 23/20/30 19/21/31
f 20/22/32 24/23/33 21/24/34 50/25/35 17/26/36
f 20/22/37 17/26/38 51/27/39 18/18/40 19/21/41
f 21/24/42 22/19/43 18/18/44 51/27/45 50/25/46
f 23/20/47 24/23/48 20/22/49 19/21/50
f 26/43/51 30/44/52 59/65/53 58/67/54
f 29/49/55 57/70/56 32/48/57
f 45/78/58 28/51/59 25/52/60 42/73/61
f 29/54/62 44/77/63 42/74/64 25/50/65
f 58/68/66 56/87/67 28/51/68 27/46/69
f 34/28/70 38/29/71 39/30/72 35/31/73
f 36/32/74 40/33/75 37/34/76 33/35/77
f 36/32/78 33/35/79 34/28/80 35/31/81
f 37/34/82 38/29/83 34/28/84 33/35/85
f 39/30/86 40/33/87 36/32/88 35/31/89
f 2/36/90 6/37/91 7/5/92 3/6/93
f 4/1/94 1/4/95 2/36/96 3/6/97
f 5/3/98 6/37/99 2/36/100 1/4/101
f 31/45/102 48/84/103 32/56/104
f 43/75/105 45/78/106 44/79/107
f 44/79/108 45/78/109 42/73/110
f 27/53/111 28/51/112 45/78/113
f 27/53/114 45/78/115 43/75/116 26/43/117 41/71/118
f 47/82/119 49/85/120 48/86/121
f 48/86/122 49/85/123 46/80/124
f 44/77/125 49/85/126 26/43/127 43/76/128
f 29/54/129 46/80/130 49/85/131 44/77/132
f 26/43/133 49/85/134 47/82/135 30/44/136
f 30/44/137 47/83/138 48/84/139 31/45/140
f 32/56/141 48/84/142 46/81/143 29/49/144
f 50/25/145 51/27/146 17/26/147
f 54/15/148 55/9/149 53/38/150
f 52/10/151 55/9/152 54/15/153
f 55/9/154 15/16/155 11/17/156 53/38/157
f 55/9/158 14/8/159 15/16/160
f 54/15/161 9/14/162 10/7/163 52/10/164
f 12/11/165 54/15/166 53/38/167 11/17/168
f 28/47/169 56/88/170 25/50/171
f 25/50/172 56/88/173 57/70/174 29/49/175
f 59/65/176 30/44/177 31/45/178
f 26/43/179 58/67/180 27/46/181 41/72/182
f 31/55/183 32/56/184 57/69/185 59/66/186
f 61/64/187 65/63/188 66/62/189 62/61/190
f 63/60/191 67/59/192 64/58/193 60/57/194
f 63/60/195 71/42/196 62/61/197
f 64/58/198 65/63/199 70/41/200
f 70/41/201 71/42/202 68/40/203
f 69/39/204 71/42/205 70/41/206
f 70/41/207 65/63/208 61/64/209 69/39/210
f 64/58/211 70/41/212 68/40/213 60/57/214
f 63/60/215 60/57/216 68/40/217 71/42/218
f 62/61/219 71/42/220 69/39/221 61/64/222
f 65/63/223 64/58/224 67/59/225 66/62/226
