# This file uses centimeters as units for non-parametric coordinates.

v 124.217224 126.425484 12.099342
v 108.370361 143.052063 12.099342
v 124.217224 15.846846 12.099342
v 108.370361 15.846846 12.099342
v 124.217224 15.846846 -12.099342
v 108.370361 15.846846 -12.099342
v 124.217224 126.425484 -12.099342
v 108.370361 143.052063 -12.099342
v 108.370361 68.140678 7.195816
v 108.370361 83.987442 12.099342
v 0.000000 68.140671 12.099342
v 0.000000 83.987442 12.099342
v 0.000000 68.140671 -12.099342
v 0.000000 83.987442 -12.099342
v 108.370361 68.140671 -12.099342
v 108.370361 83.987442 -12.099342
v 0.000000 15.846846 12.099308
v 0.000000 0.000002 12.099308
v 234.756775 15.846846 12.099308
v 250.597839 0.000002 12.099308
v 234.756775 15.846846 -12.099304
v 250.597839 0.000002 -12.099304
v 0.000000 15.846846 -12.099304
v 0.000000 0.000002 -12.099304
v 0.000000 217.757080 12.099308
v 0.000000 201.910248 12.099308
v 32.560120 217.757080 12.099308
v 48.948364 201.910248 12.099308
v 32.560120 217.757080 -12.099304
v 48.948364 201.910248 -12.099304
v 0.000000 217.757080 -12.099304
v 0.000000 201.910248 -12.099304
v 72.761230 83.987442 12.099342
v 15.177307 83.987442 12.099342
v 44.788818 83.987442 6.549339
v 41.681519 80.048615 12.099308
v 89.175110 68.140671 12.099342
v 108.370361 72.461678 12.099342
v 124.217224 104.074677 12.099342
v 124.217224 27.841536 12.099342
v 124.217224 53.030869 5.764923
v 119.251099 50.972488 12.099342
v 155.780945 0.000002 12.099308
v 213.425323 0.000002 12.099308
v 193.548584 7.342622 12.099308
v 190.243225 0.000002 7.061272
v 24.482727 15.846846 12.099308
v 101.113586 15.846846 12.099308
v 44.722595 15.846843 5.506058
v 44.580994 10.246422 12.099308
v 41.653442 83.987442 -12.099342
v 92.538757 83.987442 -12.099342
v 52.497864 83.987442 -7.827339
v 52.704163 80.548271 -12.099304
v 124.217224 53.612625 -12.099342
v 124.217224 83.692947 -12.099342
v 119.434204 62.559082 -12.099304
v 124.217224 62.928120 -8.755417
v 0.000000 250.000000 4.487000
v 0.000000 250.000000 -4.487000
v 249.596252 0.403658 4.487000
v 249.596252 0.403650 -4.487000
v 0.000000 0.403650 -4.487000
v 0.000000 0.403658 4.487000
vt 0.496057 0.152314
vt 0.496057 0.152314
vt 0.496057 0.152314
vt 0.496057 0.152314
vt 0.496057 0.152314
vt 0.496057 0.152314
vt 0.496057 0.152314
vt 0.496057 0.152314
vt 0.496057 0.152314
vt 0.496057 0.152314
vt 0.496057 0.152314
vt 0.496057 0.152314
vt 0.496057 0.152314
vt 0.496057 0.152314
vt 0.496057 0.152314
vt 0.496057 0.152314
vt 0.496057 0.152314
vt 0.496057 0.152314
vt 0.496057 0.152314
vt 0.496057 0.152314
vt 0.496057 0.152314
vt 0.496057 0.152314
vt 0.496057 0.152314
vt 0.496057 0.152314
vt 0.496057 0.152314
vt 0.496057 0.152314
vt 0.496057 0.152314
vt 0.496057 0.152314
vt 0.496057 0.152314
vt 0.496057 0.152314
vt 0.496057 0.152314
vt 0.496057 0.152314
vt 0.496057 0.152314
vt 0.496057 0.152314
vt 0.496057 0.152314
vt 0.496057 0.152314
vt 0.496057 0.152314
vt 0.496057 0.152314
vt 0.496057 0.152314
vt 0.496057 0.152314
vt 0.496057 0.152314
vt 0.496057 0.152314
vt 0.496057 0.152314
vt 0.496057 0.152314
vt 0.496057 0.152314
vt 0.496057 0.152314
vt 0.496057 0.152314
vt 0.496057 0.152314
vt 0.496057 0.152314
vt 0.496057 0.152314
vt 0.496057 0.152314
vt 0.496057 0.152314
vt 0.496057 0.152314
vt 0.496057 0.152314
vt 0.496057 0.152314
vt 0.496057 0.152314
vt 0.496057 0.152314
vt 0.496057 0.152314
vt 0.496057 0.152314
vt 0.496057 0.152314
vt 0.496057 0.152314
vt 0.496057 0.152314
vt 0.496057 0.152314
vt 0.496057 0.152314
vt 0.496057 0.152314
vt 0.496057 0.152314
vt 0.496057 0.152314
vt 0.496057 0.152314
vt 0.496057 0.152314
vt 0.496057 0.152314
vt 0.496057 0.152314
vt 0.496057 0.152314
vt 0.496057 0.152314
vt 0.496057 0.152314
vt 0.496057 0.152314
vt 0.496057 0.152314
vt 0.496057 0.152314
vt 0.496057 0.152314
vt 0.496057 0.152314
vt 0.496057 0.152314
vt 0.496057 0.152314
vt 0.496057 0.152314
vt 0.496057 0.152314
vt 0.496057 0.152314
vt 0.496057 0.152314
vt 0.496057 0.152314
vt 0.496057 0.152314
vt 0.496057 0.152314
vt 0.496057 0.152314
vt 0.007886 0.992272
vt 0.007886 0.992272
vt 0.242198 0.758436
vt 0.242198 0.758436
vt 0.007886 0.758436
vt 0.007886 0.758436
vn 0.000000 0.000000 1.000000
vn 0.000000 0.000000 1.000000
vn 0.000000 0.000000 1.000000
vn 0.000000 -1.000000 0.000000
vn 0.000000 -1.000000 0.000000
vn 0.000000 -1.000000 0.000000
vn 0.000000 -1.000000 0.000000
vn -0.000002 0.000001 -1.000000
vn -0.000001 0.000001 -1.000000
vn 0.000002 0.000000 -1.000000
vn -0.000002 0.000001 -1.000000
vn 0.723876 0.689930 0.000000
vn 0.723876 0.689930 0.000000
vn 0.723876 0.689930 0.000000
vn 0.723876 0.689930 0.000000
vn -1.000000 0.000000 0.000000
vn -1.000000 0.000000 0.000000
vn -1.000000 0.000000 0.000000
vn -1.000000 0.000000 0.000000
vn 1.000000 0.000000 0.000000
vn 1.000000 0.000000 0.000000
vn 1.000000 0.000000 0.000000
vn 1.000000 0.000000 0.000000
vn -0.000000 -0.000000 1.000000
vn 0.000000 0.000000 1.000000
vn -0.000000 -0.000000 1.000000
vn -1.000000 0.000000 0.000000
vn -1.000000 0.000000 0.000000
vn -1.000000 0.000000 0.000000
vn -1.000000 0.000000 0.000000
vn -0.000001 0.000000 -1.000000
vn 0.000000 0.000002 -1.000000
vn -0.000001 -0.000001 -1.000000
vn -0.000001 -0.000001 -1.000000
vn 1.000000 0.000000 0.000000
vn 1.000000 0.000000 0.000000
vn 1.000000 0.000000 0.000000
vn 1.000000 0.000000 0.000000
vn 1.000000 0.000000 0.000000
vn 0.000000 1.000000 0.000000
vn 0.000000 1.000000 0.000000
vn 0.000000 1.000000 0.000000
vn 0.000000 1.000000 0.000000
vn -0.000000 0.000000 1.000000
vn -0.000000 0.000000 1.000000
vn 0.000000 0.000000 1.000000
vn -0.000000 0.000000 1.000000
vn 0.707236 0.706978 0.000000
vn 0.707236 0.706978 0.000000
vn 0.707236 0.706978 0.000000
vn 0.707236 0.706978 0.000000
vn 0.000000 0.000000 -1.000000
vn 0.000000 0.000000 -1.000000
vn 0.000000 0.000000 -1.000000
vn 0.000000 0.000000 -1.000000
vn -1.000000 0.000000 0.000000
vn -1.000000 0.000000 0.000000
vn -1.000000 0.000000 0.000000
vn -1.000000 0.000000 0.000000
vn 0.000000 -1.000000 -0.000000
vn 0.000000 -1.000000 -0.000000
vn 0.000000 -1.000000 -0.000000
vn -0.000000 1.000000 -0.000000
vn 0.000000 1.000000 0.000000
vn -0.000000 1.000000 -0.000000
vn -0.000000 1.000000 -0.000000
vn 0.000000 0.000000 1.000000
vn 0.000000 0.000000 1.000000
vn 0.000000 0.000000 1.000000
vn 0.000000 0.000000 1.000000
vn 0.695132 0.718882 0.000000
vn 0.695132 0.718882 0.000000
vn 0.695132 0.718882 0.000000
vn 0.695132 0.718882 0.000000
vn 0.000000 0.000000 -1.000000
vn 0.000000 0.000000 -1.000000
vn 0.000000 0.000000 -1.000000
vn 0.000000 0.000000 -1.000000
vn -1.000000 0.000000 0.000000
vn -1.000000 0.000000 0.000000
vn -1.000000 0.000000 0.000000
vn -1.000000 0.000000 0.000000
vn 0.000000 -1.000000 0.000000
vn 0.000000 -1.000000 0.000000
vn 0.000000 -1.000000 0.000000
vn 0.000000 -1.000000 0.000000
vn 0.000000 1.000000 0.000000
vn 0.000000 1.000000 0.000000
vn 0.000000 1.000000 0.000000
vn 0.000000 1.000000 0.000000
vn -0.106201 0.837985 0.535259
vn -0.106201 0.837985 0.535259
vn -0.106201 0.837985 0.535259
vn 0.115667 0.778313 0.617131
vn 0.115667 0.778313 0.617131
vn 0.115667 0.778313 0.617131
vn 0.000000 -1.000000 -0.000000
vn 0.000000 -1.000000 -0.000000
vn 0.000000 -1.000000 -0.000000
vn 0.000000 -1.000000 -0.000000
vn 0.000000 -1.000000 -0.000000
vn 0.166532 -0.739788 0.651905
vn 0.166532 -0.739788 0.651905
vn 0.166532 -0.739788 0.651905
vn 0.796399 -0.074479 0.600168
vn 0.796399 -0.074479 0.600168
vn 0.796399 -0.074479 0.600168
vn 0.750588 0.161148 0.640819
vn 0.750588 0.161148 0.640819
vn 0.750588 0.161148 0.640819
vn 0.116053 -0.596934 0.793853
vn 0.116053 -0.596934 0.793853
vn 0.116053 -0.596934 0.793853
vn -0.184112 -0.498396 0.847174
vn -0.184112 -0.498396 0.847174
vn -0.184112 -0.498396 0.847174
vn -0.075368 0.760789 0.644608
vn -0.075368 0.760789 0.644608
vn -0.075368 0.760789 0.644608
vn 0.207157 0.743426 0.635928
vn 0.207157 0.743426 0.635928
vn 0.207157 0.743426 0.635928
vn 0.237234 0.762271 -0.602216
vn 0.237234 0.762271 -0.602216
vn 0.237234 0.762271 -0.602216
vn -0.066964 0.775613 -0.627646
vn -0.066964 0.775613 -0.627646
vn -0.066964 0.775613 -0.627646
vn 0.574829 -0.130097 -0.807865
vn 0.574830 -0.130097 -0.807865
vn 0.574829 -0.130097 -0.807865
vn 0.534211 0.285607 -0.795643
vn 0.534211 0.285607 -0.795643
vn 0.534211 0.285607 -0.795643
vn 0.000000 -1.000000 -0.000000
vn 0.000000 -1.000000 -0.000000
vn 0.000000 -1.000000 -0.000000
vn 0.000000 -1.000000 -0.000000
vn 0.000000 -1.000000 0.000000
vn 0.000000 -1.000000 -0.000000
vn 0.000000 -1.000000 -0.000000
vn 0.000000 -1.000000 0.000000
vn 0.000000 0.000000 1.000000
vn 0.000000 0.000000 1.000000
vn 0.000000 0.000000 1.000000
vn 0.000000 0.000000 1.000000
vn 0.000000 0.000000 1.000000
vn -0.000000 0.000000 1.000000
vn 0.000000 0.000000 1.000000
vn 0.000000 0.000000 1.000000
vn 0.000000 0.000000 1.000000
vn 0.000000 0.000000 1.000000
vn 0.000000 0.000000 1.000000
vn 0.000000 0.000000 1.000000
vn 0.000000 1.000000 0.000000
vn 0.000000 1.000000 -0.000000
vn 0.000000 1.000000 -0.000000
vn 0.000000 1.000000 0.000000
vn 0.000000 1.000000 0.000000
vn 0.000000 1.000000 0.000000
vn -0.000000 1.000000 -0.000000
vn 0.000000 0.000000 1.000000
vn 0.000000 0.000000 1.000000
vn 0.000000 0.000000 1.000000
vn 0.000000 0.000000 1.000000
vn 0.000000 0.000000 1.000000
vn 0.000000 0.000000 1.000000
vn 0.000000 0.000000 1.000000
vn 0.000000 0.000000 1.000000
vn -0.000000 -0.000000 1.000000
vn 0.000000 0.000002 1.000000
vn 0.000001 0.000000 1.000000
vn -0.000000 -0.000000 1.000000
vn -0.000000 -0.000000 1.000000
vn -0.000000 -0.000001 1.000000
vn 0.000000 0.000002 1.000000
vn 0.000001 0.000000 1.000000
vn 0.000000 0.000002 1.000000
vn 0.000001 -0.000001 1.000000
vn 0.000001 -0.000001 1.000000
vn 0.000000 1.000000 0.000000
vn 0.000000 1.000000 0.000000
vn 0.000000 1.000000 0.000000
vn 0.000000 1.000000 0.000000
vn 0.000000 1.000000 -0.000000
vn 0.000000 1.000000 -0.000001
vn 0.000000 1.000000 -0.000001
vn 0.000000 1.000000 0.000000
vn 0.000000 1.000000 -0.000000
vn 0.000000 1.000000 0.000000
vn 0.000000 1.000000 0.000000
vn 0.000000 1.000000 0.000000
vn 0.000002 0.000000 -1.000000
vn -0.000001 -0.000000 -1.000000
vn -0.000002 -0.000000 -1.000000
vn -0.000002 -0.000000 -1.000000
vn 0.000002 0.000000 -1.000000
vn -0.000001 0.000001 -1.000000
vn -0.000001 -0.000000 -1.000000
vn 0.000001 -0.000001 -1.000000
vn 0.000001 -0.000002 -1.000000
vn 0.000001 -0.000002 -1.000000
vn 0.000000 0.000002 -1.000000
vn 0.000001 -0.000001 -1.000000
vn 0.000000 0.000002 -1.000000
vn -0.000001 0.000000 -1.000000
vn 1.000000 0.000000 0.000000
vn 1.000000 -0.000000 0.000000
vn 1.000000 0.000000 0.000000
vn 1.000000 0.000000 0.000000
vn 1.000000 0.000000 0.000000
vn 1.000000 0.000000 0.000000
vn 1.000000 0.000000 0.000000
vn 1.000000 0.000000 0.000000
vn 1.000000 -0.000000 0.000000
vn 1.000000 -0.000000 0.000000
vn 1.000000 0.000000 0.000000
vn 1.000000 -0.000000 0.000000
vn 0.707107 0.707107 0.000000
vn 0.707107 0.707107 0.000000
vn 0.707107 0.707107 0.000000
vn 0.707107 0.707107 0.000000
vn -1.000000 0.000000 0.000000
vn -1.000000 0.000000 0.000000
vn -1.000000 0.000000 0.000000
vn -1.000000 0.000000 0.000000
vn 0.000000 0.000000 1.000000
vn 0.000000 0.000000 1.000000
vn 0.000000 0.000000 1.000000
vn 0.000000 0.000000 -1.000000
vn 0.000000 0.000000 -1.000000
vn 0.000000 0.000000 -1.000000
s off
f 42/67/1 2/2/2 4/4/3
f 3/3/4 4/4/5 6/6/6 5/5/7
f 5/5/8 6/6/9 57/87/10 55/84/11
f 7/7/12 8/8/13 2/10/14 1/9/15
f 2/2/16 8/11/17 6/12/18 4/4/19
f 5/14/20 41/66/21 40/65/22 3/3/23
f 37/61/24 38/62/25 10/16/26
f 11/18/27 12/17/28 14/19/29 13/20/30
f 15/22/31 54/81/32 52/78/33 16/21/34
f 15/22/35 16/21/36 10/23/37 38/63/38 9/24/39
f 35/59/40 53/80/41 51/77/42 14/26/43
f 17/29/44 18/30/45 50/75/46 47/72/47
f 19/32/48 20/31/49 22/33/50 21/34/51
f 21/34/52 22/33/53 24/35/54 23/36/55
f 23/36/56 24/35/57 18/37/58 17/38/59
f 46/71/60 24/39/61 22/40/62
f 21/42/63 49/74/64 48/73/65 19/32/66
f 25/43/67 26/44/68 28/45/69 27/46/70
f 27/46/71 28/45/72 30/47/73 29/48/74
f 29/48/75 30/47/76 32/49/77 31/50/78
f 31/50/79 32/49/80 26/51/81 25/52/82
f 26/44/83 32/53/84 30/54/85 28/45/86
f 31/55/87 25/43/88 27/46/89 29/56/90
f 33/57/91 35/59/92 36/60/93
f 36/60/94 35/59/95 34/58/96
f 15/27/97 9/15/98 37/61/99 11/18/100 13/28/101
f 9/15/102 38/62/103 37/61/104
f 39/64/105 42/67/106 41/66/107
f 41/66/108 42/67/109 40/65/110
f 43/68/111 46/71/112 45/70/113
f 45/70/114 46/71/115 44/69/116
f 48/73/117 49/74/118 50/75/119
f 50/75/120 49/74/121 47/72/122
f 51/77/123 53/80/124 54/82/125
f 54/82/126 53/80/127 52/79/128
f 56/85/129 58/88/130 57/89/131
f 57/89/132 58/88/133 55/83/134
f 46/71/135 22/40/136 20/31/137 44/69/138
f 18/30/139 24/39/140 46/71/141 43/68/142
f 50/75/143 45/70/144 19/32/145 48/73/146
f 50/75/147 18/30/148 43/68/149 45/70/150
f 19/32/151 45/70/152 44/69/153 20/31/154
f 23/41/155 17/29/156 47/72/157 49/74/158
f 23/41/159 49/74/160 21/42/161
f 42/67/162 4/4/163 3/3/164 40/65/165
f 1/1/166 2/2/167 42/67/168 39/64/169
f 37/61/170 36/60/171 11/18/172
f 37/61/173 10/16/174 33/57/175 36/60/176
f 11/18/177 36/60/178 34/58/179 12/17/180
f 35/59/181 14/26/182 12/17/183 34/58/184
f 10/16/185 16/25/186 52/79/187 53/80/188
f 10/16/189 53/80/190 35/59/191 33/57/192
f 57/87/193 8/8/194 7/7/195 56/86/196
f 57/87/197 6/6/198 8/8/199
f 13/20/200 14/19/201 51/76/202 54/81/203
f 13/20/204 54/81/205 15/22/206
f 58/88/207 1/1/208 39/64/209 41/66/210
f 58/88/211 41/66/212 5/14/213 55/83/214
f 7/13/215 1/1/216 58/88/217 56/85/218
f 60/90/219 59/91/220 61/92/221 62/93/222
f 59/91/223 60/90/224 63/94/225 64/95/226
f 59/91/227 64/95/228 61/92/229
f 60/90/230 62/93/231 63/94/232
