# This file uses centimeters as units for non-parametric coordinates.

v 205.885315 109.153175 10.363007
v 190.038147 109.153175 10.363007
v 205.885315 15.846836 10.363007
v 190.038147 15.846836 10.363007
v 205.885315 15.846836 -10.363007
v 190.038147 15.846836 -10.363007
v 205.885315 109.153175 -10.363007
v 190.038147 109.153175 -10.363007
v 59.190063 109.153175 10.363007
v 43.343201 109.153175 10.363007
v 59.190063 15.846836 10.363007
v 43.343201 15.846836 10.363007
v 59.190063 15.846836 -10.363007
v 43.343201 15.846836 -10.363007
v 59.190063 109.153175 -10.363007
v 43.343201 109.153175 -10.363007
v 0.000000 15.846836 12.099304
v 0.000000 -0.000007 12.099304
v 249.999695 15.846836 12.099304
v 249.999695 -0.000007 12.099304
v 249.999695 15.846836 -12.099304
v 249.999695 -0.000007 -12.099304
v 0.000000 15.846836 -12.099304
v 0.000000 -0.000007 -12.099304
v 0.000000 118.839645 12.099304
v 0.000000 109.153175 12.099304
v 249.999695 125.241661 12.099304
v 249.999695 109.153175 12.099304
v 249.999695 125.241661 -12.099304
v 249.999695 109.153175 -12.099304
v 0.000000 125.241661 -12.099304
v 0.000000 109.153175 -12.099304
v 204.909805 58.378265 8.927155
v 55.535431 15.846836 12.099304
v 97.667374 15.846836 12.099304
v 70.168304 15.846832 8.707886
v 70.855560 9.480032 12.099304
v 125.341187 109.153175 12.099304
v 185.274658 109.153175 12.099304
v 160.103149 114.913445 12.099304
v 155.389709 109.153175 6.173401
v 43.343201 62.233528 10.363007
v 43.343201 9.702312 10.363007
v 48.020020 35.608200 10.363007
v 43.343201 36.865696 6.926575
v 0.000000 125.241661 5.912476
v 19.656982 125.241661 12.099304
v 187.767197 15.846836 -12.099304
v 140.365906 15.846836 -12.099304
v 173.514267 15.846832 -4.981995
v 174.394058 11.232013 -12.099304
v 132.466431 109.153175 -12.099304
v 63.652344 109.153175 -12.099304
v 110.048828 115.556641 -12.099304
v 110.298462 109.153175 -5.353851
v 59.190063 14.115088 -10.363007
v 59.190063 70.762474 -10.363007
v 53.910828 48.682747 -10.363007
v 59.190063 44.895287 -3.999939
v 0.000000 -0.000009 4.487000
v 249.999695 -0.000009 4.487000
v 0.000000 125.000000 4.487000
v 249.999695 125.000000 4.487000
v 0.000000 125.000000 -4.487000
v 249.999695 125.000000 -4.487000
v 0.000000 -0.000009 -4.487000
v 249.999695 -0.000009 -4.487000
vt 0.496057 0.152314
vt 0.496057 0.152314
vt 0.496057 0.152314
vt 0.496057 0.152314
vt 0.496057 0.152314
vt 0.496057 0.152314
vt 0.496057 0.152314
vt 0.496057 0.152314
vt 0.496057 0.152314
vt 0.496057 0.152314
vt 0.496057 0.152314
vt 0.496057 0.152314
vt 0.496057 0.152314
vt 0.496057 0.152314
vt 0.496057 0.152314
vt 0.496057 0.152314
vt 0.496057 0.152314
vt 0.496057 0.152314
vt 0.496057 0.152314
vt 0.496057 0.152314
vt 0.496057 0.152314
vt 0.496057 0.152314
vt 0.496057 0.152314
vt 0.496057 0.152314
vt 0.496057 0.152314
vt 0.496057 0.152314
vt 0.496057 0.152314
vt 0.496057 0.152314
vt 0.496057 0.152314
vt 0.496057 0.152314
vt 0.496057 0.152314
vt 0.496057 0.152314
vt 0.496057 0.152314
vt 0.496057 0.152314
vt 0.496057 0.152314
vt 0.496057 0.152314
vt 0.496057 0.152314
vt 0.496057 0.152314
vt 0.496057 0.152314
vt 0.496057 0.152314
vt 0.496057 0.152314
vt 0.496057 0.152314
vt 0.496057 0.152314
vt 0.496057 0.152314
vt 0.496057 0.152314
vt 0.496057 0.152314
vt 0.496057 0.152314
vt 0.496057 0.152314
vt 0.496057 0.152314
vt 0.496057 0.152314
vt 0.496057 0.152314
vt 0.496057 0.152314
vt 0.496057 0.152314
vt 0.496057 0.152314
vt 0.496057 0.152314
vt 0.496057 0.152314
vt 0.496057 0.152314
vt 0.496057 0.152314
vt 0.496057 0.152314
vt 0.496057 0.152314
vt 0.496057 0.152314
vt 0.496057 0.152314
vt 0.496057 0.152314
vt 0.496057 0.152314
vt 0.496057 0.152314
vt 0.496057 0.152314
vt 0.496057 0.152314
vt 0.496057 0.152314
vt 0.496057 0.152314
vt 0.496057 0.152314
vt 0.496057 0.152314
vt 0.496057 0.152314
vt 0.496057 0.152314
vt 0.496057 0.152314
vt 0.496057 0.152314
vt 0.496057 0.152314
vt 0.496057 0.152314
vt 0.496057 0.152314
vt 0.496057 0.152314
vt 0.496057 0.152314
vt 0.496057 0.152314
vt 0.496057 0.152314
vt 0.496057 0.152314
vt 0.496057 0.152314
vt 0.496057 0.152314
vt 0.496057 0.152314
vt 0.496057 0.152314
vt 0.496057 0.152314
vt 0.496057 0.152314
vt 0.496057 0.152314
vt 0.496057 0.152314
vt 0.496057 0.152314
vt 0.496057 0.152314
vt 0.007963 0.875885
vt 0.242198 0.875885
vt 0.242198 0.875885
vt 0.007963 0.875885
vt 0.007963 0.758994
vt 0.242198 0.758994
vt 0.242198 0.758994
vt 0.007963 0.758994
vn 0.096103 0.000000 0.995372
vn 0.096103 0.000000 0.995371
vn 0.096103 0.000000 0.995372
vn 0.000000 -1.000000 0.000000
vn 0.000000 -1.000000 0.000000
vn 0.000000 -1.000000 0.000000
vn 0.000000 -1.000000 0.000000
vn 0.000000 0.000000 -1.000000
vn 0.000000 0.000000 -1.000000
vn 0.000000 0.000000 -1.000000
vn 0.000000 0.000000 -1.000000
vn 0.000000 1.000000 0.000000
vn 0.000000 1.000000 0.000000
vn 0.000000 1.000000 0.000000
vn 0.000000 1.000000 0.000000
vn -1.000000 0.000000 0.000000
vn -1.000000 0.000000 0.000000
vn -1.000000 0.000000 0.000000
vn -1.000000 0.000000 0.000000
vn 0.999737 0.022931 0.000000
vn 0.999737 0.022931 0.000000
vn 0.999737 0.022931 0.000000
vn -0.000000 0.000000 1.000000
vn -0.000000 0.000000 1.000000
vn -0.000000 0.000000 1.000000
vn -0.000000 0.000000 1.000000
vn 0.000000 -1.000000 0.000000
vn 0.000000 -1.000000 0.000000
vn 0.000000 -1.000000 0.000000
vn 0.000000 -1.000000 0.000000
vn -0.000000 0.000000 -1.000000
vn -0.000000 0.000000 -1.000000
vn -0.000000 0.000000 -1.000000
vn -0.000000 0.000000 -1.000000
vn 0.000000 1.000000 0.000000
vn 0.000000 1.000000 0.000000
vn 0.000000 1.000000 0.000000
vn 0.000000 1.000000 0.000000
vn -1.000000 0.000000 0.000000
vn -1.000000 0.000000 0.000000
vn -1.000000 0.000000 0.000000
vn 1.000000 0.000000 0.000000
vn 1.000000 0.000000 0.000000
vn 1.000000 0.000000 0.000000
vn 0.000000 0.000000 1.000000
vn 0.000000 0.000000 1.000000
vn 0.000000 0.000000 1.000000
vn 0.000000 0.000000 1.000000
vn 1.000000 0.000000 0.000000
vn 1.000000 0.000000 0.000000
vn 1.000000 0.000000 0.000000
vn 1.000000 0.000000 0.000000
vn 0.000000 0.000000 -1.000000
vn 0.000000 0.000000 -1.000000
vn 0.000000 0.000000 -1.000000
vn -1.000000 0.000000 0.000000
vn -1.000000 0.000000 0.000000
vn -1.000000 0.000000 0.000000
vn -1.000000 0.000000 0.000000
vn 0.000000 -1.000000 0.000000
vn 0.000000 -1.000000 0.000000
vn 0.000000 -1.000000 0.000000
vn 0.000000 -1.000000 0.000000
vn -0.000000 1.000000 -0.000000
vn -0.000000 1.000000 -0.000000
vn -0.000000 1.000000 -0.000000
vn -0.000000 1.000000 -0.000000
vn 1.000000 0.000000 0.000000
vn 1.000000 0.000000 0.000000
vn 1.000000 0.000000 0.000000
vn 1.000000 0.000000 0.000000
vn 0.000000 0.000000 -1.000000
vn 0.000000 0.000000 -1.000000
vn 0.000000 0.000000 -1.000000
vn 0.000000 0.000000 -1.000000
vn -0.220743 0.677778 0.701349
vn -0.220743 0.677778 0.701349
vn -0.220743 0.677778 0.701349
vn -0.108798 0.458169 0.882181
vn -0.108798 0.458169 0.882181
vn -0.108798 0.458169 0.882181
vn 0.198394 0.477385 0.856004
vn 0.198394 0.477385 0.856004
vn 0.198394 0.477385 0.856004
vn -0.148203 -0.647627 0.747406
vn -0.148203 -0.647627 0.747406
vn -0.148203 -0.647627 0.747406
vn 0.125858 -0.759524 0.638187
vn 0.125858 -0.759524 0.638187
vn 0.125858 -0.759524 0.638187
vn -0.607208 -0.106658 0.787352
vn -0.607208 -0.106658 0.787352
vn -0.607208 -0.106658 0.787352
vn -0.570827 0.103052 0.814578
vn -0.570827 0.103052 0.814578
vn -0.570827 0.103052 0.814578
vn -1.000000 0.000000 0.000000
vn -1.000000 0.000000 0.000000
vn -1.000000 0.000000 0.000000
vn -1.000000 0.000000 0.000000
vn -1.000000 0.000000 0.000000
vn 0.000000 0.000000 1.000000
vn 0.000000 0.000000 1.000000
vn 0.000000 0.000000 1.000000
vn 0.000000 0.000000 1.000000
vn 0.000000 1.000000 -0.000000
vn 0.000000 1.000000 -0.000000
vn 0.000000 1.000000 -0.000000
vn 0.000000 1.000000 -0.000000
vn 0.000000 1.000000 -0.000000
vn 0.113914 0.839966 -0.530548
vn 0.113914 0.839966 -0.530548
vn 0.113914 0.839966 -0.530548
vn -0.273098 0.791403 -0.546899
vn -0.273098 0.791403 -0.546899
vn -0.273098 0.791403 -0.546899
vn 0.099348 -0.719826 -0.687009
vn 0.099348 -0.719826 -0.687009
vn 0.099348 -0.719826 -0.687009
vn -0.203886 -0.713774 -0.670043
vn -0.203886 -0.713774 -0.670043
vn -0.203886 -0.713774 -0.670043
vn 0.706767 -0.168987 -0.686967
vn 0.706767 -0.168987 -0.686967
vn 0.706767 -0.168987 -0.686967
vn 0.798317 0.121920 -0.589768
vn 0.798317 0.121920 -0.589768
vn 0.798317 0.121920 -0.589768
vn 0.000000 0.000000 1.000000
vn 0.000000 0.000000 1.000000
vn 0.000000 0.000000 1.000000
vn 0.000000 0.000000 1.000000
vn 0.000000 0.000000 1.000000
vn 0.000000 0.000000 1.000000
vn 0.000000 0.000000 1.000000
vn 0.000000 0.033741 0.999431
vn 0.000000 0.033741 0.999431
vn 0.000000 0.033741 0.999431
vn 0.000000 -0.028268 0.999600
vn 0.000000 -0.028268 0.999600
vn 0.000000 -0.028268 0.999600
vn 0.000000 0.000000 1.000000
vn 0.000000 0.000000 1.000000
vn 0.000000 0.000000 1.000000
vn 0.000000 0.000000 1.000000
vn 0.000000 0.000000 1.000000
vn 0.000000 0.000000 1.000000
vn 0.000000 0.000000 1.000000
vn 0.000000 0.000000 1.000000
vn 0.000000 0.000000 1.000000
vn 0.000000 0.000000 1.000000
vn 0.000000 0.000000 1.000000
vn 0.000000 0.000000 1.000000
vn 0.000000 0.000000 1.000000
vn 0.000000 0.000000 1.000000
vn 0.000000 0.000000 1.000000
vn -1.000000 0.000000 0.000000
vn -1.000000 0.000000 0.000000
vn -1.000000 0.000000 0.000000
vn -1.000000 0.000000 0.000000
vn -1.000000 -0.000000 0.000000
vn -1.000000 -0.000000 0.000000
vn -1.000000 -0.000000 0.000000
vn -1.000000 -0.000000 0.000000
vn 0.000000 -1.000000 0.000000
vn 0.000000 -1.000000 0.000000
vn 0.000000 -1.000000 0.000000
vn 0.000000 -1.000000 0.000000
vn -0.000000 1.000000 0.000000
vn -0.000000 1.000000 0.000000
vn -0.000000 1.000000 0.000000
vn -0.000000 1.000000 0.000000
vn 0.000000 1.000000 -0.000000
vn 0.000000 1.000000 -0.000000
vn 0.000000 1.000000 -0.000000
vn 0.000000 1.000000 -0.000000
vn 0.000000 1.000000 0.000000
vn 0.000000 1.000000 0.000000
vn 0.000000 1.000000 0.000000
vn 0.000000 1.000000 0.000000
vn 0.000000 0.000000 -1.000000
vn 0.000000 0.000000 -1.000000
vn 0.000000 0.000000 -1.000000
vn 0.000000 0.000000 -1.000000
vn 0.000000 0.000000 -1.000000
vn 0.000000 0.000000 -1.000000
vn 0.000000 0.000000 -1.000000
vn 0.000000 0.000000 -1.000000
vn 0.000000 0.000000 -1.000000
vn 0.000000 0.000000 -1.000000
vn 0.000000 0.000000 -1.000000
vn 0.000000 0.000000 -1.000000
vn -0.000000 0.000000 -1.000000
vn -0.000000 0.000000 -1.000000
vn -0.000000 0.000000 -1.000000
vn 0.000000 0.000000 -1.000000
vn 0.000000 0.000000 -1.000000
vn 0.000000 0.000000 -1.000000
vn 0.000000 0.000000 -1.000000
vn 0.000000 0.000000 -1.000000
vn 0.000000 0.000000 -1.000000
vn 0.000000 0.000000 -1.000000
vn 1.000000 0.000000 0.000000
vn 1.000000 0.000000 0.000000
vn 1.000000 0.000000 0.000000
vn 1.000000 0.000000 0.000000
vn 1.000000 0.000000 0.000000
vn 1.000000 0.000000 0.000000
vn 1.000000 0.000000 0.000000
vn 1.000000 0.000000 0.000000
vn 0.999815 -0.019209 0.000000
vn 0.999816 -0.019209 0.000000
vn 0.999815 -0.019209 0.000000
vn 0.998724 0.000000 0.050506
vn 0.998724 0.000000 0.050506
vn 0.998724 0.000000 0.050506
vn 0.000000 1.000000 0.000000
vn 0.000000 1.000000 0.000000
vn 0.000000 1.000000 0.000000
vn 0.000000 1.000000 0.000000
vn 0.000000 -1.000000 0.000000
vn 0.000000 -1.000000 0.000000
vn 0.000000 -1.000000 0.000000
vn 0.000000 -1.000000 0.000000
vn 1.000000 0.000000 0.000000
vn 1.000000 0.000000 0.000000
vn 1.000000 0.000000 0.000000
vn 1.000000 0.000000 0.000000
vn -1.000000 0.000000 0.000000
vn -1.000000 0.000000 0.000000
vn -1.000000 0.000000 0.000000
vn -1.000000 0.000000 0.000000
vn 0.000000 0.000000 1.000000
vn 0.000000 0.000000 1.000000
vn 0.000000 0.000000 1.000000
vn 0.000000 0.000000 1.000000
vn 0.000000 0.000000 -1.000000
vn 0.000000 0.000000 -1.000000
vn 0.000000 0.000000 -1.000000
vn 0.000000 0.000000 -1.000000
vn 0.000000 -1.000000 0.000000
vn 0.000000 -1.000000 0.000000
vn 0.000000 -1.000000 0.000000
vn 0.000000 -1.000000 0.000000
vn 0.000000 -1.000000 0.000000
vn 0.000000 -1.000000 0.000000
vn 0.000000 -1.000000 0.000000
vn 0.000000 -1.000000 0.000000
vn 0.000000 -1.000000 0.000000
vn 0.000000 -1.000000 0.000000
vn 0.000000 -1.000000 0.000000
vn 0.000000 -1.000000 0.000000
s off
f 33/1/1 2/2/2 4/3/3
f 3/4/4 4/3/5 6/5/6 5/6/7
f 5/6/8 6/5/9 8/7/10 7/8/11
f 7/8/12 8/7/13 2/9/14 1/10/15
f 2/2/16 8/11/17 6/12/18 4/3/19
f 5/13/20 33/1/21 3/4/22
f 11/14/23 44/15/24 43/16/25 12/17/26
f 11/14/27 12/17/28 14/18/29 13/19/30
f 13/19/31 14/18/32 58/20/33 56/21/34
f 15/22/35 16/23/36 10/24/37 9/25/38
f 45/26/39 16/27/40 14/28/41
f 59/29/42 9/30/43 11/14/44
f 17/31/45 18/32/46 37/33/47 34/34/48
f 19/35/49 20/36/50 22/37/51 21/38/52
f 51/39/53 22/37/54 24/40/55
f 23/41/56 24/40/57 18/42/58 17/43/59
f 18/32/60 24/44/61 22/45/62 20/36/63
f 50/46/64 36/47/65 35/48/66 19/35/67
f 27/49/68 28/50/69 30/51/70 29/52/71
f 31/53/72 54/54/73 53/55/74 32/56/75
f 47/61/76 46/62/77 25/63/78
f 35/48/79 36/47/80 37/33/81
f 37/33/82 36/47/83 34/34/84
f 39/64/85 40/65/86 41/59/87
f 41/59/88 40/65/89 38/60/90
f 42/66/91 45/26/92 44/15/93
f 44/15/94 45/26/95 43/16/96
f 31/53/97 32/56/98 26/67/99 25/68/100 46/69/101
f 27/49/102 40/65/103 39/64/104 28/50/105
f 31/70/106 46/62/107 47/61/108 27/49/109 29/71/110
f 49/72/111 50/46/112 51/73/113
f 51/73/114 50/46/115 48/74/116
f 53/55/117 54/54/118 55/75/119
f 55/75/120 54/54/121 52/76/122
f 57/77/123 59/29/124 58/78/125
f 58/78/126 59/29/127 56/79/128
f 37/33/129 20/36/130 19/35/131 35/48/132
f 37/33/133 18/32/134 20/36/135
f 33/1/136 4/3/137 3/4/138
f 1/80/139 2/2/140 33/1/141
f 40/65/142 25/63/143 26/57/144 38/60/145
f 47/61/146 25/63/147 40/65/148 27/49/149
f 9/30/150 10/81/151 42/66/152 44/15/153
f 9/30/154 44/15/155 11/14/156
f 45/26/157 14/28/158 12/17/159 43/16/160
f 10/81/161 16/27/162 45/26/163 42/66/164
f 30/85/165 41/59/166 55/82/167 52/84/168
f 50/46/169 19/35/170 21/86/171 48/74/172
f 23/87/173 17/31/174 34/34/175 36/47/176
f 23/87/177 36/47/178 50/46/179 49/72/180
f 51/39/181 24/40/182 23/41/183 49/88/184
f 21/38/185 22/37/186 51/39/187 48/89/188
f 58/20/189 16/23/190 15/22/191 57/90/192
f 58/20/193 14/18/194 16/23/195
f 29/52/196 30/51/197 52/76/198 54/54/199
f 29/52/200 54/54/201 31/53/202
f 59/29/203 11/14/204 13/91/205 56/79/206
f 15/92/207 9/30/208 59/29/209 57/77/210
f 7/93/211 1/80/212 33/1/213
f 7/93/214 33/1/215 5/13/216
f 62/94/217 63/95/218 65/96/219 64/97/220
f 66/98/221 67/99/222 61/100/223 60/101/224
f 61/100/225 67/99/226 65/96/227 63/95/228
f 66/98/229 60/101/230 62/94/231 64/97/232
f 61/100/233 63/95/234 62/94/235 60/101/236
f 65/96/237 67/99/238 66/98/239 64/97/240
f 28/50/241 39/64/242 41/59/243 30/85/244
f 55/82/245 26/57/246 32/58/247 53/83/248
f 55/82/249 41/59/250 38/60/251 26/57/252
