# This file uses centimeters as units for non-parametric coordinates.

v 0.000000 15.846846 12.099304
v 0.000000 0.000002 12.099304
v 249.999695 15.846846 12.099304
v 249.999695 0.000002 12.099304
v 249.999695 15.846846 -12.099304
v 249.999695 0.000002 -12.099304
v 0.000000 15.846846 -12.099304
v 0.000000 0.000002 -12.099304
v 0.000000 118.839645 12.099304
v 0.000000 109.153175 12.099304
v 249.999695 125.241661 12.099304
v 249.999695 109.153175 12.099304
v 249.999695 125.241661 -12.099304
v 249.999695 109.153175 -12.099304
v 0.000000 125.241661 -12.099304
v 0.000000 109.153175 -12.099304
v 55.535431 15.846846 12.099304
v 97.667389 15.846846 12.099304
v 70.168304 15.846842 8.707886
v 70.855560 9.480042 12.099304
v 125.341187 109.153175 12.099304
v 185.274658 109.153175 12.099304
v 160.103149 114.913445 12.099304
v 155.389709 109.153175 6.173401
v 0.000000 125.241661 5.912476
v 19.656982 125.241661 12.099304
v 187.767166 15.846846 -12.099304
v 140.365906 15.846846 -12.099304
v 173.514236 15.846842 -4.981995
v 174.394089 11.232021 -12.099304
v 132.466431 109.153175 -12.099304
v 63.652344 109.153175 -12.099304
v 110.048828 115.556648 -12.099304
v 110.298462 109.153175 -5.353851
v 250.493164 14.506074 7.185822
v 243.428345 -0.332910 7.185822
v 7.017822 125.195412 7.185822
v -0.233917 110.421608 7.185822
v 7.017822 125.195412 -9.727631
v -0.233917 110.421608 -9.727631
v 250.493164 14.506074 -9.727631
v 243.428345 -0.332910 -9.727631
v 190.005798 41.744389 7.185822
v 153.479614 58.333134 7.185822
v 175.784607 48.202976 4.815369
v 172.484131 42.709354 7.185822
v 49.410706 105.597084 -9.727631
v 95.313416 84.749916 -9.727631
v 63.262329 99.306038 -6.716309
v 60.499268 95.492561 -9.727631
v -0.233917 125.045570 7.185822
v -0.233917 125.045570 -9.727631
v 250.493164 -0.332910 -9.727631
v 250.493164 -0.332910 7.185822
v 0.000000 0.000000 4.487000
v 249.999695 0.000000 4.487000
v 0.000000 125.000008 4.487000
v 249.999695 125.000008 4.487000
v 0.000000 125.000008 -4.487000
v 249.999695 125.000008 -4.487000
v 0.000000 0.000000 -4.487000
v 249.999695 0.000000 -4.487000
v -0.545349 14.506074 9.358978
v 6.519470 -0.332910 9.358978
v 242.929993 125.195412 9.358978
v 250.181717 110.421608 9.358978
v 242.929993 125.195412 -7.554474
v 250.181717 110.421608 -7.554474
v -0.545349 14.506074 -7.554474
v 6.519470 -0.332910 -7.554474
v 59.942017 41.744389 9.358978
v 96.468201 58.333134 9.358978
v 74.163208 48.202976 6.988525
v 77.463684 42.709354 9.358978
v 200.537109 105.597084 -7.554474
v 154.634399 84.749916 -7.554474
v 186.685486 99.306038 -4.543152
v 189.448547 95.492561 -7.554474
v 250.181717 125.045570 9.358978
v 250.181717 125.045570 -7.554474
v -0.545349 -0.332910 -7.554474
v -0.545349 -0.332910 9.358978
vt 0.496057 0.152314
vt 0.496057 0.152314
vt 0.496057 0.152314
vt 0.496057 0.152314
vt 0.496057 0.152314
vt 0.496057 0.152314
vt 0.496057 0.152314
vt 0.496057 0.152314
vt 0.496057 0.152314
vt 0.496057 0.152314
vt 0.496057 0.152314
vt 0.496057 0.152314
vt 0.496057 0.152314
vt 0.496057 0.152314
vt 0.496057 0.152314
vt 0.496057 0.152314
vt 0.496057 0.152314
vt 0.496057 0.152314
vt 0.496057 0.152314
vt 0.496057 0.152314
vt 0.496057 0.152314
vt 0.496057 0.152314
vt 0.496057 0.152314
vt 0.496057 0.152314
vt 0.496057 0.152314
vt 0.496057 0.152314
vt 0.496057 0.152314
vt 0.496057 0.152314
vt 0.496057 0.152314
vt 0.496057 0.152314
vt 0.496057 0.152314
vt 0.496057 0.152314
vt 0.496057 0.152314
vt 0.496057 0.152314
vt 0.496057 0.152314
vt 0.496057 0.152314
vt 0.496057 0.152314
vt 0.496057 0.152314
vt 0.496057 0.152314
vt 0.496057 0.152314
vt 0.496057 0.152314
vt 0.496057 0.152314
vt 0.496057 0.152314
vt 0.496057 0.152314
vt 0.496057 0.152314
vt 0.496057 0.152314
vt 0.496057 0.152314
vt 0.496057 0.152314
vt 0.496057 0.152314
vt 0.496057 0.152314
vt 0.496057 0.152314
vt 0.496057 0.152314
vt 0.496057 0.152314
vt 0.496057 0.152314
vt 0.496057 0.152314
vt 0.496057 0.152314
vt 0.496057 0.152314
vt 0.496057 0.152314
vt 0.496057 0.152314
vt 0.496057 0.152314
vt 0.496057 0.152314
vt 0.496057 0.152314
vt 0.496057 0.152314
vt 0.496057 0.152314
vt 0.496057 0.152314
vt 0.496057 0.152314
vt 0.496057 0.152314
vt 0.496057 0.152314
vt 0.496057 0.152314
vt 0.496057 0.152314
vt 0.496057 0.152314
vt 0.496057 0.152314
vt 0.496057 0.152314
vt 0.496057 0.152314
vt 0.496057 0.152314
vt 0.496057 0.152314
vt 0.496057 0.152314
vt 0.496057 0.152314
vt 0.496057 0.152314
vt 0.496057 0.152314
vt 0.496057 0.152314
vt 0.496057 0.152314
vt 0.496057 0.152314
vt 0.007963 0.875885
vt 0.242198 0.875885
vt 0.242198 0.875885
vt 0.007963 0.875885
vt 0.007963 0.758994
vt 0.242198 0.758994
vt 0.242198 0.758994
vt 0.007963 0.758994
vt 0.496057 0.152314
vt 0.496057 0.152314
vt 0.496057 0.152314
vt 0.496057 0.152314
vt 0.496057 0.152314
vt 0.496057 0.152314
vt 0.496057 0.152314
vt 0.496057 0.152314
vt 0.496057 0.152314
vt 0.496057 0.152314
vt 0.496057 0.152314
vt 0.496057 0.152314
vt 0.496057 0.152314
vt 0.496057 0.152314
vt 0.496057 0.152314
vt 0.496057 0.152314
vt 0.496057 0.152314
vt 0.496057 0.152314
vt 0.496057 0.152314
vt 0.496057 0.152314
vt 0.496057 0.152314
vt 0.496057 0.152314
vt 0.496057 0.152314
vt 0.496057 0.152314
vt 0.496057 0.152314
vt 0.496057 0.152314
vt 0.496057 0.152314
vt 0.496057 0.152314
vt 0.496057 0.152314
vt 0.496057 0.152314
vn 0.000000 0.000000 1.000000
vn 0.000000 0.000000 1.000000
vn 0.000000 0.000000 1.000000
vn 0.000000 0.000000 1.000000
vn 1.000000 0.000000 0.000000
vn 1.000000 0.000000 0.000000
vn 1.000000 0.000000 0.000000
vn 1.000000 0.000000 0.000000
vn 0.000000 0.000000 -1.000000
vn 0.000000 0.000000 -1.000000
vn 0.000000 0.000000 -1.000000
vn -1.000000 0.000000 0.000000
vn -1.000000 0.000000 0.000000
vn -1.000000 0.000000 0.000000
vn -1.000000 0.000000 0.000000
vn 0.000000 -1.000000 0.000000
vn 0.000000 -1.000000 0.000000
vn 0.000000 -1.000000 0.000000
vn 0.000000 -1.000000 0.000000
vn -0.000000 1.000000 -0.000000
vn -0.000000 1.000000 -0.000000
vn -0.000000 1.000000 -0.000000
vn -0.000000 1.000000 -0.000000
vn 1.000000 0.000000 0.000000
vn 1.000000 0.000000 0.000000
vn 1.000000 0.000000 0.000000
vn 1.000000 0.000000 0.000000
vn 0.000000 0.000000 -1.000000
vn 0.000000 0.000000 -1.000000
vn 0.000000 0.000000 -1.000000
vn 0.000000 0.000000 -1.000000
vn -0.220743 0.677778 0.701349
vn -0.220743 0.677778 0.701349
vn -0.220743 0.677778 0.701349
vn -0.108798 0.458169 0.882181
vn -0.108798 0.458169 0.882181
vn -0.108798 0.458169 0.882181
vn 0.198394 0.477385 0.856004
vn 0.198394 0.477385 0.856004
vn 0.198394 0.477385 0.856004
vn -0.148204 -0.647628 0.747405
vn -0.148204 -0.647628 0.747405
vn -0.148204 -0.647628 0.747405
vn 0.125858 -0.759523 0.638188
vn 0.125858 -0.759523 0.638188
vn 0.125858 -0.759523 0.638188
vn -1.000000 0.000000 0.000000
vn -1.000000 0.000000 0.000000
vn -1.000000 0.000000 0.000000
vn -1.000000 0.000000 0.000000
vn -1.000000 0.000000 0.000000
vn 0.000000 0.000000 1.000000
vn 0.000000 0.000000 1.000000
vn 0.000000 0.000000 1.000000
vn 0.000000 0.000000 1.000000
vn 0.000000 1.000000 -0.000000
vn 0.000000 1.000000 -0.000000
vn 0.000000 1.000000 -0.000000
vn 0.000000 1.000000 -0.000000
vn 0.000000 1.000000 -0.000000
vn 0.113914 0.839966 -0.530547
vn 0.113914 0.839966 -0.530547
vn 0.113914 0.839966 -0.530547
vn -0.273099 0.791402 -0.546901
vn -0.273099 0.791402 -0.546901
vn -0.273099 0.791402 -0.546901
vn 0.099348 -0.719825 -0.687010
vn 0.099348 -0.719825 -0.687010
vn 0.099348 -0.719825 -0.687010
vn -0.203886 -0.713774 -0.670043
vn -0.203886 -0.713774 -0.670043
vn -0.203886 -0.713774 -0.670043
vn 0.000000 0.000000 1.000000
vn 0.000000 0.000000 1.000000
vn 0.000000 0.000000 1.000000
vn 0.000000 0.000000 1.000000
vn 0.000000 0.000000 1.000000
vn 0.000000 0.000000 1.000000
vn 0.000000 0.000000 1.000000
vn 0.000000 0.000000 1.000000
vn 0.000000 0.000000 1.000000
vn 0.000000 0.000000 1.000000
vn 0.000000 0.000000 1.000000
vn 0.000000 0.000000 1.000000
vn 0.000000 0.000000 1.000000
vn 0.000000 0.000000 1.000000
vn 0.000000 0.000000 1.000000
vn 0.000000 -1.000000 0.000000
vn 0.000000 -1.000000 0.000000
vn 0.000000 -1.000000 0.000000
vn 0.000000 -1.000000 0.000000
vn -0.000000 1.000000 0.000000
vn -0.000000 1.000000 0.000000
vn -0.000000 1.000000 0.000000
vn -0.000000 1.000000 0.000000
vn 0.000000 1.000000 -0.000000
vn 0.000000 1.000000 -0.000000
vn 0.000000 1.000000 -0.000000
vn 0.000000 1.000000 -0.000000
vn 0.000000 1.000000 0.000000
vn 0.000000 1.000000 0.000000
vn 0.000000 1.000000 0.000000
vn 0.000000 1.000000 0.000000
vn 0.000000 0.000000 -1.000000
vn 0.000000 0.000000 -1.000000
vn 0.000000 0.000000 -1.000000
vn 0.000000 0.000000 -1.000000
vn -0.000000 0.000000 -1.000000
vn -0.000000 0.000000 -1.000000
vn -0.000000 0.000000 -1.000000
vn -0.000000 0.000000 -1.000000
vn 0.000000 0.000000 -1.000000
vn 0.000000 0.000000 -1.000000
vn 0.000000 0.000000 -1.000000
vn 0.000000 0.000000 -1.000000
vn 0.000000 0.000000 -1.000000
vn 0.000000 0.000000 -1.000000
vn 0.000000 0.000000 -1.000000
vn 0.000000 -1.000000 0.000000
vn 0.000000 -1.000000 0.000000
vn 0.000000 -1.000000 0.000000
vn 0.000000 -1.000000 0.000000
vn 0.000000 -1.000000 0.000000
vn 0.000000 -1.000000 0.000000
vn 0.000000 -1.000000 0.000000
vn 0.000000 -1.000000 0.000000
vn 0.000000 -1.000000 0.000000
vn 0.000000 -1.000000 0.000000
vn 0.000000 -1.000000 0.000000
vn 0.000000 -1.000000 0.000000
vn 0.000000 0.000000 1.000000
vn 0.000000 0.000000 1.000000
vn 0.000000 0.000000 1.000000
vn 0.000000 0.000000 1.000000
vn 0.000000 0.000000 1.000000
vn -0.020658 0.999787 0.000000
vn -0.020658 0.999787 0.000000
vn -0.020658 0.999787 0.000000
vn -0.020658 0.999787 0.000000
vn -0.000000 0.000000 -1.000000
vn -0.000000 0.000000 -1.000000
vn -0.000000 0.000000 -1.000000
vn 1.000000 0.000000 0.000000
vn 1.000000 0.000000 0.000000
vn 1.000000 0.000000 0.000000
vn 1.000000 0.000000 0.000000
vn -0.413800 -0.910368 0.000000
vn -0.413800 -0.910368 0.000000
vn -0.413800 -0.910368 0.000000
vn -0.413800 -0.910368 0.000000
vn 0.414900 0.909799 -0.011082
vn 0.414900 0.909799 -0.011082
vn 0.414900 0.909799 -0.011082
vn 0.414900 0.909799 -0.011082
vn 0.222414 0.270541 0.936664
vn 0.222414 0.270541 0.936664
vn 0.222414 0.270541 0.936664
vn 0.021221 0.385319 0.922539
vn 0.021221 0.385319 0.922539
vn 0.021221 0.385319 0.922539
vn 0.165028 0.534812 -0.828699
vn 0.165028 0.534812 -0.828699
vn 0.165028 0.534812 -0.828699
vn 0.364475 0.399970 -0.840941
vn 0.364475 0.399970 -0.840941
vn 0.364475 0.399970 -0.840941
vn 0.000000 0.000000 1.000000
vn 0.000000 0.000000 1.000000
vn 0.000000 0.000000 1.000000
vn 0.000000 0.000000 1.000000
vn 0.000000 0.000000 1.000000
vn 0.000000 0.000000 1.000000
vn 0.000000 0.000000 1.000000
vn 0.000000 0.000000 1.000000
vn 0.418305 0.908298 -0.004018
vn 0.418305 0.908298 -0.004018
vn 0.418305 0.908298 -0.004018
vn 0.418305 0.908298 -0.004018
vn 0.411099 0.911588 0.002139
vn 0.411099 0.911588 0.002139
vn 0.411099 0.911588 0.002139
vn 0.411099 0.911588 0.002139
vn 0.412643 0.910875 0.005763
vn 0.412643 0.910875 0.005763
vn 0.412643 0.910875 0.005763
vn 0.412643 0.910875 0.005763
vn 0.000000 0.000000 -1.000000
vn 0.000000 0.000000 -1.000000
vn 0.000000 0.000000 -1.000000
vn 0.000000 0.000000 -1.000000
vn 0.000000 0.000000 -1.000000
vn 0.000000 0.000000 -1.000000
vn 0.000000 0.000000 -1.000000
vn 0.000000 0.000000 -1.000000
vn 0.000000 0.000000 -1.000000
vn 0.000000 0.000000 -1.000000
vn -1.000000 0.000000 0.000000
vn -1.000000 0.000000 0.000000
vn -1.000000 0.000000 0.000000
vn -1.000000 0.000000 0.000000
vn -0.000000 -1.000000 0.000000
vn -0.000000 -1.000000 0.000000
vn -0.000000 -1.000000 0.000000
vn -0.000000 -1.000000 0.000000
vn 0.000000 1.000000 0.000000
vn 0.000000 1.000000 0.000000
vn 0.000000 1.000000 0.000000
vn 0.000000 1.000000 0.000000
vn 0.000000 -1.000000 0.000000
vn 0.000000 -1.000000 0.000000
vn 0.000000 -1.000000 0.000000
vn 0.000000 -1.000000 0.000000
vn 1.000000 0.000000 0.000000
vn 1.000000 0.000000 0.000000
vn 1.000000 0.000000 0.000000
vn 1.000000 0.000000 0.000000
vn -1.000000 0.000000 0.000000
vn -1.000000 0.000000 0.000000
vn -1.000000 0.000000 0.000000
vn -1.000000 0.000000 0.000000
vn 0.000000 0.000000 1.000000
vn 0.000000 0.000000 1.000000
vn 0.000000 0.000000 1.000000
vn 0.000000 0.000000 1.000000
vn 0.000000 0.000000 -1.000000
vn 0.000000 0.000000 -1.000000
vn 0.000000 0.000000 -1.000000
vn 0.000000 0.000000 -1.000000
vn 0.000000 0.000000 1.000000
vn 0.000000 0.000000 1.000000
vn 0.000000 0.000000 1.000000
vn 0.000000 0.000000 1.000000
vn 0.000000 0.000000 1.000000
vn 0.020658 0.999787 0.000000
vn 0.020658 0.999787 0.000000
vn 0.020658 0.999787 0.000000
vn 0.020658 0.999787 0.000000
vn 0.000000 0.000000 -1.000000
vn 0.000000 0.000000 -1.000000
vn 0.000000 0.000000 -1.000000
vn -1.000000 0.000000 0.000000
vn -1.000000 0.000000 0.000000
vn -1.000000 0.000000 0.000000
vn -1.000000 0.000000 0.000000
vn 0.413800 -0.910368 0.000000
vn 0.413800 -0.910368 0.000000
vn 0.413800 -0.910368 0.000000
vn 0.413800 -0.910368 0.000000
vn -0.414900 0.909799 -0.011082
vn -0.414900 0.909799 -0.011082
vn -0.414900 0.909799 -0.011082
vn -0.414900 0.909799 -0.011082
vn -0.222414 0.270541 0.936664
vn -0.222414 0.270541 0.936664
vn -0.222414 0.270541 0.936664
vn -0.021221 0.385319 0.922539
vn -0.021221 0.385319 0.922539
vn -0.021221 0.385319 0.922539
vn -0.165028 0.534812 -0.828699
vn -0.165028 0.534812 -0.828699
vn -0.165028 0.534812 -0.828699
vn -0.364476 0.399970 -0.840941
vn -0.364476 0.399970 -0.840941
vn -0.364475 0.399970 -0.840941
vn 0.000000 0.000000 1.000000
vn 0.000000 0.000000 1.000000
vn 0.000000 0.000000 1.000000
vn 0.000000 0.000000 1.000000
vn 0.000000 0.000000 1.000000
vn 0.000000 0.000000 1.000000
vn 0.000000 0.000000 1.000000
vn 0.000000 0.000000 1.000000
vn -0.418305 0.908298 -0.004018
vn -0.418305 0.908298 -0.004018
vn -0.418305 0.908298 -0.004018
vn -0.418305 0.908298 -0.004018
vn -0.411099 0.911588 0.002139
vn -0.411099 0.911588 0.002139
vn -0.411099 0.911588 0.002139
vn -0.411099 0.911588 0.002139
vn -0.412643 0.910875 0.005762
vn -0.412643 0.910875 0.005762
vn -0.412643 0.910875 0.005762
vn -0.412643 0.910875 0.005762
vn 0.000000 0.000000 -1.000000
vn 0.000000 0.000000 -1.000000
vn 0.000000 0.000000 -1.000000
vn 0.000000 0.000000 -1.000000
vn 0.000000 0.000000 -1.000000
vn 0.000000 0.000000 -1.000000
vn 0.000000 0.000000 -1.000000
vn 0.000000 0.000000 -1.000000
vn 0.000000 0.000000 -1.000000
vn 0.000000 0.000000 -1.000000
vn 1.000000 0.000000 0.000000
vn 1.000000 0.000000 0.000000
vn 1.000000 0.000000 0.000000
vn 1.000000 0.000000 0.000000
vn 0.000000 -1.000000 0.000000
vn 0.000000 -1.000000 0.000000
vn 0.000000 -1.000000 0.000000
vn 0.000000 -1.000000 0.000000
s off
f 1/1/1 2/2/2 20/3/3 17/4/4
f 3/5/5 4/6/6 6/7/7 5/8/8
f 30/9/9 6/7/10 8/10/11
f 7/11/12 8/10/13 2/12/14 1/13/15
f 2/2/16 8/14/17 6/15/18 4/6/19
f 29/16/20 19/17/21 18/18/22 3/5/23
f 11/19/24 12/20/25 14/21/26 13/22/27
f 15/23/28 33/24/29 32/25/30 16/26/31
f 26/31/32 25/32/33 9/33/34
f 18/18/35 19/17/36 20/3/37
f 20/3/38 19/17/39 17/4/40
f 22/34/41 23/35/42 24/29/43
f 24/29/44 23/35/45 21/30/46
f 15/23/47 16/26/48 10/36/49 9/37/50 25/38/51
f 11/19/52 23/35/53 22/34/54 12/20/55
f 15/39/56 25/32/57 26/31/58 11/19/59 13/40/60
f 28/41/61 29/16/62 30/42/63
f 30/42/64 29/16/65 27/43/66
f 32/25/67 33/24/68 34/44/69
f 34/44/70 33/24/71 31/45/72
f 20/3/73 4/6/74 3/5/75 18/18/76
f 20/3/77 2/2/78 4/6/79
f 23/35/80 9/33/81 10/27/82 21/30/83
f 26/31/84 9/33/85 23/35/86 11/19/87
f 14/49/88 24/29/89 34/46/90 31/48/91
f 29/16/92 3/5/93 5/50/94 27/43/95
f 7/51/96 1/1/97 17/4/98 19/17/99
f 7/51/100 19/17/101 29/16/102 28/41/103
f 30/9/104 8/10/105 7/11/106 28/52/107
f 5/8/108 6/7/109 30/9/110 27/53/111
f 13/22/112 14/21/113 31/45/114 33/24/115
f 13/22/116 33/24/117 15/23/118
f 12/20/119 22/34/120 24/29/121 14/49/122
f 34/46/123 10/27/124 16/28/125 32/47/126
f 34/46/127 24/29/128 21/30/129 10/27/130
f 35/54/131 43/55/132 46/56/133 36/57/134 54/58/135
f 37/59/136 39/60/137 52/61/138 51/62/139
f 50/63/140 42/64/141 40/65/142
f 41/66/143 35/67/144 54/68/145 53/69/146
f 36/57/147 38/70/148 40/71/149 42/72/150
f 49/73/151 37/59/152 44/74/153 45/75/154
f 44/74/155 46/56/156 45/75/157
f 46/56/158 43/55/159 45/75/160
f 48/76/161 50/77/162 49/73/163
f 50/77/164 47/78/165 49/73/166
f 46/56/167 44/74/168 37/59/169 51/62/170 38/70/171
f 46/56/172 38/70/173 36/57/174
f 49/73/175 47/78/176 39/79/177 37/59/178
f 41/80/179 45/75/180 43/55/181 35/54/182
f 41/80/183 48/76/184 49/73/185 45/75/186
f 50/63/187 48/81/188 41/66/189 53/69/190 42/64/191
f 39/60/192 47/82/193 50/63/194 40/65/195 52/61/196
f 52/61/197 40/65/198 38/70/199 51/62/200
f 54/68/201 36/83/202 42/64/203 53/69/204
f 57/84/205 58/85/206 60/86/207 59/87/208
f 61/88/209 62/89/210 56/90/211 55/91/212
f 56/90/213 62/89/214 60/86/215 58/85/216
f 61/88/217 55/91/218 57/84/219 59/87/220
f 56/90/221 58/85/222 57/84/223 55/91/224
f 60/86/225 62/89/226 61/88/227 59/87/228
f 63/92/229 82/93/230 64/94/231 74/95/232 71/96/233
f 65/97/234 79/98/235 80/99/236 67/100/237
f 78/101/238 68/102/239 70/103/240
f 69/104/241 81/105/242 82/106/243 63/107/244
f 64/94/245 70/108/246 68/109/247 66/110/248
f 77/111/249 73/112/250 72/113/251 65/97/252
f 72/113/253 73/112/254 74/95/255
f 74/95/256 73/112/257 71/96/258
f 76/114/259 77/111/260 78/115/261
f 78/115/262 77/111/263 75/116/264
f 74/95/265 66/110/266 79/98/267 65/97/268 72/113/269
f 74/95/270 64/94/271 66/110/272
f 77/111/273 65/97/274 67/117/275 75/116/276
f 69/118/277 63/92/278 71/96/279 73/112/280
f 69/118/281 73/112/282 77/111/283 76/114/284
f 78/101/285 70/103/286 81/105/287 69/104/288 76/119/289
f 67/100/290 80/99/291 68/102/292 78/101/293 75/120/294
f 80/99/295 79/98/296 66/110/297 68/102/298
f 82/106/299 81/105/300 70/103/301 64/121/302
