# This file uses centimeters as units for non-parametric coordinates.

v 96.835159 8.492348 -0.949814
v 151.487747 8.492348 -0.949814
v 96.835159 75.975998 -0.949814
v 151.487747 75.975998 -0.949814
v 96.835159 75.975998 -1.168503
v 151.487747 75.975998 -1.168503
v 96.835159 8.492348 -1.168503
v 151.487747 8.492348 -1.168503
vt 0.538494 0.531233
vt 0.588811 0.531233
vt 0.588811 0.593363
vt 0.538494 0.593363
vt 0.538494 0.531233
vt 0.588811 0.531233
vt 0.588811 0.593363
vt 0.538494 0.593363
vn 0.000000 0.000000 1.000000
vn 0.000000 0.000000 1.000000
vn 0.000000 0.000000 1.000000
vn 0.000000 0.000000 1.000000
vn 0.000000 0.000000 -1.000000
vn 0.000000 0.000000 -1.000000
vn 0.000000 0.000000 -1.000000
vn 0.000000 0.000000 -1.000000
s off
f 1/1/1 2/2/2 4/3/3 3/4/4
f 5/5/5 6/6/6 8/7/7 7/8/8
