# This file uses centimeters as units for non-parametric coordinates.

v 91.676941 43.071861 0.173645
v 158.307495 43.071861 0.173645
v 91.676941 173.285675 0.173645
v 158.307495 173.285675 0.173645
v 91.676941 173.285675 -0.173645
v 158.307495 173.285675 -0.173645
v 91.676941 43.071861 -0.173645
v 158.307495 43.071861 -0.173645
vt 0.532980 0.502356
vt 0.594325 0.502356
vt 0.594325 0.622241
vt 0.532980 0.622241
vt 0.532980 0.502356
vt 0.594325 0.502356
vt 0.594325 0.622241
vt 0.532980 0.622241
vn 0.000000 0.000000 1.000000
vn 0.000000 0.000000 1.000000
vn 0.000000 0.000000 1.000000
vn 0.000000 0.000000 1.000000
vn 0.000000 0.000000 -1.000000
vn 0.000000 0.000000 -1.000000
vn 0.000000 0.000000 -1.000000
vn 0.000000 0.000000 -1.000000
s off
f 1/1/1 2/2/2 4/3/3 3/4/4
f 5/5/5 6/6/6 8/7/7 7/8/8
