# This file uses centimeters as units for non-parametric coordinates.

v 84.538879 99.619331 1.348450
v 163.542175 99.619331 1.348450
v 84.538879 185.014587 1.348450
v 163.542175 185.014587 1.348450
v 84.538879 185.014587 1.129761
v 163.542175 185.014587 1.129761
v 84.538879 99.619331 1.129761
v 163.542175 99.619331 1.129761
vt 0.527284 0.522987
vt 0.600021 0.522987
vt 0.600021 0.601609
vt 0.527284 0.601609
vt 0.527284 0.522987
vt 0.600021 0.522987
vt 0.600021 0.601609
vt 0.527284 0.601609
vn 0.000000 0.000000 1.000000
vn 0.000000 0.000000 1.000000
vn 0.000000 0.000000 1.000000
vn 0.000000 0.000000 1.000000
vn 0.000000 0.000000 -1.000000
vn 0.000000 0.000000 -1.000000
vn 0.000000 0.000000 -1.000000
vn 0.000000 0.000000 -1.000000
s off
f 1/1/1 2/2/2 4/3/3 3/4/4
f 5/5/5 6/6/6 8/7/7 7/8/8
