# This file uses centimeters as units for non-parametric coordinates.

v 41.771240 94.524284 1.461334
v 41.771240 190.781738 1.461334
v 119.845581 94.524284 1.461334
v 119.845581 190.781738 1.461334
v 130.753784 94.524284 1.461334
v 130.753784 190.781738 1.461334
v 205.308807 94.524284 1.461334
v 205.308807 190.781738 1.461334
v 41.771240 94.524284 2.047577
v 41.771240 190.781738 2.047577
v 119.845581 94.524284 2.047577
v 119.845581 190.781738 2.047577
v 130.753784 94.524284 2.047577
v 130.753784 190.781738 2.047577
v 205.308807 94.524284 2.047577
v 205.308807 190.781738 2.047577
vt 0.527712 0.606609
vt 0.527712 0.517987
vt 0.599593 0.517987
vt 0.599593 0.606609
vt 0.529332 0.606609
vt 0.529332 0.517987
vt 0.597973 0.517987
vt 0.597973 0.606609
vt 0.527712 0.517987
vt 0.599593 0.517987
vt 0.599593 0.606609
vt 0.527712 0.606609
vt 0.529332 0.517987
vt 0.597973 0.517987
vt 0.597973 0.606609
vt 0.529332 0.606609
vn 0.000000 0.000000 -1.000000
vn 0.000000 0.000000 -1.000000
vn 0.000000 0.000000 -1.000000
vn 0.000000 0.000000 -1.000000
vn 0.000000 0.000000 -1.000000
vn 0.000000 0.000000 -1.000000
vn 0.000000 0.000000 -1.000000
vn 0.000000 0.000000 -1.000000
vn 0.000000 0.000000 1.000000
vn 0.000000 0.000000 1.000000
vn 0.000000 0.000000 1.000000
vn 0.000000 0.000000 1.000000
vn 0.000000 0.000000 1.000000
vn 0.000000 0.000000 1.000000
vn 0.000000 0.000000 1.000000
vn 0.000000 0.000000 1.000000
s off
f 1/1/1 2/2/2 4/3/3 3/4/4
f 5/5/5 6/6/6 8/7/7 7/8/8
f 9/9/9 11/10/10 12/11/11 10/12/12
f 13/13/13 15/14/14 16/15/15 14/16/16
