# This file uses centimeters as units for non-parametric coordinates.

v 15.675201 94.773537 0.079269
v 80.264130 94.773537 0.079269
v 15.675201 94.773537 2.090378
v 80.264130 94.773537 2.090378
v 15.675201 189.180939 2.090302
v 80.264130 189.180939 2.090302
v 15.675201 189.180939 0.079269
v 80.264130 189.180939 0.079269
v 33.797607 92.557579 0.883179
v 33.797607 191.396912 -1.060104
v 33.797607 191.396912 3.229675
v 33.797607 92.557655 3.111343
v 58.818817 94.773537 0.079269
v 58.818817 94.773537 2.090378
v 58.818817 187.921875 2.090302
v 58.818817 187.921936 0.079269
v 35.790100 94.773537 0.079269
v 35.790100 187.921936 0.079269
v 35.790100 187.921875 2.090302
v 35.790100 94.773537 2.090378
v 61.028900 92.557503 -1.479645
v 61.028900 92.557579 0.598297
v 61.028900 191.396912 3.229675
v 61.028900 191.396912 -1.060028
v 56.820679 91.043221 -0.859985
v 56.820679 91.043221 4.235382
v 56.820679 190.902893 4.035339
v 56.820679 190.902893 -1.060104
v 38.052216 91.043221 -0.859985
v 38.052216 190.902893 -1.060104
v 38.052216 190.902893 4.035339
v 38.052216 91.043221 4.235382
v 16.679688 92.557579 -1.178436
v 16.679688 191.396912 -1.060104
v 16.679688 191.396912 3.229752
v 16.679688 92.557732 1.517944
v 78.734131 92.557579 1.078644
v 78.734131 92.557732 2.810059
v 78.734131 191.396912 3.229752
v 78.734131 191.396912 -1.060104
v 48.660278 91.043221 4.235382
v 52.403259 91.043221 4.235382
v 48.698730 91.043221 -0.859985
v 52.248383 91.043221 -0.859985
v 50.200195 98.847328 4.214172
v 50.627441 96.910835 -0.875854
v 16.679688 100.253883 3.123627
v 23.780823 92.557655 3.111343
v 78.734131 99.896675 -1.438141
v 68.822479 92.557579 -1.479797
v 61.028900 98.853127 2.845764
v 69.538422 92.557732 2.810059
v 33.797607 96.228691 -1.172638
v 26.091309 92.557579 -1.178436
v 50.443573 93.173729 1.315536
vt 0.487963 0.155990
vt 0.487952 0.156026
vt 0.487887 0.156025
vt 0.487900 0.155988
vt 0.488027 0.155261
vt 0.487980 0.155908
vt 0.487782 0.155257
vt 0.488014 0.155300
vt 0.487770 0.155296
vt 0.487964 0.155965
vt 0.487554 0.155972
vt 0.487470 0.155298
vt 0.487473 0.155282
vt 0.487558 0.155958
vt 0.488313 0.155312
vt 0.488463 0.155990
vt 0.488470 0.155976
vt 0.488319 0.155297
vt 0.488449 0.156022
vt 0.488292 0.155300
vt 0.488069 0.155296
vt 0.488200 0.155979
vt 0.488317 0.156019
vt 0.488305 0.155268
vt 0.488080 0.155264
vt 0.488446 0.155911
vt 0.488363 0.155989
vt 0.488221 0.155987
vt 0.488459 0.156003
vt 0.488214 0.156003
vt 0.487860 0.155964
vt 0.487855 0.155978
vt 0.487824 0.156012
vt 0.487829 0.155997
vt 0.487755 0.155299
vt 0.487824 0.155915
vt 0.487724 0.155258
vt 0.487751 0.155314
vt 0.487715 0.155290
vt 0.488179 0.155984
vt 0.488052 0.155319
vt 0.488057 0.155304
vt 0.488185 0.155970
vt 0.487714 0.155979
vt 0.487714 0.156010
vt 0.487581 0.155989
vt 0.487585 0.155977
vt 0.487493 0.155254
vt 0.487485 0.155287
vt 0.487566 0.155930
vt 0.488152 0.156030
vt 0.488167 0.155994
vt 0.488002 0.156027
vt 0.488016 0.155991
vt 0.487979 0.155989
vn 0.000000 -1.000000 0.000000
vn 0.000000 -1.000000 0.000000
vn 0.000000 -1.000000 0.000000
vn 0.000000 -1.000000 0.000000
vn 0.000000 0.001943 0.999998
vn 0.000000 0.001943 0.999998
vn 0.000000 0.001943 0.999998
vn 0.000000 1.000000 0.000000
vn 0.000000 1.000000 0.000000
vn 0.000000 1.000000 0.000000
vn 0.000000 1.000000 0.000000
vn 0.000634 -0.002033 -0.999998
vn 0.000634 -0.002033 -0.999998
vn 0.000634 -0.002033 -0.999998
vn 0.000634 -0.002033 -0.999998
vn 1.000000 0.000001 0.000000
vn 1.000000 0.000001 0.000000
vn 1.000000 0.000001 0.000000
vn 1.000000 0.000001 0.000000
vn -1.000000 0.000000 0.000000
vn -1.000000 0.000000 0.000000
vn -1.000000 0.000000 0.000000
vn -1.000000 0.000000 0.000000
vn 0.000043 0.001194 -0.999999
vn 0.000043 0.001194 -0.999999
vn 0.000043 0.001194 -0.999999
vn 0.000043 0.001194 -0.999999
vn 0.000043 0.001194 -0.999999
vn 0.000000 1.000000 0.000000
vn 0.000000 1.000000 0.000000
vn 0.000000 1.000000 0.000000
vn 0.000000 1.000000 0.000000
vn 0.000092 -0.001191 0.999999
vn 0.000092 -0.001191 0.999999
vn 0.000092 -0.001191 0.999999
vn 0.000092 -0.001191 0.999999
vn 0.000092 -0.001191 0.999999
vn -0.000005 -1.000000 0.000026
vn -0.000005 -1.000000 0.000026
vn -0.000005 -1.000000 0.000026
vn -0.000005 -1.000000 0.000026
vn -0.000005 -1.000000 0.000026
vn -0.000005 -1.000000 0.000026
vn -0.708039 -0.706174 0.000013
vn -0.708038 -0.706174 0.000013
vn -0.708039 -0.706174 0.000013
vn -0.708039 -0.706174 0.000013
vn -0.391233 -0.001903 0.920290
vn -0.391233 -0.001903 0.920290
vn -0.391233 -0.001903 0.920290
vn -0.391233 -0.001903 0.920290
vn -0.843776 0.536696 0.000007
vn -0.843776 0.536696 0.000007
vn -0.843776 0.536696 0.000007
vn -0.843776 0.536696 0.000007
vn -0.521394 0.001865 -0.853314
vn -0.521394 0.001865 -0.853314
vn -0.521394 0.001865 -0.853314
vn -0.521394 0.001865 -0.853314
vn 0.514986 0.000513 -0.857199
vn 0.514986 0.000513 -0.857199
vn 0.514986 0.000513 -0.857199
vn 0.514986 0.000513 -0.857199
vn 0.867516 0.497409 0.000003
vn 0.867516 0.497409 0.000003
vn 0.867516 0.497409 0.000003
vn 0.867516 0.497409 0.000003
vn 0.476447 -0.000541 0.879203
vn 0.476447 -0.000541 0.879203
vn 0.476447 -0.000541 0.879203
vn 0.476447 -0.000541 0.879203
vn 0.743580 -0.668647 0.000010
vn 0.743580 -0.668647 0.000010
vn 0.743580 -0.668647 0.000010
vn 0.743580 -0.668647 0.000010
vn 0.000001 -1.000000 0.000045
vn 0.000001 -1.000000 0.000045
vn 0.000001 -1.000000 0.000045
vn 0.000001 -1.000000 0.000045
vn 0.000001 -1.000000 0.000045
vn 0.000001 -1.000000 0.000045
vn 0.000255 -0.004224 0.999991
vn 0.000255 -0.004224 0.999991
vn 0.000255 -0.004224 0.999991
vn 0.000255 -0.004224 0.999991
vn 0.000255 -0.004224 0.999991
vn 0.000000 1.000000 0.000000
vn 0.000000 1.000000 0.000000
vn 0.000000 1.000000 0.000000
vn 0.000000 1.000000 0.000000
vn 0.000297 0.004216 -0.999991
vn 0.000297 0.004216 -0.999991
vn 0.000297 0.004216 -0.999991
vn 0.000297 0.004216 -0.999991
vn 0.000297 0.004216 -0.999991
vn 0.881500 -0.472184 0.000000
vn 0.881500 -0.472184 0.000000
vn 0.881500 -0.472184 0.000000
vn 0.881500 -0.472184 0.000000
vn 0.715198 0.000725 0.698922
vn 0.715198 0.000725 0.698922
vn 0.715198 0.000725 0.698922
vn 0.715198 0.000725 0.698922
vn 0.830670 0.556765 0.000003
vn 0.830670 0.556765 0.000003
vn 0.830670 0.556765 0.000003
vn 0.830670 0.556765 0.000003
vn 0.461589 -0.000920 -0.887094
vn 0.461589 -0.000920 -0.887094
vn 0.461589 -0.000920 -0.887094
vn 0.461589 -0.000920 -0.887094
vn -0.417611 -0.000942 -0.908625
vn -0.417611 -0.000942 -0.908625
vn -0.417611 -0.000942 -0.908625
vn -0.417611 -0.000942 -0.908625
vn -0.796618 0.604483 0.000006
vn -0.796618 0.604483 0.000006
vn -0.796618 0.604483 0.000006
vn -0.796618 0.604483 0.000006
vn -0.670544 0.000769 0.741870
vn -0.670544 0.000769 0.741870
vn -0.670544 0.000769 0.741870
vn -0.670544 0.000769 0.741870
vn -0.855051 -0.518545 0.000000
vn -0.855051 -0.518545 0.000000
vn -0.855050 -0.518545 0.000000
vn -0.855051 -0.518545 0.000000
vn -0.766443 0.000393 -0.642312
vn -0.766443 0.000393 -0.642312
vn -0.766443 0.000393 -0.642312
vn -0.766443 0.000393 -0.642312
vn -0.910801 0.412846 0.000000
vn -0.910801 0.412846 0.000000
vn -0.910801 0.412846 0.000000
vn -0.910801 0.412846 0.000000
vn -0.733562 -0.000389 0.679622
vn -0.733562 -0.000389 0.679622
vn -0.733562 -0.000389 0.679622
vn -0.733562 -0.000389 0.679622
vn -0.910805 -0.412837 0.000013
vn -0.910805 -0.412837 0.000013
vn -0.910805 -0.412837 0.000013
vn -0.910805 -0.412837 0.000013
vn 0.822914 -0.568167 0.000024
vn 0.822914 -0.568167 0.000024
vn 0.822914 -0.568167 0.000024
vn 0.822914 -0.568167 0.000024
vn 0.519253 -0.001856 0.854619
vn 0.519253 -0.001856 0.854619
vn 0.519253 -0.001856 0.854619
vn 0.519253 -0.001856 0.854619
vn 0.822922 0.568155 0.000000
vn 0.822922 0.568155 0.000000
vn 0.822922 0.568155 0.000000
vn 0.822922 0.568155 0.000000
vn 0.657699 0.001532 -0.753280
vn 0.657699 0.001532 -0.753280
vn 0.657699 0.001532 -0.753280
vn 0.657699 0.001532 -0.753280
vn 0.000000 -1.000000 0.000000
vn 0.000000 -1.000000 0.000000
vn 0.000000 -1.000000 0.000000
vn 0.000000 -1.000000 0.000000
vn 0.891877 -0.174855 0.417110
vn 0.891877 -0.174855 0.417110
vn 0.891877 -0.174855 0.417110
vn -0.000310 -0.002037 -0.999998
vn -0.000310 -0.002037 -0.999998
vn -0.000310 -0.002037 -0.999998
vn -0.000310 -0.002037 -0.999998
vn 0.000000 -0.001960 -0.999998
vn 0.000000 -0.001960 -0.999998
vn 0.000000 -0.001960 -0.999998
vn -0.878331 -0.246827 0.409403
vn -0.878331 -0.246827 0.409403
vn -0.878331 -0.246827 0.409403
vn -0.000807 0.002039 0.999998
vn -0.000807 0.002039 0.999998
vn -0.000807 0.002039 0.999998
vn -0.000807 0.002039 0.999998
vn 0.000433 0.002049 0.999998
vn 0.000433 0.002049 0.999998
vn 0.000433 0.002049 0.999998
vn 0.000433 0.002049 0.999998
vn 0.106726 -0.203075 0.973330
vn 0.106726 -0.203075 0.973329
vn 0.106726 -0.203075 0.973330
vn -0.214538 -0.199484 0.956127
vn -0.214538 -0.199484 0.956127
vn -0.214538 -0.199484 0.956127
vn -0.146453 -0.320877 -0.935730
vn -0.146453 -0.320877 -0.935730
vn -0.146453 -0.320877 -0.935730
vn 0.237202 -0.315127 -0.918929
vn 0.237202 -0.315127 -0.918929
vn 0.237202 -0.315127 -0.918929
vn 0.286189 -0.322125 0.902403
vn 0.286189 -0.322125 0.902403
vn 0.286189 -0.322125 0.902403
vn -0.237762 -0.326575 0.914778
vn -0.237762 -0.326575 0.914778
vn -0.237762 -0.326575 0.914778
vn 0.187963 -0.479904 -0.856949
vn 0.187963 -0.479904 -0.856949
vn 0.187963 -0.479904 -0.856949
vn 0.227305 -0.475809 -0.849670
vn 0.227305 -0.475809 -0.849670
vn 0.227305 -0.475809 -0.849670
vn 0.864453 -0.285251 -0.413948
vn 0.864453 -0.285251 -0.413948
vn 0.864453 -0.285251 -0.413948
vn -0.848785 -0.235760 -0.473268
vn -0.848785 -0.235760 -0.473268
vn -0.848785 -0.235760 -0.473268
vn -0.751188 -0.659693 0.022841
vn -0.751188 -0.659693 0.022841
vn -0.751188 -0.659693 0.022841
vn 0.770747 -0.637115 0.005806
vn 0.770747 -0.637115 0.005806
vn 0.770747 -0.637115 0.005806
s off
f 42/1/1 44/2/2 25/3/3 26/4/4
f 31/5/5 45/6/6 27/7/7
f 30/8/8 31/5/9 27/7/10 28/9/11
f 46/10/12 28/9/13 25/3/14 44/2/15
f 2/11/16 8/12/17 6/13/18 4/14/19
f 7/15/20 1/16/21 3/17/22 5/18/23
f 33/19/24 34/20/25 10/21/26 53/22/27 54/23/28
f 34/20/29 35/24/30 11/25/31 10/21/32
f 35/24/33 47/26/34 48/27/35 12/28/36 11/25/37
f 48/27/38 36/29/39 33/19/40 54/23/41 9/30/42 12/28/43
f 14/31/44 13/32/45 21/33/46 22/34/47
f 15/35/48 14/31/49 51/36/50 23/37/51
f 16/38/52 15/35/53 23/37/54 24/39/55
f 13/32/56 16/38/57 24/39/58 21/33/59
f 17/40/60 53/22/61 10/21/62 18/41/63
f 10/21/64 11/25/65 19/42/66 18/41/67
f 11/25/68 12/28/69 20/43/70 19/42/71
f 12/28/72 9/30/73 17/40/74 20/43/75
f 52/44/76 22/34/77 21/33/78 50/45/79 37/46/80 38/47/81
f 23/37/82 51/36/83 52/44/84 38/47/85 39/48/86
f 24/39/87 23/37/88 39/48/89 40/49/90
f 21/33/91 24/39/92 40/49/93 49/50/94 50/45/95
f 26/4/96 25/3/97 13/32/98 14/31/99
f 27/7/100 26/4/101 14/31/102 15/35/103
f 28/9/104 27/7/105 15/35/106 16/38/107
f 25/3/108 28/9/109 16/38/110 13/32/111
f 17/40/112 18/41/113 30/8/114 29/51/115
f 18/41/116 19/42/117 31/5/118 30/8/119
f 19/42/120 20/43/121 32/52/122 31/5/123
f 20/43/124 17/40/125 29/51/126 32/52/127
f 7/15/128 34/20/129 33/19/130 1/16/131
f 5/18/132 35/24/133 34/20/134 7/15/135
f 3/17/136 47/26/137 35/24/138 5/18/139
f 1/16/140 33/19/141 36/29/142 3/17/143
f 38/47/144 37/46/145 2/11/146 4/14/147
f 39/48/148 38/47/149 4/14/150 6/13/151
f 40/49/152 39/48/153 6/13/154 8/12/155
f 2/11/156 49/50/157 40/49/158 8/12/159
f 32/52/160 29/51/161 43/53/162 41/54/163
f 41/54/164 55/55/165 45/6/166
f 29/51/167 30/8/168 46/10/169 43/53/170
f 46/10/171 30/8/172 28/9/173
f 45/6/174 55/55/175 42/1/176
f 27/7/177 45/6/178 42/1/179 26/4/180
f 31/5/181 32/52/182 41/54/183 45/6/184
f 3/17/185 36/29/186 47/26/187
f 48/27/188 47/26/189 36/29/190
f 37/46/191 49/50/192 2/11/193
f 50/45/194 49/50/195 37/46/196
f 51/36/197 14/31/198 22/34/199
f 52/44/200 51/36/201 22/34/202
f 9/30/203 53/22/204 17/40/205
f 54/23/206 53/22/207 9/30/208
f 55/55/209 43/53/210 46/10/211
f 44/2/212 55/55/213 46/10/214
f 42/1/215 55/55/216 44/2/217
f 41/54/218 43/53/219 55/55/220
