# This file uses centimeters as units for non-parametric coordinates.

v 102.089691 9.114876 0.173492
v 147.899780 9.114876 0.173492
v 102.089691 98.640228 0.173492
v 147.899780 98.640228 0.173492
v 102.089691 98.640228 -0.173798
v 147.899780 98.640228 -0.173798
v 102.089691 9.114876 -0.173798
v 147.899780 9.114876 -0.173798
vt 0.542565 0.521086
vt 0.584741 0.521086
vt 0.584741 0.603510
vt 0.542565 0.603510
vt 0.542565 0.521086
vt 0.584741 0.521086
vt 0.584741 0.603510
vt 0.542565 0.603510
vn 0.000000 0.000000 1.000000
vn 0.000000 0.000000 1.000000
vn 0.000000 0.000000 1.000000
vn 0.000000 0.000000 1.000000
vn 0.000000 0.000000 -1.000000
vn 0.000000 0.000000 -1.000000
vn 0.000000 0.000000 -1.000000
vn 0.000000 0.000000 -1.000000
s off
f 1/1/1 2/2/2 4/3/3 3/4/4
f 5/5/5 6/6/6 8/7/7 7/8/8
