# This file uses centimeters as units for non-parametric coordinates.

v 58.118896 164.157059 78.382690
v 85.112305 164.157059 78.382690
v 58.118896 79.086624 78.382690
v 85.112305 79.086624 78.382690
v 58.118896 79.086624 78.903015
v 85.112305 79.086624 78.903015
v 58.118896 164.157059 78.903015
v 85.112305 164.157059 78.903015
v 92.833862 164.157059 78.382690
v 158.666992 164.157059 78.382690
v 92.833862 79.086624 78.382690
v 158.666992 79.086624 78.382690
v 92.833862 79.086624 78.903015
v 158.666992 79.086624 78.903015
v 92.833862 164.157059 78.903015
v 158.666992 164.157059 78.903015
v 168.043823 164.157059 78.382690
v 195.037231 164.157059 78.382690
v 168.043823 79.086624 78.382690
v 195.037231 79.086624 78.382690
v 168.043823 79.086624 78.903015
v 195.037231 79.086624 78.903015
v 168.043823 164.157059 78.903015
v 195.037231 164.157059 78.903015
vt 0.551226 0.523137
vt 0.576079 0.523137
vt 0.576079 0.601459
vt 0.551226 0.601459
vt 0.551227 0.523137
vt 0.576079 0.523137
vt 0.576079 0.601459
vt 0.551227 0.601459
vt 0.533347 0.523137
vt 0.593958 0.523137
vt 0.593958 0.601459
vt 0.533347 0.601459
vt 0.533347 0.523137
vt 0.593958 0.523137
vt 0.593958 0.601459
vt 0.533347 0.601459
vt 0.551226 0.523137
vt 0.576079 0.523137
vt 0.576079 0.601459
vt 0.551226 0.601459
vt 0.551226 0.523137
vt 0.576079 0.523137
vt 0.576079 0.601459
vt 0.551226 0.601459
vn 0.000000 0.000000 -1.000000
vn 0.000000 0.000000 -1.000000
vn 0.000000 0.000000 -1.000000
vn 0.000000 0.000000 -1.000000
vn 0.000000 0.000000 1.000000
vn 0.000000 0.000000 1.000000
vn 0.000000 0.000000 1.000000
vn 0.000000 0.000000 1.000000
vn 0.000000 0.000000 -1.000000
vn 0.000000 0.000000 -1.000000
vn 0.000000 0.000000 -1.000000
vn 0.000000 0.000000 -1.000000
vn 0.000000 0.000000 1.000000
vn 0.000000 0.000000 1.000000
vn 0.000000 0.000000 1.000000
vn 0.000000 0.000000 1.000000
vn 0.000000 0.000000 -1.000000
vn 0.000000 0.000000 -1.000000
vn 0.000000 0.000000 -1.000000
vn 0.000000 0.000000 -1.000000
vn 0.000000 0.000000 1.000000
vn 0.000000 0.000000 1.000000
vn 0.000000 0.000000 1.000000
vn 0.000000 0.000000 1.000000
s off
f 1/1/1 2/2/2 4/3/3 3/4/4
f 5/5/5 6/6/6 8/7/7 7/8/8
f 9/9/9 10/10/10 12/11/11 11/12/12
f 13/13/13 14/14/14 16/15/15 15/16/16
f 17/17/17 18/18/18 20/19/19 19/20/20
f 21/21/21 22/22/22 24/23/23 23/24/24
