# This file uses centimeters as units for non-parametric coordinates.

v 124.999725 0.000000 4.487000
v 124.999725 0.000000 -4.487000
v 0.000000 125.000000 4.487000
v 0.000000 125.000000 -4.487000
v 0.000000 0.000000 -4.487000
v 0.000000 0.000000 4.487000
vt 0.074150 0.927242
vt 0.074150 0.927242
vt 0.201428 0.791960
vt 0.201428 0.791960
vt 0.074149 0.791960
vt 0.074149 0.791960
vn 0.000000 0.000000 -1.000000
vn 0.000000 0.000000 -1.000000
vn 0.000000 0.000000 -1.000000
vn 0.707108 0.707106 0.000000
vn 0.707108 0.707106 0.000000
vn 0.707108 0.707106 0.000000
vn 0.707108 0.707106 0.000000
vn 0.000000 -1.000000 0.000000
vn 0.000000 -1.000000 0.000000
vn 0.000000 -1.000000 0.000000
vn 0.000000 -1.000000 0.000000
vn 0.000000 0.000000 1.000000
vn 0.000000 0.000000 1.000000
vn 0.000000 0.000000 1.000000
vn -1.000000 0.000000 0.000000
vn -1.000000 0.000000 0.000000
vn -1.000000 0.000000 0.000000
vn -1.000000 0.000000 0.000000
s off
f 2/3/1 5/5/2 4/2/3
f 2/3/4 4/2/5 3/1/6 1/4/7
f 6/6/8 5/5/9 2/3/10 1/4/11
f 3/1/12 6/6/13 1/4/14
f 4/2/15 5/5/16 6/6/17 3/1/18
