# This file uses centimeters as units for non-parametric coordinates.

v 72.862244 111.799713 13.771820
v 122.713928 111.799713 13.771820
v 72.862244 117.731018 13.771820
v 122.713928 117.731018 13.771820
v 72.862244 117.731018 9.470825
v 122.713928 117.731018 9.470825
v 72.862244 111.799713 9.470825
v 122.713928 111.799713 9.470825
v 79.334106 95.844444 12.438278
v 124.824524 95.844444 12.438278
v 79.334106 95.844444 11.075363
v 124.824524 95.844444 11.075363
v 79.334106 187.877655 11.075363
v 124.824524 187.877655 11.075363
v 79.334106 187.877655 12.438278
v 124.824524 187.877655 12.438278
v 92.097778 92.909882 11.893463
v 92.097778 190.812210 13.210449
v 92.097778 190.812210 10.303268
v 92.097778 92.909882 10.383453
v 109.720154 93.869560 12.438278
v 109.720154 93.869560 11.075363
v 109.720154 188.185181 11.075363
v 109.720154 188.185181 12.438278
v 93.501282 93.869560 12.438278
v 93.501282 188.185181 12.438278
v 93.501282 188.185181 11.075363
v 93.501282 93.869560 11.075363
v 111.277161 92.909882 13.494797
v 111.277161 92.909882 12.086639
v 111.277161 190.812210 10.303268
v 111.277161 190.812210 13.210373
v 108.312988 92.565033 13.074799
v 108.312988 92.565033 9.621658
v 108.312988 190.812210 9.757309
v 108.312988 190.812210 13.210449
v 95.094299 92.565033 13.074799
v 95.094299 190.812210 13.210449
v 95.094299 190.812210 9.757309
v 95.094299 92.565033 9.621658
v 80.041504 92.909882 13.290634
v 80.041504 190.812210 13.210449
v 80.041504 190.812210 10.303192
v 80.041504 92.909882 11.463318
v 123.746948 92.909882 11.761017
v 123.746948 92.909882 10.587616
v 123.746948 190.812210 10.303192
v 123.746948 190.812210 13.210449
v 80.041504 103.102020 10.375061
v 85.042725 92.909882 10.383453
v 123.746948 102.628960 13.466644
v 116.766052 92.909882 13.494873
v 111.277161 117.185509 10.563431
v 117.270203 92.909882 10.587616
v 92.097778 108.755630 13.286667
v 86.670532 92.909882 13.290634
v 72.862244 173.728394 13.771820
v 122.713928 173.728394 13.771820
v 72.862244 179.659698 13.771820
v 122.713928 179.659698 13.771820
v 72.862244 179.659698 9.470825
v 122.713928 179.659698 9.470825
v 72.862244 173.728394 9.470825
v 122.713928 173.728394 9.470825
vt 0.092881 0.233025
vt 0.091979 0.233138
vt 0.091881 0.233066
vt 0.092881 0.232958
vt 0.091986 0.233000
vt 0.092866 0.232915
vt 0.092063 0.233069
vt 0.092867 0.232979
vt 0.488512 0.156402
vt 0.488708 0.155427
vt 0.488852 0.155425
vt 0.488631 0.156399
vt 0.488695 0.155406
vt 0.488837 0.155404
vt 0.488777 0.156348
vt 0.488781 0.156358
vt 0.489015 0.155449
vt 0.489009 0.155441
vt 0.488522 0.155448
vt 0.488527 0.155456
vt 0.488371 0.156367
vt 0.488367 0.156357
vt 0.488368 0.156375
vt 0.488427 0.156374
vt 0.488501 0.156239
vt 0.488663 0.155407
vt 0.488533 0.155408
vt 0.488674 0.155424
vt 0.488543 0.155426
vt 0.488483 0.156394
vt 0.488420 0.156395
vt 0.488389 0.156311
vt 0.488479 0.156383
vt 0.488372 0.156388
vt 0.488642 0.156378
vt 0.488651 0.156378
vt 0.488646 0.156367
vt 0.488637 0.156368
vt 0.488854 0.155448
vt 0.488881 0.155421
vt 0.488704 0.156180
vt 0.488848 0.155439
vt 0.488869 0.155404
vt 0.488492 0.156371
vt 0.488675 0.155442
vt 0.488680 0.155450
vt 0.488496 0.156381
vt 0.488709 0.156388
vt 0.488767 0.156386
vt 0.488763 0.156378
vt 0.488695 0.156366
vt 0.489016 0.155419
vt 0.489002 0.155402
vt 0.488778 0.156284
vt 0.488620 0.156374
vt 0.488502 0.156376
vt 0.092881 0.233025
vt 0.091979 0.233138
vt 0.091881 0.233066
vt 0.092881 0.232958
vt 0.091986 0.233000
vt 0.092866 0.232915
vt 0.092063 0.233069
vt 0.092867 0.232979
vn 0.000000 0.000000 1.000000
vn 0.000000 0.000000 1.000000
vn 0.000000 0.000000 1.000000
vn 0.000000 0.000000 1.000000
vn 0.000000 1.000000 0.000000
vn 0.000000 1.000000 0.000000
vn 0.000000 1.000000 0.000000
vn 0.000000 1.000000 0.000000
vn 0.000000 0.000000 -1.000000
vn 0.000000 0.000000 -1.000000
vn 0.000000 0.000000 -1.000000
vn 0.000000 0.000000 -1.000000
vn 0.000000 -1.000000 0.000000
vn 0.000000 -1.000000 0.000000
vn 0.000000 -1.000000 0.000000
vn 0.000000 -1.000000 0.000000
vn 1.000000 0.000000 0.000000
vn 1.000000 0.000000 0.000000
vn 1.000000 0.000000 0.000000
vn 1.000000 0.000000 0.000000
vn -1.000000 0.000000 0.000000
vn -1.000000 0.000000 0.000000
vn -1.000000 0.000000 0.000000
vn -1.000000 0.000000 0.000000
vn 0.000000 0.001381 -0.999999
vn 0.000000 0.001381 -0.999999
vn 0.000000 0.001381 -0.999999
vn 0.000000 0.001381 -0.999999
vn 0.000000 1.000000 0.000000
vn 0.000000 1.000000 0.000000
vn 0.000000 1.000000 0.000000
vn 0.000000 1.000000 0.000000
vn 1.000000 0.000000 0.000000
vn 1.000000 0.000000 0.000000
vn 1.000000 0.000000 0.000000
vn 1.000000 0.000000 0.000000
vn -1.000000 0.000000 0.000000
vn -1.000000 0.000000 0.000000
vn -1.000000 0.000000 0.000000
vn -1.000000 0.000000 0.000000
vn -0.000388 0.000841 1.000000
vn -0.000388 0.000841 1.000000
vn -0.000388 0.000841 1.000000
vn -0.000388 0.000841 1.000000
vn -0.000388 0.000841 1.000000
vn 0.000000 1.000000 0.000000
vn 0.000000 1.000000 0.000000
vn 0.000000 1.000000 0.000000
vn 0.000000 1.000000 0.000000
vn 0.000005 -0.000819 -1.000000
vn 0.000005 -0.000819 -1.000000
vn 0.000005 -0.000819 -1.000000
vn 0.000005 -0.000819 -1.000000
vn 0.000005 -0.000819 -1.000000
vn 0.000000 -1.000000 0.000000
vn 0.000000 -1.000000 0.000000
vn 0.000000 -1.000000 0.000000
vn 0.000000 -1.000000 0.000000
vn 0.000000 -1.000000 0.000000
vn 0.000000 -1.000000 0.000000
vn -0.524698 -0.851288 0.000000
vn -0.524698 -0.851288 0.000000
vn -0.524698 -0.851288 0.000000
vn -0.524698 -0.851288 0.000000
vn -0.370936 -0.001439 -0.928657
vn -0.370936 -0.001439 -0.928657
vn -0.370936 -0.001439 -0.928657
vn -0.370936 -0.001439 -0.928657
vn -0.860256 0.509862 0.000000
vn -0.860256 0.509862 0.000000
vn -0.860256 0.509862 0.000000
vn -0.860256 0.509862 0.000000
vn -0.506877 0.001275 0.862017
vn -0.506877 0.001275 0.862017
vn -0.506877 0.001275 0.862017
vn -0.506877 0.001275 0.862017
vn 0.501733 0.000374 0.865022
vn 0.501733 0.000374 0.865022
vn 0.501733 0.000374 0.865022
vn 0.501733 0.000374 0.865022
vn 0.882017 0.471218 0.000000
vn 0.882017 0.471218 0.000000
vn 0.882017 0.471218 0.000000
vn 0.882017 0.471218 0.000000
vn 0.462264 -0.000370 -0.886742
vn 0.462264 -0.000370 -0.886742
vn 0.462264 -0.000370 -0.886742
vn 0.462264 -0.000370 -0.886742
vn 0.564438 -0.825476 0.000000
vn 0.564438 -0.825476 0.000000
vn 0.564438 -0.825476 0.000000
vn 0.564438 -0.825476 0.000000
vn 0.000000 -1.000000 0.000002
vn 0.000000 -1.000000 0.000002
vn 0.000000 -1.000000 0.000002
vn 0.000000 -1.000000 0.000002
vn 0.000000 -1.000000 0.000002
vn 0.000000 -1.000000 0.000002
vn -0.001978 -0.003026 -0.999994
vn -0.001978 -0.003026 -0.999994
vn -0.001978 -0.003026 -0.999994
vn -0.001978 -0.003026 -0.999993
vn -0.001978 -0.003026 -0.999994
vn 0.000000 1.000000 0.000000
vn 0.000000 1.000000 0.000000
vn 0.000000 1.000000 0.000000
vn 0.000000 1.000000 0.000000
vn -0.000007 0.002905 0.999996
vn -0.000007 0.002905 0.999996
vn -0.000007 0.002905 0.999996
vn -0.000007 0.002905 0.999996
vn -0.000007 0.002905 0.999996
vn 0.679856 -0.733345 0.000000
vn 0.679856 -0.733345 0.000000
vn 0.679856 -0.733345 0.000000
vn 0.679856 -0.733345 0.000000
vn 0.701817 0.000502 -0.712357
vn 0.701817 0.000502 -0.712357
vn 0.701817 0.000502 -0.712357
vn 0.701817 0.000502 -0.712357
vn 0.881502 0.472180 0.000000
vn 0.881503 0.472180 0.000000
vn 0.881502 0.472180 0.000000
vn 0.881502 0.472180 0.000000
vn 0.447365 -0.000630 0.894351
vn 0.447365 -0.000630 0.894351
vn 0.447365 -0.000630 0.894351
vn 0.447365 -0.000630 0.894351
vn -0.404159 -0.000644 0.914689
vn -0.404159 -0.000644 0.914689
vn -0.404159 -0.000644 0.914689
vn -0.404159 -0.000644 0.914689
vn -0.855071 0.518512 0.000000
vn -0.855071 0.518512 0.000000
vn -0.855071 0.518512 0.000000
vn -0.855071 0.518512 0.000000
vn -0.656479 0.000531 -0.754345
vn -0.656479 0.000531 -0.754345
vn -0.656479 0.000531 -0.754345
vn -0.656479 0.000531 -0.754345
vn -0.633572 -0.773684 0.000000
vn -0.633572 -0.773684 0.000000
vn -0.633572 -0.773684 0.000000
vn -0.633572 -0.773684 0.000000
vn -0.754108 0.000277 0.656750
vn -0.754108 0.000277 0.656750
vn -0.754108 0.000277 0.656750
vn -0.754108 0.000277 0.656750
vn -0.972154 0.234345 0.000000
vn -0.972154 0.234345 0.000000
vn -0.972154 0.234345 0.000000
vn -0.972154 0.234345 0.000000
vn -0.720128 -0.000277 -0.693841
vn -0.720128 -0.000277 -0.693841
vn -0.720128 -0.000277 -0.693841
vn -0.720128 -0.000277 -0.693841
vn -0.972154 -0.234343 0.000000
vn -0.972154 -0.234343 0.000000
vn -0.972154 -0.234343 0.000000
vn -0.972154 -0.234343 0.000000
vn 0.938713 -0.344699 0.000000
vn 0.938713 -0.344699 0.000000
vn 0.938713 -0.344699 0.000000
vn 0.938713 -0.344699 0.000000
vn 0.504690 -0.001293 -0.863299
vn 0.504690 -0.001293 -0.863299
vn 0.504690 -0.001293 -0.863299
vn 0.504690 -0.001293 -0.863299
vn 0.938713 0.344698 0.000000
vn 0.938714 0.344698 0.000000
vn 0.938714 0.344698 0.000000
vn 0.938713 0.344698 0.000000
vn 0.644030 0.001087 0.765000
vn 0.644030 0.001087 0.765000
vn 0.644030 0.001087 0.765000
vn 0.644030 0.001087 0.765000
vn 0.000000 -1.000000 0.000000
vn 0.000000 -1.000000 0.000000
vn 0.000000 -1.000000 0.000000
vn 0.000000 -1.000000 0.000000
vn 0.000000 -0.001381 0.999999
vn 0.000000 -0.001381 0.999999
vn 0.000000 -0.001381 0.999999
vn 0.000000 -0.001381 0.999999
vn 0.104316 -0.105591 -0.988923
vn 0.104316 -0.105591 -0.988923
vn 0.104316 -0.105591 -0.988923
vn -0.209916 -0.103805 -0.972193
vn -0.209916 -0.103805 -0.972193
vn -0.209916 -0.103805 -0.972193
vn -0.146714 -0.170982 0.974290
vn -0.146714 -0.170982 0.974290
vn -0.146714 -0.170982 0.974290
vn 0.237626 -0.167900 0.956736
vn 0.237626 -0.167900 0.956736
vn 0.237626 -0.167900 0.956736
vn 0.520527 -0.053471 -0.852169
vn 0.520527 -0.053471 -0.852169
vn 0.520527 -0.053471 -0.852169
vn -0.242204 -0.060758 -0.968321
vn -0.242204 -0.060758 -0.968321
vn -0.242204 -0.060758 -0.968321
vn -0.310635 -0.083252 0.946877
vn -0.310635 -0.083252 0.946877
vn -0.310635 -0.083252 0.946877
vn 0.248409 -0.084840 0.964933
vn 0.248409 -0.084840 0.964933
vn 0.248409 -0.084840 0.964933
vn 0.000000 0.000000 1.000000
vn 0.000000 0.000000 1.000000
vn 0.000000 0.000000 1.000000
vn 0.000000 0.000000 1.000000
vn 0.000000 1.000000 0.000000
vn 0.000000 1.000000 0.000000
vn 0.000000 1.000000 0.000000
vn 0.000000 1.000000 0.000000
vn 0.000000 0.000000 -1.000000
vn 0.000000 0.000000 -1.000000
vn 0.000000 0.000000 -1.000000
vn 0.000000 0.000000 -1.000000
vn 0.000000 -1.000000 0.000000
vn 0.000000 -1.000000 0.000000
vn 0.000000 -1.000000 0.000000
vn 0.000000 -1.000000 0.000000
vn 1.000000 0.000000 0.000000
vn 1.000000 0.000000 0.000000
vn 1.000000 0.000000 0.000000
vn 1.000000 0.000000 0.000000
vn -1.000000 0.000000 0.000000
vn -1.000000 0.000000 0.000000
vn -1.000000 0.000000 0.000000
vn -1.000000 0.000000 0.000000
s off
f 1/1/1 2/2/2 4/3/3 3/4/4
f 3/4/5 4/3/6 6/5/7 5/6/8
f 5/6/9 6/5/10 8/7/11 7/8/12
f 7/8/13 8/7/14 2/2/15 1/1/16
f 2/2/17 8/7/18 6/5/19 4/3/20
f 7/8/21 1/1/22 3/4/23 5/6/24
f 40/9/25 39/10/26 35/11/27 34/12/28
f 38/13/29 36/14/30 35/11/31 39/10/32
f 10/15/33 12/16/34 14/17/35 16/18/36
f 15/19/37 13/20/38 11/21/39 9/22/40
f 41/23/41 56/24/42 55/25/43 18/26/44 42/27/45
f 42/27/46 18/26/47 19/28/48 43/29/49
f 43/29/50 19/28/51 20/30/52 50/31/53 49/32/54
f 50/31/55 20/30/56 17/33/57 56/24/58 41/23/59 44/34/60
f 22/35/61 30/36/62 29/37/63 21/38/64
f 23/39/65 31/40/66 53/41/67 22/35/68
f 24/42/69 32/43/70 31/40/71 23/39/72
f 21/38/73 29/37/74 32/43/75 24/42/76
f 25/44/77 26/45/78 18/26/79 55/25/80
f 18/26/81 26/45/82 27/46/83 19/28/84
f 19/28/85 27/46/86 28/47/87 20/30/88
f 20/30/89 28/47/90 25/44/91 17/33/92
f 54/48/93 46/49/94 45/50/95 52/51/96 29/37/97 30/36/98
f 31/40/99 47/52/100 46/49/101 54/48/102 53/41/103
f 32/43/104 48/53/105 47/52/106 31/40/107
f 29/37/108 52/51/109 51/54/110 48/53/111 32/43/112
f 34/12/113 22/35/114 21/38/115 33/55/116
f 35/11/117 23/39/118 22/35/119 34/12/120
f 36/14/121 24/42/122 23/39/123 35/11/124
f 33/55/125 21/38/126 24/42/127 36/14/128
f 25/44/129 37/56/130 38/13/131 26/45/132
f 26/45/133 38/13/134 39/10/135 27/46/136
f 27/46/137 39/10/138 40/9/139 28/47/140
f 28/47/141 40/9/142 37/56/143 25/44/144
f 15/19/145 9/22/146 41/23/147 42/27/148
f 13/20/149 15/19/150 42/27/151 43/29/152
f 11/21/153 13/20/154 43/29/155 49/32/156
f 9/22/157 11/21/158 44/34/159 41/23/160
f 46/49/161 12/16/162 10/15/163 45/50/164
f 47/52/165 14/17/166 12/16/167 46/49/168
f 48/53/169 16/18/170 14/17/171 47/52/172
f 10/15/173 16/18/174 48/53/175 51/54/176
f 40/9/177 34/12/178 33/55/179 37/56/180
f 37/56/181 33/55/182 36/14/183 38/13/184
f 11/21/185 49/32/186 44/34/187
f 50/31/188 44/34/189 49/32/190
f 45/50/191 10/15/192 51/54/193
f 52/51/194 45/50/195 51/54/196
f 53/41/197 30/36/198 22/35/199
f 54/48/200 30/36/201 53/41/202
f 17/33/203 25/44/204 55/25/205
f 56/24/206 17/33/207 55/25/208
f 57/57/209 58/58/210 60/59/211 59/60/212
f 59/60/213 60/59/214 62/61/215 61/62/216
f 61/62/217 62/61/218 64/63/219 63/64/220
f 63/64/221 64/63/222 58/58/223 57/57/224
f 58/58/225 64/63/226 62/61/227 60/59/228
f 63/64/229 57/57/230 59/60/231 61/62/232
