# This file uses centimeters as units for non-parametric coordinates.

v 0.000000 16.822206 8.493958
v 9.878235 0.805361 8.493958
v 113.876648 249.344482 8.493958
v 124.983215 234.153137 8.493958
v 113.876648 249.344482 -8.493958
v 124.983215 234.153137 -8.493958
v 0.000000 16.822206 -8.493958
v 9.878235 0.805361 -8.493958
v 10.248718 37.611088 8.493958
v 50.104980 119.045410 8.493958
v 24.091492 65.894165 6.113129
v 30.460205 64.423523 8.493958
v 99.354553 219.672852 -8.493958
v 54.513855 128.053894 -8.493958
v 85.871582 192.124329 -5.293121
v 90.848999 191.795959 -8.493958
v 0.000000 0.000000 4.487000
v 124.999695 0.000000 4.487000
v 0.000000 250.000000 4.487000
v 124.999695 250.000000 4.487000
v 0.000000 250.000000 -4.487000
v 124.999695 250.000000 -4.487000
v 0.000000 0.000000 -4.487000
v 124.999695 0.000000 -4.487000
v 0.000000 16.822309 12.099304
v 0.000000 0.975466 12.099304
v 124.983215 16.822309 12.099304
v 124.983215 0.975466 12.099304
v 124.983215 16.822309 -12.099304
v 124.983215 0.975466 -12.099304
v 0.000000 16.822309 -12.099304
v 0.000000 0.975466 -12.099304
v 0.000000 250.241669 12.099457
v 0.000000 234.153168 12.099304
v 124.983215 250.241669 12.099304
v 124.983215 234.153168 12.099304
v 124.983215 250.241669 -12.099304
v 124.983215 234.153168 -12.099304
v 0.000000 250.241669 -12.099304
v 0.000000 234.153168 -12.099304
v 15.437927 16.822309 12.099304
v 57.569885 16.822309 12.099304
v 30.071106 16.822308 8.707886
v 30.758362 10.455505 12.099304
v 65.242310 234.153168 12.099304
v 115.604248 234.153168 12.099304
v 90.432739 239.913452 12.099304
v 85.719299 234.153168 7.511292
v 109.631958 16.822309 -12.099304
v 62.230530 16.822309 -12.099304
v 95.379028 16.822308 -7.539978
v 96.258850 12.207487 -12.099304
v 65.871277 234.153168 -12.099304
v 27.041931 234.153168 -12.099304
v 49.858704 236.980316 -12.099304
v 50.036926 234.153168 -7.976685
vt 0.496057 0.152314
vt 0.496057 0.152314
vt 0.496057 0.152314
vt 0.496057 0.152314
vt 0.496057 0.152314
vt 0.496057 0.152314
vt 0.496057 0.152314
vt 0.496057 0.152314
vt 0.496057 0.152314
vt 0.496057 0.152314
vt 0.496057 0.152314
vt 0.496057 0.152314
vt 0.496057 0.152314
vt 0.496057 0.152314
vt 0.496057 0.152314
vt 0.496057 0.152314
vt 0.496057 0.152314
vt 0.496057 0.152314
vt 0.496057 0.152314
vt 0.496057 0.152314
vt 0.496057 0.152314
vt 0.496057 0.152314
vt 0.496057 0.152314
vt 0.496057 0.152314
vt 0.496057 0.152314
vt 0.068113 0.991279
vt 0.182077 0.991279
vt 0.182077 0.991279
vt 0.068113 0.991279
vt 0.068113 0.758628
vt 0.182077 0.758628
vt 0.182077 0.758628
vt 0.068113 0.758628
vt 0.496057 0.152314
vt 0.496057 0.152314
vt 0.496057 0.152314
vt 0.496057 0.152314
vt 0.496057 0.152314
vt 0.496057 0.152314
vt 0.496057 0.152314
vt 0.496057 0.152314
vt 0.496057 0.152314
vt 0.496057 0.152314
vt 0.496057 0.152314
vt 0.496057 0.152314
vt 0.496057 0.152314
vt 0.496057 0.152314
vt 0.496057 0.152314
vt 0.496057 0.152314
vt 0.496057 0.152314
vt 0.496057 0.152314
vt 0.496057 0.152314
vt 0.496057 0.152314
vt 0.496057 0.152314
vt 0.496057 0.152314
vt 0.496057 0.152314
vt 0.496057 0.152314
vt 0.496057 0.152314
vt 0.496057 0.152314
vt 0.496057 0.152314
vt 0.496057 0.152314
vt 0.496057 0.152314
vt 0.496057 0.152314
vt 0.496057 0.152314
vt 0.496057 0.152314
vt 0.496057 0.152314
vt 0.496057 0.152314
vt 0.496057 0.152314
vt 0.496057 0.152314
vt 0.496057 0.152314
vt 0.496057 0.152314
vt 0.496057 0.152314
vt 0.496057 0.152314
vt 0.496057 0.152314
vt 0.496057 0.152314
vt 0.496057 0.152314
vt 0.496057 0.152314
vt 0.496057 0.152314
vt 0.496057 0.152314
vt 0.496057 0.152314
vt 0.496057 0.152314
vt 0.496057 0.152314
vt 0.496057 0.152314
vn 0.000000 0.000000 1.000000
vn 0.000000 0.000000 1.000000
vn 0.000000 0.000000 1.000000
vn 0.000000 0.000000 1.000000
vn 0.807259 0.590197 0.000000
vn 0.807259 0.590197 0.000000
vn 0.807259 0.590197 0.000000
vn 0.807259 0.590197 0.000000
vn -0.000000 0.000000 -1.000000
vn -0.000000 0.000000 -1.000000
vn -0.000000 0.000000 -1.000000
vn -0.851143 -0.524934 0.000000
vn -0.851143 -0.524934 0.000000
vn -0.851143 -0.524934 0.000000
vn -0.851143 -0.524934 0.000000
vn 0.896826 -0.442383 0.000000
vn 0.896826 -0.442383 0.000000
vn 0.896826 -0.442383 0.000000
vn 0.896826 -0.442383 0.000000
vn -0.898194 0.439599 0.000003
vn -0.898194 0.439599 0.000003
vn -0.898194 0.439599 0.000003
vn -0.898194 0.439599 0.000003
vn -0.324054 0.116546 0.938833
vn -0.324054 0.116546 0.938833
vn -0.324054 0.116546 0.938832
vn -0.295762 0.222949 0.928880
vn -0.295762 0.222949 0.928880
vn -0.295762 0.222949 0.928880
vn -0.504537 0.287603 -0.814080
vn -0.504537 0.287603 -0.814080
vn -0.504537 0.287603 -0.814080
vn -0.526348 0.160595 -0.834965
vn -0.526348 0.160595 -0.834965
vn -0.526348 0.160595 -0.834965
vn -0.000000 0.000000 1.000000
vn -0.000000 0.000000 1.000000
vn -0.000000 0.000000 1.000000
vn -0.000000 0.000000 1.000000
vn -0.000000 0.000000 1.000000
vn -0.000000 0.000000 1.000000
vn -0.000000 0.000000 1.000000
vn -0.898194 0.439600 0.000000
vn -0.898194 0.439600 0.000000
vn -0.898194 0.439600 0.000000
vn -0.898194 0.439600 0.000000
vn -0.897613 0.440779 0.002124
vn -0.897613 0.440779 0.002124
vn -0.897613 0.440779 0.002124
vn -0.897613 0.440779 0.002124
vn -0.898054 0.439883 0.001513
vn -0.898054 0.439883 0.001513
vn -0.898054 0.439883 0.001513
vn -0.898054 0.439883 0.001513
vn 0.000000 0.000000 -1.000000
vn 0.000000 0.000000 -1.000000
vn 0.000000 0.000000 -1.000000
vn 0.000000 0.000000 -1.000000
vn 0.000000 0.000000 -1.000000
vn 0.000000 0.000000 -1.000000
vn 0.000000 0.000000 -1.000000
vn 0.000000 0.000000 -1.000000
vn 0.000000 1.000000 0.000000
vn 0.000000 1.000000 0.000000
vn 0.000000 1.000000 0.000000
vn 0.000000 1.000000 0.000000
vn 0.000000 -1.000000 0.000000
vn 0.000000 -1.000000 0.000000
vn 0.000000 -1.000000 0.000000
vn 0.000000 -1.000000 0.000000
vn 1.000000 0.000000 0.000000
vn 1.000000 0.000000 0.000000
vn 1.000000 0.000000 0.000000
vn 1.000000 0.000000 0.000000
vn -1.000000 0.000000 0.000000
vn -1.000000 0.000000 0.000000
vn -1.000000 0.000000 0.000000
vn -1.000000 0.000000 0.000000
vn 0.000000 0.000000 1.000000
vn 0.000000 0.000000 1.000000
vn 0.000000 0.000000 1.000000
vn 0.000000 0.000000 1.000000
vn 0.000000 0.000000 -1.000000
vn 0.000000 0.000000 -1.000000
vn 0.000000 0.000000 -1.000000
vn 0.000000 0.000000 -1.000000
vn 0.000000 0.000000 1.000000
vn 0.000000 0.000000 1.000000
vn 0.000000 0.000000 1.000000
vn 0.000000 0.000000 1.000000
vn 1.000000 0.000000 0.000000
vn 1.000000 0.000000 0.000000
vn 1.000000 0.000000 0.000000
vn 1.000000 0.000000 0.000000
vn 0.000000 0.000000 -1.000000
vn 0.000000 0.000000 -1.000000
vn 0.000000 0.000000 -1.000000
vn -1.000000 0.000000 0.000000
vn -1.000000 0.000000 0.000000
vn -1.000000 0.000000 0.000000
vn -1.000000 0.000000 0.000000
vn 0.000000 -1.000000 0.000000
vn 0.000000 -1.000000 0.000000
vn 0.000000 -1.000000 0.000000
vn 0.000000 -1.000000 0.000000
vn -0.000000 1.000000 0.000000
vn -0.000000 1.000000 0.000000
vn -0.000000 1.000000 0.000000
vn -0.000000 1.000000 0.000000
vn 1.000000 0.000000 0.000000
vn 1.000000 0.000000 0.000000
vn 1.000000 0.000000 0.000000
vn 1.000000 0.000000 0.000000
vn 0.000000 0.000000 -1.000000
vn 0.000000 0.000000 -1.000000
vn 0.000000 0.000000 -1.000000
vn 0.000000 0.000000 -1.000000
vn -0.108799 0.458169 0.882181
vn -0.108799 0.458169 0.882181
vn -0.108799 0.458169 0.882181
vn 0.198390 0.477385 0.856005
vn 0.198390 0.477385 0.856005
vn 0.198390 0.477385 0.856005
vn -0.126467 -0.552641 0.823768
vn -0.126467 -0.552641 0.823768
vn -0.126467 -0.552641 0.823768
vn 0.158027 -0.691073 0.705298
vn 0.158027 -0.691073 0.705298
vn 0.158027 -0.691073 0.705298
vn -1.000000 0.000000 0.000000
vn -1.000000 0.000000 0.000000
vn -1.000000 0.000000 0.000000
vn -1.000000 0.000000 0.000000
vn 0.000000 0.000000 1.000000
vn 0.000000 0.000000 1.000000
vn 0.000000 0.000000 1.000000
vn 0.000000 0.000000 1.000000
vn 0.000000 1.000000 0.000000
vn 0.000000 1.000000 0.000000
vn 0.000000 1.000000 0.000000
vn 0.000000 1.000000 0.000000
vn 0.096122 0.708776 -0.698854
vn 0.096122 0.708776 -0.698854
vn 0.096122 0.708776 -0.698854
vn -0.228396 0.661858 -0.713988
vn -0.228396 0.661858 -0.713988
vn -0.228396 0.661858 -0.713988
vn 0.101406 -0.818410 -0.565616
vn 0.101406 -0.818410 -0.565616
vn 0.101406 -0.818410 -0.565616
vn -0.144592 -0.818947 -0.555355
vn -0.144592 -0.818947 -0.555355
vn -0.144592 -0.818947 -0.555355
vn 0.000000 0.000000 1.000000
vn 0.000000 0.000000 1.000000
vn 0.000000 0.000000 1.000000
vn 0.000000 0.000000 1.000000
vn 0.000000 0.000000 1.000000
vn 0.000000 0.000000 1.000000
vn 0.000000 0.000000 1.000000
vn 0.000000 -0.000008 1.000000
vn 0.000000 -0.000008 1.000000
vn 0.000000 -0.000008 1.000000
vn 0.000000 -0.000008 1.000000
vn 0.000001 -0.000004 1.000000
vn 0.000001 -0.000004 1.000000
vn 0.000001 -0.000004 1.000000
vn 0.000000 -1.000000 -0.000001
vn 0.000000 -1.000000 -0.000001
vn 0.000000 -1.000000 -0.000001
vn 0.000000 -1.000000 -0.000001
vn -0.000000 1.000000 0.000000
vn -0.000000 1.000000 0.000000
vn -0.000000 1.000000 0.000000
vn -0.000000 1.000000 0.000000
vn 0.000000 1.000000 -0.000000
vn 0.000000 1.000000 -0.000000
vn 0.000000 1.000000 -0.000000
vn 0.000000 1.000000 -0.000000
vn 0.000000 1.000000 0.000000
vn 0.000000 1.000000 0.000000
vn 0.000000 1.000000 0.000000
vn 0.000000 1.000000 0.000000
vn -0.000000 0.000000 -1.000000
vn -0.000000 0.000000 -1.000000
vn -0.000000 0.000000 -1.000000
vn -0.000000 0.000000 -1.000000
vn 0.000000 0.000000 -1.000000
vn 0.000000 0.000000 -1.000000
vn 0.000000 0.000000 -1.000000
vn 0.000000 0.000000 -1.000000
vn 0.000000 0.000000 -1.000000
vn 0.000000 0.000000 -1.000000
vn 0.000000 0.000000 -1.000000
vn 0.000000 0.000000 -1.000000
vn 0.000000 0.000000 -1.000000
vn 0.000000 0.000000 -1.000000
vn 0.000000 0.000000 -1.000000
vn 0.000000 -1.000000 0.000000
vn 0.000000 -1.000000 0.000000
vn 0.000000 -1.000000 0.000000
vn 0.000000 -1.000000 0.000000
vn 0.000000 -1.000000 0.000000
vn 0.000000 -1.000000 0.000000
vn 0.000000 -1.000000 0.000000
vn 0.000000 -1.000000 0.000000
vn 0.000000 -1.000000 0.000000
vn 0.000000 -1.000000 0.000000
vn 0.000000 -1.000000 0.000000
vn 0.000000 -1.000000 0.000000
s off
f 1/1/1 2/2/2 12/3/3 9/4/4
f 3/5/5 4/6/6 6/7/7 5/8/8
f 16/9/9 6/7/10 8/10/11
f 7/11/12 8/10/13 2/12/14 1/13/15
f 2/2/16 8/14/17 6/15/18 4/6/19
f 15/16/20 11/17/21 10/18/22 3/5/23
f 10/18/24 11/17/25 12/3/26
f 12/3/27 11/17/28 9/4/29
f 14/19/30 15/16/31 16/20/32
f 16/20/33 15/16/34 13/21/35
f 12/3/36 4/6/37 3/5/38 10/18/39
f 12/3/40 2/2/41 4/6/42
f 15/16/43 3/5/44 5/22/45 13/21/46
f 7/23/47 1/1/48 9/4/49 11/17/50
f 7/23/51 11/17/52 15/16/53 14/19/54
f 16/9/55 8/10/56 7/11/57 14/24/58
f 5/8/59 6/7/60 16/9/61 13/25/62
f 19/26/63 20/27/64 22/28/65 21/29/66
f 23/30/67 24/31/68 18/32/69 17/33/70
f 18/32/71 24/31/72 22/28/73 20/27/74
f 23/30/75 17/33/76 19/26/77 21/29/78
f 18/32/79 20/27/80 19/26/81 17/33/82
f 22/28/83 24/31/84 23/30/85 21/29/86
f 25/34/87 26/35/88 44/36/89 41/37/90
f 27/38/91 28/39/92 30/40/93 29/41/94
f 52/42/95 30/40/96 32/43/97
f 31/44/98 32/43/99 26/45/100 25/46/101
f 26/35/102 32/47/103 30/48/104 28/39/105
f 51/49/106 43/50/107 42/51/108 27/38/109
f 35/52/110 36/53/111 38/54/112 37/55/113
f 39/56/114 55/57/115 54/58/116 40/59/117
f 42/51/118 43/50/119 44/36/120
f 44/36/121 43/50/122 41/37/123
f 46/60/124 47/61/125 48/62/126
f 48/62/127 47/61/128 45/63/129
f 39/56/130 40/59/131 34/64/132 33/65/133
f 35/52/134 47/61/135 46/60/136 36/53/137
f 39/66/138 33/67/139 35/52/140 37/68/141
f 50/69/142 51/49/143 52/70/144
f 52/70/145 51/49/146 49/71/147
f 54/58/148 55/57/149 56/72/150
f 56/72/151 55/57/152 53/73/153
f 44/36/154 28/39/155 27/38/156 42/51/157
f 44/36/158 26/35/159 28/39/160
f 47/61/161 33/67/162 34/74/163 45/63/164
f 33/67/165 47/61/166 35/52/167
f 38/75/168 48/62/169 56/76/170 53/77/171
f 51/49/172 27/38/173 29/78/174 49/71/175
f 31/79/176 25/34/177 41/37/178 43/50/179
f 31/79/180 43/50/181 51/49/182 50/69/183
f 52/42/184 32/43/185 31/44/186 50/80/187
f 29/41/188 30/40/189 52/42/190 49/81/191
f 37/55/192 38/54/193 53/73/194 55/57/195
f 37/55/196 55/57/197 39/56/198
f 36/53/199 46/60/200 48/62/201 38/75/202
f 56/76/203 34/74/204 40/82/205 54/83/206
f 56/76/207 48/62/208 45/63/209 34/74/210
