# This file uses centimeters as units for non-parametric coordinates.

v 183.481140 101.162895 -1.147156
v 67.528236 101.162895 -1.147156
v 183.481140 180.631561 -1.147156
v 67.528236 180.631561 -1.147156
v 67.528236 101.162895 0.788116
v 183.481140 101.162895 0.788116
v 67.528236 180.631561 0.788116
v 183.481140 180.631561 0.788116
vt 0.600235 0.508921
vt 0.600235 0.615675
vt 0.527070 0.615675
vt 0.527070 0.508921
vt 0.527070 0.615676
vt 0.527070 0.508921
vt 0.600235 0.508921
vt 0.600235 0.615676
vn 0.000000 0.000000 -1.000000
vn 0.000000 0.000000 -1.000000
vn 0.000000 0.000000 -1.000000
vn 0.000000 0.000000 -1.000000
vn 0.000000 0.000000 1.000000
vn 0.000000 0.000000 1.000000
vn 0.000000 0.000000 1.000000
vn 0.000000 0.000000 1.000000
s off
f 1/1/1 2/2/2 4/3/3 3/4/4
f 5/5/5 6/6/6 8/7/7 7/8/8
