# This file uses centimeters as units for non-parametric coordinates.

v 82.046051 73.858124 12.016754
v 39.684753 73.858124 12.016754
v 82.046051 192.062393 12.016754
v 39.091949 192.062393 12.016754
v 82.046051 192.062393 15.408096
v 39.091949 192.062393 15.408096
v 82.046051 73.858124 15.408096
v 39.091949 73.858124 15.408096
v 69.489761 215.908966 12.016754
v 42.225342 225.934814 12.016678
v 42.072906 225.990845 15.408096
v 69.489761 215.908966 15.408096
v 82.046051 132.850159 12.016754
v 39.684753 132.850159 12.016754
v 39.091949 132.850159 15.408096
v 82.046051 132.850159 15.408096
v 75.964981 80.993896 12.016754
v 45.150299 80.993896 12.016754
v 45.150299 129.819397 12.016754
v 75.964981 129.819397 12.016754
v 45.150299 129.819397 15.408096
v 75.964981 129.819397 15.408096
v 45.150299 80.993896 15.408096
v 75.964981 80.993896 15.408096
v 75.982819 135.917328 12.016754
v 45.132599 135.917328 12.016754
v 45.132599 187.336136 12.016754
v 75.982819 187.336136 12.016754
v 75.982819 186.117279 15.408096
v 45.132599 186.117279 15.408096
v 45.132599 135.917328 15.408096
v 75.982819 135.917328 15.408096
v 75.106964 193.402710 12.016754
v 44.817352 193.402710 12.016754
v 44.817352 218.079666 12.016754
v 66.252594 210.282089 12.016754
v 75.106964 193.402710 15.408096
v 44.817352 193.402710 15.408096
v 66.252594 211.957275 15.408096
v 44.817352 219.754883 15.408096
v 73.275436 138.202332 12.720032
v 47.839508 138.202332 12.720032
v 47.839508 184.610138 12.720032
v 73.275436 184.610138 12.720032
v 73.275436 183.486176 14.704895
v 47.839508 183.486176 14.704895
v 47.839508 138.122787 14.704895
v 73.275436 138.122787 14.704895
v 71.958298 194.523682 12.720032
v 46.984558 194.523682 12.720032
v 46.984558 215.609390 12.720032
v 64.657745 209.180267 12.720032
v 71.956802 194.624329 14.704895
v 46.982880 194.624329 14.704895
v 64.656219 210.701599 14.704895
v 46.982880 217.130722 14.704895
v 73.260651 84.635826 12.720032
v 47.854309 84.635826 12.720032
v 47.854309 127.627182 12.720032
v 73.260651 127.627182 12.720032
v 47.854309 127.627182 14.704895
v 73.260651 127.627182 14.704895
v 47.854309 84.635826 14.704895
v 73.260651 84.635826 14.704895
v 39.841003 222.820633 12.016754
v 39.091949 223.028061 15.408096
v 39.769135 153.019608 12.016754
v 39.537964 176.097763 12.016754
v 42.416687 167.353790 12.016754
v 39.433746 166.973312 13.135681
v 71.419830 73.858124 12.016830
v 56.256866 73.858124 12.016754
v 65.163269 75.990585 12.016754
v 64.905396 73.858131 13.527451
vt 0.488180 0.179454
vt 0.488226 0.179454
vt 0.488226 0.179122
vt 0.488177 0.179122
vt 0.488187 0.178912
vt 0.488232 0.178831
vt 0.488232 0.178826
vt 0.488188 0.178906
vt 0.488178 0.179130
vt 0.488226 0.179130
vt 0.488226 0.179447
vt 0.488180 0.179447
vt 0.488177 0.179803
vt 0.488231 0.179804
vt 0.488232 0.179820
vt 0.488177 0.179820
vt 0.488232 0.179484
vt 0.488232 0.179471
vt 0.488233 0.179074
vt 0.488234 0.179081
vt 0.488174 0.179471
vt 0.488173 0.179484
vt 0.488169 0.179081
vt 0.488170 0.179073
vt 0.488178 0.179068
vt 0.488228 0.179068
vt 0.488228 0.178877
vt 0.488192 0.178944
vt 0.488228 0.179063
vt 0.488179 0.179063
vt 0.488192 0.178925
vt 0.488228 0.178859
vt 0.488183 0.179782
vt 0.488225 0.179782
vt 0.488226 0.179508
vt 0.488180 0.179508
vt 0.488181 0.179500
vt 0.488226 0.179500
vt 0.488225 0.179773
vt 0.488183 0.179772
vt 0.488227 0.179794
vt 0.488181 0.179793
vt 0.488228 0.179502
vt 0.488178 0.179501
vt 0.488228 0.179489
vt 0.488179 0.179488
vt 0.488227 0.179777
vt 0.488181 0.179777
vt 0.488228 0.179466
vt 0.488178 0.179466
vt 0.488228 0.179113
vt 0.488175 0.179113
vt 0.488228 0.179117
vt 0.488176 0.179117
vt 0.488228 0.179454
vt 0.488179 0.179453
vt 0.488229 0.179076
vt 0.488175 0.179076
vt 0.488230 0.178868
vt 0.488190 0.178940
vt 0.488176 0.179068
vt 0.488229 0.179068
vt 0.488191 0.178919
vt 0.488230 0.178847
vt 0.487954 0.155718
vt 0.488004 0.155718
vt 0.488005 0.155359
vt 0.487951 0.155359
vt 0.487952 0.155367
vt 0.488004 0.155367
vt 0.488004 0.155711
vt 0.487955 0.155710
vt 0.487952 0.155300
vt 0.488006 0.155300
vt 0.488006 0.155093
vt 0.487967 0.155165
vt 0.488006 0.155295
vt 0.487953 0.155294
vt 0.487968 0.155145
vt 0.488006 0.155074
vt 0.487957 0.156073
vt 0.488004 0.156074
vt 0.488004 0.155777
vt 0.487955 0.155777
vt 0.487955 0.155768
vt 0.488004 0.155769
vt 0.488004 0.156064
vt 0.487958 0.156063
vt 0.488234 0.178857
vt 0.488234 0.178851
vt 0.488233 0.179347
vt 0.488233 0.179190
vt 0.488231 0.179250
vt 0.488233 0.179252
vt 0.488190 0.179820
vt 0.488210 0.179820
vt 0.488198 0.179816
vt 0.488199 0.179812
vn 0.000000 0.000000 -1.000000
vn 0.000000 0.000000 -1.000000
vn 0.000000 0.000000 -1.000000
vn 0.000000 0.000000 -1.000000
vn 0.345131 0.938555 0.000005
vn 0.345131 0.938555 0.000005
vn 0.345131 0.938555 0.000005
vn 0.345131 0.938555 0.000005
vn 0.000000 0.000000 1.000000
vn 0.000000 0.000000 1.000000
vn 0.000000 0.000000 1.000000
vn 0.000000 0.000000 1.000000
vn -0.000000 -1.000000 0.000002
vn -0.000000 -1.000000 0.000002
vn -0.000000 -1.000000 0.000002
vn -0.000000 -1.000000 0.000002
vn -0.988877 0.000000 -0.148738
vn -0.988877 0.000000 -0.148738
vn -0.988877 0.000000 -0.148738
vn 1.000000 0.000000 0.000000
vn 1.000000 0.000000 0.000000
vn 1.000000 0.000000 0.000000
vn 1.000000 0.000000 0.000000
vn 0.000000 0.000000 -1.000000
vn 0.000000 0.000000 -1.000000
vn 0.000000 0.000000 -1.000000
vn 0.000000 0.000000 -1.000000
vn -0.993845 0.012061 -0.110125
vn -0.993845 0.012061 -0.110125
vn -0.993845 0.012061 -0.110125
vn -0.993845 0.012061 -0.110125
vn 0.000000 0.000000 1.000000
vn 0.000000 0.000000 1.000000
vn 0.000000 0.000000 1.000000
vn 0.000000 0.000000 1.000000
vn 0.884835 0.465905 0.000000
vn 0.884835 0.465905 0.000000
vn 0.884835 0.465905 0.000000
vn 0.884835 0.465905 0.000000
vn 0.000000 0.000000 -1.000000
vn 0.000000 0.000000 -1.000000
vn 0.000000 0.000000 -1.000000
vn 0.000000 0.000000 -1.000000
vn -0.985064 0.000000 -0.172188
vn -0.985064 0.000000 -0.172188
vn -0.985064 0.000000 -0.172188
vn -0.985064 0.000000 -0.172188
vn 0.000000 0.000000 1.000000
vn 0.000000 0.000000 1.000000
vn 0.000000 0.000000 1.000000
vn 0.000000 0.000000 1.000000
vn 1.000000 0.000000 0.000000
vn 1.000000 0.000000 0.000000
vn 1.000000 0.000000 0.000000
vn 1.000000 0.000000 0.000000
vn 0.000000 0.000000 -1.000000
vn 0.000000 0.000000 -1.000000
vn 0.000000 0.000000 -1.000000
vn 0.000000 0.000000 -1.000000
vn 0.000000 0.000000 -1.000000
vn 0.000000 0.000000 -1.000000
vn 0.000000 0.000000 -1.000000
vn 0.000000 0.000000 -1.000000
vn 0.000000 0.000000 -1.000000
vn 0.000000 0.000000 -1.000000
vn 0.000000 0.000000 -1.000000
vn 0.000000 0.000000 -1.000000
vn -0.000000 0.000000 -1.000000
vn -0.000000 0.000000 -1.000000
vn -0.000000 0.000000 -1.000000
vn -0.000000 0.000000 -1.000000
vn 0.000000 0.000000 1.000000
vn 0.000000 0.000000 1.000000
vn 0.000000 0.000000 1.000000
vn 0.000000 0.000000 1.000000
vn -0.000000 0.000000 1.000000
vn -0.000000 0.000000 1.000000
vn -0.000000 0.000000 1.000000
vn -0.000000 0.000000 1.000000
vn 0.000000 0.000000 1.000000
vn 0.000000 0.000000 1.000000
vn 0.000000 0.000000 1.000000
vn 0.000000 0.000000 1.000000
vn 0.000000 0.000000 1.000000
vn 0.000000 0.000000 1.000000
vn 0.000000 0.000000 1.000000
vn 0.000000 0.000000 1.000000
vn 0.000000 0.000000 -1.000000
vn 0.000000 0.000000 -1.000000
vn 0.000000 0.000000 -1.000000
vn 0.000000 0.000000 -1.000000
vn -0.000001 0.000000 -1.000000
vn -0.000001 0.000000 -1.000000
vn -0.000001 0.000000 -1.000000
vn 0.000000 0.000000 -1.000000
vn 0.000000 0.000000 -1.000000
vn 0.000000 0.000000 -1.000000
vn 0.000000 0.000000 -1.000000
vn 0.000000 0.000000 -1.000000
vn 0.000000 0.000000 -1.000000
vn 0.000000 0.000000 -1.000000
vn 0.000000 0.000000 -1.000000
vn 0.000000 0.000000 1.000000
vn 0.000000 0.000000 1.000000
vn 0.000000 0.000000 1.000000
vn 0.000000 0.000000 1.000000
vn 0.000000 0.000000 1.000000
vn 0.000000 0.000000 1.000000
vn 0.000000 0.000000 1.000000
vn 0.000000 0.000000 1.000000
vn 0.000000 0.000000 1.000000
vn 0.000000 0.000000 1.000000
vn 0.000000 0.000000 1.000000
vn 0.000000 0.000000 1.000000
vn -0.000000 0.000000 1.000000
vn -0.000000 0.000000 1.000000
vn -0.000000 0.000000 1.000000
vn -0.000000 0.000000 1.000000
vn 0.000000 0.000000 -1.000000
vn 0.000000 0.000000 -1.000000
vn 0.000000 0.000000 -1.000000
vn 0.000000 0.000000 -1.000000
vn -0.000013 -0.000014 -1.000000
vn -0.000013 -0.000014 -1.000000
vn -0.000013 -0.000014 -1.000000
vn -0.000000 0.000000 -1.000000
vn -0.000000 0.000000 -1.000000
vn -0.000000 0.000000 -1.000000
vn -0.000000 0.000000 -1.000000
vn 0.000000 0.000000 1.000000
vn 0.000000 0.000000 1.000000
vn 0.000000 0.000000 1.000000
vn 0.000000 0.000000 1.000000
vn -0.000000 0.000000 1.000000
vn -0.000000 0.000000 1.000000
vn -0.000000 0.000000 1.000000
vn -0.000000 0.000000 1.000000
vn 0.000000 0.000000 1.000000
vn 0.000000 0.000000 1.000000
vn 0.000000 0.000000 1.000000
vn 0.000000 0.000000 1.000000
vn 0.000000 0.294162 -0.955755
vn 0.000000 0.294162 -0.955755
vn 0.000000 0.294162 -0.955755
vn 0.000000 0.294162 -0.955755
vn 0.251460 0.000000 -0.967868
vn 0.251460 0.000000 -0.967868
vn 0.251460 0.000000 -0.967868
vn 0.251460 0.000000 -0.967868
vn 0.000000 -0.249811 -0.968295
vn 0.000000 -0.249811 -0.968295
vn 0.000000 -0.249811 -0.968295
vn 0.000000 -0.249811 -0.968295
vn -0.251419 0.000000 -0.967878
vn -0.251419 0.000000 -0.967878
vn -0.251419 0.000000 -0.967878
vn -0.251419 0.000000 -0.967878
vn 0.000000 -0.258203 0.966091
vn 0.000000 -0.258203 0.966091
vn 0.000000 -0.258203 0.966091
vn 0.000000 -0.258203 0.966091
vn 0.251435 0.000000 0.967874
vn 0.251435 0.000000 0.967874
vn 0.251435 0.000000 0.967874
vn 0.251435 0.000000 0.967874
vn 0.000000 0.303780 0.952742
vn 0.000000 0.303780 0.952742
vn 0.000000 0.303780 0.952742
vn 0.000000 0.303780 0.952742
vn -0.251393 0.000000 0.967885
vn -0.251393 0.000000 0.967885
vn -0.251393 0.000000 0.967885
vn -0.251393 0.000000 0.967885
vn 0.000000 0.531442 -0.847095
vn 0.000000 0.531442 -0.847095
vn 0.000000 0.531442 -0.847095
vn 0.000000 0.531442 -0.847095
vn 0.308663 0.000000 -0.951171
vn 0.308663 0.000000 -0.951171
vn 0.308663 0.000000 -0.951171
vn 0.308663 0.000000 -0.951171
vn -0.138970 -0.382021 -0.913645
vn -0.138970 -0.382022 -0.913645
vn -0.138970 -0.382021 -0.913645
vn -0.138970 -0.382021 -0.913645
vn -0.281844 -0.144380 -0.948535
vn -0.281844 -0.144380 -0.948535
vn -0.281844 -0.144380 -0.948535
vn -0.281844 -0.144380 -0.948535
vn 0.000000 0.498883 0.866669
vn 0.000000 0.498884 0.866669
vn 0.000000 0.498883 0.866669
vn 0.000000 0.498883 0.866669
vn -0.280780 -0.130978 0.950793
vn -0.280780 -0.130978 0.950793
vn -0.280780 -0.130978 0.950793
vn -0.280780 -0.130978 0.950793
vn -0.129000 -0.354616 0.926070
vn -0.129000 -0.354616 0.926070
vn -0.129000 -0.354616 0.926070
vn -0.129000 -0.354616 0.926070
vn 0.308849 0.000000 0.951111
vn 0.308849 0.000000 0.951111
vn 0.308849 0.000000 0.951111
vn 0.308849 0.000000 0.951111
vn 0.000000 0.189603 -0.981861
vn 0.000000 0.189603 -0.981861
vn 0.000000 0.189603 -0.981861
vn 0.000000 0.189603 -0.981861
vn 0.251713 0.000000 -0.967802
vn 0.251713 0.000000 -0.967802
vn 0.251713 0.000000 -0.967802
vn 0.251713 0.000000 -0.967802
vn 0.000000 -0.305473 -0.952201
vn 0.000000 -0.305473 -0.952201
vn 0.000000 -0.305473 -0.952201
vn 0.000000 -0.305473 -0.952201
vn -0.251685 0.000000 -0.967809
vn -0.251685 0.000000 -0.967809
vn -0.251685 0.000000 -0.967809
vn -0.251685 0.000000 -0.967809
vn 0.000000 -0.305442 0.952211
vn 0.000000 -0.305442 0.952211
vn 0.000000 -0.305442 0.952211
vn 0.000000 -0.305442 0.952211
vn 0.251687 0.000000 0.967809
vn 0.251687 0.000000 0.967809
vn 0.251687 0.000000 0.967809
vn 0.251687 0.000000 0.967809
vn 0.000000 0.189583 0.981865
vn 0.000000 0.189583 0.981865
vn 0.000000 0.189583 0.981865
vn 0.000000 0.189583 0.981865
vn -0.251659 0.000000 0.967816
vn -0.251660 0.000000 0.967816
vn -0.251660 0.000000 0.967816
vn -0.251660 0.000000 0.967816
vn -0.743819 0.656708 -0.124372
vn -0.743819 0.656708 -0.124373
vn -0.743819 0.656708 -0.124373
vn -0.743819 0.656708 -0.124373
vn -0.000000 -0.000006 -1.000000
vn -0.000000 -0.000006 -1.000000
vn -0.000000 -0.000006 -1.000000
vn -0.000000 -0.000006 -1.000000
vn 0.000000 0.000000 1.000000
vn 0.000000 0.000000 1.000000
vn 0.000000 0.000000 1.000000
vn 0.000000 0.000000 1.000000
vn 0.000000 0.000000 -1.000000
vn 0.000000 0.000000 -1.000000
vn 0.000000 0.000000 -1.000000
vn 0.000000 0.000000 -1.000000
vn 0.000000 0.000000 1.000000
vn 0.000000 0.000000 1.000000
vn 0.000000 0.000000 1.000000
vn -0.357825 0.066091 -0.931447
vn -0.357825 0.066091 -0.931447
vn -0.357825 0.066091 -0.931447
vn -0.336626 -0.110825 -0.935094
vn -0.336626 -0.110825 -0.935094
vn -0.336626 -0.110825 -0.935094
vn -0.998324 -0.016080 -0.055599
vn -0.998324 -0.016080 -0.055599
vn -0.998324 -0.016080 -0.055599
vn -0.998324 -0.016080 -0.055599
vn -0.979877 -0.000663 -0.199604
vn -0.979877 -0.000663 -0.199604
vn -0.979877 -0.000663 -0.199604
vn -0.979877 -0.000663 -0.199604
vn 0.000000 0.000000 -1.000000
vn 0.000000 0.000000 -1.000000
vn 0.000000 0.000000 -1.000000
vn 0.000000 0.000000 -1.000000
vn 0.000000 0.000000 -1.000000
vn 0.000000 0.000000 -1.000000
vn 0.000000 0.000000 -1.000000
vn 0.000000 0.000000 -1.000000
vn 0.139729 -0.583591 -0.799936
vn 0.139729 -0.583591 -0.799936
vn 0.139729 -0.583591 -0.799936
vn 0.000000 -1.000000 -0.000001
vn 0.000000 -1.000000 -0.000001
vn 0.000000 -1.000000 -0.000001
vn 0.000000 -1.000000 -0.000001
vn 0.000000 -1.000000 -0.000003
vn 0.000000 -1.000000 -0.000003
vn 0.000000 -1.000000 -0.000003
vn -0.000001 -0.000010 -1.000000
vn -0.000001 -0.000010 -1.000000
vn -0.000001 -0.000010 -1.000000
vn -0.000001 -0.000010 -1.000000
vn 0.000000 0.000000 -1.000000
vn 0.000000 0.000000 -1.000000
vn 0.000000 0.000000 -1.000000
vn -0.188290 -0.552465 -0.811991
vn -0.188290 -0.552465 -0.811991
vn -0.188290 -0.552465 -0.811991
s off
f 41/65/1 42/66/2 43/67/3 44/68/4
f 9/5/5 10/6/6 11/7/7 12/8/8
f 45/69/9 46/70/10 47/71/11 48/72/12
f 7/13/13 74/98/14 71/95/15 1/16/16
f 70/94/17 15/18/18 6/19/19
f 16/21/20 13/22/21 3/23/22 5/24/23
f 49/73/24 50/74/25 51/75/26 52/76/27
f 4/20/28 6/19/29 66/90/30 65/89/31
f 54/77/32 53/78/33 55/79/34 56/80/35
f 5/24/36 3/23/37 9/5/38 12/8/39
f 57/81/40 58/82/41 59/83/42 60/84/43
f 2/15/44 8/14/45 15/18/46 14/17/47
f 62/85/48 61/86/49 63/87/50 64/88/51
f 7/13/52 1/16/53 13/22/54 16/21/55
f 18/41/56 73/97/57 72/96/58 2/15/59
f 2/15/60 14/17/61 19/43/62 18/41/63
f 14/17/64 13/22/65 20/44/66 19/43/67
f 13/22/68 1/16/69 17/42/70 20/44/71
f 16/21/72 15/18/73 21/45/74 22/46/75
f 15/18/76 8/14/77 23/47/78 21/45/79
f 8/14/80 7/13/81 24/48/82 23/47/83
f 7/13/84 16/21/85 22/46/86 24/48/87
f 13/22/88 14/17/89 26/49/90 25/50/91
f 26/49/92 69/93/93 27/51/94
f 4/20/95 3/23/96 28/52/97 27/51/98
f 3/23/99 13/22/100 25/50/101 28/52/102
f 5/24/103 6/19/104 30/53/105 29/54/106
f 6/19/107 15/18/108 31/55/109 30/53/110
f 15/18/111 16/21/112 32/56/113 31/55/114
f 16/21/115 5/24/116 29/54/117 32/56/118
f 3/23/119 4/20/120 34/57/121 33/58/122
f 35/59/123 65/89/124 10/6/125
f 9/5/126 3/23/127 33/58/128 36/60/129
f 6/19/130 5/24/131 37/61/132 38/62/133
f 5/24/134 12/8/135 39/63/136 37/61/137
f 12/8/138 11/7/139 40/64/140 39/63/141
f 25/50/142 26/49/143 42/2/144 41/1/145
f 26/49/146 27/51/147 43/3/148 42/2/149
f 27/51/150 28/52/151 44/4/152 43/3/153
f 28/52/154 25/50/155 41/1/156 44/4/157
f 29/54/158 30/53/159 46/10/160 45/9/161
f 30/53/162 31/55/163 47/11/164 46/10/165
f 31/55/166 32/56/167 48/12/168 47/11/169
f 32/56/170 29/54/171 45/9/172 48/12/173
f 33/58/174 34/57/175 50/26/176 49/25/177
f 34/57/178 35/59/179 51/27/180 50/26/181
f 35/59/182 36/60/183 52/28/184 51/27/185
f 36/60/186 33/58/187 49/25/188 52/28/189
f 38/62/190 37/61/191 53/30/192 54/29/193
f 37/61/194 39/63/195 55/31/196 53/30/197
f 39/63/198 40/64/199 56/32/200 55/31/201
f 40/64/202 38/62/203 54/29/204 56/32/205
f 17/42/206 18/41/207 58/34/208 57/33/209
f 18/41/210 19/43/211 59/35/212 58/34/213
f 19/43/214 20/44/215 60/36/216 59/35/217
f 20/44/218 17/42/219 57/33/220 60/36/221
f 22/46/222 21/45/223 61/38/224 62/37/225
f 21/45/226 23/47/227 63/39/228 61/38/229
f 23/47/230 24/48/231 64/40/232 63/39/233
f 24/48/234 22/46/235 62/37/236 64/40/237
f 65/89/238 66/90/239 11/7/240 10/6/241
f 10/6/242 9/5/243 36/60/244 35/59/245
f 40/64/246 66/90/247 6/19/248 38/62/249
f 4/20/250 65/89/251 35/59/252 34/57/253
f 11/7/254 66/90/255 40/64/256
f 70/94/257 69/93/258 67/91/259
f 68/92/260 69/93/261 70/94/262
f 70/94/263 6/19/264 4/20/265 68/92/266
f 14/17/267 15/18/268 70/94/269 67/91/270
f 14/17/271 67/91/272 69/93/273 26/49/274
f 27/51/275 69/93/276 68/92/277 4/20/278
f 73/97/279 74/98/280 72/96/281
f 74/98/282 8/14/283 2/15/284 72/96/285
f 7/13/286 8/14/287 74/98/288
f 1/16/289 71/95/290 73/97/291 17/42/292
f 17/42/293 73/97/294 18/41/295
f 71/95/296 74/98/297 73/97/298
