# This file uses centimeters as units for non-parametric coordinates.

v 65.631683 84.650177 -0.432648
v 119.655960 84.650177 -0.432648
v 65.631683 151.550705 -0.432648
v 119.655960 151.550705 -0.432648
v 65.631683 151.550705 -0.651337
v 119.655960 151.550705 -0.651337
v 65.631683 84.650177 -0.651337
v 119.655960 84.650177 -0.651337
vt 0.538783 0.531501
vt 0.588522 0.531501
vt 0.588522 0.593095
vt 0.538783 0.593095
vt 0.538783 0.531501
vt 0.588522 0.531501
vt 0.588522 0.593095
vt 0.538783 0.593095
vn 0.000000 0.000000 1.000000
vn 0.000000 0.000000 1.000000
vn 0.000000 0.000000 1.000000
vn 0.000000 0.000000 1.000000
vn 0.000000 0.000000 -1.000000
vn 0.000000 0.000000 -1.000000
vn 0.000000 0.000000 -1.000000
vn 0.000000 0.000000 -1.000000
s off
f 1/1/1 2/2/2 4/3/3 3/4/4
f 5/5/5 6/6/6 8/7/7 7/8/8
