# This file uses centimeters as units for non-parametric coordinates.

v 71.764221 126.511078 8.752602
v 71.764221 197.888962 8.752747
v 98.607788 126.511086 37.312775
v 98.607788 197.888962 37.312935
v 108.510132 126.511086 42.230530
v 108.510132 197.888962 42.230530
v 142.033691 126.511086 42.230530
v 142.033691 197.888962 42.230530
v 178.769531 126.511086 8.752602
v 178.769531 197.888962 8.752747
v 151.925995 126.511086 37.312775
v 151.925995 197.888962 37.312935
v 71.764221 126.511078 8.752602
v 71.764221 197.888962 8.752747
v 98.607788 126.511086 37.312775
v 98.607788 197.888962 37.312935
v 108.510132 126.511086 42.230530
v 108.510132 197.888962 42.230530
v 142.033691 126.511086 42.230530
v 142.033691 197.888962 42.230530
v 178.769531 126.511086 8.752602
v 178.769531 197.888962 8.752747
v 151.925995 126.511086 37.312775
v 151.925995 197.888962 37.312935
vt 0.542515 0.523805
vt 0.584790 0.523805
vt 0.584790 0.600791
vt 0.542516 0.600791
vt 0.584790 0.523806
vt 0.584790 0.600791
vt 0.542516 0.600791
vt 0.542516 0.523806
vt 0.584790 0.523805
vt 0.584790 0.600791
vt 0.542516 0.600791
vt 0.542516 0.523805
vt 0.542516 0.523806
vt 0.584790 0.523806
vt 0.584790 0.600791
vt 0.542516 0.600791
vt 0.548221 0.529440
vt 0.579085 0.529440
vt 0.579085 0.595156
vt 0.548221 0.595156
vt 0.548221 0.595156
vt 0.548221 0.529440
vt 0.579085 0.529440
vt 0.579085 0.595156
vn -0.728666 -0.000002 0.684869
vn -0.728666 -0.000002 0.684869
vn -0.728666 -0.000002 0.684869
vn -0.728666 -0.000002 0.684869
vn 0.000000 0.000000 1.000000
vn 0.000000 0.000000 1.000000
vn 0.000000 0.000000 1.000000
vn 0.000000 0.000000 1.000000
vn 0.728666 -0.000001 0.684869
vn 0.728666 -0.000001 0.684869
vn 0.728666 -0.000001 0.684869
vn 0.728666 -0.000001 0.684869
vn 0.728666 0.000001 -0.684869
vn 0.728666 0.000001 -0.684869
vn 0.728666 0.000001 -0.684869
vn 0.728666 0.000001 -0.684869
vn 0.000000 0.000000 -1.000000
vn 0.000000 0.000000 -1.000000
vn 0.000000 0.000000 -1.000000
vn 0.000000 0.000000 -1.000000
vn -0.728666 0.000001 -0.684869
vn -0.728666 0.000001 -0.684869
vn -0.728666 0.000001 -0.684869
vn -0.728666 0.000001 -0.684869
s off
f 1/1/1 3/2/2 4/3/3 2/4/4
f 5/17/5 7/18/6 8/19/7 6/20/8
f 9/5/9 10/6/10 12/7/11 11/8/12
f 13/9/13 14/10/14 16/11/15 15/12/16
f 17/21/17 18/22/18 20/23/19 19/24/20
f 21/13/21 23/14/22 24/15/23 22/16/24
