# This file uses centimeters as units for non-parametric coordinates.

v 0.000000 1.303692 4.487076
v 249.999664 1.303692 4.487076
v 0.000000 250.000000 4.487076
v 249.999664 250.000000 4.487076
v 0.000000 250.000000 -4.486923
v 249.999664 250.000000 -4.486923
v 0.000000 1.303692 -4.486923
v 249.999664 1.303692 -4.486923
v 132.923615 201.910248 10.363007
v 117.076385 201.910248 10.363007
v 132.923615 15.846846 10.363007
v 117.076385 15.846846 10.363007
v 132.923615 15.846846 -10.363007
v 117.076385 15.846846 -10.363007
v 132.923615 201.910248 -10.363007
v 117.076385 201.910248 -10.363007
v 250.000000 47.224419 8.363266
v 250.000000 63.071259 8.363266
v 0.000000 47.224419 8.363266
v 0.000000 63.071259 8.363266
v 0.000000 47.224419 -8.363258
v 0.000000 63.071259 -8.363258
v 250.000000 47.224419 -8.363258
v 250.000000 63.071259 -8.363258
v 0.000000 15.846846 12.099304
v 0.000000 0.000002 12.099304
v 249.999664 15.846846 12.099304
v 249.999664 0.000002 12.099304
v 249.999664 15.846846 -12.099304
v 249.999664 0.000002 -12.099304
v 0.000000 15.846846 -12.099304
v 0.000000 0.000002 -12.099304
v 0.000000 211.596710 12.099304
v 0.000000 201.910248 12.099304
v 249.999664 217.757080 12.099304
v 249.999664 201.910248 12.099304
v 249.999664 217.757080 -12.099304
v 249.999664 201.910248 -12.099304
v 0.000000 217.757080 -12.099304
v 0.000000 201.910248 -12.099304
v 222.067993 63.071259 8.363266
v 116.794220 63.071259 8.363266
v 153.785278 63.071259 4.811478
v 150.590332 58.381691 8.363266
v 132.923615 142.357788 10.363007
v 132.923615 72.383698 10.363007
v 132.923615 97.466278 4.619446
v 129.021576 98.931679 10.363007
v 61.712341 15.846846 12.099304
v 131.612244 15.846846 12.099304
v 76.345215 15.846843 8.707809
v 77.032471 9.480042 12.099304
v 78.536377 201.910248 12.099304
v 138.469849 201.910248 12.099304
v 113.298340 207.670532 12.099304
v 108.584900 201.910248 6.173401
v 0.000000 217.757080 5.912476
v 19.656982 217.757080 12.099304
v 27.416397 63.071259 -8.363258
v 101.427345 63.071259 -8.363258
v 67.694641 63.071259 -3.918381
v 85.120819 58.760742 -8.363258
v 180.302399 15.846846 -12.099304
v 89.837341 15.846846 -12.099304
v 166.049469 15.846843 -4.981918
v 166.929321 11.232022 -12.099304
v 184.173248 201.910248 -12.099304
v 115.359192 201.910248 -12.099304
v 161.755707 208.313721 -12.099304
v 162.005280 201.910248 -5.353851
vt 0.007891 0.991646
vt 0.242198 0.991646
vt 0.242198 0.991646
vt 0.007891 0.991646
vt 0.242198 0.758169
vt 0.242198 0.758169
vt 0.007891 0.758169
vt 0.007891 0.758169
vt 0.496057 0.152314
vt 0.496057 0.152314
vt 0.496057 0.152314
vt 0.496057 0.152314
vt 0.496057 0.152314
vt 0.496057 0.152314
vt 0.496057 0.152314
vt 0.496057 0.152314
vt 0.496057 0.152314
vt 0.496057 0.152314
vt 0.496057 0.152314
vt 0.496057 0.152314
vt 0.496057 0.152314
vt 0.496057 0.152314
vt 0.496057 0.152314
vt 0.496057 0.152314
vt 0.496057 0.152314
vt 0.496057 0.152314
vt 0.496057 0.152314
vt 0.496057 0.152314
vt 0.496057 0.152314
vt 0.496057 0.152314
vt 0.496057 0.152314
vt 0.496057 0.152314
vt 0.496057 0.152314
vt 0.496057 0.152314
vt 0.496057 0.152314
vt 0.496057 0.152314
vt 0.496057 0.152314
vt 0.496057 0.152314
vt 0.496057 0.152314
vt 0.496057 0.152314
vt 0.496057 0.152314
vt 0.496057 0.152314
vt 0.496057 0.152314
vt 0.496057 0.152314
vt 0.496057 0.152314
vt 0.496057 0.152314
vt 0.496057 0.152314
vt 0.496057 0.152314
vt 0.496057 0.152314
vt 0.496057 0.152314
vt 0.496057 0.152314
vt 0.496057 0.152314
vt 0.496057 0.152314
vt 0.496057 0.152314
vt 0.496057 0.152314
vt 0.496057 0.152314
vt 0.496057 0.152314
vt 0.496057 0.152314
vt 0.496057 0.152314
vt 0.496057 0.152314
vt 0.496057 0.152314
vt 0.496057 0.152314
vt 0.496057 0.152314
vt 0.496057 0.152314
vt 0.496057 0.152314
vt 0.496057 0.152314
vt 0.496057 0.152314
vt 0.496057 0.152314
vt 0.496057 0.152314
vt 0.496057 0.152314
vt 0.496057 0.152314
vt 0.496057 0.152314
vt 0.496057 0.152314
vt 0.496057 0.152314
vt 0.496057 0.152314
vt 0.496057 0.152314
vt 0.496057 0.152314
vt 0.496057 0.152314
vt 0.496057 0.152314
vt 0.496057 0.152314
vt 0.496057 0.152314
vt 0.496057 0.152314
vt 0.496057 0.152314
vt 0.496057 0.152314
vt 0.496057 0.152314
vt 0.496057 0.152314
vt 0.496057 0.152314
vt 0.496057 0.152314
vt 0.496057 0.152314
vt 0.496057 0.152314
vt 0.496057 0.152314
vt 0.496057 0.152314
vt 0.496057 0.152314
vt 0.496057 0.152314
vt 0.496057 0.152314
vt 0.496057 0.152314
vt 0.496057 0.152314
vt 0.496057 0.152314
vt 0.496057 0.152314
vt 0.496057 0.152314
vt 0.496057 0.152314
vt 0.496057 0.152314
vt 0.496057 0.152314
vt 0.496057 0.152314
vn 0.000000 1.000000 0.000000
vn 0.000000 1.000000 0.000000
vn 0.000000 1.000000 0.000000
vn 0.000000 1.000000 0.000000
vn 1.000000 0.000000 0.000000
vn 1.000000 0.000000 0.000000
vn 1.000000 0.000000 0.000000
vn 1.000000 0.000000 0.000000
vn -1.000000 0.000000 0.000000
vn -1.000000 0.000000 0.000000
vn -1.000000 0.000000 0.000000
vn -1.000000 0.000000 0.000000
vn 0.000000 0.000000 1.000000
vn 0.000000 0.000000 1.000000
vn 0.000000 0.000000 1.000000
vn 0.000000 0.000000 1.000000
vn 0.000000 0.000000 -1.000000
vn 0.000000 0.000000 -1.000000
vn 0.000000 0.000000 -1.000000
vn 0.000000 0.000000 -1.000000
vn 0.000000 0.000000 1.000000
vn 0.000000 0.000000 1.000000
vn 0.000000 0.000000 1.000000
vn 0.000000 -1.000000 0.000000
vn 0.000000 -1.000000 0.000000
vn 0.000000 -1.000000 0.000000
vn 0.000000 -1.000000 0.000000
vn 0.000000 0.000000 -1.000000
vn 0.000000 0.000000 -1.000000
vn 0.000000 0.000000 -1.000000
vn 0.000000 0.000000 -1.000000
vn 0.000000 1.000000 0.000000
vn 0.000000 1.000000 0.000000
vn 0.000000 1.000000 0.000000
vn 0.000000 1.000000 0.000000
vn -1.000000 0.000000 0.000000
vn -1.000000 0.000000 0.000000
vn -1.000000 0.000000 0.000000
vn -1.000000 0.000000 0.000000
vn 1.000000 0.000000 0.000000
vn 1.000000 0.000000 0.000000
vn 1.000000 0.000000 0.000000
vn 1.000000 0.000000 0.000000
vn 0.000000 0.000000 1.000000
vn 0.000000 0.000000 1.000000
vn 0.000000 0.000000 1.000000
vn -1.000000 0.000000 0.000000
vn -1.000000 0.000000 0.000000
vn -1.000000 0.000000 0.000000
vn -1.000000 0.000000 0.000000
vn 0.000000 0.000000 -1.000000
vn 0.000000 0.000000 -1.000000
vn 0.000000 0.000000 -1.000000
vn 0.000000 0.000000 -1.000000
vn 1.000000 0.000000 0.000000
vn 1.000000 0.000000 0.000000
vn 1.000000 0.000000 0.000000
vn 1.000000 0.000000 0.000000
vn 0.000000 1.000000 -0.000000
vn 0.000000 1.000000 -0.000000
vn 0.000000 1.000000 -0.000000
vn 0.000000 1.000000 -0.000000
vn 0.000000 -1.000000 0.000000
vn 0.000000 -1.000000 0.000000
vn 0.000000 -1.000000 0.000000
vn 0.000000 -1.000000 0.000000
vn 0.000000 0.000000 1.000000
vn 0.000000 0.000000 1.000000
vn 0.000000 0.000000 1.000000
vn 0.000000 0.000000 1.000000
vn 1.000000 0.000000 0.000000
vn 1.000000 0.000000 0.000000
vn 1.000000 0.000000 0.000000
vn 1.000000 0.000000 0.000000
vn 0.000000 0.000000 -1.000000
vn 0.000000 0.000000 -1.000000
vn 0.000000 0.000000 -1.000000
vn -1.000000 0.000000 0.000000
vn -1.000000 0.000000 0.000000
vn -1.000000 0.000000 0.000000
vn -1.000000 0.000000 0.000000
vn 0.000000 -1.000000 0.000000
vn 0.000000 -1.000000 0.000000
vn 0.000000 -1.000000 0.000000
vn 0.000000 -1.000000 0.000000
vn -0.000000 1.000000 -0.000000
vn -0.000000 1.000000 -0.000000
vn -0.000000 1.000000 -0.000000
vn -0.000000 1.000000 -0.000000
vn 1.000000 0.000000 0.000000
vn 1.000000 0.000000 0.000000
vn 1.000000 0.000000 0.000000
vn 1.000000 0.000000 0.000000
vn -0.000000 0.000000 -1.000000
vn -0.000000 0.000000 -1.000000
vn -0.000000 0.000000 -1.000000
vn -0.000000 0.000000 -1.000000
vn 0.000000 -1.000000 0.000000
vn 0.000000 -1.000000 0.000000
vn 0.000000 -1.000000 0.000000
vn 0.000000 -1.000000 0.000000
vn -0.216795 0.691766 0.688810
vn -0.216795 0.691766 0.688810
vn -0.216795 0.691766 0.688810
vn -0.040726 0.620743 0.782956
vn -0.040726 0.620743 0.782956
vn -0.040726 0.620743 0.782956
vn 0.078713 0.567255 0.819772
vn 0.078713 0.567255 0.819772
vn 0.078713 0.567255 0.819772
vn 0.816143 -0.073334 0.573178
vn 0.816143 -0.073334 0.573178
vn 0.816143 -0.073334 0.573178
vn 0.835189 0.122756 0.536088
vn 0.835189 0.122756 0.536088
vn 0.835189 0.122756 0.536088
vn -0.054229 0.464884 0.883709
vn -0.054229 0.464884 0.883709
vn -0.054229 0.464884 0.883709
vn 0.198397 0.477393 0.855999
vn 0.198397 0.477393 0.855999
vn 0.198397 0.477393 0.855999
vn -0.148204 -0.647627 0.747406
vn -0.148204 -0.647627 0.747406
vn -0.148204 -0.647627 0.747406
vn 0.125858 -0.759522 0.638190
vn 0.125858 -0.759522 0.638190
vn 0.125858 -0.759522 0.638190
vn -1.000000 0.000000 0.000000
vn -1.000000 0.000000 0.000000
vn -1.000000 0.000000 0.000000
vn -1.000000 0.000000 0.000000
vn -1.000000 0.000000 0.000000
vn 0.000000 0.000000 1.000000
vn 0.000000 0.000000 1.000000
vn 0.000000 0.000000 1.000000
vn 0.000000 0.000000 1.000000
vn 0.000000 1.000000 0.000000
vn 0.000000 1.000000 0.000000
vn 0.000000 1.000000 0.000000
vn 0.000000 1.000000 0.000000
vn 0.000000 1.000000 0.000000
vn 0.061742 0.826534 -0.559491
vn 0.061742 0.826534 -0.559491
vn 0.061742 0.826534 -0.559491
vn -0.117117 0.443048 -0.888815
vn -0.117117 0.443048 -0.888815
vn -0.117117 0.443048 -0.888815
vn 0.050333 0.840827 -0.538959
vn 0.050333 0.840827 -0.538959
vn 0.050333 0.840827 -0.538959
vn -0.273100 0.791404 -0.546897
vn -0.273100 0.791404 -0.546896
vn -0.273100 0.791404 -0.546896
vn 0.099348 -0.719826 -0.687009
vn 0.099348 -0.719826 -0.687009
vn 0.099348 -0.719826 -0.687009
vn -0.203886 -0.713773 -0.670044
vn -0.203886 -0.713773 -0.670044
vn -0.203886 -0.713773 -0.670044
vn 0.000000 0.000000 1.000000
vn 0.000000 0.000000 1.000000
vn 0.000000 0.000000 1.000000
vn 0.000000 0.000000 1.000000
vn 0.000000 0.000000 1.000000
vn 0.000000 0.000000 1.000000
vn 0.000000 0.000000 1.000000
vn -0.000000 0.000000 1.000000
vn -0.000000 0.000000 1.000000
vn -0.000000 0.000000 1.000000
vn -0.000000 0.000000 1.000000
vn 0.000000 0.000000 1.000000
vn 0.000000 0.000000 1.000000
vn 0.000000 0.000000 1.000000
vn 0.000000 0.000000 1.000000
vn 0.000000 0.000000 1.000000
vn 0.000000 0.000000 1.000000
vn 0.000000 0.000000 1.000000
vn 0.000000 0.000000 1.000000
vn 0.000000 0.000000 1.000000
vn 0.000000 0.000000 1.000000
vn 0.000000 0.000000 1.000000
vn 0.000000 0.000000 1.000000
vn 0.000000 0.000000 1.000000
vn 0.000000 0.000000 1.000000
vn 0.000000 0.000000 1.000000
vn 0.000000 0.000000 1.000000
vn -0.000000 0.000000 1.000000
vn -0.000000 0.000000 1.000000
vn -0.000000 0.000000 1.000000
vn -0.000000 0.000000 1.000000
vn 0.000000 -1.000000 0.000001
vn 0.000000 -1.000000 0.000001
vn 0.000000 -1.000000 0.000001
vn 0.000000 -1.000000 0.000001
vn 0.000000 -1.000000 0.000000
vn 0.000000 -1.000000 0.000000
vn 0.000000 -1.000000 0.000000
vn 0.000000 -1.000000 0.000000
vn 0.000000 -1.000000 0.000001
vn 0.000000 -1.000000 0.000001
vn 0.000000 -1.000000 0.000001
vn 0.000000 -1.000000 0.000001
vn -0.000000 1.000000 0.000000
vn -0.000000 1.000000 0.000000
vn -0.000000 1.000000 0.000000
vn -0.000000 1.000000 0.000000
vn 0.000000 1.000000 -0.000000
vn 0.000000 1.000000 -0.000000
vn 0.000000 1.000000 -0.000000
vn 0.000000 1.000000 -0.000000
vn 0.000000 1.000000 0.000000
vn 0.000000 1.000000 0.000000
vn 0.000000 1.000000 0.000000
vn 0.000000 1.000000 0.000000
vn 0.000000 1.000000 0.000001
vn 0.000000 1.000000 0.000001
vn 0.000000 1.000000 0.000001
vn 0.000000 1.000000 0.000001
vn 0.000000 1.000000 0.000001
vn 0.000000 1.000000 0.000001
vn 0.000000 1.000000 0.000001
vn 0.000000 1.000000 0.000001
vn 0.000000 1.000000 0.000000
vn 0.000000 1.000000 0.000000
vn 0.000000 1.000000 0.000000
vn 0.000000 1.000000 0.000000
vn 0.000000 0.000000 -1.000000
vn 0.000000 0.000000 -1.000000
vn 0.000000 0.000000 -1.000000
vn 0.000000 0.000000 -1.000000
vn 0.000000 0.000000 -1.000000
vn 0.000000 0.000000 -1.000000
vn 0.000000 0.000000 -1.000000
vn 0.000000 0.000000 -1.000000
vn 0.000000 0.000000 -1.000000
vn 0.000000 0.000000 -1.000000
vn 0.000000 0.000000 -1.000000
vn 0.000000 0.000000 -1.000000
vn 0.000000 0.000000 -1.000000
vn 0.000000 0.000000 -1.000000
vn 0.000000 0.000000 -1.000000
vn 0.000000 0.000000 -1.000000
vn 0.000000 0.000000 -1.000000
vn 0.000000 0.000000 -1.000000
vn 0.000000 0.000000 -1.000000
vn 0.000000 0.000000 -1.000000
vn 0.000000 0.000000 -1.000000
vn 0.000000 0.000000 -1.000000
vn 1.000000 0.000000 0.000000
vn 1.000000 0.000000 0.000000
vn 1.000000 0.000000 0.000000
vn 1.000000 0.000000 0.000000
vn 1.000000 0.000000 0.000000
vn 1.000000 0.000000 0.000000
vn 1.000000 0.000000 0.000000
s off
f 3/1/1 4/2/2 6/3/3 5/4/4
f 2/5/5 8/6/6 6/3/7 4/2/8
f 7/7/9 1/8/10 3/1/11 5/4/12
f 2/5/13 4/2/14 3/1/15 1/8/16
f 6/3/17 8/6/18 7/7/19 5/4/20
f 48/9/21 10/10/22 12/11/23
f 11/12/24 12/11/25 14/13/26 13/14/27
f 13/14/28 14/13/29 16/15/30 15/16/31
f 15/16/32 16/15/33 10/17/34 9/18/35
f 10/10/36 16/19/37 14/20/38 12/11/39
f 13/21/40 47/22/41 46/23/42 11/12/43
f 17/24/44 44/25/45 19/26/46
f 19/26/47 20/27/48 22/28/49 21/29/50
f 23/30/51 62/31/52 60/32/53 24/33/54
f 23/30/55 24/33/56 18/34/57 17/35/58
f 20/27/59 61/36/60 59/37/61 22/38/62
f 23/39/63 17/24/64 19/26/65 21/40/66
f 25/41/67 26/42/68 52/43/69 49/44/70
f 27/45/71 28/46/72 30/47/73 29/48/74
f 66/49/75 30/47/76 32/50/77
f 31/51/78 32/50/79 26/52/80 25/53/81
f 26/42/82 32/54/83 30/55/84 28/46/85
f 65/56/86 51/57/87 50/58/88 27/45/89
f 35/59/90 36/60/91 38/61/92 37/62/93
f 39/63/94 69/64/95 68/65/96 40/66/97
f 34/67/98 40/68/99 56/69/100 53/70/101
f 58/71/102 57/72/103 33/73/104
f 41/74/105 43/75/106 44/25/107
f 44/25/108 43/75/109 42/76/110
f 45/77/111 48/9/112 47/22/113
f 47/22/114 48/9/115 46/23/116
f 50/58/117 51/57/118 52/43/119
f 52/43/120 51/57/121 49/44/122
f 54/78/123 55/79/124 56/69/125
f 56/69/126 55/79/127 53/70/128
f 39/63/129 40/66/130 34/80/131 33/81/132 57/82/133
f 35/59/134 55/79/135 54/78/136 36/60/137
f 39/83/138 57/72/139 58/71/140 35/59/141 37/84/142
f 61/85/143 62/31/144 59/86/145
f 60/32/146 62/31/147 61/85/148
f 64/87/149 65/56/150 66/88/151
f 66/88/152 65/56/153 63/89/154
f 68/65/155 69/64/156 70/90/157
f 70/90/158 69/64/159 67/91/160
f 52/43/161 28/46/162 27/45/163 50/58/164
f 52/43/165 26/42/166 28/46/167
f 17/24/168 18/92/169 41/74/170 44/25/171
f 19/26/172 44/25/173 42/76/174 20/27/175
f 48/9/176 12/11/177 11/12/178 46/23/179
f 9/93/180 10/10/181 48/9/182 45/77/183
f 55/79/184 33/73/185 34/67/186 53/70/187
f 58/71/188 33/73/189 55/79/190 35/59/191
f 56/69/192 70/94/193 36/60/194 54/78/195
f 56/69/196 40/68/197 68/95/198 70/94/199
f 36/60/200 70/94/201 67/96/202 38/97/203
f 65/56/204 27/45/205 29/98/206 63/89/207
f 31/99/208 25/41/209 49/44/210 51/57/211
f 31/99/212 51/57/213 65/56/214 64/87/215
f 43/75/216 24/100/217 60/101/218 61/36/219
f 43/75/220 61/36/221 20/27/222 42/76/223
f 18/92/224 24/100/225 43/75/226 41/74/227
f 66/49/228 32/50/229 31/51/230 64/102/231
f 29/48/232 30/47/233 66/49/234 63/103/235
f 21/29/236 22/28/237 59/86/238 62/31/239
f 21/29/240 62/31/241 23/30/242
f 37/62/243 38/61/244 67/91/245 69/64/246
f 37/62/247 69/64/248 39/63/249
f 15/104/250 9/93/251 45/77/252 47/22/253
f 15/104/254 47/22/255 13/21/256
