# This file uses centimeters as units for non-parametric coordinates.

v -15.964813 0.000000 -15.964661
v 15.964813 0.000000 -15.964661
v -15.399323 250.213806 -15.399475
v 15.399323 250.213806 -15.399475
v -15.399323 250.213806 15.399475
v 15.399323 250.213806 15.399475
v -15.964813 0.000000 15.964661
v 15.964813 0.000000 15.964661
v 14.002228 121.954285 14.002075
v 14.516144 73.896927 14.515991
v 8.985748 98.887711 14.002075
v 14.002228 100.037964 9.997559
v -14.002228 220.191345 14.002075
v -14.516144 168.822128 14.515991
v -14.002228 191.015884 9.560242
v -9.478302 192.004211 14.002075
v -14.516144 22.904072 -14.515991
v -14.002228 91.095062 -14.002075
v -14.002228 57.602402 -9.295959
v -10.000153 60.028519 -14.002075
v 14.516144 128.037964 -14.515991
v 14.002228 176.724960 -14.002075
v 10.365143 155.886688 -14.002075
v 14.002228 156.036194 -10.211792
vt 0.495107 0.158123
vt 0.495168 0.158074
vt 0.495233 0.157180
vt 0.495127 0.157191
vt 0.495343 0.157190
vt 0.495251 0.157212
vt 0.495242 0.158119
vt 0.495185 0.158154
vt 0.495287 0.157700
vt 0.495271 0.157849
vt 0.495274 0.157776
vt 0.495263 0.157765
vt 0.495239 0.157370
vt 0.495229 0.157520
vt 0.495227 0.157450
vt 0.495246 0.157446
vt 0.495108 0.158057
vt 0.495112 0.157894
vt 0.495128 0.157979
vt 0.495116 0.157967
vt 0.495196 0.157601
vt 0.495204 0.157458
vt 0.495195 0.157519
vt 0.495217 0.157522
vn -0.021347 0.034788 -0.999167
vn -0.021347 0.034788 -0.999167
vn -0.021347 0.034788 -0.999167
vn -0.021347 0.034788 -0.999167
vn 0.000000 1.000000 0.000000
vn 0.000000 1.000000 0.000000
vn 0.000000 1.000000 0.000000
vn 0.000000 1.000000 0.000000
vn 0.999808 0.019613 -0.000031
vn 0.999808 0.019613 -0.000031
vn 0.999808 0.019613 -0.000031
vn 0.999808 0.019613 -0.000031
vn -0.999612 -0.006392 0.027105
vn -0.999612 -0.006392 0.027105
vn -0.999612 -0.006392 0.027105
vn -0.999612 -0.006392 0.027105
vn 0.637064 -0.138548 0.758257
vn 0.637064 -0.138548 0.758257
vn 0.637064 -0.138548 0.758257
vn -0.684052 -0.109788 0.721123
vn -0.684053 -0.109788 0.721123
vn -0.684053 -0.109788 0.721123
vn -0.709075 0.169268 0.684515
vn -0.709075 0.169268 0.684515
vn -0.709075 0.169268 0.684515
vn 0.596022 0.148127 0.789187
vn 0.596022 0.148127 0.789187
vn 0.596022 0.148127 0.789187
vn -0.783443 0.103784 -0.612736
vn -0.783443 0.103784 -0.612736
vn -0.783443 0.103784 -0.612736
vn -0.733801 -0.094530 -0.672756
vn -0.733801 -0.094530 -0.672756
vn -0.733801 -0.094530 -0.672756
vn 0.714045 0.119163 -0.689884
vn 0.714045 0.119163 -0.689884
vn 0.714045 0.119163 -0.689884
vn 0.718311 -0.125373 -0.684333
vn 0.718311 -0.125373 -0.684333
vn 0.718311 -0.125373 -0.684333
vn 0.999840 -0.015338 -0.009174
vn 0.999840 -0.015338 -0.009174
vn 0.999840 -0.015338 -0.009174
vn 0.999840 -0.015338 -0.009174
vn 0.999883 -0.008854 -0.012462
vn 0.999883 -0.008854 -0.012462
vn 0.999883 -0.008854 -0.012462
vn 0.999883 -0.008854 -0.012462
vn 0.999362 0.011321 0.033882
vn 0.999362 0.011321 0.033882
vn 0.999362 0.011321 0.033882
vn 0.999362 0.011321 0.033882
vn 0.018162 -0.006831 -0.999812
vn 0.018162 -0.006831 -0.999812
vn 0.018162 -0.006831 -0.999812
vn 0.018162 -0.006831 -0.999812
vn -0.050754 0.010750 -0.998653
vn -0.050754 0.010750 -0.998653
vn -0.050754 0.010750 -0.998653
vn -0.050754 0.010750 -0.998653
vn 0.009262 -0.015306 -0.999840
vn 0.009262 -0.015306 -0.999840
vn 0.009262 -0.015306 -0.999840
vn 0.009262 -0.015306 -0.999840
vn -0.999444 -0.025685 0.021264
vn -0.999444 -0.025685 0.021264
vn -0.999444 -0.025685 0.021264
vn -0.999444 -0.025685 0.021264
vn -0.024449 -0.008195 0.999668
vn -0.024449 -0.008195 0.999668
vn -0.024449 -0.008195 0.999667
vn -0.024449 -0.008195 0.999668
vn 0.047452 0.008607 0.998837
vn 0.047452 0.008607 0.998836
vn 0.047452 0.008607 0.998836
vn 0.047452 0.008607 0.998837
vn -0.020838 -0.026113 0.999442
vn -0.020838 -0.026113 0.999442
vn -0.020838 -0.026113 0.999442
vn -0.020838 -0.026113 0.999442
vn -0.000502 0.019807 0.999804
vn -0.000502 0.019807 0.999804
vn -0.000502 0.019807 0.999804
vn -0.000502 0.019807 0.999804
vn 0.000000 -1.000000 0.000000
vn 0.000000 -1.000000 0.000000
vn 0.000000 -1.000000 0.000000
vn 0.000000 -1.000000 0.000000
vn -0.999135 0.036375 -0.020153
vn -0.999135 0.036375 -0.020153
vn -0.999135 0.036375 -0.020153
vn -0.999135 0.036375 -0.020153
vn -0.998162 0.008242 -0.060041
vn -0.998162 0.008242 -0.060041
vn -0.998162 0.008242 -0.060041
vn -0.998162 0.008242 -0.060041
s off
f 1/1/1 17/17/2 20/20/3 2/2/4
f 3/4/5 5/6/6 6/5/7 4/3/8
f 2/2/9 12/12/10 10/10/11 8/7/12
f 15/15/13 3/4/14 18/18/15 19/19/16
f 9/9/17 11/11/18 12/12/19
f 13/13/20 15/15/21 16/16/22
f 15/15/23 14/14/24 16/16/25
f 11/11/26 10/10/27 12/12/28
f 20/20/29 17/17/30 19/19/31
f 18/18/32 20/20/33 19/19/34
f 21/21/35 23/23/36 24/24/37
f 23/23/38 22/22/39 24/24/40
f 24/24/41 22/22/42 4/3/43 6/5/44
f 24/24/45 6/5/46 9/9/47 12/12/48
f 2/2/49 21/21/50 24/24/51 12/12/52
f 20/20/53 18/18/54 3/4/55 23/23/56
f 20/20/57 23/23/58 21/21/59 2/2/60
f 3/4/61 4/3/62 22/22/63 23/23/64
f 15/15/65 13/13/66 5/6/67 3/4/68
f 16/16/69 11/11/70 9/9/71 6/5/72
f 16/16/73 14/14/74 7/8/75 11/11/76
f 5/6/77 13/13/78 16/16/79 6/5/80
f 7/8/81 8/7/82 10/10/83 11/11/84
f 7/8/85 1/1/86 2/2/87 8/7/88
f 7/8/89 19/19/90 17/17/91 1/1/92
f 7/8/93 14/14/94 15/15/95 19/19/96
