# This file uses centimeters as units for non-parametric coordinates.

v 0.291519 -11.044244 0.238113
v 3.435097 -11.044244 -2.129288
v 20.760593 21.664162 14.312286
v -6.358032 -11.044244 -2.903900
v 1.654549 -11.044244 -8.019180
v 11.118412 15.945759 8.674927
v 15.312529 14.720573 4.405594
v 13.032742 18.158016 2.622299
v 8.837109 19.383678 6.893234
v 6.768570 10.175800 -5.126419
v 0.577431 11.652918 0.788574
v 9.048195 7.505140 -1.793442
v 5.163326 8.141441 2.079315
v -7.021465 -11.044244 -7.349091
v -9.200134 -11.044244 3.325806
v -6.798859 33.192940 33.180847
v -0.854397 -11.044244 -6.195221
v -3.031368 -11.044244 4.478607
v -10.817146 28.140640 14.808426
v -12.246704 25.991497 19.783173
v -5.161648 25.628681 20.930862
v -3.731518 27.777805 15.956039
v -4.107819 12.705574 9.587479
v -2.115211 15.603237 2.520905
v -10.364227 16.057110 1.318130
v -12.108555 12.879601 8.235321
v -6.211357 -11.044244 -2.472153
v 1.621017 -11.044244 -5.141068
v 11.823244 43.249550 -43.972931
v -7.010193 -11.044244 -6.956329
v 0.819893 -11.044244 -9.623718
v 6.561546 39.109535 -29.982376
v 11.792259 38.021622 -29.878769
v 9.144325 34.344730 -32.912369
v 3.914471 35.432930 -33.016205
v 6.865520 18.619480 -21.268387
v -1.438828 19.425011 -20.921783
v 0.556107 21.769657 -16.495590
v 8.861485 20.964355 -16.842880
vt 0.177016 0.298518
vt 0.177016 0.298518
vt 0.177016 0.298518
vt 0.177016 0.298518
vt 0.177016 0.298518
vt 0.177016 0.298518
vt 0.177016 0.298518
vt 0.177016 0.298518
vt 0.177016 0.298518
vt 0.177016 0.298518
vt 0.177016 0.298518
vt 0.177016 0.298518
vt 0.177016 0.298518
vt 0.177016 0.298518
vt 0.177016 0.298518
vt 0.177016 0.298518
vt 0.177016 0.298518
vt 0.177016 0.298518
vt 0.177016 0.298518
vt 0.177016 0.298518
vt 0.177016 0.298518
vt 0.177016 0.298518
vt 0.177016 0.298518
vt 0.177016 0.298518
vt 0.177016 0.298518
vt 0.177016 0.298518
vt 0.177016 0.298518
vt 0.177016 0.298518
vt 0.177016 0.298518
vt 0.177016 0.298518
vt 0.177016 0.298518
vt 0.177016 0.298518
vt 0.177016 0.298518
vt 0.177016 0.298518
vt 0.177016 0.298518
vt 0.177016 0.298518
vt 0.177016 0.298518
vt 0.177016 0.298518
vt 0.177016 0.298518
vt 0.177016 0.298518
vt 0.177016 0.298518
vt 0.177016 0.298518
vt 0.177016 0.298518
vt 0.177016 0.298518
vt 0.177016 0.298518
vt 0.177016 0.298518
vt 0.177016 0.298518
vt 0.177016 0.298518
vt 0.177016 0.298518
vt 0.177016 0.298518
vt 0.177016 0.298518
vt 0.177016 0.298518
vt 0.177016 0.298518
vt 0.177016 0.298518
vt 0.177016 0.298518
vt 0.177016 0.298518
vt 0.177016 0.298518
vt 0.177016 0.298518
vt 0.177016 0.298518
vt 0.177016 0.298518
vt 0.177016 0.298518
vt 0.177016 0.298518
vt 0.177016 0.298518
vn 0.230109 -0.851857 0.470521
vn 0.230109 -0.851857 0.470521
vn 0.230109 -0.851857 0.470521
vn -0.007557 0.959182 -0.282689
vn -0.007557 0.959182 -0.282689
vn -0.007557 0.959182 -0.282689
vn 0.019681 -0.999770 0.008543
vn 0.019681 -0.999770 0.008543
vn 0.019681 -0.999770 0.008543
vn 0.019684 -0.999770 0.008543
vn 0.019684 -0.999770 0.008543
vn 0.019684 -0.999770 0.008543
vn 0.783110 0.217034 -0.582782
vn 0.783110 0.217034 -0.582782
vn 0.783110 0.217034 -0.582782
vn -0.537451 0.078493 0.839634
vn -0.537451 0.078493 0.839634
vn -0.537451 0.078493 0.839634
vn 0.628489 -0.260964 0.732734
vn 0.628489 -0.260964 0.732734
vn 0.628489 -0.260964 0.732734
vn 0.628489 -0.260964 0.732734
vn 0.863920 -0.234061 -0.445935
vn 0.863920 -0.234061 -0.445935
vn 0.863920 -0.234061 -0.445935
vn 0.863920 -0.234061 -0.445935
vn -0.326298 0.776660 -0.538821
vn -0.326298 0.776660 -0.538822
vn -0.326298 0.776660 -0.538822
vn -0.326298 0.776660 -0.538822
vn -0.372277 -0.020697 0.927891
vn -0.372277 -0.020697 0.927891
vn -0.372277 -0.020697 0.927891
vn -0.372277 -0.020697 0.927891
vn -0.563624 0.312933 -0.764461
vn -0.563624 0.312933 -0.764461
vn -0.563624 0.312933 -0.764461
vn -0.563624 0.312933 -0.764461
vn 0.745193 -0.002314 -0.666844
vn 0.745193 -0.002314 -0.666844
vn 0.745193 -0.002314 -0.666844
vn 0.745193 -0.002314 -0.666844
vn 0.367989 -0.758060 0.538451
vn 0.367989 -0.758060 0.538451
vn 0.367989 -0.758060 0.538451
vn 0.367989 -0.758060 0.538451
vn -0.543504 -0.174016 0.821171
vn -0.543504 -0.174016 0.821171
vn -0.543504 -0.174016 0.821171
vn -0.543504 -0.174016 0.821171
vn -0.813018 0.581967 0.017779
vn -0.813018 0.581967 0.017779
vn -0.813019 0.581966 0.017779
vn 0.965956 -0.141583 0.216526
vn 0.965956 -0.141583 0.216526
vn 0.965956 -0.141583 0.216526
vn 0.017404 -0.999847 -0.001564
vn 0.017404 -0.999847 -0.001564
vn 0.017404 -0.999847 -0.001564
vn 0.017403 -0.999847 -0.001563
vn 0.017403 -0.999847 -0.001563
vn 0.017403 -0.999847 -0.001563
vn -0.126048 -0.851513 0.508957
vn -0.126048 -0.851513 0.508957
vn -0.126048 -0.851513 0.508957
vn 0.094731 0.954380 -0.283169
vn 0.094731 0.954380 -0.283169
vn 0.094731 0.954380 -0.283169
vn -0.969078 0.162127 -0.186020
vn -0.969078 0.162127 -0.186020
vn -0.969078 0.162127 -0.186020
vn -0.969078 0.162127 -0.186020
vn -0.145942 -0.656998 0.739631
vn -0.145942 -0.656998 0.739631
vn -0.145942 -0.656998 0.739631
vn -0.145942 -0.656998 0.739631
vn 0.967057 -0.119186 0.224933
vn 0.967057 -0.119186 0.224933
vn 0.967057 -0.119186 0.224933
vn 0.967057 -0.119186 0.224933
vn 0.159280 0.352046 -0.922330
vn 0.159280 0.352046 -0.922330
vn 0.159280 0.352046 -0.922330
vn 0.159280 0.352046 -0.922330
vn 0.973999 -0.019095 0.225745
vn 0.973999 -0.019095 0.225745
vn 0.973999 -0.019095 0.225745
vn 0.973999 -0.019095 0.225745
vn 0.140132 0.740949 -0.656779
vn 0.140132 0.740949 -0.656779
vn 0.140132 0.740949 -0.656779
vn 0.140132 0.740949 -0.656779
vn -0.971271 -0.065839 -0.228688
vn -0.971271 -0.065839 -0.228688
vn -0.971271 -0.065839 -0.228688
vn -0.971271 -0.065839 -0.228688
vn -0.169902 -0.245751 0.954327
vn -0.169902 -0.245751 0.954327
vn -0.169902 -0.245751 0.954327
vn -0.169902 -0.245751 0.954327
vn 0.184843 0.921289 0.342139
vn 0.184843 0.921289 0.342139
vn 0.184843 0.921289 0.342139
vn -0.144042 -0.753475 -0.641504
vn -0.144042 -0.753475 -0.641504
vn -0.144042 -0.753475 -0.641504
vn 0.009981 -0.999926 0.006953
vn 0.009981 -0.999926 0.006953
vn 0.009981 -0.999926 0.006953
vn 0.008984 -0.999891 0.011692
vn 0.008984 -0.999891 0.011692
vn 0.008984 -0.999891 0.011692
vn 0.861707 -0.476348 -0.174798
vn 0.861707 -0.476348 -0.174798
vn 0.861707 -0.476348 -0.174798
vn -0.766305 0.634581 -0.100415
vn -0.766305 0.634581 -0.100415
vn -0.766305 0.634581 -0.100415
vn 0.097169 0.591783 0.800220
vn 0.097169 0.591783 0.800220
vn 0.097169 0.591783 0.800220
vn 0.097169 0.591783 0.800220
vn 0.895539 -0.349584 -0.275321
vn 0.895539 -0.349584 -0.275321
vn 0.895539 -0.349584 -0.275320
vn 0.895539 -0.349584 -0.275320
vn -0.095845 -0.581364 -0.807979
vn -0.095845 -0.581364 -0.807979
vn -0.095845 -0.581364 -0.807979
vn -0.095845 -0.581364 -0.807979
vn -0.876650 0.442855 0.188053
vn -0.876650 0.442855 0.188053
vn -0.876650 0.442855 0.188053
vn -0.876650 0.442855 0.188053
vn -0.186576 -0.387506 -0.902789
vn -0.186576 -0.387506 -0.902789
vn -0.186576 -0.387506 -0.902789
vn -0.186576 -0.387506 -0.902789
vn -0.929621 0.303030 0.209708
vn -0.929621 0.303030 0.209708
vn -0.929621 0.303030 0.209708
vn -0.929621 0.303030 0.209708
vn 0.187971 0.356462 0.915206
vn 0.187971 0.356462 0.915206
vn 0.187971 0.356462 0.915206
vn 0.187971 0.356462 0.915206
vn 0.927718 -0.309686 -0.208409
vn 0.927718 -0.309686 -0.208409
vn 0.927718 -0.309686 -0.208409
vn 0.927718 -0.309686 -0.208409
s off
f 6/1/1 7/2/2 3/3/3
f 3/3/4 8/4/5 9/5/6
f 4/6/7 5/7/8 1/8/9
f 1/8/10 5/7/11 2/9/12
f 7/2/13 8/10/14 3/3/15
f 9/11/16 6/1/17 3/3/18
f 1/12/19 2/13/20 12/14/21 13/15/22
f 2/13/23 5/16/24 10/17/25 12/14/26
f 10/18/27 11/19/28 9/5/29 8/4/30
f 13/15/31 11/20/32 4/21/33 1/12/34
f 4/6/35 11/19/36 10/18/37 5/7/38
f 12/14/39 10/17/40 8/10/41 7/2/42
f 13/15/43 12/14/44 7/2/45 6/1/46
f 9/11/47 11/20/48 13/15/49 6/1/50
f 19/22/51 20/23/52 16/24/53
f 16/24/54 21/25/55 22/26/56
f 17/27/57 18/28/58 14/29/59
f 14/29/60 18/28/61 15/30/62
f 20/23/63 21/31/64 16/24/65
f 22/32/66 19/22/67 16/24/68
f 19/22/69 25/33/70 26/34/71 20/23/72
f 26/34/73 23/35/74 21/31/75 20/23/76
f 22/26/77 21/25/78 23/36/79 24/37/80
f 25/33/81 24/38/82 17/39/83 14/40/84
f 24/37/85 23/36/86 18/28/87 17/27/88
f 22/32/89 24/38/90 25/33/91 19/22/92
f 26/34/93 25/33/94 14/40/95 15/41/96
f 15/41/97 18/42/98 23/35/99 26/34/100
f 32/43/101 33/44/102 29/45/103
f 29/45/104 34/46/105 35/47/106
f 31/48/107 28/49/108 30/50/109
f 30/50/110 28/49/111 27/51/112
f 33/44/113 34/52/114 29/45/115
f 35/53/116 32/43/117 29/45/118
f 32/43/119 38/54/120 39/55/121 33/44/122
f 33/44/123 39/55/124 36/56/125 34/52/126
f 35/47/127 34/46/128 36/57/129 37/58/130
f 37/59/131 38/54/132 32/43/133 35/53/134
f 37/58/135 36/57/136 31/48/137 30/50/138
f 30/60/139 27/61/140 38/54/141 37/59/142
f 39/55/143 38/54/144 27/61/145 28/62/146
f 36/56/147 39/55/148 28/62/149 31/63/150
