# This file uses centimeters as units for non-parametric coordinates.

v 10.251341 -11.044239 -2.694244
v 6.886311 -11.044239 -6.686707
v 10.593420 35.167274 -17.913361
v 12.361984 -11.044239 4.303360
v 3.219442 -11.044239 1.544952
v 11.641474 25.961781 -11.208801
v 8.631010 24.489193 -11.563416
v 6.782284 25.525837 -6.461411
v 12.826500 26.783714 -6.450272
v 10.880886 14.513054 -5.431061
v 7.247448 14.344378 -7.631989
v 4.227161 13.540392 -0.227509
v 12.698784 13.712015 1.139755
v 3.392744 -11.044239 8.920288
v 6.177568 -11.044239 7.132416
v 13.258400 34.019470 21.453934
v -1.623373 -11.044239 6.048431
v 5.443506 -11.044239 2.245102
v 8.610086 25.986042 15.772781
v 11.209332 25.371990 12.776947
v 8.127146 27.555141 11.118927
v 5.527487 28.169365 14.115448
v 4.719272 15.828743 12.263718
v 8.380537 15.302067 8.634186
v 4.860692 16.943340 4.993820
v -0.578308 17.315311 9.460678
v 2.737312 -11.044239 -4.215622
v -6.769056 -11.044239 -0.032654
v -19.593475 35.646095 -22.208328
v 6.571407 -11.044239 -2.739410
v 0.864000 -11.044239 8.803635
v -7.173529 22.098427 -14.203262
v -12.175360 21.807156 -9.963150
v -8.047552 23.666916 -6.540451
v -3.044834 23.957939 -10.780258
v -0.914793 9.040680 -8.723679
v -8.949804 8.052101 -3.453217
v -2.403269 7.701864 2.971954
v 4.122257 10.265913 -5.224533
vt 0.177016 0.298518
vt 0.177016 0.298518
vt 0.177016 0.298518
vt 0.177016 0.298518
vt 0.177016 0.298518
vt 0.177016 0.298518
vt 0.177016 0.298518
vt 0.177016 0.298518
vt 0.177016 0.298518
vt 0.177016 0.298518
vt 0.177016 0.298518
vt 0.177016 0.298518
vt 0.177016 0.298518
vt 0.177016 0.298518
vt 0.177016 0.298518
vt 0.177016 0.298518
vt 0.177016 0.298518
vt 0.177016 0.298518
vt 0.177016 0.298518
vt 0.177016 0.298518
vt 0.177016 0.298518
vt 0.177016 0.298518
vt 0.177016 0.298518
vt 0.177016 0.298518
vt 0.177016 0.298518
vt 0.177016 0.298518
vt 0.177016 0.298518
vt 0.177016 0.298518
vt 0.177016 0.298518
vt 0.177016 0.298518
vt 0.177016 0.298518
vt 0.177016 0.298518
vt 0.177016 0.298518
vt 0.177016 0.298518
vt 0.177016 0.298518
vt 0.177016 0.298518
vt 0.177016 0.298518
vt 0.177016 0.298518
vt 0.177016 0.298518
vt 0.177016 0.298518
vt 0.177016 0.298518
vt 0.177016 0.298518
vt 0.177016 0.298518
vt 0.177016 0.298518
vt 0.177016 0.298518
vt 0.177016 0.298518
vt 0.177016 0.298518
vt 0.177016 0.298518
vt 0.177016 0.298518
vt 0.177016 0.298518
vt 0.177016 0.298518
vt 0.177016 0.298518
vt 0.177016 0.298518
vt 0.177016 0.298518
vt 0.177016 0.298518
vt 0.177016 0.298518
vt 0.177016 0.298518
vt 0.177016 0.298518
vt 0.177016 0.298518
vt 0.177016 0.298518
vt 0.177016 0.298518
vt 0.177016 0.298518
vt 0.177016 0.298518
vn 0.348508 -0.525571 -0.776091
vn 0.348508 -0.525571 -0.776091
vn 0.348508 -0.525571 -0.776091
vn -0.163616 0.780833 0.602935
vn -0.163616 0.780833 0.602935
vn -0.163616 0.780833 0.602935
vn -0.000000 -1.000000 -0.000004
vn -0.000000 -1.000000 -0.000004
vn -0.000000 -1.000000 -0.000004
vn -0.000000 -1.000000 -0.000004
vn -0.000000 -1.000000 -0.000004
vn -0.000000 -1.000000 -0.000004
vn -0.941566 -0.026636 -0.335773
vn -0.941566 -0.026636 -0.335773
vn -0.941566 -0.026636 -0.335772
vn 0.971029 -0.058242 -0.231757
vn 0.971029 -0.058242 -0.231757
vn 0.971029 -0.058242 -0.231757
vn 0.413783 -0.407196 -0.814233
vn 0.413783 -0.407196 -0.814233
vn 0.413783 -0.407196 -0.814233
vn 0.413783 -0.407196 -0.814233
vn -0.931873 -0.000791 -0.362783
vn -0.931873 -0.000791 -0.362783
vn -0.931873 -0.000791 -0.362783
vn -0.931873 -0.000791 -0.362783
vn -0.130091 0.489599 0.862189
vn -0.130091 0.489599 0.862189
vn -0.130091 0.489599 0.862189
vn -0.130091 0.489599 0.862189
vn 0.952305 -0.171936 -0.252098
vn 0.952305 -0.171936 -0.252098
vn 0.952305 -0.171936 -0.252098
vn 0.952305 -0.171936 -0.252098
vn 0.661825 -0.076187 -0.745777
vn 0.661825 -0.076187 -0.745777
vn 0.661825 -0.076187 -0.745777
vn 0.661825 -0.076187 -0.745777
vn -0.919516 0.004363 -0.393028
vn -0.919516 0.004363 -0.393028
vn -0.919516 0.004363 -0.393028
vn -0.919516 0.004363 -0.393028
vn -0.227547 0.117949 0.966597
vn -0.227547 0.117949 0.966597
vn -0.227547 0.117949 0.966597
vn -0.227547 0.117949 0.966597
vn 0.957962 -0.058676 -0.280830
vn 0.957962 -0.058676 -0.280830
vn 0.957962 -0.058676 -0.280830
vn 0.957962 -0.058676 -0.280830
vn 0.483687 -0.674399 0.557883
vn 0.483687 -0.674399 0.557883
vn 0.483687 -0.674399 0.557883
vn -0.268499 0.870977 -0.411470
vn -0.268499 0.870977 -0.411470
vn -0.268499 0.870977 -0.411470
vn -0.000001 -1.000000 -0.000003
vn -0.000001 -1.000000 -0.000003
vn -0.000001 -1.000000 -0.000003
vn -0.000002 -1.000000 -0.000003
vn -0.000002 -1.000000 -0.000003
vn -0.000002 -1.000000 -0.000003
vn 0.650005 0.455980 -0.607927
vn 0.650005 0.455980 -0.607927
vn 0.650005 0.455980 -0.607927
vn -0.578479 -0.220627 0.785293
vn -0.578479 -0.220627 0.785293
vn -0.578479 -0.220627 0.785293
vn 0.609339 -0.449521 0.653175
vn 0.609339 -0.449521 0.653175
vn 0.609339 -0.449521 0.653175
vn 0.609339 -0.449521 0.653175
vn 0.672645 0.160399 -0.722372
vn 0.672645 0.160399 -0.722371
vn 0.672645 0.160399 -0.722371
vn 0.672645 0.160399 -0.722371
vn -0.529001 0.553857 -0.642962
vn -0.529001 0.553857 -0.642962
vn -0.529001 0.553857 -0.642962
vn -0.529001 0.553857 -0.642962
vn -0.500219 -0.096363 0.860520
vn -0.500219 -0.096363 0.860520
vn -0.500219 -0.096363 0.860520
vn -0.500219 -0.096363 0.860520
vn 0.632140 -0.126488 0.764460
vn 0.632140 -0.126488 0.764460
vn 0.632141 -0.126488 0.764460
vn 0.632141 -0.126488 0.764460
vn 0.895509 0.009168 -0.444949
vn 0.895509 0.009168 -0.444949
vn 0.895509 0.009168 -0.444949
vn 0.895509 0.009168 -0.444949
vn -0.546189 0.107308 -0.830760
vn -0.546190 0.107308 -0.830760
vn -0.546189 0.107308 -0.830760
vn -0.546189 0.107308 -0.830760
vn -0.490426 -0.095814 0.866200
vn -0.490426 -0.095814 0.866200
vn -0.490426 -0.095814 0.866200
vn -0.490426 -0.095814 0.866200
vn -0.426134 -0.716787 -0.551930
vn -0.426134 -0.716787 -0.551930
vn -0.426134 -0.716787 -0.551930
vn 0.309179 0.851613 0.423278
vn 0.309179 0.851613 0.423278
vn 0.309179 0.851613 0.423278
vn -0.000000 -1.000000 -0.000005
vn -0.000000 -1.000000 -0.000005
vn -0.000000 -1.000000 -0.000005
vn -0.000000 -1.000000 -0.000005
vn -0.000000 -1.000000 -0.000005
vn -0.000000 -1.000000 -0.000005
vn -0.681832 0.244540 0.689424
vn -0.681832 0.244540 0.689424
vn -0.681832 0.244540 0.689424
vn 0.609922 0.094222 -0.786840
vn 0.609922 0.094222 -0.786840
vn 0.609922 0.094222 -0.786840
vn -0.480256 -0.493976 -0.724805
vn -0.480256 -0.493976 -0.724805
vn -0.480256 -0.493976 -0.724805
vn -0.480256 -0.493976 -0.724805
vn -0.680649 0.179745 0.710217
vn -0.680649 0.179745 0.710217
vn -0.680649 0.179745 0.710217
vn -0.680649 0.179745 0.710217
vn 0.542775 0.554826 0.630526
vn 0.542775 0.554826 0.630526
vn 0.542775 0.554826 0.630526
vn 0.542775 0.554826 0.630526
vn 0.607375 -0.022747 -0.794089
vn 0.607375 -0.022747 -0.794089
vn 0.607375 -0.022747 -0.794089
vn 0.607375 -0.022747 -0.794089
vn -0.442494 -0.283605 -0.850745
vn -0.442494 -0.283605 -0.850745
vn -0.442494 -0.283605 -0.850745
vn -0.442494 -0.283605 -0.850745
vn -0.729787 0.073327 0.679731
vn -0.729787 0.073327 0.679731
vn -0.729787 0.073327 0.679731
vn -0.729787 0.073327 0.679731
vn 0.803187 0.267173 0.532456
vn 0.803187 0.267173 0.532456
vn 0.803187 0.267173 0.532456
vn 0.803187 0.267173 0.532456
vn 0.496358 -0.085837 -0.863864
vn 0.496358 -0.085837 -0.863864
vn 0.496358 -0.085837 -0.863864
vn 0.496358 -0.085837 -0.863864
s off
f 6/1/1 7/2/2 3/3/3
f 3/3/4 8/4/5 9/5/6
f 4/6/7 5/7/8 1/8/9
f 1/8/10 5/7/11 2/9/12
f 7/2/13 8/10/14 3/3/15
f 9/11/16 6/1/17 3/3/18
f 6/1/19 10/12/20 11/13/21 7/2/22
f 11/13/23 12/14/24 8/10/25 7/2/26
f 13/15/27 9/5/28 8/4/29 12/16/30
f 9/11/31 13/17/32 10/12/33 6/1/34
f 10/12/35 1/18/36 2/19/37 11/13/38
f 2/19/39 5/20/40 12/14/41 11/13/42
f 4/6/43 13/15/44 12/16/45 5/7/46
f 10/12/47 13/17/48 4/21/49 1/18/50
f 19/22/51 20/23/52 16/24/53
f 16/24/54 21/25/55 22/26/56
f 17/27/57 18/28/58 14/29/59
f 14/29/60 18/28/61 15/30/62
f 20/23/63 21/31/64 16/24/65
f 22/32/66 19/22/67 16/24/68
f 23/33/69 24/34/70 20/23/71 19/22/72
f 24/34/73 25/35/74 21/31/75 20/23/76
f 26/36/77 22/26/78 21/25/79 25/37/80
f 22/32/81 26/38/82 23/33/83 19/22/84
f 14/39/85 15/40/86 24/34/87 23/33/88
f 15/40/89 18/41/90 25/35/91 24/34/92
f 17/27/93 26/36/94 25/37/95 18/28/96
f 23/33/97 26/38/98 17/42/99 14/39/100
f 32/43/101 33/44/102 29/45/103
f 29/45/104 34/46/105 35/47/106
f 31/48/107 28/49/108 30/50/109
f 30/50/110 28/49/111 27/51/112
f 33/44/113 34/52/114 29/45/115
f 35/53/116 32/43/117 29/45/118
f 36/54/119 37/55/120 33/44/121 32/43/122
f 37/55/123 38/56/124 34/52/125 33/44/126
f 39/57/127 35/47/128 34/46/129 38/58/130
f 35/53/131 39/59/132 36/54/133 32/43/134
f 27/60/135 28/61/136 37/55/137 36/54/138
f 28/61/139 31/62/140 38/56/141 37/55/142
f 30/50/143 39/57/144 38/58/145 31/48/146
f 36/54/147 39/59/148 30/63/149 27/60/150
