# This file uses centimeters as units for non-parametric coordinates.

v 5.367928 -11.044239 -2.634659
v -2.786713 -11.044239 0.924301
v 3.998146 46.490135 26.501007
v 6.979666 -11.044239 1.437988
v 0.289154 -11.044245 5.002289
v 3.709641 38.876877 13.974533
v -1.875305 38.422470 15.857544
v -0.169563 33.985538 19.763870
v 5.415211 34.440250 17.881088
v -0.316601 -11.044245 0.753937
v 1.688595 -11.044245 -6.371078
v -15.107708 75.892685 -6.101837
v -3.807182 -11.044245 -0.527649
v -1.802444 -11.044245 -7.651978
v -5.570297 59.702072 -1.218643
v -3.778992 59.611397 -5.902786
v -7.740059 53.172073 -7.826080
v -9.531746 53.262901 -3.142929
v 2.603722 -11.044245 -3.586044
v 3.191872 -11.044245 -10.455856
v 4.515285 70.604057 -21.316986
v -1.517448 -11.044245 -3.742218
v -0.929489 -11.044245 -10.611115
v 8.011894 51.147728 -11.645050
v 7.013683 44.751091 -14.723282
v 1.269646 43.370705 -14.992828
v 2.268677 49.767380 -11.915131
v -8.790817 -11.044245 -2.520523
v -0.004997 -11.044239 4.091949
v -39.041290 32.545872 6.382065
v -8.889847 -11.044245 -6.392822
v 1.277161 -11.044245 -2.479935
v -26.333542 20.708561 5.929184
v -24.289398 22.669544 8.695984
v -23.365097 25.837345 4.665909
v -24.785919 23.067722 1.441269
v 7.808399 16.679516 8.655548
v 5.373030 20.658569 2.871094
v -4.162903 20.468483 6.525497
v -0.933018 16.599483 12.313080
v -5.480194 29.943810 -1.021194
v -3.375893 29.936600 -7.208633
v 0.932846 34.759598 -5.267334
v -1.171093 34.766788 0.920868
v 6.002150 24.884949 -6.399460
v 5.825996 20.603256 -11.425476
v 0.472813 19.941597 -11.606216
v 0.649414 24.223309 -6.580582
v -11.772594 11.014280 9.441681
v -17.394753 9.326458 3.925323
v -15.814342 11.865549 -2.306137
v -10.297241 14.407625 2.619629
vt 0.177016 0.298518
vt 0.177016 0.298518
vt 0.177016 0.298518
vt 0.177016 0.298518
vt 0.177016 0.298518
vt 0.177016 0.298518
vt 0.177016 0.298518
vt 0.177016 0.298518
vt 0.177016 0.298518
vt 0.177016 0.298518
vt 0.177016 0.298518
vt 0.177016 0.298518
vt 0.177016 0.298518
vt 0.177016 0.298518
vt 0.177016 0.298518
vt 0.177016 0.298518
vt 0.177016 0.298518
vt 0.177016 0.298518
vt 0.177016 0.298518
vt 0.177016 0.298518
vt 0.177016 0.298518
vt 0.177016 0.298518
vt 0.177016 0.298518
vt 0.177016 0.298518
vt 0.177016 0.298518
vt 0.177016 0.298518
vt 0.177016 0.298518
vt 0.177016 0.298518
vt 0.177016 0.298518
vt 0.177016 0.298518
vt 0.177016 0.298518
vt 0.177016 0.298518
vt 0.177016 0.298518
vt 0.177016 0.298518
vt 0.177016 0.298518
vt 0.177016 0.298518
vt 0.177016 0.298518
vt 0.177016 0.298518
vt 0.177016 0.298518
vt 0.177016 0.298518
vt 0.177016 0.298518
vt 0.177016 0.298518
vt 0.177016 0.298518
vt 0.177016 0.298518
vt 0.177016 0.298518
vt 0.177016 0.298518
vt 0.177016 0.298518
vt 0.177016 0.298518
vt 0.177016 0.298518
vt 0.177016 0.298518
vt 0.177016 0.298518
vt 0.177016 0.298518
vt 0.177016 0.298518
vt 0.177016 0.298518
vt 0.177016 0.298518
vt 0.177016 0.298518
vt 0.177016 0.298518
vt 0.177016 0.298518
vt 0.177016 0.298518
vt 0.177016 0.298518
vt 0.177016 0.298518
vt 0.177016 0.298518
vt 0.177016 0.298518
vt 0.177016 0.298518
vt 0.177016 0.298518
vt 0.177016 0.298518
vt 0.177016 0.298518
vt 0.177016 0.298518
vt 0.177016 0.298518
vt 0.177016 0.298518
vt 0.177016 0.298518
vt 0.177016 0.298518
vt 0.177016 0.298518
vt 0.177016 0.298518
vt 0.177016 0.298518
vt 0.177016 0.298518
vt 0.177016 0.298518
vt 0.177016 0.298518
vt 0.177016 0.298518
vt 0.177016 0.298518
vt 0.177016 0.298518
vt 0.177016 0.298518
vt 0.177016 0.298518
vt 0.177016 0.298518
vn -0.236554 0.832702 -0.500648
vn -0.236554 0.832702 -0.500648
vn -0.236554 0.832702 -0.500648
vn 0.309487 -0.528904 0.790240
vn 0.309487 -0.528904 0.790240
vn 0.309487 -0.528904 0.790240
vn -0.033040 -0.993317 0.110590
vn -0.033040 -0.993317 0.110590
vn -0.033040 -0.993317 0.110590
vn -0.029898 -0.998389 0.048214
vn -0.029898 -0.998389 0.048214
vn -0.029898 -0.998389 0.048214
vn -0.891056 0.054191 0.450647
vn -0.891056 0.054191 0.450647
vn -0.891056 0.054191 0.450647
vn 0.960375 0.227807 -0.160575
vn 0.960375 0.227807 -0.160575
vn 0.960375 0.227807 -0.160575
vn -0.321124 0.470026 -0.822165
vn -0.321124 0.470026 -0.822165
vn -0.321124 0.470026 -0.822165
vn -0.321124 0.470026 -0.822165
vn -0.919019 -0.101551 0.380908
vn -0.919019 -0.101551 0.380908
vn -0.919019 -0.101551 0.380908
vn -0.919019 -0.101551 0.380908
vn 0.344851 -0.389277 0.854132
vn 0.344851 -0.389277 0.854132
vn 0.344851 -0.389277 0.854132
vn 0.344851 -0.389277 0.854132
vn 0.951183 0.226000 -0.210179
vn 0.951183 0.226000 -0.210179
vn 0.951183 0.226000 -0.210179
vn 0.951183 0.226000 -0.210179
vn 0.784100 0.549121 0.289227
vn 0.784100 0.549121 0.289227
vn 0.784100 0.549121 0.289227
vn -0.901875 -0.266659 -0.339875
vn -0.901875 -0.266659 -0.339875
vn -0.901875 -0.266659 -0.339874
vn -0.071141 -0.996499 -0.043920
vn -0.071141 -0.996499 -0.043920
vn -0.071141 -0.996499 -0.043920
vn -0.071139 -0.996499 -0.043918
vn -0.071139 -0.996499 -0.043918
vn -0.071139 -0.996499 -0.043918
vn 0.228253 0.147058 -0.962431
vn 0.228253 0.147058 -0.962432
vn 0.228253 0.147058 -0.962431
vn -0.446199 0.007062 0.894906
vn -0.446199 0.007062 0.894906
vn -0.446199 0.007062 0.894906
vn 0.955399 0.012752 0.295044
vn 0.955399 0.012752 0.295044
vn 0.955399 0.012752 0.295044
vn 0.955399 0.012752 0.295044
vn 0.368432 0.026716 -0.929271
vn 0.368432 0.026716 -0.929271
vn 0.368432 0.026716 -0.929271
vn 0.368432 0.026716 -0.929271
vn -0.954675 -0.038453 -0.295157
vn -0.954675 -0.038453 -0.295157
vn -0.954675 -0.038453 -0.295157
vn -0.954675 -0.038453 -0.295157
vn -0.378190 -0.007574 0.925697
vn -0.378190 -0.007574 0.925697
vn -0.378190 -0.007574 0.925697
vn -0.378190 -0.007574 0.925697
vn 0.945809 0.008611 -0.324609
vn 0.945809 0.008611 -0.324609
vn 0.945809 0.008611 -0.324609
vn -0.990191 0.129937 0.051360
vn -0.990191 0.129937 0.051360
vn -0.990191 0.129937 0.051360
vn -0.071143 -0.996499 -0.043922
vn -0.071143 -0.996499 -0.043922
vn -0.071143 -0.996499 -0.043922
vn -0.071148 -0.996498 -0.043920
vn -0.071148 -0.996498 -0.043920
vn -0.071148 -0.996498 -0.043920
vn 0.102206 -0.236558 -0.966227
vn 0.102206 -0.236558 -0.966227
vn 0.102206 -0.236558 -0.966227
vn -0.143051 0.419829 0.896259
vn -0.143051 0.419829 0.896259
vn -0.143051 0.419829 0.896259
vn 0.996179 -0.071650 -0.049944
vn 0.996179 -0.071650 -0.049944
vn 0.996179 -0.071650 -0.049944
vn 0.996179 -0.071650 -0.049944
vn 0.066130 -0.141530 -0.987723
vn 0.066130 -0.141530 -0.987723
vn 0.066130 -0.141530 -0.987723
vn 0.066130 -0.141530 -0.987723
vn -0.996067 0.060644 0.064596
vn -0.996067 0.060644 0.064596
vn -0.996067 0.060644 0.064596
vn -0.996067 0.060644 0.064596
vn -0.077354 0.204692 0.975765
vn -0.077354 0.204692 0.975765
vn -0.077354 0.204692 0.975765
vn -0.077354 0.204692 0.975765
vn -0.463300 -0.524692 0.714179
vn -0.463300 -0.524692 0.714179
vn -0.463300 -0.524692 0.714179
vn 0.219823 0.690068 -0.689553
vn 0.219823 0.690069 -0.689553
vn 0.219823 0.690069 -0.689553
vn -0.071137 -0.996499 -0.043912
vn -0.071137 -0.996499 -0.043912
vn -0.071137 -0.996499 -0.043912
vn -0.071137 -0.996499 -0.043918
vn -0.071137 -0.996499 -0.043918
vn -0.071137 -0.996499 -0.043918
vn 0.363776 0.689970 0.625787
vn 0.363776 0.689969 0.625787
vn 0.363776 0.689970 0.625787
vn -0.589795 -0.613054 -0.525648
vn -0.589795 -0.613054 -0.525649
vn -0.589795 -0.613054 -0.525649
vn -0.555287 -0.465540 0.689151
vn -0.555287 -0.465540 0.689151
vn -0.555287 -0.465540 0.689151
vn -0.555287 -0.465540 0.689151
vn 0.884367 0.372099 0.281848
vn 0.884367 0.372099 0.281848
vn 0.884367 0.372099 0.281848
vn 0.884367 0.372099 0.281848
vn 0.436235 0.332853 -0.836007
vn 0.436234 0.332853 -0.836007
vn 0.436235 0.332853 -0.836007
vn 0.436235 0.332853 -0.836007
vn -0.931297 -0.293666 -0.215512
vn -0.931297 -0.293666 -0.215512
vn -0.931297 -0.293666 -0.215512
vn -0.931297 -0.293666 -0.215512
vn 0.931534 0.062189 -0.358297
vn 0.931534 0.062189 -0.358297
vn 0.931534 0.062189 -0.358297
vn 0.931534 0.062189 -0.358297
vn -0.371641 0.150243 -0.916138
vn -0.371641 0.150243 -0.916138
vn -0.371641 0.150243 -0.916138
vn -0.371641 0.150243 -0.916138
vn -0.856334 -0.144938 0.495665
vn -0.856334 -0.144938 0.495665
vn -0.856334 -0.144938 0.495665
vn -0.856334 -0.144938 0.495665
vn 0.406303 -0.226831 0.885136
vn 0.406303 -0.226831 0.885136
vn 0.406303 -0.226831 0.885136
vn 0.406303 -0.226831 0.885136
vn -0.925350 -0.186691 -0.329960
vn -0.925350 -0.186691 -0.329960
vn -0.925350 -0.186691 -0.329960
vn -0.925350 -0.186691 -0.329960
vn 0.370988 0.045856 -0.927505
vn 0.370988 0.045856 -0.927505
vn 0.370988 0.045856 -0.927505
vn 0.370988 0.045856 -0.927505
vn 0.925208 0.187693 0.329789
vn 0.925208 0.187693 0.329789
vn 0.925208 0.187693 0.329789
vn 0.925208 0.187693 0.329789
vn -0.428724 0.004697 0.903423
vn -0.428724 0.004697 0.903423
vn -0.428724 0.004697 0.903423
vn -0.428724 0.004697 0.903423
vn 0.994212 -0.086531 0.063681
vn 0.994212 -0.086531 0.063681
vn 0.994212 -0.086531 0.063681
vn 0.994212 -0.086531 0.063681
vn 0.036727 -0.034582 -0.998727
vn 0.036727 -0.034582 -0.998727
vn 0.036727 -0.034582 -0.998727
vn 0.036727 -0.034582 -0.998727
vn -0.997288 0.052009 -0.052071
vn -0.997288 0.052009 -0.052071
vn -0.997288 0.052009 -0.052071
vn -0.997288 0.052009 -0.052071
vn -0.038626 0.083342 0.995772
vn -0.038626 0.083342 0.995772
vn -0.038626 0.083342 0.995772
vn -0.038626 0.083342 0.995772
vn -0.507306 -0.510394 0.694362
vn -0.507306 -0.510394 0.694362
vn -0.507306 -0.510393 0.694362
vn -0.507306 -0.510393 0.694362
vn -0.754228 -0.485585 -0.441981
vn -0.754228 -0.485585 -0.441981
vn -0.754228 -0.485585 -0.441981
vn -0.754228 -0.485585 -0.441981
vn 0.400746 0.573222 -0.714716
vn 0.400746 0.573222 -0.714716
vn 0.400746 0.573222 -0.714716
vn 0.400746 0.573222 -0.714716
vn 0.590717 0.625997 0.509098
vn 0.590717 0.625997 0.509098
vn 0.590717 0.625997 0.509098
vn 0.590717 0.625997 0.509098
s off
f 6/1/1 7/2/2 3/3/3
f 3/3/4 8/4/5 9/5/6
f 5/6/7 2/7/8 4/8/9
f 4/8/10 2/7/11 1/9/12
f 7/2/13 8/10/14 3/3/15
f 9/11/16 6/1/17 3/3/18
f 6/1/19 38/12/20 39/13/21 7/2/22
f 39/13/23 40/14/24 8/10/25 7/2/26
f 9/5/27 8/4/28 40/15/29 37/16/30
f 9/11/31 37/17/32 38/12/33 6/1/34
f 15/18/35 16/19/36 12/20/37
f 12/20/38 17/21/39 18/22/40
f 14/23/41 11/24/42 13/25/43
f 13/25/44 11/24/45 10/26/46
f 16/19/47 17/27/48 12/20/49
f 18/28/50 15/18/51 12/20/52
f 44/29/53 10/30/54 11/31/55 43/32/56
f 11/31/57 14/33/58 42/34/59 43/32/60
f 41/35/61 42/36/62 14/23/63 13/25/64
f 44/29/65 41/37/66 13/38/67 10/30/68
f 24/39/69 25/40/70 21/41/71
f 21/41/72 26/42/73 27/43/74
f 22/44/75 23/45/76 19/46/77
f 19/46/78 23/45/79 20/47/80
f 25/40/81 26/48/82 21/41/83
f 27/49/84 24/39/85 21/41/86
f 45/50/87 46/51/88 25/40/89 24/39/90
f 46/51/91 47/52/92 26/48/93 25/40/94
f 48/53/95 27/43/96 26/42/97 47/54/98
f 27/49/99 48/55/100 45/50/101 24/39/102
f 33/56/103 34/57/104 30/58/105
f 30/58/106 35/59/107 36/60/108
f 31/61/109 32/62/110 28/63/111
f 28/63/112 32/62/113 29/64/114
f 34/57/115 35/65/116 30/58/117
f 36/66/118 33/56/119 30/58/120
f 28/67/121 29/68/122 49/69/123 50/70/124
f 52/71/125 49/69/126 29/68/127 32/72/128
f 31/61/129 51/73/130 52/74/131 32/62/132
f 31/75/133 28/67/134 50/70/135 51/76/136
f 37/17/137 4/77/138 1/78/139 38/12/140
f 39/13/141 38/12/142 1/78/143 2/79/144
f 2/79/145 5/80/146 40/14/147 39/13/148
f 37/16/149 40/15/150 5/6/151 4/8/152
f 18/22/153 17/21/154 42/36/155 41/35/156
f 43/32/157 42/34/158 17/27/159 16/19/160
f 15/18/161 44/29/162 43/32/163 16/19/164
f 18/28/165 41/37/166 44/29/167 15/18/168
f 19/81/169 20/82/170 46/51/171 45/50/172
f 20/82/173 23/83/174 47/52/175 46/51/176
f 22/44/177 48/53/178 47/54/179 23/45/180
f 45/50/181 48/55/182 22/84/183 19/81/184
f 50/70/185 49/69/186 34/57/187 33/56/188
f 51/76/189 50/70/190 33/56/191 36/66/192
f 52/74/193 51/73/194 36/60/195 35/59/196
f 34/57/197 49/69/198 52/71/199 35/65/200
